<svg xmlns="http://www.w3.org/2000/svg" width="146" height="40" fill="none"><path fill="#D2D2D4" d="M51.558 25.771c-.872 0-1.47-.687-1.47-1.7v-4.62h3.59v-3.263h-3.582l-.034-3.744h-3.966l.034 12.469c0 2.524 1.675 4.242 4.137 4.242 1.3 0 2.53-.19 3.505-.636v-3.177a4.652 4.652 0 0 1-2.214.43zm9.471-9.789c-3.693 0-6.53 2.885-6.53 6.715 0 3.796 2.837 6.44 6.752 6.44 2.206 0 4.274-.79 5.54-2.421l-3.043-1.391c-.616.567-1.556.79-2.394.79-1.368 0-2.735-.704-2.923-2.147h9.078a6.163 6.163 0 0 0 .205-1.58c0-3.933-2.855-6.406-6.676-6.406h-.009zm-2.599 5.462c.12-1.718 1.351-2.508 2.702-2.508 1.521 0 2.667.859 2.667 2.336v.172H58.43zM42.327 25.77c-.872 0-1.47-.687-1.47-1.7v-4.62h3.59v-3.263h-3.582l-.034-3.744h-3.966l.034 12.469c0 2.524 1.675 4.242 4.137 4.242 1.3 0 2.53-.19 3.505-.636v-3.177a4.614 4.614 0 0 1-2.214.43zm-13.934-9.789c-3.402 0-6.975 2.25-6.975 6.784 0 3.778 2.53 6.423 5.727 6.423 1.83 0 3.214-.738 4.12-2.044l.12 1.82h3.838V22.92c0-4.603-3.376-6.939-6.83-6.939zm0 9.72c-1.726 0-2.974-1.287-2.974-3.108 0-1.82 1.23-3.108 2.974-3.108 1.607 0 2.94 1.408 2.94 3.108 0 1.7-1.333 3.109-2.94 3.109zm79.532-9.497-2.769 8.072-2.804-8.072h-4.308l5.163 12.744h3.864l5.163-12.744h-4.309zm10.275-.223c-3.693 0-6.531 2.885-6.531 6.715 0 3.796 2.838 6.44 6.754 6.44 2.205 0 4.274-.79 5.539-2.421l-3.043-1.391c-.616.567-1.556.79-2.394.79-1.368 0-2.735-.704-2.923-2.147h9.078a6.194 6.194 0 0 0 .205-1.58c0-3.933-2.855-6.406-6.685-6.406zm2.77 5.462h-5.368c.119-1.718 1.35-2.508 2.701-2.508 1.521 0 2.667.859 2.667 2.336v.172zM94.983 10.606c-1.402 0-2.462.945-2.462 2.268 0 1.322 1.06 2.3 2.462 2.3 1.401 0 2.461-.96 2.461-2.3 0-1.34-1.043-2.268-2.462-2.268zM76.98 15.965a4.64 4.64 0 0 0-4.018 2.198l-.136-1.958h-3.83V28.95h3.966v-6.681c.086-1.597 1.368-2.817 2.77-2.817 1.573 0 2.29 1.185 2.29 2.68v6.8h3.95v-7.419c0-3.229-1.957-5.547-4.992-5.547zm12.104 9.806c-.872 0-1.47-.687-1.47-1.7v-4.62h3.59v-3.263h-3.59l-.034-3.744h-3.967l.035 12.469c0 2.524 1.675 4.242 4.137 4.242 1.3 0 2.53-.19 3.505-.636v-3.177a4.614 4.614 0 0 1-2.206.43zm3.898-9.566V28.95h4V16.205a3.607 3.607 0 0 1-4 0z"/></svg>