<svg xmlns="http://www.w3.org/2000/svg" width="146" height="40" fill="none"><path fill="#D2D2D4" d="M82.598 17.385c1.59 0 3.097.978 3.416 3.09h-7.091c.297-1.855 1.676-3.09 3.67-3.09m3.188 6.214c-.54.847-1.586 1.498-3.019 1.498-1.972 0-3.478-1.085-3.84-3.003h8.888a5.51 5.51 0 0 0 .066-.831c0-2.983-2.076-5.625-5.282-5.625-3.31 0-5.557 2.45-5.557 5.604 0 3.193 2.27 5.604 5.684 5.604 2.121 0 3.733-.959 4.666-2.41l-1.606-.837zm-9.618-12.585h-1.845v15.554h1.845V11.014zm21.977 9.014v6.54h-1.838v-6.434c0-1.747-.997-2.727-2.63-2.727-1.697 0-3.075 1-3.075 3.515v5.648h-1.852V15.917h1.846v1.53c.785-1.257 1.951-1.811 3.438-1.811 2.481 0 4.114 1.661 4.114 4.39m10.173 1.214c0-2.172-1.634-3.813-3.775-3.813-2.122 0-3.755 1.64-3.755 3.814 0 2.173 1.633 3.814 3.755 3.814s3.775-1.647 3.775-3.814zm1.845-10.226v15.554h-1.845v-1.833c-.849 1.304-2.207 2.111-4.009 2.111-2.948 0-5.366-2.45-5.366-5.605 0-3.155 2.418-5.604 5.366-5.604 1.802 0 3.162.809 4.009 2.11v-6.733h1.845zm3.332 0h-1.845v15.554h1.845V11.014zM71.03 21.24c0-2.178-1.633-3.813-3.775-3.813-2.12 0-3.755 1.635-3.755 3.813s1.64 3.814 3.755 3.814c2.14 0 3.775-1.647 3.775-3.814zm1.847-5.325v10.652H71.03v-1.833c-.847 1.304-2.205 2.111-4.009 2.111-2.948 0-5.367-2.45-5.367-5.605 0-3.155 2.42-5.604 5.367-5.604 1.802 0 3.162.81 4.008 2.11v-1.831h1.848z"/><path fill="#D2D2D4" d="M58.917 24.517a5.716 5.716 0 0 1-6.207-1.492 5.791 5.791 0 0 1-1.003-6.334 5.764 5.764 0 0 1 3.228-2.999 5.714 5.714 0 0 1 6.518 1.865l1.597-1.177a7.743 7.743 0 0 0-2.266-2 7.704 7.704 0 0 0-8.572.554A7.792 7.792 0 0 0 50.77 23.82a7.704 7.704 0 0 0 10.836 1.45l.036-.026-1.063-1.688a5.804 5.804 0 0 1-1.66.96m63.482-8.601v6.047c0 1.955-1.132 3.193-2.859 3.193-1.728 0-2.978-1.238-2.978-3.193v-6.047h-1.874v5.865c0 3.074 1.907 5.07 4.848 5.07 2.542 0 2.939-1.617 2.939-1.658v2.176c0 2.156-.937 3.372-2.88 3.372a2.859 2.859 0 0 1-1.894-.705 2.889 2.889 0 0 1-.961-1.785l-1.669.589a4.667 4.667 0 0 0 1.643 2.595 4.629 4.629 0 0 0 2.894 1.003c3.019 0 4.671-2 4.671-5.069V15.915h-1.88zm-85.665 6.207c-.708.632-1.594 1.418-3.2 1.418h-.96a4.119 4.119 0 0 1-2.975-1.192 4.09 4.09 0 0 1-1.145-2.897v-1.32a4.09 4.09 0 0 1 1.145-2.896 4.131 4.131 0 0 1 2.975-1.192h.96c1.608 0 2.492.785 3.2 1.412.737.652 1.372 1.222 3.066 1.222.258 0 .516-.021.772-.063l-.008-.015a5.885 5.885 0 0 0-.35-.735l-1.133-1.97a5.83 5.83 0 0 0-2.13-2.138 5.797 5.797 0 0 0-2.907-.782h-2.269c-1.02 0-2.023.27-2.907.782a5.83 5.83 0 0 0-2.129 2.138l-1.133 1.97a5.87 5.87 0 0 0 0 5.843l1.133 1.97a5.831 5.831 0 0 0 2.129 2.137 5.798 5.798 0 0 0 2.907.784h2.266c1.02 0 2.023-.27 2.907-.784a5.832 5.832 0 0 0 2.129-2.138l1.133-1.967c.134-.236.251-.482.35-.734l.008-.014a4.591 4.591 0 0 0-.772-.065c-1.694 0-2.328.566-3.065 1.22"/><path fill="#D2D2D4" d="M33.537 15.238h-.96c-1.769 0-2.929 1.269-2.929 2.892v1.32c0 1.625 1.162 2.894 2.929 2.894h.96c2.577 0 2.374-2.64 6.265-2.64.369 0 .736.033 1.099.102a5.848 5.848 0 0 0 0-2.03c-.363.067-.73.101-1.099.101-3.892 0-3.688-2.639-6.265-2.639z"/><path fill="#D2D2D4" d="M43.136 20.77a5.413 5.413 0 0 0-2.234-.965v.02c-.07.389-.18.77-.325 1.137a4.25 4.25 0 0 1 1.847.764.053.053 0 0 1 0 .018 10.022 10.022 0 0 1-1.849 3.437 9.972 9.972 0 0 1-3.018 2.464A9.928 9.928 0 0 1 26.541 26.5a9.999 9.999 0 0 1-2.452-3.032 10.044 10.044 0 0 1-.707-7.63 10.016 10.016 0 0 1 1.848-3.435 9.966 9.966 0 0 1 3.018-2.463 9.921 9.921 0 0 1 7.593-.71 9.948 9.948 0 0 1 4.107 2.484 10.01 10.01 0 0 1 2.476 4.124.055.055 0 0 0 0 .02 4.245 4.245 0 0 1-1.847.762c.145.368.254.75.325 1.139a.055.055 0 0 0 0 .018 5.428 5.428 0 0 0 2.234-.964c.637-.471.513-1.01.417-1.326a11.206 11.206 0 0 0-5.452-6.61 11.121 11.121 0 0 0-8.508-.803 11.18 11.18 0 0 0-6.58 5.477 11.264 11.264 0 0 0-.799 8.547 11.204 11.204 0 0 0 5.452 6.61 11.12 11.12 0 0 0 8.509.802 11.157 11.157 0 0 0 4.604-2.787 11.225 11.225 0 0 0 2.774-4.625c.096-.317.22-.852-.417-1.325"/><path fill="#D2D2D4" d="M40.573 16.62a4.83 4.83 0 0 1-.77.065c-1.694 0-2.33-.566-3.065-1.221-.71-.633-1.594-1.42-3.2-1.42h-.961a4.118 4.118 0 0 0-2.975 1.194 4.09 4.09 0 0 0-1.146 2.895v1.32a4.09 4.09 0 0 0 1.146 2.897 4.133 4.133 0 0 0 2.975 1.192h.96c1.607 0 2.49-.786 3.201-1.412.735-.652 1.37-1.221 3.064-1.221.258 0 .516.02.771.062.148-.369.259-.752.33-1.143v-.02a6.074 6.074 0 0 0-1.1-.1c-3.893 0-3.689 2.64-6.266 2.64h-.96c-1.769 0-2.928-1.27-2.928-2.895v-1.322c0-1.624 1.16-2.892 2.928-2.892h.96c2.577 0 2.374 2.639 6.265 2.639a5.95 5.95 0 0 0 1.1-.102v-.018c-.07-.39-.18-.77-.325-1.138"/><path fill="#D2D2D4" d="M40.573 16.62a4.83 4.83 0 0 1-.77.065c-1.694 0-2.33-.566-3.065-1.221-.71-.633-1.594-1.42-3.2-1.42h-.961a4.118 4.118 0 0 0-2.975 1.194 4.09 4.09 0 0 0-1.146 2.895v1.32a4.09 4.09 0 0 0 1.146 2.897 4.133 4.133 0 0 0 2.975 1.192h.96c1.607 0 2.49-.786 3.201-1.412.735-.652 1.37-1.221 3.064-1.221.258 0 .516.02.771.062.148-.369.259-.752.33-1.143v-.02a6.074 6.074 0 0 0-1.1-.1c-3.893 0-3.689 2.64-6.266 2.64h-.96c-1.769 0-2.928-1.27-2.928-2.895v-1.322c0-1.624 1.16-2.892 2.928-2.892h.96c2.577 0 2.374 2.639 6.265 2.639a5.95 5.95 0 0 0 1.1-.102v-.018c-.07-.39-.18-.77-.325-1.138"/></svg>