<svg xmlns="http://www.w3.org/2000/svg" width="146" height="40" fill="none"><path fill="#D2D2D4" d="M22.322 9.404h7.329c4.678 0 7.64 3.76 7.64 8.929 0 2.82-.935 5.326-2.806 6.892-1.248 1.097-2.963 1.723-5.146 1.723h-7.017V9.404zm6.783 14.49c3.353 0 4.6-2.037 4.6-5.483 0-3.446-1.481-5.874-4.522-5.874h-3.352v11.435h3.274v-.078zm8.732-3.212c0-3.759 2.651-6.657 6.55-6.657 3.898 0 6.549 2.898 6.549 6.657 0 3.76-2.651 6.658-6.55 6.658-3.898 0-6.549-2.977-6.549-6.658zm9.668 0c0-2.427-1.17-4.15-3.196-4.15-2.027 0-3.197 1.644-3.197 4.15 0 2.507 1.091 4.073 3.197 4.073 2.105 0 3.196-1.645 3.196-4.073zm4.054 0c0-3.759 2.417-6.657 6.238-6.657 3.274 0 5.223 1.88 5.691 4.621h-3.274c-.234-1.096-1.092-1.958-2.261-1.958-2.028 0-3.041 1.567-3.041 3.994 0 2.35.935 3.995 2.963 3.995 1.325 0 2.26-.705 2.495-2.115h3.274c-.234 2.663-2.26 4.778-5.613 4.778-3.977-.079-6.472-2.977-6.472-6.658zm20.817 6.266V25.46h-.078c-.857 1.175-1.793 1.801-3.586 1.801-2.807 0-4.366-1.8-4.366-4.542v-8.38h3.274v7.832c0 1.488.624 2.27 2.105 2.27 1.56 0 2.495-1.174 2.495-2.819v-7.284h3.353V26.87h-3.197v.078zM91.712 9.482h3.352v3.133h-3.352V9.482zm0 4.856h3.352V26.87h-3.352V14.338zm4.678 12.923h3.274c.234.784 1.014 1.41 2.495 1.41 1.871 0 2.807-.94 2.807-2.584v-1.41h-.078c-.702.861-1.715 1.488-3.275 1.488-2.806 0-5.535-2.193-5.535-6.03 0-3.76 2.26-6.11 5.379-6.11 1.56 0 2.729.627 3.431 1.645h.078v-1.332h3.196V25.93c0 1.801-.545 2.976-1.481 3.838-1.013 1.018-2.651 1.41-4.522 1.41-3.274 0-5.38-1.41-5.77-3.917zm8.81-7.205c0-1.802-1.014-3.368-2.963-3.368-1.715 0-2.807 1.332-2.807 3.446 0 2.115 1.092 3.368 2.807 3.368 2.105 0 2.963-1.566 2.963-3.446zm7.718-3.995c.936-1.331 2.105-2.036 3.743-2.036 2.573 0 4.288 1.958 4.288 4.7v8.223h-3.353v-7.675c0-1.332-.779-2.272-2.183-2.272-1.481 0-2.573 1.175-2.573 2.898v7.127h-3.196V14.495h3.274v1.566zm-28.769.314c-2.573-.549-3.742-1.018-3.742-2.428 0-1.253 1.247-2.037 3.118-2.037 1.716 0 3.041.784 3.353 2.428h3.43c-.39-3.367-2.884-5.247-6.783-5.247-3.898 0-6.705 1.801-6.705 5.247 0 3.682 2.885 4.465 6.004 5.17 2.65.626 4.288.94 4.288 2.663 0 1.644-1.56 2.27-3.353 2.27-2.495 0-3.664-.86-3.898-2.975h-3.43c.155 3.68 2.806 5.795 7.562 5.795 3.898 0 6.783-1.958 6.783-5.56-.078-3.681-3.04-4.543-6.627-5.326zm38.203.313c-.701 0-1.325-.627-1.325-1.331 0-.705.624-1.332 1.325-1.332.702 0 1.326.627 1.326 1.332 0 .704-.624 1.331-1.326 1.331zm0-2.428c-.623 0-1.091.47-1.091 1.097 0 .626.468 1.096 1.091 1.096.624 0 1.092-.47 1.092-1.096 0-.627-.468-1.097-1.092-1.097z"/><path fill="#D2D2D4" d="M121.884 14.651h.468c.156 0 .311 0 .389.079.078.078.156.156.156.313 0 .235-.156.313-.234.392l.312.548h-.312l-.233-.47h-.312v.47h-.234V14.65zm.234.235v.392h.234c.078 0 .233 0 .233-.235 0 0 0-.157-.077-.157h-.39z"/></svg>