<svg xmlns="http://www.w3.org/2000/svg" width="146" height="40" fill="none"><path fill="#D2D2D4" d="M125.748 19.413c.625.663.946 1.56.946 2.707v6.006h-2.338v-5.325c0-.663-.196-1.2-.571-1.595-.375-.395-.892-.592-1.553-.592-.767.018-1.392.27-1.838.789-.446.52-.678 1.165-.678 1.972v4.734h-2.321v-13.34h2.321v5.558c.66-1.255 1.802-1.9 3.444-1.918 1.089.018 1.946.34 2.588 1.004zm-13.493 1.076c-.767 0-1.392.269-1.874.788-.482.52-.714 1.22-.714 2.044 0 .861.25 1.56.714 2.08.482.52 1.107.79 1.874.79 1.143 0 1.999-.377 2.57-1.13l1.446 1.2a4.243 4.243 0 0 1-1.695 1.435c-.697.34-1.518.502-2.446.502-.946 0-1.767-.197-2.498-.61a4.248 4.248 0 0 1-1.696-1.72c-.41-.736-.607-1.578-.607-2.546 0-.969.215-1.83.607-2.564a4.182 4.182 0 0 1 1.714-1.722c.731-.412 1.57-.61 2.516-.61.875 0 1.642.144 2.32.467.679.323 1.232.735 1.66 1.309l-1.392 1.345c-.643-.7-1.481-1.058-2.499-1.058zm-6.407-1.973v9.61h-2.32v-1.524a3.47 3.47 0 0 1-1.321 1.22c-.535.287-1.16.43-1.856.43-.91 0-1.696-.215-2.374-.627a4.16 4.16 0 0 1-1.588-1.74c-.375-.753-.572-1.613-.572-2.582 0-.95.197-1.81.572-2.545a4.22 4.22 0 0 1 1.588-1.722c.678-.412 1.464-.61 2.356-.61.696 0 1.321.144 1.874.431.535.287.999.7 1.339 1.22v-1.543l2.302-.018zm-3.159 7.047c.482-.466.767-1.094.839-1.883v-.681c-.072-.771-.357-1.399-.839-1.883-.482-.466-1.107-.717-1.856-.717-.803 0-1.446.269-1.946.825-.5.538-.75 1.255-.767 2.115.018.861.268 1.56.767 2.116.5.538 1.143.825 1.946.825.749 0 1.374-.233 1.856-.717zm-9.227-5.81c.767.88 1.142 2.098 1.142 3.694 0 .305 0 .538-.018.7h-7.032c.16.68.464 1.218.946 1.613.482.394 1.07.591 1.767.591.482 0 .964-.09 1.392-.286.446-.18.839-.449 1.16-.807l1.25 1.309a4.698 4.698 0 0 1-1.732 1.219c-.678.287-1.446.43-2.267.43-.981 0-1.838-.197-2.57-.61a4.181 4.181 0 0 1-1.713-1.72c-.41-.736-.607-1.578-.607-2.547 0-.95.197-1.81.607-2.546a4.45 4.45 0 0 1 1.713-1.739c.732-.412 1.571-.627 2.517-.627 1.535.018 2.677.448 3.445 1.326zm-.964 2.815c-.018-.699-.25-1.273-.696-1.685-.446-.412-1.018-.627-1.75-.627-.678 0-1.249.215-1.695.627-.464.413-.732.986-.839 1.703h4.98v-.018zm-9.817-3.64c.554-.322 1.196-.501 1.928-.52v2.26c-.981-.054-1.767.161-2.356.7-.589.52-.874 1.218-.874 2.115v4.643h-2.32v-9.61h2.32v1.847a3.383 3.383 0 0 1 1.302-1.434zm-5.372 8.607c-.767.466-1.552.7-2.391.7-.821 0-1.5-.252-2.017-.736-.518-.484-.785-1.201-.785-2.151v-9.09l2.302-.27v2.923h2.73v1.703h-2.73v4.339c0 .448.09.753.25.95.16.18.41.287.75.287.356 0 .803-.125 1.356-.394l.535 1.739zm-9.477-9.019h2.303v5.397c0 3.138-2.178 4.321-4.391 4.321s-4.39-1.165-4.39-4.32v-5.398h2.302v5.469c0 1.201.892 2.187 2.088 2.187 1.196 0 2.088-.986 2.088-2.187v-5.469zm-11.226-2.294a6.19 6.19 0 0 1 2.392 2.312c.589.986.874 2.08.874 3.264 0 1.2-.285 2.294-.874 3.28a6.41 6.41 0 0 1-2.392 2.35c-1.017.573-2.142.86-3.373.86-1.232 0-2.356-.287-3.374-.86a6.284 6.284 0 0 1-2.391-2.35c-.59-.986-.875-2.08-.875-3.28 0-1.202.286-2.295.875-3.264a6.316 6.316 0 0 1 2.391-2.313 6.926 6.926 0 0 1 3.374-.842c1.231 0 2.356.287 3.373.842zm-5.48 1.882a4.278 4.278 0 0 0-1.552 1.542 4.278 4.278 0 0 0-.571 2.17 4.278 4.278 0 0 0 2.124 3.729 4.131 4.131 0 0 0 2.106.573c.731 0 1.463-.197 2.088-.573a4.097 4.097 0 0 0 1.517-1.56 4.225 4.225 0 0 0 .553-2.17 4.5 4.5 0 0 0-.553-2.169 4.052 4.052 0 0 0-1.517-1.542 4.067 4.067 0 0 0-2.088-.574c-.714 0-1.446.197-2.106.574zM29.12 10c3.284 0 8.228 1.022 10.548 3.335.59.591 1.357 1.739 1.357 3.442 0 3.012-2.41 7.62-5.051 10.31-1.374 1.38-3.552 3.191-6.497 3.191-2.873 0-5.069-1.972-5.693-2.6-2.427-2.456-4.177-6.167-4.177-9.646 0-2.187.625-4.105 2.196-5.701C23.266 10.843 25.783 10 29.12 10zm4.07 11.995c1.106-1.112 1.41-2.492 1.41-3.245 0-.556-.143-1.363-.821-2.044-1.053-1.058-2.196-1.345-3.463-1.345-1.588 0-2.66.502-3.373 1.219-.553.556-1.035 1.434-1.035 2.672 0 1.237.642 2.42 1.356 3.137.66.663 1.678 1.148 2.73 1.148 1.054 0 2.089-.43 3.196-1.542z"/></svg>