<svg xmlns="http://www.w3.org/2000/svg" width="146" height="41" fill="none"><path fill="#fff" fill-rule="evenodd" d="M27.963 8.076h16.465a4.116 4.116 0 0 1 2.923 1.216 4.153 4.153 0 0 1 1.21 2.935v16.54c0 2.293-1.85 4.152-4.133 4.152H27.963c-2.283 0-4.132-1.86-4.132-4.152v-16.54c0-2.292 1.85-4.15 4.132-4.15zm14.801 20.327c.72 0 1.304-.587 1.304-1.31l-.003-13.19c0-.723-.584-1.31-1.305-1.31H29.633a1.298 1.298 0 0 0-.923.385 1.31 1.31 0 0 0-.381.927v13.187c0 .724.584 1.31 1.304 1.31h13.131z" clip-rule="evenodd"/><path fill="#fff" d="M33.572 23.866a.747.747 0 0 1-.743-.752v-5.265a.755.755 0 0 1 .461-.698.744.744 0 0 1 .288-.058h5.248a.747.747 0 0 1 .692.467c.038.092.057.19.057.289v5.263a.754.754 0 0 1-.749.756l-5.254-.002zm27.573-4.476c-.765-.21-1.49-.407-2.053-.659-1.041-.468-1.526-1.116-1.526-2.04 0-1.745 1.68-2.53 3.353-2.53 1.59 0 2.978.66 3.91 1.858l.063.082 1.344-1.056-.065-.082c-1.239-1.584-3.075-2.451-5.17-2.451-1.396 0-2.675.378-3.6 1.066-1.042.766-1.591 1.876-1.591 3.2 0 3.08 2.886 3.83 5.207 4.435 2.348.622 3.787 1.094 3.787 2.892 0 1.771-1.426 2.915-3.631 2.915-1.09 0-3.11-.29-4.38-2.238l-.058-.092-1.414 1.028.056.084c1.2 1.824 3.27 2.872 5.688 2.872 3.284 0 5.492-1.863 5.492-4.632 0-3.17-3.002-3.991-5.412-4.652z"/><path fill="#fff" fill-rule="evenodd" d="M77.27 18.75v-1.666h1.58v15.833h-1.58v-6.186c-.903 1.243-2.257 1.923-3.847 1.923-3.005 0-5.105-2.417-5.105-5.906 0-3.49 2.105-5.926 5.105-5.926 1.58 0 2.933.684 3.846 1.929zm-7.286 3.978c0 3.23 1.842 4.382 3.566 4.382h.003c2.257 0 3.716-1.735 3.716-4.382 0-2.647-1.461-4.358-3.72-4.358-2.628 0-3.565 2.251-3.565 4.358z" clip-rule="evenodd"/><path fill="#fff" d="M89.296 17.084v6.25c0 2.187-1.491 3.776-3.546 3.776-1.706 0-2.536-1.017-2.536-3.109v-6.917h-1.58v7.242c0 2.712 1.467 4.33 3.924 4.33 1.531 0 2.846-.652 3.74-1.844v1.586h1.58V17.084h-1.582z"/><path fill="#fff" fill-rule="evenodd" d="M93.853 18.271c1.165-.919 2.747-1.446 4.337-1.446 2.511 0 4.009 1.255 4.005 3.36V28.4h-1.582v-1.255c-.798 1.004-1.952 1.513-3.437 1.513-2.42 0-3.925-1.33-3.925-3.468 0-2.78 2.608-3.217 3.72-3.403.18-.03.368-.058.555-.087l.007-.002c1.518-.234 3.085-.477 3.085-1.77 0-1.465-1.892-1.578-2.472-1.578-1.023 0-2.469.305-3.452 1.16l-.09.079-.825-1.258.074-.06zm1.048 6.83c0 1.813 1.699 2.01 2.43 2.01 1.59 0 3.289-.852 3.286-3.243V22.23c-.77.49-1.868.68-2.846.85l-.017.003-.49.088c-1.568.292-2.363.668-2.363 1.929z" clip-rule="evenodd"/><path fill="#fff" d="M111.349 17.297c-.375-.268-.967-.429-1.584-.429a4.02 4.02 0 0 0-3.202 1.658v-1.447h-1.58v11.313h1.58v-6.05c0-2.683 1.501-3.885 2.988-3.885.435-.006.866.086 1.261.269l.107.056.5-1.439-.07-.046z"/><path fill="#fff" fill-rule="evenodd" d="M111.812 22.771c0-3.5 2.173-5.946 5.28-5.946 2.992 0 5.083 2.171 5.077 5.284 0 .27-.015.541-.044.81l-.01.093h-8.638c.039 2.491 1.532 4.098 3.822 4.098 1.313 0 2.45-.536 3.203-1.511l.068-.09 1.145 1.025-.064.077c-.761.932-2.148 2.043-4.439 2.043-3.228 0-5.4-2.363-5.4-5.883zm5.236-4.422c-1.93 0-3.299 1.276-3.513 3.264h6.964c-.136-1.599-1.108-3.264-3.451-3.264z" clip-rule="evenodd"/></svg>