<svg width="72" height="73" viewBox="0 0 72 73" fill="none" xmlns="http://www.w3.org/2000/svg">
<g clip-path="url(#clip0_2902_53826)">
<rect y="0.109375" width="72" height="72" rx="36" fill="#141414"/>
<g clip-path="url(#clip1_2902_53826)">
<g clip-path="url(#clip2_2902_53826)">
<path d="M24.1719 26.7758C24.1719 26.0686 24.4528 25.3904 24.9529 24.8904C25.4529 24.3903 26.1311 24.1094 26.8383 24.1094H45.5054C46.2126 24.1094 46.8908 24.3903 47.3909 24.8904C47.8909 25.3904 48.1719 26.0686 48.1719 26.7758V45.4429C48.1719 46.1501 47.8909 46.8283 47.3909 47.3284C46.8908 47.8284 46.2126 48.1094 45.5054 48.1094H26.8383C26.1311 48.1094 25.4529 47.8284 24.9529 47.3284C24.4528 46.8283 24.1719 46.1501 24.1719 45.4429V26.7758ZM36.8383 34.7758H35.5054C34.975 34.7758 34.4663 34.5651 34.0912 34.19C33.7162 33.815 33.5054 33.3062 33.5054 32.7758C33.5054 32.2454 33.7162 31.7367 34.0912 31.3616C34.4663 30.9865 34.975 30.7758 35.5054 30.7758H36.8383C37.3687 30.7758 37.8775 30.9865 38.2525 31.3616C38.6276 31.7367 38.8383 32.2454 38.8383 32.7758H41.5054C41.5054 32.1629 41.3847 31.5561 41.1502 30.9899C40.9156 30.4237 40.5718 29.9092 40.1384 29.4759C39.705 29.0426 39.1905 28.6989 38.6243 28.4644C38.0581 28.2299 37.4512 28.1093 36.8383 28.1094H35.5054C34.8926 28.1094 34.2857 28.2301 33.7195 28.4646C33.1533 28.6991 32.6389 29.0429 32.2055 29.4762C31.7722 29.9096 31.4284 30.4241 31.1939 30.9903C30.9594 31.5565 30.8387 32.1633 30.8387 32.7762C30.8387 33.389 30.9594 33.9959 31.1939 34.5621C31.4284 35.1283 31.7722 35.6427 32.2055 36.0761C32.6389 36.5094 33.1533 36.8532 33.7195 37.0877C34.2857 37.3222 34.8926 37.4429 35.5054 37.4429H36.8383C37.3687 37.4429 37.8775 37.6537 38.2525 38.0287C38.6276 38.4038 38.8383 38.9125 38.8383 39.4429C38.8383 39.9734 38.6276 40.4821 38.2525 40.8572C37.8775 41.2322 37.3687 41.4429 36.8383 41.4429H35.5054C34.975 41.4429 34.4663 41.2322 34.0912 40.8572C33.7162 40.4821 33.5054 39.9734 33.5054 39.4429H30.8383C30.8383 40.0558 30.959 40.6627 31.1936 41.2289C31.4281 41.7951 31.7719 42.3095 32.2053 42.7429C32.6387 43.1762 33.1532 43.5199 33.7195 43.7544C34.2857 43.9888 34.8926 44.1095 35.5054 44.1094H36.8383C37.4512 44.1094 38.058 43.9887 38.6242 43.7541C39.1904 43.5196 39.7049 43.1759 40.1382 42.7425C40.5716 42.3092 40.9153 41.7947 41.1499 41.2285C41.3844 40.6623 41.5051 40.0554 41.5051 39.4426C41.5051 38.8297 41.3844 38.2229 41.1499 37.6567C40.9153 37.0905 40.5716 36.576 40.1382 36.1427C39.7049 35.7093 39.1904 35.3656 38.6242 35.131C38.058 34.8965 37.4512 34.7758 36.8383 34.7758Z" fill="url(#paint0_linear_2902_53826)"/>
</g>
</g>
<rect x="0.5" y="0.609375" width="71" height="71" rx="35.5" stroke="#2F2F33"/>
</g>
<defs>
<linearGradient id="paint0_linear_2902_53826" x1="36.1719" y1="29.8367" x2="36.1719" y2="49.6092" gradientUnits="userSpaceOnUse">
<stop stop-color="white"/>
<stop offset="1" stop-color="#4D4D4D"/>
</linearGradient>
<clipPath id="clip0_2902_53826">
<rect y="0.109375" width="72" height="72" rx="36" fill="white"/>
</clipPath>
<clipPath id="clip1_2902_53826">
<rect width="32" height="32" fill="white" transform="translate(20 20.1094)"/>
</clipPath>
<clipPath id="clip2_2902_53826">
<rect width="32" height="32" fill="white" transform="translate(20 20.1094)"/>
</clipPath>
</defs>
</svg>
