<svg width="124" height="124" viewBox="0 0 124 124" fill="none" xmlns="http://www.w3.org/2000/svg">
<g clip-path="url(#clip0_2902_53820)">
<rect width="124" height="124" rx="62" fill="#141414"/>
<g clip-path="url(#clip1_2902_53820)">
<g clip-path="url(#clip2_2902_53820)">
<path d="M60.289 82.2705L45.393 73.6836C44.8148 73.3589 44.3357 72.8833 44.007 72.3074C43.6763 71.7352 43.504 71.0853 43.5079 70.4244V53.5775C43.5079 52.9027 43.6745 52.2748 44.0077 51.6945C44.3363 51.1184 44.8154 50.6425 45.3937 50.3176L60.2897 41.7314C60.8622 41.3987 61.5126 41.2238 62.1748 41.2246C62.8405 41.2246 63.4691 41.3933 64.0599 41.7314L78.9559 50.3176C79.5341 50.6425 80.0132 51.1184 80.3419 51.6945C80.6751 52.2748 80.8417 52.9027 80.8417 53.5775V70.4244C80.8417 71.0992 80.6751 71.7264 80.3419 72.3074C80.0131 72.8833 79.534 73.3589 78.9559 73.6836L64.0599 82.2705C63.4873 82.603 62.8368 82.7776 62.1748 82.7766C61.5127 82.7776 60.8615 82.603 60.289 82.2705ZM61.0079 62.6705V79.9976L61.5448 80.3084C61.7548 80.4274 61.9648 80.4876 62.1748 80.4876C62.3848 80.4876 62.5948 80.4281 62.8048 80.3084L63.3417 79.9976V62.6705L78.5079 53.8876V53.3234C78.5061 53.1665 78.4678 53.0121 78.3959 52.8726C78.3221 52.7227 78.205 52.5984 78.0599 52.5156L77.1667 51.9976L62.1748 60.6636L47.1829 51.9976L46.2897 52.5156C46.1452 52.5992 46.0284 52.7233 45.9537 52.8726C45.8788 53.0238 45.8417 53.1736 45.8417 53.3234V53.8876L61.0079 62.6705Z" fill="url(#paint0_linear_2902_53820)"/>
</g>
</g>
<rect x="0.5" y="0.5" width="123" height="123" rx="61.5" stroke="#2F2F33"/>
</g>
<defs>
<linearGradient id="paint0_linear_2902_53820" x1="62.1748" y1="51.1408" x2="62.1748" y2="85.3736" gradientUnits="userSpaceOnUse">
<stop stop-color="white"/>
<stop offset="1" stop-color="#4D4D4D"/>
</linearGradient>
<clipPath id="clip0_2902_53820">
<rect width="124" height="124" rx="62" fill="white"/>
</clipPath>
<clipPath id="clip1_2902_53820">
<rect width="56" height="56" fill="white" transform="translate(34 34)"/>
</clipPath>
<clipPath id="clip2_2902_53820">
<rect width="56" height="56" fill="white" transform="translate(34 34)"/>
</clipPath>
</defs>
</svg>
