<svg xmlns="http://www.w3.org/2000/svg" width="747" height="746" fill="none"><mask id="b" fill="#fff"><path d="M373.5 1.746a1.74 1.74 0 0 1 1.746-1.742 373 373 0 0 1 371.25 371.25 1.74 1.74 0 0 1-1.742 1.746 1.752 1.752 0 0 1-1.75-1.746 369.534 369.534 0 0 0-28.123-139.659 369.539 369.539 0 0 0-80.099-119.877A369.522 369.522 0 0 0 375.246 3.496a1.753 1.753 0 0 1-1.746-1.75z"/></mask><path stroke="url(#a)" stroke-width="14" d="M373.5 1.746a1.74 1.74 0 0 1 1.746-1.742 373 373 0 0 1 371.25 371.25 1.74 1.74 0 0 1-1.742 1.746 1.752 1.752 0 0 1-1.75-1.746 369.534 369.534 0 0 0-28.123-139.659 369.539 369.539 0 0 0-80.099-119.877A369.522 369.522 0 0 0 375.246 3.496a1.753 1.753 0 0 1-1.746-1.75z" mask="url(#b)"/><defs><linearGradient id="a" x1="373.5" x2="686.939" y1="0" y2="304.814" gradientUnits="userSpaceOnUse"><stop offset=".06" stop-color="#fff"/><stop offset="1" stop-color="#737373" stop-opacity="0"/></linearGradient></defs></svg>