<svg width="558" height="493" viewBox="0 0 558 493" fill="none" xmlns="http://www.w3.org/2000/svg">
<g opacity="0.2">
<path d="M141.5 39.8281C141.5 34.3053 145.977 29.8281 151.5 29.8281C157.023 29.8281 161.5 34.3053 161.5 39.8281V341.828C161.5 347.351 157.023 351.828 151.5 351.828C145.977 351.828 141.5 347.351 141.5 341.828V39.8281Z" fill="white" stroke="black"/>
<path d="M273.5 10.8281C273.5 5.30527 277.977 0.828125 283.5 0.828125C289.023 0.828125 293.5 5.30527 293.5 10.8281V312.828C293.5 318.351 289.023 322.828 283.5 322.828C277.977 322.828 273.5 318.351 273.5 312.828V10.8281Z" fill="white" stroke="black"/>
<path d="M339.5 58.8281C339.5 53.3053 343.977 48.8281 349.5 48.8281C355.023 48.8281 359.5 53.3053 359.5 58.8281V361.828C359.5 367.351 355.023 371.828 349.5 371.828C343.977 371.828 339.5 367.351 339.5 361.828V58.8281Z" fill="white" stroke="black"/>
<path d="M405.5 105.828C405.5 100.305 409.977 95.8281 415.5 95.8281C421.023 95.8281 425.5 100.305 425.5 105.828V407.828C425.5 413.351 421.023 417.828 415.5 417.828C409.977 417.828 405.5 413.351 405.5 407.828V105.828Z" fill="white" stroke="black"/>
<path d="M471.5 50.8281C471.5 45.3053 475.977 40.8281 481.5 40.8281C487.023 40.8281 491.5 45.3053 491.5 50.8281V353.828C491.5 359.351 487.023 363.828 481.5 363.828C475.977 363.828 471.5 359.351 471.5 353.828V50.8281Z" fill="white" stroke="black"/>
<path d="M537.5 178.828C537.5 173.305 541.977 168.828 547.5 168.828C553.023 168.828 557.5 173.305 557.5 178.828V481.828C557.5 487.351 553.023 491.828 547.5 491.828C541.977 491.828 537.5 487.351 537.5 481.828V178.828Z" fill="white" stroke="black"/>
<path d="M75.5 105.828C75.5 100.305 79.9771 95.8281 85.5 95.8281C91.0229 95.8281 95.5 100.305 95.5 105.828V407.828C95.5 413.351 91.0229 417.828 85.5 417.828C79.9771 417.828 75.5 413.351 75.5 407.828V105.828Z" fill="white" stroke="black"/>
<path d="M0.5 171.828C0.5 166.305 4.97714 161.828 10.5 161.828C16.0229 161.828 20.5 166.305 20.5 171.828V473.828C20.5 479.351 16.0229 483.828 10.5 483.828C4.97714 483.828 0.5 479.351 0.5 473.828V171.828Z" fill="white" stroke="black"/>
<path d="M207.5 73.8281C207.5 68.3053 211.977 63.8281 217.5 63.8281C223.023 63.8281 227.5 68.3053 227.5 73.8281V376.828C227.5 382.351 223.023 386.828 217.5 386.828C211.977 386.828 207.5 382.351 207.5 376.828V73.8281Z" fill="white" stroke="black"/>
</g>
</svg>
