<svg xmlns="http://www.w3.org/2000/svg" width="530" height="300" fill="none"><rect width="314" height="129" x="108" y="29" fill="#0A0A0A" stroke="#3E3E41" rx="12"/><rect width="362" height="129" x="84" y="50" fill="#0A0A0A" stroke="#3E3E41" rx="12"/><rect width="404.125" height="191.133" x="63" y="72" fill="#0A0A0A" rx="12"/><rect width="404.125" height="191.133" x="63" y="72" stroke="#3E3E41" rx="12"/><path fill="#7545FF" d="M129.322 110.05a3.975 3.975 0 0 0-1.167-2.815l-12.863-12.849a3.98 3.98 0 0 0-2.812-1.163H88.202a3.98 3.98 0 0 0-3.979 3.979v53.058a3.979 3.979 0 0 0 3.98 3.979h37.14a3.978 3.978 0 0 0 3.979-3.979v-40.21z"/><path fill="#fff" fill-rule="evenodd" stroke="#7545FF" stroke-width=".663" d="M117.826 122.582v4.955c0 .89 0 1.624-.049 2.223-.05.621-.159 1.192-.433 1.729a4.42 4.42 0 0 1-1.932 1.932c-.536.273-1.108.382-1.729.433-.598.049-1.332.049-2.222.049h-9.377c-.89 0-1.624 0-2.222-.049-.621-.051-1.193-.16-1.73-.433a4.421 4.421 0 0 1-1.931-1.932c-.274-.537-.383-1.108-.433-1.729-.05-.599-.05-1.333-.05-2.223v-4.955c0-.889 0-1.624.05-2.222.05-.621.16-1.193.433-1.729a4.421 4.421 0 0 1 1.932-1.932c.536-.274 1.108-.383 1.729-.433.598-.049 1.332-.049 2.222-.049h9.377c.89 0 1.624 0 2.222.049.621.05 1.193.159 1.729.433a4.42 4.42 0 0 1 1.932 1.932c.274.536.383 1.108.433 1.729.049.598.049 1.333.049 2.222zm-2.252-2.042c-.04-.485-.111-.732-.199-.905a2.208 2.208 0 0 0-.967-.966c-.172-.089-.42-.16-.905-.2-.497-.041-1.141-.041-2.088-.041h-9.285c-.947 0-1.591 0-2.088.041-.485.04-.733.111-.905.2a2.2 2.2 0 0 0-.966.966c-.089.173-.16.42-.2.905-.04.497-.041 1.141-.041 2.088v4.864c0 .946 0 1.59.041 2.088.04.484.111.732.2.905.211.416.55.754.966.966.172.088.42.16.905.2.497.04 1.141.041 2.088.041h9.285c.947 0 1.591-.001 2.088-.041.485-.04.733-.112.905-.2.416-.212.755-.55.967-.966.088-.173.159-.421.199-.905.041-.498.042-1.142.042-2.088v-4.864c0-.947-.001-1.591-.042-2.088z" clip-rule="evenodd"/><path fill="#fff" stroke="#7545FF" stroke-width=".663" d="M103.457 121.746c0-.859.935-1.39 1.672-.949l5.524 3.303a1.117 1.117 0 0 1 0 1.917l-5.524 3.303a1.105 1.105 0 0 1-1.672-.949v-6.625z"/><path stroke="#6E7072" stroke-linecap="round" stroke-linejoin="round" stroke-width="1.99" d="M429.984 110.467a1.327 1.327 0 1 0 0-2.653 1.327 1.327 0 0 0 0 2.653zm9.285 0a1.327 1.327 0 1 0 0-2.653 1.327 1.327 0 0 0 0 2.653zm-18.57 0a1.326 1.326 0 1 0 0-2.652 1.326 1.326 0 0 0 0 2.652z"/><path fill="#A1A1A8" d="M86.463 206.074h-2.167l4.86-13.51h2.357l4.852 13.51h-2.158l-3.827-11.053h-.109l-3.808 11.053zm.363-5.286h7.009v1.705h-7.01v-1.705zm12.73-8.224v13.51h-2.04v-13.51h2.04zm6.32 13.51v-13.51h8.479v1.75h-6.438v4.071h5.984v1.741h-5.984v4.198h6.501v1.75h-8.542zm11.815-10.137 2.222 3.953 2.258-3.953h2.167l-3.156 5.078 3.174 5.059h-2.149l-2.294-3.79-2.258 3.79h-2.167l3.146-5.059-3.11-5.078h2.167zm7.916 13.927v-13.927h1.905v1.65h.163a6.96 6.96 0 0 1 .498-.734c.218-.279.52-.52.907-.726.387-.211.892-.317 1.515-.317.816 0 1.541.205 2.176.616.64.411 1.145 1.007 1.514 1.787.369.779.553 1.719.553 2.82 0 1.088-.181 2.025-.544 2.811-.363.779-.864 1.381-1.505 1.804-.635.417-1.363.626-2.185.626-.611 0-1.113-.103-1.506-.309a2.982 2.982 0 0 1-.915-.734 6.25 6.25 0 0 1-.508-.735h-.109v5.368h-1.959zm4.57-5.268c.587 0 1.076-.157 1.469-.471.393-.315.689-.741.889-1.279.205-.544.308-1.154.308-1.831 0-.671-.099-1.273-.299-1.805-.199-.532-.496-.952-.889-1.26-.393-.309-.885-.463-1.478-.463-.574 0-1.057.148-1.45.445-.393.29-.693.701-.898 1.233-.2.526-.299 1.142-.299 1.85 0 .707.102 1.329.308 1.867.206.538.505.959.898 1.261.399.302.879.453 1.441.453zm10.455 1.687c-.991 0-1.85-.215-2.575-.644a4.31 4.31 0 0 1-1.677-1.814c-.387-.785-.581-1.701-.581-2.747 0-1.04.191-1.956.572-2.747.386-.792.927-1.409 1.623-1.85.701-.448 1.523-.671 2.466-.671.574 0 1.13.093 1.668.281a4.018 4.018 0 0 1 1.451.888c.429.406.768.931 1.016 1.578.254.647.381 1.427.381 2.34v.707h-8.061v-1.478h7.045l-.916.49c0-.623-.096-1.173-.29-1.651a2.416 2.416 0 0 0-.87-1.115c-.381-.272-.856-.408-1.424-.408s-1.055.136-1.46.408a2.658 2.658 0 0 0-.916 1.079 3.399 3.399 0 0 0-.317 1.469v1.006c0 .696.121 1.285.363 1.769.241.483.577.852 1.006 1.106.435.254.94.381 1.514.381.375 0 .714-.055 1.016-.164a2.16 2.16 0 0 0 .798-.489c.224-.218.393-.487.508-.807l1.868.353a3.448 3.448 0 0 1-.798 1.433 3.87 3.87 0 0 1-1.442.961c-.574.224-1.23.336-1.968.336zm5.722-.209v-10.137h1.895v1.623h.109c.187-.544.514-.973.979-1.288a2.779 2.779 0 0 1 1.596-.48 5.9 5.9 0 0 1 .426.018c.169.006.305.015.408.027v1.886a2.877 2.877 0 0 0-.426-.073 5.078 5.078 0 0 0-.608-.036c-.465 0-.882.1-1.251.299-.363.194-.65.463-.861.807a2.225 2.225 0 0 0-.309 1.179v6.175h-1.958zm6.365 0v-10.137h1.959v10.137h-1.959zm.989-11.697c-.345 0-.638-.115-.88-.344a1.1 1.1 0 0 1-.363-.826c0-.326.121-.604.363-.834a1.23 1.23 0 0 1 .88-.344c.338 0 .628.114.87.344.248.23.372.508.372.834 0 .321-.124.596-.372.826a1.222 1.222 0 0 1-.87.344zm2.856 11.697v-10.137h1.877v1.668h.136c.211-.562.556-1 1.034-1.315.483-.32 1.057-.48 1.722-.48.677 0 1.243.16 1.696.48.459.315.801.753 1.025 1.315h.109c.241-.55.625-.985 1.151-1.306.526-.326 1.152-.489 1.877-.489.919 0 1.672.29 2.258.87.586.575.879 1.442.879 2.603v6.791h-1.976v-6.61c0-.689-.188-1.185-.562-1.487a2.05 2.05 0 0 0-1.342-.463c-.641 0-1.14.2-1.497.599-.35.393-.526.892-.526 1.496v6.465h-1.976v-6.737c0-.55-.17-.991-.508-1.324-.339-.332-.783-.499-1.333-.499-.375 0-.722.1-1.043.3a2.15 2.15 0 0 0-.761.816c-.188.344-.282.743-.282 1.197v6.247h-1.958zm20.012.209c-.991 0-1.85-.215-2.575-.644a4.306 4.306 0 0 1-1.678-1.814c-.387-.785-.58-1.701-.58-2.747 0-1.04.19-1.956.571-2.747.387-.792.928-1.409 1.623-1.85.702-.448 1.524-.671 2.467-.671.574 0 1.13.093 1.668.281a4.018 4.018 0 0 1 1.451.888c.429.406.768.931 1.015 1.578.254.647.381 1.427.381 2.34v.707h-8.061v-1.478h7.046l-.916.49c0-.623-.097-1.173-.29-1.651a2.418 2.418 0 0 0-.871-1.115c-.381-.272-.855-.408-1.423-.408-.569 0-1.055.136-1.46.408a2.658 2.658 0 0 0-.916 1.079 3.385 3.385 0 0 0-.317 1.469v1.006c0 .696.121 1.285.362 1.769.242.483.578.852 1.007 1.106.435.254.94.381 1.514.381.375 0 .713-.055 1.016-.164a2.16 2.16 0 0 0 .798-.489c.223-.218.393-.487.507-.807l1.868.353a3.426 3.426 0 0 1-.798 1.433c-.38.411-.861.732-1.441.961-.575.224-1.231.336-1.968.336zm7.68-6.221v6.012h-1.958v-10.137h1.904v1.668h.136c.229-.55.589-.985 1.079-1.306.489-.326 1.118-.489 1.886-.489.689 0 1.29.145 1.804.435.52.284.922.71 1.206 1.279.29.568.436 1.272.436 2.112v6.438h-1.959v-6.202c0-.731-.194-1.306-.58-1.723-.387-.423-.913-.635-1.578-.635a2.43 2.43 0 0 0-1.224.309 2.14 2.14 0 0 0-.844.861c-.205.375-.308.834-.308 1.378zm13.094-4.125v1.587h-5.532v-1.587h5.532zm-4.054-2.412h1.968v9.575c0 .466.097.807.29 1.025.194.211.505.317.934.317a3.764 3.764 0 0 0 .689-.072l.372 1.632a3.984 3.984 0 0 1-.653.154 4.666 4.666 0 0 1-.707.054c-.877 0-1.578-.245-2.104-.734-.526-.496-.789-1.155-.789-1.977v-9.974zm8.406 12.767a4.164 4.164 0 0 1-1.741-.354 2.906 2.906 0 0 1-1.233-1.052c-.302-.459-.453-1.018-.453-1.677 0-.574.108-1.043.326-1.406.224-.368.523-.662.898-.879a4.564 4.564 0 0 1 1.251-.49c.459-.109.931-.193 1.415-.254.61-.066 1.103-.124 1.478-.172.374-.048.646-.124.816-.227.175-.108.263-.281.263-.516v-.046c0-.574-.164-1.018-.49-1.333-.32-.314-.798-.471-1.433-.471-.659 0-1.182.145-1.568.435-.381.284-.644.607-.789.97l-1.859-.426c.224-.617.547-1.112.97-1.487a4.027 4.027 0 0 1 1.469-.834 5.732 5.732 0 0 1 1.741-.263c.405 0 .834.048 1.288.145a3.73 3.73 0 0 1 1.278.517c.405.248.735.604.988 1.07.254.465.381 1.067.381 1.804v6.728h-1.931v-1.387h-.073a2.65 2.65 0 0 1-.571.743c-.254.248-.58.454-.979.617-.399.163-.88.245-1.442.245zm.426-1.578c.55 0 1.019-.106 1.406-.317.387-.218.683-.502.888-.853.206-.35.309-.722.309-1.115v-1.315c-.073.067-.209.13-.408.191-.2.06-.427.112-.68.154-.254.042-.502.081-.744.118-.242.03-.444.054-.608.072-.38.055-.728.139-1.042.254a1.763 1.763 0 0 0-.762.49c-.187.211-.281.492-.281.843 0 .49.181.858.544 1.106.363.248.822.372 1.378.372zm11.181-8.777v1.587h-5.532v-1.587h5.532zm-4.054-2.412h1.968v9.575c0 .466.097.807.29 1.025.194.211.505.317.934.317a3.812 3.812 0 0 0 .689-.072l.372 1.632a3.984 3.984 0 0 1-.653.154 4.675 4.675 0 0 1-.707.054c-.877 0-1.578-.245-2.104-.734-.526-.496-.789-1.155-.789-1.977v-9.974zm5.468 12.549v-10.137h1.959v10.137h-1.959zm.988-11.697c-.344 0-.637-.115-.879-.344a1.1 1.1 0 0 1-.363-.826c0-.326.121-.604.363-.834.242-.23.535-.344.879-.344.339 0 .629.114.871.344.248.23.372.508.372.834 0 .321-.124.596-.372.826a1.222 1.222 0 0 1-.871.344zm7.109 11.906c-.949 0-1.78-.218-2.493-.653-.707-.435-1.258-1.046-1.651-1.832-.386-.786-.58-1.698-.58-2.738 0-1.052.194-1.971.58-2.757.393-.792.944-1.405 1.651-1.84.713-.436 1.544-.653 2.493-.653.955 0 1.787.217 2.494.653.707.435 1.257 1.048 1.65 1.84.393.786.59 1.705.59 2.757 0 1.04-.197 1.952-.59 2.738-.393.786-.943 1.397-1.65 1.832-.707.435-1.539.653-2.494.653zm0-1.66c.623 0 1.137-.163 1.542-.489.405-.327.704-.759.898-1.297a5.134 5.134 0 0 0 .299-1.777c0-.653-.1-1.251-.299-1.795-.194-.545-.493-.98-.898-1.306-.405-.327-.919-.49-1.542-.49-.616 0-1.127.163-1.532.49-.399.326-.698.761-.898 1.306a5.188 5.188 0 0 0-.299 1.795c0 .641.1 1.233.299 1.777.2.538.499.97.898 1.297.405.326.916.489 1.532.489zm8.116-4.561v6.012h-1.959v-10.137h1.904v1.668h.136c.23-.55.59-.985 1.079-1.306.49-.326 1.119-.489 1.886-.489.69 0 1.291.145 1.805.435.52.284.922.71 1.206 1.279.29.568.435 1.272.435 2.112v6.438h-1.958v-6.202c0-.731-.194-1.306-.581-1.723-.387-.423-.913-.635-1.578-.635-.453 0-.861.103-1.224.309a2.144 2.144 0 0 0-.843.861c-.205.375-.308.834-.308 1.378zm12.658 6.012v-13.51h4.824c1.046 0 1.913.193 2.602.58.69.381 1.206.904 1.551 1.569.345.659.517 1.402.517 2.23 0 .828-.172 1.575-.517 2.24-.345.659-.864 1.182-1.56 1.569-.689.38-1.559.571-2.611.571h-3.301V199.6h3.11c.671 0 1.212-.115 1.624-.345.417-.229.719-.544.906-.943.194-.405.29-.861.29-1.369 0-.514-.096-.967-.29-1.36a2.02 2.02 0 0 0-.906-.934c-.418-.224-.962-.335-1.633-.335h-2.566v11.76h-2.04zm12.894-13.51v13.51h-1.958v-13.51h1.958zm4.824 13.728a4.164 4.164 0 0 1-1.741-.354 2.906 2.906 0 0 1-1.233-1.052c-.302-.459-.453-1.018-.453-1.677 0-.574.108-1.043.326-1.406.224-.368.523-.662.898-.879a4.564 4.564 0 0 1 1.251-.49 13.37 13.37 0 0 1 1.414-.254 76.444 76.444 0 0 0 1.478-.172c.375-.048.647-.124.817-.227.175-.108.263-.281.263-.516v-.046c0-.574-.164-1.018-.49-1.333-.321-.314-.798-.471-1.433-.471-.659 0-1.182.145-1.568.435-.381.284-.644.607-.789.97l-1.859-.426c.223-.617.547-1.112.97-1.487a4.027 4.027 0 0 1 1.469-.834 5.732 5.732 0 0 1 1.741-.263c.405 0 .834.048 1.288.145a3.73 3.73 0 0 1 1.278.517c.405.248.735.604.988 1.07.254.465.381 1.067.381 1.804v6.728h-1.931v-1.387h-.073a2.65 2.65 0 0 1-.571.743c-.254.248-.58.454-.979.617-.399.163-.88.245-1.442.245zm.426-1.578c.55 0 1.019-.106 1.406-.317.387-.218.683-.502.888-.853.206-.35.309-.722.309-1.115v-1.315c-.073.067-.209.13-.408.191-.2.06-.427.112-.681.154-.253.042-.501.081-.743.118-.242.03-.444.054-.608.072-.38.055-.728.139-1.042.254a1.763 1.763 0 0 0-.762.49c-.187.211-.281.492-.281.843 0 .49.181.858.544 1.106.363.248.822.372 1.378.372zm11.18-8.777v1.587h-5.531v-1.587h5.531zm-4.053-2.412h1.968v9.575c0 .466.097.807.29 1.025.194.211.505.317.934.317a3.812 3.812 0 0 0 .689-.072l.372 1.632c-.2.066-.417.118-.653.154a4.675 4.675 0 0 1-.707.054c-.877 0-1.578-.245-2.104-.734-.526-.496-.789-1.155-.789-1.977v-9.974zm10.292 2.412v1.587h-5.722v-1.587h5.722zm-4.162 10.137v-11.316c0-.629.139-1.152.417-1.569a2.614 2.614 0 0 1 1.106-.943 3.5 3.5 0 0 1 1.478-.317c.405 0 .75.033 1.034.1.284.066.493.124.626.172l-.472 1.596a4.957 4.957 0 0 0-.353-.1 2.153 2.153 0 0 0-.526-.054c-.478 0-.823.121-1.034.362-.212.236-.317.581-.317 1.034v11.035h-1.959zm9.267.209c-.949 0-1.78-.218-2.494-.653-.707-.435-1.257-1.046-1.65-1.832-.387-.786-.58-1.698-.58-2.738 0-1.052.193-1.971.58-2.757.393-.792.943-1.405 1.65-1.84.714-.436 1.545-.653 2.494-.653.955 0 1.786.217 2.494.653.707.435 1.257 1.048 1.65 1.84.393.786.589 1.705.589 2.757 0 1.04-.196 1.952-.589 2.738-.393.786-.943 1.397-1.65 1.832-.708.435-1.539.653-2.494.653zm0-1.66c.623 0 1.136-.163 1.541-.489.405-.327.705-.759.898-1.297a5.11 5.11 0 0 0 .299-1.777c0-.653-.099-1.251-.299-1.795-.193-.545-.493-.98-.898-1.306-.405-.327-.918-.49-1.541-.49-.617 0-1.127.163-1.532.49-.399.326-.699.761-.898 1.306a5.165 5.165 0 0 0-.299 1.795c0 .641.099 1.233.299 1.777.199.538.499.97.898 1.297.405.326.915.489 1.532.489zm6.157 1.451v-10.137h1.895v1.623h.109c.187-.544.514-.973.979-1.288a2.779 2.779 0 0 1 1.596-.48 5.9 5.9 0 0 1 .426.018c.169.006.305.015.408.027v1.886a2.903 2.903 0 0 0-.426-.073 5.09 5.09 0 0 0-.608-.036c-.465 0-.882.1-1.251.299-.363.194-.65.463-.861.807a2.225 2.225 0 0 0-.309 1.179v6.175h-1.958zm6.365 0v-10.137h1.877v1.668h.136c.212-.562.556-1 1.034-1.315.484-.32 1.058-.48 1.723-.48.677 0 1.242.16 1.695.48.46.315.801.753 1.025 1.315h.109a2.84 2.84 0 0 1 1.151-1.306c.526-.326 1.152-.489 1.877-.489.919 0 1.672.29 2.258.87.587.575.88 1.442.88 2.603v6.791h-1.977v-6.61c0-.689-.187-1.185-.562-1.487a2.048 2.048 0 0 0-1.342-.463c-.641 0-1.14.2-1.496.599-.351.393-.526.892-.526 1.496v6.465h-1.977v-6.737c0-.55-.169-.991-.508-1.324-.338-.332-.783-.499-1.333-.499-.374 0-.722.1-1.042.3a2.145 2.145 0 0 0-.762.816 2.467 2.467 0 0 0-.281 1.197v6.247h-1.959z"/><path fill="#6E7072" d="M85.047 235.908v-1.01l3.824-4.197c.446-.487.81-.912 1.096-1.275.29-.362.505-.704.645-1.026.145-.321.218-.658.218-1.01 0-.409-.099-.762-.296-1.057a1.885 1.885 0 0 0-.785-.692 2.562 2.562 0 0 0-1.127-.241c-.445 0-.834.091-1.166.272-.326.182-.58.438-.761.77-.176.326-.265.71-.265 1.15h-1.336c0-.679.155-1.275.466-1.788a3.278 3.278 0 0 1 1.282-1.197 3.82 3.82 0 0 1 1.827-.435c.679 0 1.28.145 1.803.435.523.285.933.671 1.228 1.159.3.481.45 1.023.45 1.624 0 .425-.077.839-.232 1.243-.15.399-.415.848-.793 1.345-.373.497-.891 1.101-1.555 1.811l-2.595 2.782v.094h5.378v1.243h-7.306zm8.378-2.378v-1.15l5.083-8.052h.84v1.787h-.575l-3.84 6.078v.093h6.855v1.244h-8.363zm5.44 2.378v-11.58h1.338v11.58h-1.337zm7.913.156c-.663 0-1.262-.13-1.795-.389a3.34 3.34 0 0 1-1.275-1.088 2.918 2.918 0 0 1-.521-1.57h1.353c.051.518.287.948.707 1.29.425.342.935.513 1.531.513.477 0 .899-.111 1.267-.334.368-.223.658-.529.87-.917.213-.389.319-.832.319-1.329 0-.503-.111-.954-.334-1.353a2.477 2.477 0 0 0-2.215-1.29c-.358 0-.723.057-1.096.171a3.041 3.041 0 0 0-.91.42l-1.321-.156.7-5.704h6.015v1.243h-4.834l-.404 3.42h.062c.238-.192.536-.347.894-.466a3.387 3.387 0 0 1 1.127-.187c.71 0 1.342.169 1.896.505.555.337.99.798 1.306 1.384.321.58.482 1.246.482 1.997 0 .736-.166 1.394-.498 1.974a3.616 3.616 0 0 1-1.36 1.368c-.575.332-1.23.498-1.966.498zm9.156-11.736h1.678l3.933 9.606h.14l3.933-9.606h1.733v11.58h-1.376v-8.798h-.109l-3.645 8.798h-1.259l-3.598-8.798h-.109v8.798h-1.321v-11.58zm13.477 11.58v-11.58h4.057c.803 0 1.466.14 1.989.419.524.275.912.645 1.166 1.112.259.466.389.982.389 1.546 0 .498-.088.91-.265 1.236a2.164 2.164 0 0 1-.691.77 3.334 3.334 0 0 1-.925.419v.109c.357.021.715.145 1.072.373.358.228.656.552.894.972.244.419.366.935.366 1.546 0 .581-.133 1.104-.397 1.57-.264.462-.681.829-1.251 1.104-.565.269-1.306.404-2.223.404h-4.181zm1.399-1.243h2.782c.917 0 1.567-.179 1.951-.537.388-.357.583-.79.583-1.298 0-.393-.101-.756-.303-1.088a2.184 2.184 0 0 0-.848-.8c-.367-.202-.803-.303-1.305-.303h-2.86v4.026zm0-5.239h2.611c.42 0 .801-.083 1.142-.248.342-.171.612-.407.809-.708.202-.305.303-.66.303-1.065 0-.507-.176-.94-.529-1.298-.352-.357-.912-.536-1.678-.536h-2.658v3.855z" opacity=".6"/><rect width="30.508" height="30.508" x="414.73" y="198.737" fill="#212121" stroke="#3E3E41" stroke-width="1.326" rx="15.254"/><rect width="30.508" height="30.508" x="390.854" y="198.737" fill="#323232" stroke="#3E3E41" stroke-width="1.326" rx="15.254"/><path fill="#fff" d="M405.719 220.203c-.834 0-1.555-.133-2.164-.398-.61-.271-1.089-.646-1.438-1.125a3.26 3.26 0 0 1-.586-1.68h1.453c.042.438.19.799.446 1.086.26.286.591.5.992.641.401.14.833.211 1.297.211.536 0 1.018-.089 1.445-.266.432-.177.774-.425 1.024-.742.25-.318.374-.69.374-1.118 0-.385-.109-.697-.328-.937a2.424 2.424 0 0 0-.859-.586 8.744 8.744 0 0 0-1.141-.398l-1.422-.407c-.911-.26-1.632-.632-2.164-1.117-.526-.489-.789-1.127-.789-1.914 0-.651.175-1.219.524-1.703.354-.49.831-.87 1.429-1.141a4.893 4.893 0 0 1 2.016-.406c.75 0 1.417.136 2 .406.583.266 1.047.631 1.391 1.094.343.458.526.979.547 1.563h-1.375a1.776 1.776 0 0 0-.829-1.336c-.479-.318-1.072-.477-1.781-.477-.51 0-.958.083-1.343.25-.386.167-.685.396-.899.688-.213.291-.32.625-.32 1 0 .411.127.744.383 1 .255.25.557.445.906.586.354.14.674.252.961.335l1.172.329c.302.083.638.195 1.007.336.375.14.735.33 1.079.57.349.239.635.547.859.922.224.37.336.828.336 1.375 0 .625-.164 1.192-.492 1.703-.328.505-.805.909-1.43 1.211-.625.297-1.385.445-2.281.445zm22.312-.203v-11.641h1.407v10.391h5.421V220h-6.828z"/></svg>