<svg xmlns="http://www.w3.org/2000/svg" width="530" height="300" fill="none"><path stroke="#3E3E41" stroke-dasharray="4.44 4.44" stroke-width="1.111" d="M157.223 8.889v264.444M413.889 8.889v282.222"/><rect width="123.333" height="37.778" x="32.778" y="35.001" fill="#ED597E" fill-opacity=".13" stroke="#ED597E" stroke-width="1.111" rx="8.333"/><rect width="101.111" height="37.778" x="32.778" y="183.89" fill="#121212" stroke="#3E3E41" stroke-width="1.111" rx="8.333"/><rect width="256.667" height="37.778" x="157.223" y="35.001" fill="#121212" stroke="#3E3E41" stroke-width="1.111" rx="8.333"/><rect width="274.444" height="37.778" x="157.223" y="183.89" fill="#121212" stroke="#3E3E41" stroke-width="1.111" rx="8.333"/><rect width="167.778" height="37.778" x="157.223" y="72.778" fill="#121212" stroke="#3E3E41" stroke-width="1.111" rx="8.333"/><rect width="118.889" height="37.778" x="387.223" y="238.333" fill="#0CC6B0" stroke="#3E3E41" stroke-width="1.111" rx="8.333"/><rect width="91.111" height="37.778" x="413.889" y="35.001" fill="#121212" stroke="#3E3E41" stroke-width="1.111" rx="8.333"/><rect width="273.333" height="37.778" x="177.223" y="111.667" fill="#151023" stroke="#7545FF" stroke-width="1.111" rx="8.333"/><path fill="#fff" d="M50.587 59.605c-.809 0-1.489-.142-2.04-.426a3.938 3.938 0 0 1-1.36-1.134l.96-.92c.355.427.733.742 1.133.947.4.195.854.293 1.36.293.587 0 1.036-.133 1.347-.4.32-.266.48-.649.48-1.146 0-.4-.116-.707-.347-.92-.23-.223-.626-.383-1.186-.48l-1.014-.16c-.444-.072-.818-.187-1.12-.347a2.6 2.6 0 0 1-.733-.587 2.346 2.346 0 0 1-.413-.76 3.284 3.284 0 0 1-.12-.893c0-.88.284-1.547.853-2 .569-.462 1.351-.693 2.347-.693.737 0 1.364.12 1.88.36.524.23.946.56 1.266.986l-.933.934a2.987 2.987 0 0 0-.92-.747c-.347-.196-.778-.293-1.293-.293-.552 0-.974.12-1.267.36-.285.23-.427.573-.427 1.026 0 .383.111.685.334.907.23.213.635.369 1.213.467l.987.173c.835.151 1.444.458 1.826.92.383.453.574 1.009.574 1.667 0 .426-.076.817-.227 1.173-.142.355-.36.658-.653.907-.285.248-.64.444-1.067.586-.418.134-.898.2-1.44.2zm8.221-.16c-.604 0-1.048-.16-1.333-.48-.284-.329-.427-.75-.427-1.266v-3.96h-2.12v-1.174h1.507c.258 0 .44-.049.547-.146.107-.107.16-.294.16-.56v-1.72h1.36v2.426h2.933v1.174h-2.933v4.533h2.933v1.173h-2.627zm9.875 0c-.418 0-.733-.106-.946-.32-.205-.213-.33-.493-.374-.84h-.066a1.762 1.762 0 0 1-.734.974c-.346.23-.79.346-1.333.346-.702 0-1.262-.182-1.68-.546-.418-.374-.627-.885-.627-1.534 0-.666.245-1.173.734-1.52.497-.355 1.257-.533 2.28-.533h1.32v-.533c0-.934-.494-1.4-1.48-1.4-.445 0-.805.088-1.08.266a2.2 2.2 0 0 0-.694.68l-.866-.706c.195-.374.524-.694.986-.96.462-.276 1.058-.414 1.787-.414.871 0 1.556.21 2.053.627.498.418.747 1.022.747 1.813V58.3h.867v1.146h-.894zm-3.04-.906c.471 0 .858-.107 1.16-.32.303-.214.454-.49.454-.827v-1h-1.294c-1.049 0-1.573.316-1.573.947v.266c0 .311.111.547.333.707.222.151.53.227.92.227zm5.222-.267h1.826v-4.533h-1.826v-1.174h3.28v1.827h.08c.062-.24.15-.471.266-.693a2.01 2.01 0 0 1 .44-.574c.178-.169.396-.302.654-.4.258-.106.56-.16.906-.16h.827v1.387h-1.36c-.533 0-.969.16-1.307.48-.337.311-.506.733-.506 1.267v2.573h2.493v1.173h-5.773v-1.173zm11.128 1.173c-.605 0-1.05-.16-1.334-.48-.284-.329-.426-.75-.426-1.266v-3.96h-2.12v-1.174h1.507c.257 0 .44-.049.546-.146.107-.107.16-.294.16-.56v-1.72h1.36v2.426h2.933v1.174h-2.933v4.533h2.933v1.173h-2.626zM402.6 261.666h-1.48v-9.307h3.48c.889 0 1.564.249 2.027.747.471.498.706 1.182.706 2.053 0 .711-.173 1.298-.52 1.76-.346.463-.844.747-1.493.854l2.147 3.893h-1.654l-1.973-3.76h-1.24v3.76zm1.787-4.96c.924 0 1.386-.422 1.386-1.267v-.573c0-.844-.462-1.267-1.386-1.267H402.6v3.107h1.787zm7.488 5.12c-.525 0-.996-.084-1.414-.253a2.864 2.864 0 0 1-1.053-.72 3.19 3.19 0 0 1-.653-1.12 4.63 4.63 0 0 1-.227-1.494c0-.551.076-1.049.227-1.493a3.46 3.46 0 0 1 .653-1.133c.285-.32.627-.565 1.027-.734.4-.169.844-.253 1.333-.253.48 0 .916.084 1.307.253.391.16.724.391 1 .694.275.302.484.662.626 1.08.152.417.227.88.227 1.386v.547h-4.933v.227c0 .542.169.986.506 1.333.338.338.805.507 1.4.507.445 0 .823-.094 1.134-.28.32-.196.578-.454.773-.774l.907.8c-.231.4-.587.738-1.067 1.014-.471.275-1.062.413-1.773.413zm-.107-6.093c-.258 0-.498.044-.72.133-.213.089-.4.218-.56.387a1.8 1.8 0 0 0-.36.573 1.955 1.955 0 0 0-.133.733v.094h3.453v-.134c0-.542-.155-.973-.467-1.293-.302-.329-.706-.493-1.213-.493zm4.688 4.76h2.28v-7.52h-2.28v-1.174h3.734v8.694h2.28v1.173h-6.014v-1.173zm10.875 1.333c-.524 0-.996-.084-1.413-.253a2.86 2.86 0 0 1-1.054-.72 3.19 3.19 0 0 1-.653-1.12 4.63 4.63 0 0 1-.227-1.494c0-.551.076-1.049.227-1.493a3.46 3.46 0 0 1 .653-1.133c.285-.32.627-.565 1.027-.734.4-.169.844-.253 1.333-.253.48 0 .916.084 1.307.253.391.16.724.391 1 .694.276.302.484.662.627 1.08.151.417.226.88.226 1.386v.547h-4.933v.227c0 .542.169.986.507 1.333.337.338.804.507 1.4.507.444 0 .822-.094 1.133-.28.32-.196.578-.454.773-.774l.907.8c-.231.4-.587.738-1.067 1.014-.471.275-1.062.413-1.773.413zm-.107-6.093c-.257 0-.497.044-.72.133-.213.089-.4.218-.56.387a1.8 1.8 0 0 0-.36.573 1.955 1.955 0 0 0-.133.733v.094h3.453v-.134c0-.542-.155-.973-.466-1.293-.303-.329-.707-.493-1.214-.493zm10.248 5.933c-.417 0-.733-.107-.946-.32-.205-.213-.329-.493-.374-.84h-.066a1.763 1.763 0 0 1-.734.973c-.346.231-.791.347-1.333.347-.702 0-1.262-.182-1.68-.547-.418-.373-.627-.884-.627-1.533 0-.667.245-1.173.734-1.52.498-.356 1.258-.533 2.28-.533h1.32v-.534c0-.933-.494-1.4-1.48-1.4-.445 0-.805.089-1.08.267a2.205 2.205 0 0 0-.694.68l-.866-.707c.195-.373.524-.693.986-.96.463-.275 1.058-.413 1.787-.413.871 0 1.556.209 2.053.627.498.417.747 1.022.747 1.813v3.453h.867v1.147h-.894zm-3.04-.907c.472 0 .858-.106 1.16-.32.303-.213.454-.489.454-.826v-1h-1.294c-1.048 0-1.573.315-1.573.946v.267c0 .311.111.547.333.707.223.151.529.226.92.226zm8.222 1.067c-.747 0-1.391-.12-1.933-.36a3.496 3.496 0 0 1-1.294-.96l.894-.8c.302.329.64.582 1.013.76.382.169.831.253 1.347.253.471 0 .849-.08 1.133-.24a.795.795 0 0 0 .44-.746.743.743 0 0 0-.08-.36.644.644 0 0 0-.227-.24 1.215 1.215 0 0 0-.346-.147 2.646 2.646 0 0 0-.4-.08l-1.094-.173a5.635 5.635 0 0 1-.813-.174 2.864 2.864 0 0 1-.747-.333 1.937 1.937 0 0 1-.533-.573c-.133-.231-.2-.525-.2-.88 0-.703.267-1.236.8-1.6.542-.365 1.253-.547 2.133-.547.64 0 1.191.098 1.654.293.471.187.862.449 1.173.787l-.813.853c-.178-.204-.431-.391-.76-.56-.329-.177-.765-.266-1.307-.266-.969 0-1.453.306-1.453.92 0 .293.102.497.306.613.214.107.463.178.747.213l1.093.174c.276.044.547.102.814.173.275.071.52.182.733.333.222.143.4.329.533.56.143.231.214.525.214.88 0 .694-.271 1.24-.814 1.64-.533.391-1.271.587-2.213.587zm7.861 0c-.524 0-.995-.084-1.413-.253a2.848 2.848 0 0 1-1.053-.72 3.193 3.193 0 0 1-.654-1.12 4.631 4.631 0 0 1-.226-1.494c0-.551.075-1.049.226-1.493.16-.444.378-.822.654-1.133.284-.32.626-.565 1.026-.734.4-.169.845-.253 1.334-.253.48 0 .915.084 1.306.253.392.16.725.391 1 .694.276.302.485.662.627 1.08.151.417.227.88.227 1.386v.547h-4.934v.227c0 .542.169.986.507 1.333.338.338.805.507 1.4.507.445 0 .822-.094 1.133-.28a2.31 2.31 0 0 0 .774-.774l.906.8c-.231.4-.586.738-1.066 1.014-.471.275-1.062.413-1.774.413zm-.106-6.093c-.258 0-.498.044-.72.133-.214.089-.4.218-.56.387a1.8 1.8 0 0 0-.36.573 1.955 1.955 0 0 0-.134.733v.094h3.454v-.134c0-.542-.156-.973-.467-1.293-.302-.329-.707-.493-1.213-.493z"/><path stroke="#7545FF" stroke-width="1.111" d="M413.889 92.223V150"/><rect width="59" height="23" x="413" y="83" fill="#7545FF" rx="4.444"/><path fill="#fff" d="M423.911 90.244h2.311c.993 0 1.726.33 2.2.99.482.659.722 1.622.722 2.888 0 1.267-.24 2.23-.722 2.89-.474.658-1.207.988-2.2.988h-2.311v-7.756zm2.233 6.734c.571 0 .993-.19 1.267-.567.282-.385.422-.933.422-1.644v-1.29c0-.71-.14-1.255-.422-1.633-.274-.385-.696-.577-1.267-.577h-1v5.71h1zm6.752 1.155c-.437 0-.83-.07-1.178-.21a2.377 2.377 0 0 1-.878-.6 2.652 2.652 0 0 1-.544-.934 3.849 3.849 0 0 1-.189-1.245c0-.459.063-.874.189-1.244a2.86 2.86 0 0 1 .544-.944c.237-.267.522-.47.856-.612.333-.14.703-.21 1.111-.21.4 0 .763.07 1.089.21.326.134.603.326.833.578.23.252.404.552.522.9.126.348.189.734.189 1.156v.455h-4.111v.19c0 .451.141.821.422 1.11.282.282.671.423 1.167.423.37 0 .685-.078.944-.234a1.92 1.92 0 0 0 .645-.644l.755.666c-.192.334-.489.615-.889.845-.392.23-.885.344-1.477.344zm-.089-5.077a1.62 1.62 0 0 0-.6.11 1.347 1.347 0 0 0-.467.323 1.494 1.494 0 0 0-.3.478 1.633 1.633 0 0 0-.111.61v.079h2.878v-.112c0-.451-.13-.81-.389-1.077-.252-.274-.589-.411-1.011-.411zm3.951-.79h1.211v.978h.067a2.04 2.04 0 0 1 .678-.81c.281-.2.633-.3 1.055-.3.674 0 1.211.251 1.611.755.4.504.6 1.252.6 2.244 0 .993-.2 1.741-.6 2.245-.4.504-.937.755-1.611.755-.422 0-.774-.096-1.055-.289a2.127 2.127 0 0 1-.678-.822h-.067v3.2h-1.211v-7.955zm2.511 4.878c.459 0 .811-.14 1.056-.422.252-.281.377-.655.377-1.122v-.933c0-.467-.125-.841-.377-1.123-.245-.281-.597-.422-1.056-.422-.178 0-.344.022-.5.067a1.259 1.259 0 0 0-.411.2 1.04 1.04 0 0 0-.289.333.958.958 0 0 0-.1.456v1.91c0 .179.033.334.1.468.074.126.17.233.289.322.119.089.256.155.411.2.156.044.322.066.5.066zm3.885-.122h1.9v-6.266h-1.9v-.978h3.111v7.244h1.9V98h-5.011v-.978zm8.94 1.111a2.99 2.99 0 0 1-1.145-.21 2.417 2.417 0 0 1-.855-.6 2.726 2.726 0 0 1-.534-.945 3.85 3.85 0 0 1-.188-1.245c0-.459.062-.874.188-1.244s.304-.685.534-.945c.237-.259.522-.459.855-.6a2.99 2.99 0 0 1 1.145-.21c.422 0 .8.07 1.133.21.341.141.626.341.856.6.237.26.418.575.544.945.126.37.189.785.189 1.244 0 .46-.063.874-.189 1.245-.126.37-.307.685-.544.944-.23.26-.515.46-.856.6a2.883 2.883 0 0 1-1.133.211zm0-.955c.444 0 .796-.134 1.055-.4.267-.274.4-.678.4-1.211V94.7c0-.533-.133-.933-.4-1.2-.259-.274-.611-.411-1.055-.411-.445 0-.8.137-1.067.411-.259.267-.389.667-.389 1.2v.867c0 .533.13.937.389 1.21.267.267.622.4 1.067.4zm8.118-4.911h1.222l-2.778 6.844c-.148.37-.344.648-.589.833-.237.186-.581.278-1.033.278h-.967v-.978h1.356l.522-1.322-2.311-5.655h1.267l.911 2.4.711 1.966h.066l.712-1.966.911-2.4z"/></svg>