<svg width="111" height="40" viewBox="0 0 111 40" fill="none" xmlns="http://www.w3.org/2000/svg">
<path d="M0.890625 12.0002L0.890625 27.9974C0.890625 34.6252 6.26348 39.998 12.8912 39.998H28.8884C35.5162 39.998 40.889 34.6252 40.889 27.9974V12.0002C40.889 5.37249 35.5162 -0.000358582 28.8884 -0.000358582H12.8912C6.26348 -0.000358582 0.890625 5.37249 0.890625 12.0002Z" fill="white" fill-opacity="0.13"/>
<path d="M12.1071 20.5561C12.2055 20.4969 12.2866 20.4127 12.342 20.3122C12.3975 20.2116 12.4254 20.0981 12.4229 19.9833V19.8992C12.4229 16.1524 14.8211 12.97 18.1536 11.8244C18.2829 11.7817 18.3956 11.6997 18.4761 11.5899C18.5566 11.4802 18.6009 11.348 18.6028 11.2119V7.89381C18.6048 7.80366 18.5863 7.71422 18.5486 7.63231C18.5109 7.55039 18.455 7.47815 18.3852 7.42107C18.3154 7.36399 18.2335 7.32358 18.1457 7.30291C18.0579 7.28224 17.9666 7.28185 17.8786 7.30177C12.2296 8.66719 8.03125 13.789 8.03125 19.8992C8.03125 20.5837 8.08409 21.2562 8.18617 21.9131C8.20174 22.008 8.24035 22.0977 8.29861 22.1742C8.35687 22.2508 8.433 22.3119 8.52034 22.3522C8.60768 22.3925 8.70357 22.4107 8.79961 22.4054C8.89565 22.4 8.98891 22.3712 9.07123 22.3214L12.1071 20.5561Z" fill="url(#paint0_linear_3087_23740)"/>
<path d="M10.3209 26.1263C10.25 26.1665 10.188 26.2207 10.1387 26.2855C10.0894 26.3504 10.0537 26.4245 10.0338 26.5036C10.014 26.5826 10.0103 26.6648 10.0231 26.7453C10.0359 26.8257 10.0649 26.9028 10.1083 26.9717C12.402 30.5156 16.3722 32.8585 20.884 32.8585C25.0271 32.8585 28.7127 30.8831 31.064 27.8172C31.1152 27.7488 31.1512 27.6703 31.1697 27.5869C31.1882 27.5034 31.1887 27.4171 31.1712 27.3334C31.1537 27.2498 31.1186 27.1709 31.0683 27.1019C31.0179 27.0329 30.9534 26.9754 30.8791 26.9333L28.1098 25.3217C27.9774 25.2475 27.8231 25.2221 27.6739 25.25C27.5246 25.2779 27.3899 25.3572 27.2932 25.4742C26.5028 26.402 25.5203 27.1471 24.4137 27.658C23.3071 28.1689 22.1028 28.4334 20.884 28.4332C19.51 28.4325 18.157 28.0963 16.9425 27.4538C15.728 26.8113 14.6888 25.8819 13.9152 24.7465C13.8247 24.6092 13.6857 24.5111 13.5261 24.4719C13.3664 24.4327 13.1978 24.4553 13.0541 24.5351L10.3209 26.1263Z" fill="url(#paint1_linear_3087_23740)"/>
<path d="M33.75 19.9031C33.75 20.9647 33.6227 21.9951 33.3838 22.9834C33.3613 23.0729 33.3183 23.1558 33.258 23.2256C33.1977 23.2954 33.1218 23.3501 33.0366 23.3852C32.9513 23.4204 32.859 23.435 32.7671 23.428C32.6751 23.421 32.5861 23.3926 32.5071 23.3449L29.5997 21.654C29.4895 21.5877 29.4012 21.4903 29.3459 21.3742C29.2906 21.258 29.2707 21.1281 29.2887 21.0007C29.3343 20.6405 29.3583 20.2742 29.3583 19.9031C29.3583 15.9245 26.6563 12.5824 22.9996 11.6385C22.8587 11.604 22.7332 11.5237 22.6428 11.4103C22.5524 11.2969 22.5022 11.1567 22.5 11.0116V7.7524C22.5 7.37772 22.8266 7.0859 23.1929 7.15195C29.1962 8.24477 33.7488 13.5371 33.7488 19.9019L33.75 19.9031Z" fill="url(#paint2_linear_3087_23740)"/>
<path d="M20.7459 23.3958C22.6249 23.3958 24.1481 21.8613 24.1481 19.9684C24.1481 18.0755 22.6249 16.541 20.7459 16.541C18.8669 16.541 17.3438 18.0755 17.3438 19.9684C17.3438 21.8613 18.8669 23.3958 20.7459 23.3958Z" fill="url(#paint3_linear_3087_23740)"/>
<path d="M100.297 30.2925V27.9684L106.17 17.9343H100.436V15.3457H110.234V17.6281L104.402 27.6483H110.164V30.2925H100.297Z" fill="white"/>
<path d="M94.5469 13.2153V9.86133H98.3323V13.2153H94.5469ZM94.5469 30.2914V15.3446H98.3323V30.2914H94.5469Z" fill="white"/>
<path d="M88.4288 19.7424C88.4288 18.36 87.5753 17.6688 85.8681 17.6688C85.0331 17.6688 84.1331 17.9007 83.1682 18.3646V27.2854C83.7435 27.7307 84.5135 27.9534 85.4784 27.9534C87.4454 27.9534 88.4288 27.2344 88.4288 25.7963V19.7424ZM92.2142 25.7128C92.2142 27.1787 91.6715 28.3616 90.586 29.2616C89.5097 30.1616 88.1737 30.6115 86.5779 30.6115C84.9913 30.6115 83.5857 30.2033 82.361 29.3869L81.9853 30.2915H79.3828V9.19336H83.1682V15.8178C84.1702 15.289 85.1815 15.0246 86.2021 15.0246C88.7164 15.0246 90.4329 15.674 91.3514 16.9729C91.9266 17.7894 92.2142 18.7357 92.2142 19.812V25.7128Z" fill="white"/>
<path d="M69.5156 30.2889V15.3421H73.301V17.1234C73.5237 16.6966 73.9876 16.3162 74.6927 15.9822C75.9081 15.3977 77.0818 15.1055 78.2137 15.1055C78.3436 15.1055 78.4642 15.1101 78.5756 15.1194L78.4921 18.3342C76.8313 18.4177 75.4535 18.7285 74.3587 19.2666C73.7464 19.5635 73.3938 19.8975 73.301 20.2687V30.2889H69.5156Z" fill="white"/>
<path d="M57.921 30.6535C53.8944 30.6535 51.2409 29.6515 49.9605 27.6475C49.2368 26.5341 48.875 25.0914 48.875 23.3193V16.8897C48.875 14.0042 49.7703 11.9863 51.561 10.8358C53.0362 9.88944 55.1747 9.41162 57.9767 9.40234C61.8827 9.40234 64.462 10.4693 65.7145 12.6032C66.4196 13.8001 66.7722 15.2985 66.7722 17.0984V23.0966C66.7722 25.8986 65.8908 27.9212 64.128 29.1644C62.7177 30.1572 60.6487 30.6535 57.921 30.6535ZM53.0223 23.7786C53.0223 25.1239 53.4351 26.0656 54.2609 26.6037C55.0866 27.1418 56.3159 27.4109 57.9489 27.4109C59.5911 27.4109 60.7786 27.1465 61.5116 26.6176C62.2538 26.0795 62.6249 25.1331 62.6249 23.7786V16.333C62.6249 14.997 62.2492 14.0506 61.4977 13.4939C60.7462 12.928 59.5632 12.645 57.9489 12.645C56.3438 12.645 55.1191 12.9233 54.2748 13.48C53.4398 14.0367 53.0223 14.9877 53.0223 16.333V23.7786Z" fill="white"/>
<defs>
<linearGradient id="paint0_linear_3087_23740" x1="20.8881" y1="7.14205" x2="20.8881" y2="32.8557" gradientUnits="userSpaceOnUse">
<stop stop-color="white"/>
<stop offset="1" stop-color="#CACACA"/>
</linearGradient>
<linearGradient id="paint1_linear_3087_23740" x1="20.884" y1="7.14485" x2="20.884" y2="32.8585" gradientUnits="userSpaceOnUse">
<stop stop-color="white"/>
<stop offset="1" stop-color="#CACACA"/>
</linearGradient>
<linearGradient id="paint2_linear_3087_23740" x1="20.8932" y1="7.14474" x2="20.8932" y2="32.8584" gradientUnits="userSpaceOnUse">
<stop stop-color="white"/>
<stop offset="1" stop-color="#CACACA"/>
</linearGradient>
<linearGradient id="paint3_linear_3087_23740" x1="20.7459" y1="16.5398" x2="20.7459" y2="23.3958" gradientUnits="userSpaceOnUse">
<stop stop-color="white"/>
<stop offset="1" stop-color="#CACACA"/>
</linearGradient>
</defs>
</svg>
