<svg xmlns="http://www.w3.org/2000/svg" width="629" height="326" fill="none"><path stroke="#3E3E41" d="M361.824 211.5c1.953 0 3.83.762 5.23 2.125l25.676 24.983a7.501 7.501 0 0 1 2.27 5.375V293a7.5 7.5 0 0 1-7.5 7.5h-141a7.5 7.5 0 0 1-7.5-7.5v-74a7.5 7.5 0 0 1 7.5-7.5h115.324zm-198-178a7.5 7.5 0 0 1 5.23 2.125l25.676 24.983a7.5 7.5 0 0 1 2.27 5.375V115a7.5 7.5 0 0 1-7.5 7.5h-141A7.5 7.5 0 0 1 41 115V41a7.5 7.5 0 0 1 7.5-7.5h115.324zm0 178c1.953 0 3.83.762 5.23 2.125l25.676 24.983a7.501 7.501 0 0 1 2.27 5.375V293a7.5 7.5 0 0 1-7.5 7.5h-141A7.5 7.5 0 0 1 41 293v-74a7.5 7.5 0 0 1 7.5-7.5h115.324z"/><path fill="#7545FF" d="M55.667 227.833v4c0 .75.416 1.334 1 1.334h14.75c.5 0 1-.584 1-1.334v-4c-.084-.75-.5-1.333-1.084-1.333H56.667c-.584 0-1 .583-1 1.333zm6.666 2.834V229H61.5v1.667h.833zm-4.166 0h1.666V229h-1.666v1.667zm12.5.833H57.333v-3.333h13.334v3.333zm-15 4.667v4c0 .75.416 1.333 1 1.333h14.75c.5 0 1-.583 1-1.333v-4c0-.75-.417-1.334-1-1.334h-14.75c-.584 0-1 .584-1 1.334zM62.333 239v-1.667H61.5V239h.833zm-4.166 0h1.666v-1.667h-1.666V239zm12.5.833H57.333V236.5h13.334v3.333z"/><g fill="#ED597E" clip-path="url(#a)"><path d="M62.892 57.85a10.729 10.729 0 0 0-6.067 1.5c-.733.433-1.158 1.25-1.158 2.108v2.208h7.716a5.801 5.801 0 0 1-.491-5.816zm-.559-.85a3.333 3.333 0 1 0 0-6.667 3.333 3.333 0 0 0 0 6.667zm8.959 3.334c0-.184-.025-.35-.05-.525l.95-.842-.834-1.442-1.208.409a3.037 3.037 0 0 0-.9-.525L69 56.167h-1.667l-.25 1.242c-.333.125-.633.3-.9.525l-1.208-.409-.833 1.442.95.842c-.025.175-.05.341-.05.525 0 .183.025.35.05.525l-.95.841.833 1.442 1.208-.408c.267.225.567.4.9.525l.25 1.241H69l.25-1.241c.333-.125.633-.3.9-.525l1.208.408.834-1.442-.95-.841c.025-.175.05-.342.05-.525zM68.167 62c-.917 0-1.667-.75-1.667-1.666 0-.917.75-1.667 1.667-1.667.916 0 1.666.75 1.666 1.667 0 .916-.75 1.666-1.666 1.666z"/></g><path fill="#7545FF" d="M254.667 227.833v4c0 .75.416 1.334 1 1.334h14.75c.5 0 1-.584 1-1.334v-4c-.084-.75-.5-1.333-1.084-1.333h-14.666c-.584 0-1 .583-1 1.333zm6.666 2.834V229h-.833v1.667h.833zm-4.166 0h1.666V229h-1.666v1.667zm12.5.833h-13.334v-3.333h13.334v3.333zm-15 4.667v4c0 .75.416 1.333 1 1.333h14.75c.5 0 1-.583 1-1.333v-4c0-.75-.417-1.334-1-1.334h-14.75c-.584 0-1 .584-1 1.334zm6.666 2.833v-1.667h-.833V239h.833zm-4.166 0h1.666v-1.667h-1.666V239zm12.5.833h-13.334V236.5h13.334v3.333z"/><g fill="#0CC6B0" clip-path="url(#b)"><path d="M459.333 234a3.334 3.334 0 1 0 0-6.669 3.334 3.334 0 0 0 0 6.669zm.292 1.675c-2.275-.083-6.958 1.05-6.958 3.325v1.667h7.95c-2.059-2.3-1.025-4.909-.992-4.992zm7.567 3.342c.3-.492.475-1.067.475-1.684a3.333 3.333 0 1 0-3.334 3.334c.617 0 1.192-.184 1.684-.475l2.141 2.141 1.175-1.175-2.141-2.141zm-2.859-.017c-.916 0-1.666-.75-1.666-1.667 0-.916.75-1.666 1.666-1.666.917 0 1.667.75 1.667 1.666 0 .917-.75 1.667-1.667 1.667z"/></g><g clip-path="url(#c)"><path fill="#ED597E" d="M461 56.167c-2.083 0-3.854-.327-5.312-.98-1.459-.652-2.188-1.437-2.188-2.354 0-.916.729-1.701 2.188-2.354 1.458-.653 3.229-.979 5.312-.979s3.854.326 5.312.98c1.459.652 2.188 1.437 2.188 2.353 0 .917-.729 1.702-2.188 2.355-1.458.652-3.229.979-5.312.979zm0 4.166c-2.083 0-3.854-.326-5.312-.979-1.459-.653-2.188-1.437-2.188-2.354v-2.083c0 .61.285 1.128.854 1.552.57.423 1.25.767 2.042 1.031.791.264 1.615.455 2.469.572.854.119 1.566.178 2.135.178.569 0 1.281-.06 2.135-.178a13.725 13.725 0 0 0 2.469-.572c.792-.264 1.472-.608 2.042-1.03.569-.425.854-.942.854-1.553V57c0 .917-.729 1.701-2.188 2.354-1.458.653-3.229.98-5.312.98zm0 4.167c-2.083 0-3.854-.326-5.312-.98-1.459-.652-2.188-1.437-2.188-2.353v-2.084c0 .611.285 1.129.854 1.553.57.423 1.25.767 2.042 1.03a13.75 13.75 0 0 0 2.469.574c.854.118 1.566.177 2.135.177.569 0 1.281-.06 2.135-.177a13.77 13.77 0 0 0 2.469-.573c.792-.264 1.472-.608 2.042-1.031.569-.424.854-.942.854-1.553v2.084c0 .916-.729 1.701-2.188 2.354-1.458.653-3.229.979-5.312.979z"/></g><path stroke="#3E3E41" d="M361.824 33.5a7.5 7.5 0 0 1 5.23 2.125l25.676 24.983a7.5 7.5 0 0 1 2.27 5.375V115a7.5 7.5 0 0 1-7.5 7.5h-141a7.5 7.5 0 0 1-7.5-7.5V41a7.5 7.5 0 0 1 7.5-7.5h115.324zm198 0a7.5 7.5 0 0 1 5.23 2.125l25.676 24.983a7.5 7.5 0 0 1 2.27 5.375V115a7.5 7.5 0 0 1-7.5 7.5h-141a7.5 7.5 0 0 1-7.5-7.5V41a7.5 7.5 0 0 1 7.5-7.5h115.324zm0 178c1.953 0 3.83.762 5.23 2.125l25.676 24.983a7.501 7.501 0 0 1 2.27 5.375V293a7.5 7.5 0 0 1-7.5 7.5h-141a7.5 7.5 0 0 1-7.5-7.5v-74a7.5 7.5 0 0 1 7.5-7.5h115.324z"/><path fill="#3E3E41" d="M194.833 84a2.667 2.667 0 1 0 5.334 0 2.667 2.667 0 0 0-5.334 0zm42.667 0-5-2.887v5.774l5-2.887zm-40 .5H233v-1h-35.5v1zm196.333-.5a2.667 2.667 0 1 0 5.334 0 2.667 2.667 0 0 0-5.334 0zm42.667 0-5-2.887v5.774l5-2.887zm-40 .5H432v-1h-35.5v1zM439.167 264a2.667 2.667 0 1 0-5.334 0 2.667 2.667 0 0 0 5.334 0zm-42.667 0 5 2.887v-5.774l-5 2.887zm40-.5H401v1h35.5v-1zM318 120.333a2.667 2.667 0 1 0 0 5.334 2.667 2.667 0 0 0 0-5.334zM318 211l2.887-5h-5.774l2.887 5zm-.5-88v83.5h1V123h-1z"/><path fill="#fff" d="M55.092 105v-9.074h3.393c.867 0 1.525.243 1.976.728.46.485.689 1.153.689 2.002 0 .85-.23 1.517-.689 2.002-.45.485-1.11.728-1.976.728h-1.937V105h-1.456zm1.456-4.823h1.716c.901 0 1.352-.416 1.352-1.248v-.559c0-.823-.45-1.235-1.352-1.235h-1.716v3.042zm5.975 3.679h1.78v-4.42h-1.78v-1.144h3.198v1.781h.078c.06-.234.147-.46.26-.676.113-.217.256-.403.429-.559a1.88 1.88 0 0 1 .637-.39 2.3 2.3 0 0 1 .884-.156h.806v1.352h-1.326c-.52 0-.945.156-1.274.468-.33.303-.494.715-.494 1.235v2.509h2.43V105h-5.628v-1.144zm10.447 1.3c-.494 0-.94-.082-1.34-.247a2.838 2.838 0 0 1-1-.702 3.196 3.196 0 0 1-.624-1.105 4.506 4.506 0 0 1-.221-1.456c0-.537.074-1.023.22-1.456.148-.433.356-.802.625-1.105a2.83 2.83 0 0 1 1-.702 3.477 3.477 0 0 1 1.34-.247c.494 0 .936.082 1.326.247.398.165.732.399 1 .702.278.303.49.672.638 1.105.147.433.22.919.22 1.456 0 .537-.073 1.023-.22 1.456-.147.433-.36.802-.637 1.105a2.69 2.69 0 0 1-1.001.702c-.39.165-.832.247-1.326.247zm0-1.118c.52 0 .931-.156 1.235-.468.312-.321.468-.793.468-1.417v-1.014c0-.624-.156-1.092-.468-1.404-.303-.32-.715-.481-1.235-.481-.52 0-.936.16-1.248.481-.303.312-.455.78-.455 1.404v1.014c0 .624.151 1.096.455 1.417.312.312.728.468 1.248.468zm4.909 2.418h2.964v-7.02H77.8v-1.144h4.459v7.605c0 .503-.143.91-.43 1.222-.277.321-.71.481-1.3.481H77.88v-1.144zm3.679-9.386c-.364 0-.62-.074-.767-.221a.766.766 0 0 1-.208-.546v-.273c0-.217.07-.399.208-.546.147-.147.398-.221.754-.221.364 0 .615.074.754.221.147.147.22.33.22.546v.273a.742.742 0 0 1-.22.546c-.139.147-.386.221-.741.221zm6.625 8.086c-.512 0-.971-.082-1.378-.247a2.789 2.789 0 0 1-1.027-.702 3.097 3.097 0 0 1-.637-1.092 4.506 4.506 0 0 1-.221-1.456c0-.537.073-1.023.22-1.456.157-.433.369-.802.638-1.105.277-.312.61-.55 1-.715a3.31 3.31 0 0 1 1.3-.247c.469 0 .893.082 1.275.247.381.156.706.381.975.676.268.295.472.646.61 1.053.148.407.222.858.222 1.352v.533h-4.81v.221c0 .529.164.962.494 1.3.329.329.784.494 1.365.494.433 0 .801-.091 1.105-.273.312-.191.563-.442.754-.754l.884.78c-.226.39-.572.719-1.04.988-.46.269-1.036.403-1.73.403zm-.104-5.941c-.252 0-.486.043-.702.13-.208.087-.39.212-.546.377a1.749 1.749 0 0 0-.351.559 1.91 1.91 0 0 0-.13.715v.091h3.367v-.13c0-.529-.152-.949-.455-1.261-.295-.32-.69-.481-1.183-.481zm7.743 5.941c-.503 0-.954-.082-1.352-.247a2.837 2.837 0 0 1-1.001-.702 3.193 3.193 0 0 1-.624-1.105 4.763 4.763 0 0 1-.208-1.456c0-.537.069-1.023.208-1.456.147-.433.355-.802.624-1.105a2.83 2.83 0 0 1 1-.702 3.477 3.477 0 0 1 1.34-.247c.693 0 1.248.147 1.664.442.424.295.74.676.949 1.144l-1.105.598a1.61 1.61 0 0 0-.56-.741c-.242-.182-.558-.273-.948-.273-.538 0-.954.165-1.248.494-.295.321-.442.75-.442 1.287v1.118c0 .529.147.958.442 1.287.294.329.719.494 1.274.494.416 0 .754-.095 1.014-.286.268-.191.48-.451.637-.78l1.04.637a2.823 2.823 0 0 1-.988 1.157c-.442.295-1.014.442-1.716.442zm7.691-.156c-.59 0-1.023-.156-1.3-.468-.278-.321-.416-.732-.416-1.235v-3.861H99.73v-1.144h1.469c.251 0 .429-.048.533-.143.104-.104.156-.286.156-.546v-1.677h1.326v2.366h2.86v1.144h-2.86v4.42h2.86V105h-2.561zm11.338 0v-6.708h1.209v.871h.065c.104-.286.252-.529.442-.728.2-.2.481-.299.845-.299.356 0 .629.1.819.299.2.19.325.455.377.793h.052c.122-.303.291-.559.507-.767.217-.217.529-.325.936-.325.52 0 .88.182 1.079.546.208.364.312.897.312 1.599V105h-1.209v-4.537c0-.468-.056-.789-.169-.962-.112-.182-.294-.273-.546-.273a.779.779 0 0 0-.572.234c-.147.147-.221.373-.221.676V105h-1.209v-4.537c0-.468-.056-.789-.169-.962-.104-.182-.281-.273-.533-.273a.794.794 0 0 0-.585.234c-.147.147-.221.373-.221.676V105h-1.209zm13.359 0c-.407 0-.715-.104-.923-.312-.199-.208-.32-.481-.364-.819h-.065c-.13.407-.368.724-.715.949-.338.225-.771.338-1.3.338-.684 0-1.23-.178-1.638-.533-.407-.364-.611-.862-.611-1.495 0-.65.239-1.144.715-1.482.486-.347 1.227-.52 2.223-.52h1.287v-.52c0-.91-.481-1.365-1.443-1.365-.433 0-.784.087-1.053.26a2.151 2.151 0 0 0-.676.663l-.845-.689c.191-.364.512-.676.962-.936.451-.269 1.032-.403 1.742-.403.85 0 1.517.204 2.002.611.486.407.728.997.728 1.768v3.367h.845V105h-.871zm-2.964-.884c.46 0 .837-.104 1.131-.312.295-.208.442-.477.442-.806v-.975h-1.261c-1.022 0-1.534.308-1.534.923v.26c0 .303.109.533.325.689.217.147.516.221.897.221zm5.195.884v-6.708h1.417v1.144h.065a2.73 2.73 0 0 1 .26-.494 1.68 1.68 0 0 1 .403-.416c.156-.121.338-.217.546-.286.208-.07.451-.104.728-.104.676 0 1.222.221 1.638.663.416.442.624 1.07.624 1.885V105h-1.417v-4.108c0-1.066-.463-1.599-1.391-1.599-.182 0-.359.026-.533.078a1.437 1.437 0 0 0-.468.208 1.144 1.144 0 0 0-.338.364 1.065 1.065 0 0 0-.117.507V105h-1.417zm12.839 0c-.407 0-.715-.104-.923-.312-.199-.208-.321-.481-.364-.819h-.065c-.13.407-.368.724-.715.949-.338.225-.771.338-1.3.338-.685 0-1.231-.178-1.638-.533-.407-.364-.611-.862-.611-1.495 0-.65.238-1.144.715-1.482.485-.347 1.226-.52 2.223-.52h1.287v-.52c0-.91-.481-1.365-1.443-1.365-.433 0-.784.087-1.053.26a2.141 2.141 0 0 0-.676.663l-.845-.689c.191-.364.511-.676.962-.936.451-.269 1.031-.403 1.742-.403.849 0 1.517.204 2.002.611.485.407.728.997.728 1.768v3.367h.845V105h-.871zm-2.964-.884c.459 0 .836-.104 1.131-.312.295-.208.442-.477.442-.806v-.975h-1.261c-1.023 0-1.534.308-1.534.923v.26c0 .303.108.533.325.689.217.147.516.221.897.221zm11.513 1.612c0 .693-.29 1.205-.871 1.534-.581.329-1.465.494-2.652.494-.581 0-1.07-.039-1.469-.117-.39-.069-.711-.173-.962-.312a1.377 1.377 0 0 1-.533-.507 1.44 1.44 0 0 1-.156-.676c0-.364.1-.65.299-.858.208-.199.498-.347.871-.442v-.13a1.383 1.383 0 0 1-.546-.364c-.13-.156-.195-.36-.195-.611 0-.329.113-.576.338-.741.225-.173.516-.303.871-.39v-.065a2.226 2.226 0 0 1-.949-.806c-.225-.347-.338-.763-.338-1.248a2.3 2.3 0 0 1 .195-.962c.13-.295.312-.542.546-.741.243-.208.529-.368.858-.481a3.562 3.562 0 0 1 1.131-.169c.468 0 .888.074 1.261.221v-.221a.97.97 0 0 1 .221-.65c.147-.173.373-.26.676-.26h1.222v1.118h-1.56v.312c.295.2.52.455.676.767.156.303.234.659.234 1.066 0 .355-.065.68-.195.975a2.12 2.12 0 0 1-.559.741 2.56 2.56 0 0 1-.858.468 3.706 3.706 0 0 1-1.118.156c-.295 0-.572-.026-.832-.078a1.627 1.627 0 0 0-.468.221.49.49 0 0 0-.234.429c0 .208.1.338.299.39.199.052.446.078.741.078h1.508c.901 0 1.551.173 1.95.52.399.338.598.784.598 1.339zm-1.326.091a.655.655 0 0 0-.273-.546c-.182-.13-.511-.195-.988-.195h-2.327c-.329.156-.494.407-.494.754 0 .251.104.468.312.65.217.182.572.273 1.066.273h1.053c.537 0 .945-.082 1.222-.247.286-.156.429-.386.429-.689zm-2.236-3.965c.459 0 .797-.108 1.014-.325.217-.217.325-.507.325-.871v-.351c0-.364-.108-.654-.325-.871-.217-.217-.555-.325-1.014-.325-.459 0-.797.108-1.014.325-.217.217-.325.507-.325.871v.351c0 .364.108.654.325.871.217.217.555.325 1.014.325zm7.73 3.302c-.511 0-.971-.082-1.378-.247a2.789 2.789 0 0 1-1.027-.702 3.097 3.097 0 0 1-.637-1.092 4.515 4.515 0 0 1-.221-1.456c0-.537.074-1.023.221-1.456.156-.433.368-.802.637-1.105.277-.312.611-.55 1.001-.715.39-.165.823-.247 1.3-.247.468 0 .893.082 1.274.247.381.156.706.381.975.676.269.295.472.646.611 1.053.147.407.221.858.221 1.352v.533h-4.81v.221c0 .529.165.962.494 1.3.329.329.784.494 1.365.494.433 0 .802-.091 1.105-.273.312-.191.563-.442.754-.754l.884.78c-.225.39-.572.719-1.04.988-.459.269-1.036.403-1.729.403zm-.104-5.941c-.251 0-.485.043-.702.13-.208.087-.39.212-.546.377a1.76 1.76 0 0 0-.351.559c-.087.217-.13.455-.13.715v.091h3.367v-.13c0-.529-.152-.949-.455-1.261-.295-.32-.689-.481-1.183-.481zm4.584 4.641h1.781v-4.42h-1.781v-1.144h3.198v1.781h.078a3.19 3.19 0 0 1 .26-.676c.113-.217.256-.403.429-.559.173-.165.386-.295.637-.39a2.3 2.3 0 0 1 .884-.156h.806v1.352h-1.326c-.52 0-.945.156-1.274.468-.329.303-.494.715-.494 1.235v2.509h2.431V105h-5.629v-1.144zm93.602-7.93h3.133c.823 0 1.46.212 1.911.637.459.425.689 1.005.689 1.742 0 .529-.13.949-.39 1.261-.26.312-.611.533-1.053.663v.065c.529.121.953.355 1.274.702.321.338.481.819.481 1.443 0 .373-.061.715-.182 1.027a2.445 2.445 0 0 1-.52.819 2.435 2.435 0 0 1-.819.533 2.856 2.856 0 0 1-1.04.182h-3.484v-9.074zm3.042 7.956c.485 0 .858-.1 1.118-.299.26-.199.39-.52.39-.962v-.468c0-.442-.13-.763-.39-.962-.26-.199-.633-.299-1.118-.299h-1.612v2.99h1.612zm-.208-4.056c.459 0 .806-.087 1.04-.26.243-.182.364-.481.364-.897v-.468c0-.416-.121-.71-.364-.884-.234-.182-.581-.273-1.04-.273h-1.404v2.782h1.404zm8.913 4.03h-.065c-.069.173-.16.342-.273.507a1.763 1.763 0 0 1-.39.416 1.994 1.994 0 0 1-.546.273 2.316 2.316 0 0 1-.728.104c-.676 0-1.222-.221-1.638-.663-.416-.442-.624-1.07-.624-1.885v-4.316h1.417v4.108c0 1.066.464 1.599 1.391 1.599.182 0 .36-.022.533-.065.173-.052.329-.126.468-.221s.247-.212.325-.351c.087-.147.13-.321.13-.52v-4.55h1.417V105h-1.417v-1.144zm6.56-6.786c-.364 0-.62-.074-.767-.221a.765.765 0 0 1-.208-.546v-.273c0-.217.069-.399.208-.546.147-.147.399-.221.754-.221.364 0 .615.074.754.221.147.147.221.33.221.546v.273a.743.743 0 0 1-.221.546c-.139.147-.386.221-.741.221zm-3.003 6.786h2.288v-4.42h-2.288v-1.144h3.705v5.564h2.145V105h-5.85v-1.144zm7.197 0h2.223v-7.332h-2.223V95.38h3.64v8.476h2.223V105h-5.863v-1.144zm11.916 0h-.078a2.51 2.51 0 0 1-.793.962c-.33.225-.741.338-1.235.338-.789 0-1.417-.295-1.885-.884-.468-.589-.702-1.465-.702-2.626 0-1.161.234-2.037.702-2.626.468-.59 1.096-.884 1.885-.884.494 0 .905.117 1.235.351.329.225.593.542.793.949h.078V95.38h1.417V105h-1.417v-1.144zm-1.521.143c.208 0 .403-.026.585-.078.182-.052.342-.13.481-.234a1.113 1.113 0 0 0 .455-.923v-2.236a1.04 1.04 0 0 0-.13-.533 1.097 1.097 0 0 0-.325-.39 1.466 1.466 0 0 0-.481-.234 2.12 2.12 0 0 0-.585-.078c-.538 0-.954.165-1.248.494-.286.329-.429.767-.429 1.313v1.092c0 .546.143.984.429 1.313.294.329.71.494 1.248.494zM298.782 105v-6.708h1.209v.871h.065c.104-.286.251-.529.442-.728.199-.2.481-.299.845-.299.355 0 .628.1.819.299.199.19.325.455.377.793h.052c.121-.303.29-.559.507-.767.216-.217.528-.325.936-.325.52 0 .879.182 1.079.546.208.364.312.897.312 1.599V105h-1.209v-4.537c0-.468-.057-.789-.169-.962-.113-.182-.295-.273-.546-.273a.777.777 0 0 0-.572.234c-.148.147-.221.373-.221.676V105h-1.209v-4.537c0-.468-.057-.789-.169-.962-.104-.182-.282-.273-.533-.273a.794.794 0 0 0-.585.234c-.148.147-.221.373-.221.676V105h-1.209zm13.358 0c-.407 0-.715-.104-.923-.312-.199-.208-.32-.481-.364-.819h-.065c-.13.407-.368.724-.715.949-.338.225-.771.338-1.3.338-.684 0-1.23-.178-1.638-.533-.407-.364-.611-.862-.611-1.495 0-.65.239-1.144.715-1.482.486-.347 1.227-.52 2.223-.52h1.287v-.52c0-.91-.481-1.365-1.443-1.365-.433 0-.784.087-1.053.26a2.151 2.151 0 0 0-.676.663l-.845-.689c.191-.364.512-.676.962-.936.451-.269 1.032-.403 1.742-.403.85 0 1.517.204 2.002.611.486.407.728.997.728 1.768v3.367h.845V105h-.871zm-2.964-.884c.46 0 .837-.104 1.131-.312.295-.208.442-.477.442-.806v-.975h-1.261c-1.022 0-1.534.308-1.534.923v.26c0 .303.109.533.325.689.217.147.516.221.897.221zm5.195.884v-6.708h1.417v1.144h.065a2.73 2.73 0 0 1 .26-.494 1.68 1.68 0 0 1 .403-.416c.156-.121.338-.217.546-.286.208-.07.451-.104.728-.104.676 0 1.222.221 1.638.663.416.442.624 1.07.624 1.885V105h-1.417v-4.108c0-1.066-.463-1.599-1.391-1.599-.182 0-.359.026-.533.078a1.437 1.437 0 0 0-.468.208 1.144 1.144 0 0 0-.338.364 1.065 1.065 0 0 0-.117.507V105h-1.417zm12.839 0c-.407 0-.715-.104-.923-.312-.199-.208-.32-.481-.364-.819h-.065c-.13.407-.368.724-.715.949-.338.225-.771.338-1.3.338-.684 0-1.23-.178-1.638-.533-.407-.364-.611-.862-.611-1.495 0-.65.239-1.144.715-1.482.486-.347 1.227-.52 2.223-.52h1.287v-.52c0-.91-.481-1.365-1.443-1.365-.433 0-.784.087-1.053.26a2.151 2.151 0 0 0-.676.663l-.845-.689c.191-.364.512-.676.962-.936.451-.269 1.032-.403 1.742-.403.85 0 1.517.204 2.002.611.486.407.728.997.728 1.768v3.367h.845V105h-.871zm-2.964-.884c.46 0 .837-.104 1.131-.312.295-.208.442-.477.442-.806v-.975h-1.261c-1.022 0-1.534.308-1.534.923v.26c0 .303.109.533.325.689.217.147.516.221.897.221zm11.513 1.612c0 .693-.29 1.205-.871 1.534-.58.329-1.464.494-2.652.494-.58 0-1.07-.039-1.469-.117-.39-.069-.71-.173-.962-.312a1.384 1.384 0 0 1-.533-.507 1.44 1.44 0 0 1-.156-.676c0-.364.1-.65.299-.858.208-.199.499-.347.871-.442v-.13a1.383 1.383 0 0 1-.546-.364c-.13-.156-.195-.36-.195-.611 0-.329.113-.576.338-.741.226-.173.516-.303.871-.39v-.065a2.232 2.232 0 0 1-.949-.806c-.225-.347-.338-.763-.338-1.248a2.3 2.3 0 0 1 .195-.962c.13-.295.312-.542.546-.741.243-.208.529-.368.858-.481a3.562 3.562 0 0 1 1.131-.169c.468 0 .889.074 1.261.221v-.221a.97.97 0 0 1 .221-.65c.148-.173.373-.26.676-.26h1.222v1.118h-1.56v.312c.295.2.52.455.676.767.156.303.234.659.234 1.066 0 .355-.065.68-.195.975a2.12 2.12 0 0 1-.559.741 2.56 2.56 0 0 1-.858.468 3.706 3.706 0 0 1-1.118.156c-.294 0-.572-.026-.832-.078a1.627 1.627 0 0 0-.468.221.49.49 0 0 0-.234.429c0 .208.1.338.299.39.2.052.447.078.741.078h1.508c.902 0 1.552.173 1.95.52.399.338.598.784.598 1.339zm-1.326.091a.655.655 0 0 0-.273-.546c-.182-.13-.511-.195-.988-.195h-2.327c-.329.156-.494.407-.494.754 0 .251.104.468.312.65.217.182.572.273 1.066.273h1.053c.538 0 .945-.082 1.222-.247.286-.156.429-.386.429-.689zm-2.236-3.965c.46 0 .798-.108 1.014-.325.217-.217.325-.507.325-.871v-.351c0-.364-.108-.654-.325-.871-.216-.217-.554-.325-1.014-.325-.459 0-.797.108-1.014.325-.216.217-.325.507-.325.871v.351c0 .364.109.654.325.871.217.217.555.325 1.014.325zm7.73 3.302c-.511 0-.971-.082-1.378-.247a2.789 2.789 0 0 1-1.027-.702 3.097 3.097 0 0 1-.637-1.092 4.515 4.515 0 0 1-.221-1.456c0-.537.074-1.023.221-1.456.156-.433.368-.802.637-1.105.277-.312.611-.55 1.001-.715.39-.165.823-.247 1.3-.247.468 0 .893.082 1.274.247.381.156.706.381.975.676.269.295.472.646.611 1.053.147.407.221.858.221 1.352v.533h-4.81v.221c0 .529.165.962.494 1.3.329.329.784.494 1.365.494.433 0 .802-.091 1.105-.273.312-.191.563-.442.754-.754l.884.78c-.225.39-.572.719-1.04.988-.459.269-1.036.403-1.729.403zm-.104-5.941c-.251 0-.485.043-.702.13-.208.087-.39.212-.546.377a1.76 1.76 0 0 0-.351.559c-.087.217-.13.455-.13.715v.091h3.367v-.13c0-.529-.152-.949-.455-1.261-.295-.32-.689-.481-1.183-.481zm4.584 4.641h1.781v-4.42h-1.781v-1.144h3.198v1.781h.078a3.19 3.19 0 0 1 .26-.676c.113-.217.256-.403.429-.559.173-.165.386-.295.637-.39a2.3 2.3 0 0 1 .884-.156h.806v1.352h-1.326c-.52 0-.945.156-1.274.468-.329.303-.494.715-.494 1.235v2.509h2.431V105h-5.629v-1.144zm107.659-7.93h2.704c1.161 0 2.019.386 2.574 1.157.563.771.845 1.898.845 3.38s-.282 2.609-.845 3.38c-.555.771-1.413 1.157-2.574 1.157h-2.704v-9.074zm2.613 7.878c.667 0 1.161-.221 1.482-.663.329-.451.494-1.092.494-1.924v-1.508c0-.832-.165-1.469-.494-1.911-.321-.45-.815-.676-1.482-.676h-1.17v6.682h1.17zM464.931 105c-.407 0-.715-.104-.923-.312-.199-.208-.321-.481-.364-.819h-.065c-.13.407-.368.724-.715.949-.338.225-.771.338-1.3.338-.685 0-1.231-.178-1.638-.533-.407-.364-.611-.862-.611-1.495 0-.65.238-1.144.715-1.482.485-.347 1.226-.52 2.223-.52h1.287v-.52c0-.91-.481-1.365-1.443-1.365-.433 0-.784.087-1.053.26a2.141 2.141 0 0 0-.676.663l-.845-.689c.191-.364.511-.676.962-.936.451-.269 1.031-.403 1.742-.403.849 0 1.517.204 2.002.611.485.407.728.997.728 1.768v3.367h.845V105h-.871zm-2.964-.884c.459 0 .836-.104 1.131-.312.295-.208.442-.477.442-.806v-.975h-1.261c-1.023 0-1.534.308-1.534.923v.26c0 .303.108.533.325.689.217.147.516.221.897.221zm8.406.884c-.589 0-1.023-.156-1.3-.468-.277-.321-.416-.732-.416-1.235v-3.861h-2.067v-1.144h1.469c.251 0 .429-.048.533-.143.104-.104.156-.286.156-.546v-1.677h1.326v2.366h2.86v1.144h-2.86v4.42h2.86V105h-2.561zm9.628 0c-.408 0-.715-.104-.923-.312-.2-.208-.321-.481-.364-.819h-.065c-.13.407-.369.724-.715.949-.338.225-.772.338-1.3.338-.685 0-1.231-.178-1.638-.533-.408-.364-.611-.862-.611-1.495 0-.65.238-1.144.715-1.482.485-.347 1.226-.52 2.223-.52h1.287v-.52c0-.91-.481-1.365-1.443-1.365-.434 0-.785.087-1.053.26a2.141 2.141 0 0 0-.676.663l-.845-.689c.19-.364.511-.676.962-.936.45-.269 1.031-.403 1.742-.403.849 0 1.516.204 2.002.611.485.407.728.997.728 1.768v3.367h.845V105h-.871zm-2.964-.884c.459 0 .836-.104 1.131-.312.294-.208.442-.477.442-.806v-.975h-1.261c-1.023 0-1.534.308-1.534.923v.26c0 .303.108.533.325.689.216.147.515.221.897.221zm5.13-8.736h1.417v4.056h.078c.199-.407.463-.724.793-.949.329-.234.741-.351 1.235-.351.788 0 1.417.295 1.885.884.468.59.702 1.465.702 2.626 0 1.161-.234 2.037-.702 2.626-.468.589-1.097.884-1.885.884-.494 0-.906-.113-1.235-.338a2.491 2.491 0 0 1-.793-.962h-.078V105h-1.417v-9.62zm2.938 8.619c.537 0 .949-.165 1.235-.494.294-.329.442-.767.442-1.313V101.1c0-.546-.148-.984-.442-1.313-.286-.33-.698-.494-1.235-.494a2.12 2.12 0 0 0-.585.078c-.182.052-.343.13-.481.234a1.212 1.212 0 0 0-.338.39 1.125 1.125 0 0 0-.117.533v2.236c0 .208.039.39.117.546.086.147.199.273.338.377.138.104.299.182.481.234.182.052.377.078.585.078zm9.966 1.001c-.408 0-.715-.104-.923-.312-.2-.208-.321-.481-.364-.819h-.065c-.13.407-.369.724-.715.949-.338.225-.772.338-1.3.338-.685 0-1.231-.178-1.638-.533-.408-.364-.611-.862-.611-1.495 0-.65.238-1.144.715-1.482.485-.347 1.226-.52 2.223-.52h1.287v-.52c0-.91-.481-1.365-1.443-1.365-.434 0-.785.087-1.053.26a2.141 2.141 0 0 0-.676.663l-.845-.689c.19-.364.511-.676.962-.936.45-.269 1.031-.403 1.742-.403.849 0 1.516.204 2.002.611.485.407.728.997.728 1.768v3.367h.845V105h-.871zm-2.964-.884c.459 0 .836-.104 1.131-.312.294-.208.442-.477.442-.806v-.975h-1.261c-1.023 0-1.534.308-1.534.923v.26c0 .303.108.533.325.689.216.147.515.221.897.221zm8.016 1.04c-.728 0-1.357-.117-1.885-.351a3.405 3.405 0 0 1-1.261-.936l.871-.78c.294.321.624.568.988.741.372.165.81.247 1.313.247.459 0 .827-.078 1.105-.234a.775.775 0 0 0 .429-.728.723.723 0 0 0-.078-.351.643.643 0 0 0-.221-.234 1.212 1.212 0 0 0-.338-.143 2.539 2.539 0 0 0-.39-.078l-1.066-.169a5.432 5.432 0 0 1-.793-.169 2.754 2.754 0 0 1-.728-.325 1.88 1.88 0 0 1-.52-.559c-.13-.225-.195-.511-.195-.858 0-.685.26-1.205.78-1.56.528-.355 1.222-.533 2.08-.533.624 0 1.161.095 1.612.286.459.182.84.438 1.144.767l-.793.832c-.174-.2-.421-.381-.741-.546-.321-.173-.746-.26-1.274-.26-.945 0-1.417.299-1.417.897 0 .286.099.485.299.598.208.104.45.173.728.208l1.066.169c.268.043.533.1.793.169.268.069.507.178.715.325.216.139.39.321.52.546.138.225.208.511.208.858 0 .676-.265 1.209-.793 1.599-.52.381-1.24.572-2.158.572zm7.664 0c-.511 0-.97-.082-1.378-.247a2.797 2.797 0 0 1-1.027-.702 3.112 3.112 0 0 1-.637-1.092 4.515 4.515 0 0 1-.221-1.456c0-.537.074-1.023.221-1.456.156-.433.369-.802.637-1.105.278-.312.611-.55 1.001-.715.39-.165.824-.247 1.3-.247.468 0 .893.082 1.274.247.382.156.707.381.975.676.269.295.473.646.611 1.053.148.407.221.858.221 1.352v.533h-4.81v.221c0 .529.165.962.494 1.3.33.329.785.494 1.365.494.434 0 .802-.091 1.105-.273.312-.191.564-.442.754-.754l.884.78c-.225.39-.572.719-1.04.988-.459.269-1.035.403-1.729.403zm-.104-5.941c-.251 0-.485.043-.702.13-.208.087-.39.212-.546.377a1.76 1.76 0 0 0-.351.559c-.086.217-.13.455-.13.715v.091h3.367v-.13c0-.529-.151-.949-.455-1.261-.294-.32-.689-.481-1.183-.481zm15.044 5.941c-.728 0-1.356-.117-1.885-.351a3.413 3.413 0 0 1-1.261-.936l.871-.78c.295.321.624.568.988.741.373.165.811.247 1.313.247.46 0 .828-.078 1.105-.234a.775.775 0 0 0 .429-.728.634.634 0 0 0-.299-.585 1.2 1.2 0 0 0-.338-.143 2.492 2.492 0 0 0-.39-.078l-1.066-.169a5.46 5.46 0 0 1-.793-.169 2.783 2.783 0 0 1-.728-.325 1.894 1.894 0 0 1-.52-.559c-.13-.225-.195-.511-.195-.858 0-.685.26-1.205.78-1.56.529-.355 1.222-.533 2.08-.533.624 0 1.162.095 1.612.286.46.182.841.438 1.144.767l-.793.832c-.173-.2-.42-.381-.741-.546-.32-.173-.745-.26-1.274-.26-.944 0-1.417.299-1.417.897 0 .286.1.485.299.598.208.104.451.173.728.208l1.066.169c.269.043.533.1.793.169.269.069.507.178.715.325.217.139.39.321.52.546.139.225.208.511.208.858 0 .676-.264 1.209-.793 1.599-.52.381-1.239.572-2.158.572zm7.665 0c-.511 0-.97-.082-1.378-.247a2.797 2.797 0 0 1-1.027-.702 3.112 3.112 0 0 1-.637-1.092 4.515 4.515 0 0 1-.221-1.456c0-.537.074-1.023.221-1.456.156-.433.369-.802.637-1.105.278-.312.611-.55 1.001-.715.39-.165.824-.247 1.3-.247.468 0 .893.082 1.274.247.382.156.707.381.975.676.269.295.473.646.611 1.053.148.407.221.858.221 1.352v.533h-4.81v.221c0 .529.165.962.494 1.3.33.329.785.494 1.365.494.434 0 .802-.091 1.105-.273.312-.191.564-.442.754-.754l.884.78c-.225.39-.572.719-1.04.988-.459.269-1.035.403-1.729.403zm-.104-5.941c-.251 0-.485.043-.702.13-.208.087-.39.212-.546.377a1.76 1.76 0 0 0-.351.559c-.086.217-.13.455-.13.715v.091h3.367v-.13c0-.529-.151-.949-.455-1.261-.294-.32-.689-.481-1.183-.481zm4.584 4.641h1.781v-4.42h-1.781v-1.144h3.198v1.781h.078a3.19 3.19 0 0 1 .26-.676c.113-.217.256-.403.429-.559.173-.165.386-.295.637-.39a2.3 2.3 0 0 1 .884-.156h.806v1.352h-1.326c-.52 0-.945.156-1.274.468-.329.303-.494.715-.494 1.235v2.509h2.431V105h-5.629v-1.144zm9.576 1.144-2.405-6.708h1.469l.923 2.834.871 2.691h.078l.871-2.691.923-2.834h1.417L546.19 105h-1.742zm8.549.156c-.511 0-.971-.082-1.378-.247a2.789 2.789 0 0 1-1.027-.702 3.097 3.097 0 0 1-.637-1.092 4.515 4.515 0 0 1-.221-1.456c0-.537.074-1.023.221-1.456.156-.433.368-.802.637-1.105.277-.312.611-.55 1.001-.715.39-.165.823-.247 1.3-.247.468 0 .893.082 1.274.247.381.156.706.381.975.676.269.295.472.646.611 1.053.147.407.221.858.221 1.352v.533h-4.81v.221c0 .529.165.962.494 1.3.329.329.784.494 1.365.494.433 0 .802-.091 1.105-.273.312-.191.563-.442.754-.754l.884.78c-.225.39-.572.719-1.04.988-.459.269-1.036.403-1.729.403zm-.104-5.941c-.251 0-.485.043-.702.13-.208.087-.39.212-.546.377a1.76 1.76 0 0 0-.351.559c-.087.217-.13.455-.13.715v.091h3.367v-.13c0-.529-.152-.949-.455-1.261-.295-.32-.689-.481-1.183-.481zm4.584 4.641h1.781v-4.42h-1.781v-1.144h3.198v1.781h.078a3.19 3.19 0 0 1 .26-.676c.113-.217.256-.403.429-.559.173-.165.386-.295.637-.39a2.3 2.3 0 0 1 .884-.156h.806v1.352h-1.326c-.52 0-.945.156-1.274.468-.329.303-.494.715-.494 1.235v2.509h2.431V105h-5.629v-1.144zM55.079 276.926h3.133c.823 0 1.46.212 1.911.637.46.425.689 1.005.689 1.742 0 .529-.13.949-.39 1.261-.26.312-.611.533-1.053.663v.065c.529.121.953.355 1.274.702.32.338.481.819.481 1.443 0 .373-.06.715-.182 1.027a2.445 2.445 0 0 1-.52.819 2.441 2.441 0 0 1-.819.533 2.855 2.855 0 0 1-1.04.182h-3.484v-9.074zm3.042 7.956c.485 0 .858-.1 1.118-.299.26-.199.39-.52.39-.962v-.468c0-.442-.13-.763-.39-.962-.26-.199-.633-.299-1.118-.299h-1.612v2.99h1.612zm-.208-4.056c.46 0 .806-.087 1.04-.26.243-.182.364-.481.364-.897v-.468c0-.416-.121-.711-.364-.884-.234-.182-.58-.273-1.04-.273h-1.404v2.782h1.404zm8.913 4.03h-.065a2.66 2.66 0 0 1-.273.507 1.763 1.763 0 0 1-.39.416 1.994 1.994 0 0 1-.546.273c-.208.069-.45.104-.728.104-.676 0-1.222-.221-1.638-.663-.416-.442-.624-1.07-.624-1.885v-4.316h1.417v4.108c0 1.066.464 1.599 1.39 1.599.183 0 .36-.022.534-.065a1.67 1.67 0 0 0 .468-.221c.139-.095.247-.212.325-.351.087-.147.13-.321.13-.52v-4.55h1.417V286h-1.417v-1.144zm6.56-6.786c-.364 0-.62-.074-.767-.221a.765.765 0 0 1-.208-.546v-.273c0-.217.07-.399.208-.546.147-.147.398-.221.754-.221.364 0 .615.074.754.221a.74.74 0 0 1 .22.546v.273a.74.74 0 0 1-.22.546c-.139.147-.386.221-.741.221zm-3.003 6.786h2.288v-4.42h-2.288v-1.144h3.705v5.564h2.145V286h-5.85v-1.144zm7.197 0h2.223v-7.332H77.58v-1.144h3.64v8.476h2.223V286H77.58v-1.144zm11.916 0h-.078a2.5 2.5 0 0 1-.793.962c-.33.225-.741.338-1.235.338-.789 0-1.417-.295-1.885-.884-.468-.589-.702-1.465-.702-2.626 0-1.161.234-2.037.702-2.626.468-.589 1.096-.884 1.885-.884.494 0 .905.117 1.235.351.329.225.593.542.793.949h.078v-4.056h1.417V286h-1.417v-1.144zm-1.521.143c.208 0 .403-.026.585-.078.182-.052.342-.13.48-.234a1.129 1.129 0 0 0 .456-.923v-2.236a1.04 1.04 0 0 0-.13-.533 1.09 1.09 0 0 0-.325-.39 1.463 1.463 0 0 0-.481-.234 2.12 2.12 0 0 0-.585-.078c-.538 0-.954.165-1.248.494-.286.329-.43.767-.43 1.313v1.092c0 .546.144.984.43 1.313.294.329.71.494 1.248.494zm15.148 1.157c-.728 0-1.357-.117-1.885-.351a3.411 3.411 0 0 1-1.261-.936l.871-.78c.294.321.624.568.988.741.372.165.81.247 1.313.247.459 0 .827-.078 1.105-.234a.775.775 0 0 0 .429-.728.723.723 0 0 0-.078-.351.643.643 0 0 0-.221-.234 1.212 1.212 0 0 0-.338-.143 2.539 2.539 0 0 0-.39-.078l-1.066-.169a5.432 5.432 0 0 1-.793-.169 2.754 2.754 0 0 1-.728-.325 1.88 1.88 0 0 1-.52-.559c-.13-.225-.195-.511-.195-.858 0-.685.26-1.205.78-1.56.528-.355 1.222-.533 2.08-.533.624 0 1.161.095 1.612.286.459.182.84.438 1.144.767l-.793.832c-.174-.199-.421-.381-.741-.546-.321-.173-.746-.26-1.274-.26-.945 0-1.417.299-1.417.897 0 .286.099.485.299.598.208.104.45.173.728.208l1.066.169c.268.043.533.1.793.169.268.069.507.178.715.325.216.139.39.321.52.546.138.225.208.511.208.858 0 .676-.265 1.209-.793 1.599-.52.381-1.24.572-2.158.572zm7.664 0c-.511 0-.97-.082-1.378-.247a2.797 2.797 0 0 1-1.027-.702 3.112 3.112 0 0 1-.637-1.092 4.515 4.515 0 0 1-.221-1.456c0-.537.074-1.023.221-1.456.156-.433.369-.802.637-1.105.278-.312.611-.55 1.001-.715.39-.165.824-.247 1.3-.247.468 0 .893.082 1.274.247.382.156.707.381.975.676.269.295.473.646.611 1.053.148.407.221.858.221 1.352v.533h-4.81v.221c0 .529.165.962.494 1.3.33.329.785.494 1.365.494.434 0 .802-.091 1.105-.273.312-.191.564-.442.754-.754l.884.78c-.225.39-.572.719-1.04.988-.459.269-1.035.403-1.729.403zm-.104-5.941c-.251 0-.485.043-.702.13-.208.087-.39.212-.546.377a1.76 1.76 0 0 0-.351.559c-.086.217-.13.455-.13.715v.091h3.367v-.13c0-.529-.151-.949-.455-1.261-.294-.321-.689-.481-1.183-.481zm4.584 4.641h1.781v-4.42h-1.781v-1.144h3.198v1.781h.078c.061-.234.148-.459.26-.676.113-.217.256-.403.429-.559.174-.165.386-.295.637-.39.252-.104.546-.156.884-.156h.806v1.352h-1.326c-.52 0-.944.156-1.274.468-.329.303-.494.715-.494 1.235v2.509h2.431V286h-5.629v-1.144zm9.576 1.144-2.405-6.708h1.469l.923 2.834.871 2.691h.078l.871-2.691.923-2.834h1.417L126.585 286h-1.742zm8.549.156c-.511 0-.97-.082-1.378-.247a2.797 2.797 0 0 1-1.027-.702 3.112 3.112 0 0 1-.637-1.092 4.515 4.515 0 0 1-.221-1.456c0-.537.074-1.023.221-1.456.156-.433.369-.802.637-1.105.278-.312.611-.55 1.001-.715.39-.165.824-.247 1.3-.247.468 0 .893.082 1.274.247.382.156.707.381.975.676.269.295.473.646.611 1.053.148.407.221.858.221 1.352v.533h-4.81v.221c0 .529.165.962.494 1.3.33.329.785.494 1.365.494.434 0 .802-.091 1.105-.273.312-.191.564-.442.754-.754l.884.78c-.225.39-.572.719-1.04.988-.459.269-1.035.403-1.729.403zm-.104-5.941c-.251 0-.485.043-.702.13-.208.087-.39.212-.546.377a1.76 1.76 0 0 0-.351.559c-.086.217-.13.455-.13.715v.091h3.367v-.13c0-.529-.151-.949-.455-1.261-.294-.321-.689-.481-1.183-.481zm4.584 4.641h1.781v-4.42h-1.781v-1.144h3.198v1.781h.078a3.21 3.21 0 0 1 .26-.676c.113-.217.256-.403.429-.559.173-.165.386-.295.637-.39a2.3 2.3 0 0 1 .884-.156h.806v1.352h-1.326c-.52 0-.945.156-1.274.468-.329.303-.494.715-.494 1.235v2.509h2.431V286h-5.629v-1.144zm119.756-6.708V286h-1.456v-7.852h-2.847v-1.222h7.15v1.222h-2.847zm6.95 8.008c-.511 0-.971-.082-1.378-.247a2.789 2.789 0 0 1-1.027-.702 3.097 3.097 0 0 1-.637-1.092 4.515 4.515 0 0 1-.221-1.456c0-.537.074-1.023.221-1.456.156-.433.368-.802.637-1.105.277-.312.611-.55 1.001-.715.39-.165.823-.247 1.3-.247.468 0 .893.082 1.274.247.381.156.706.381.975.676.269.295.472.646.611 1.053.147.407.221.858.221 1.352v.533h-4.81v.221c0 .529.165.962.494 1.3.329.329.784.494 1.365.494.433 0 .802-.091 1.105-.273.312-.191.563-.442.754-.754l.884.78c-.225.39-.572.719-1.04.988-.459.269-1.036.403-1.729.403zm-.104-5.941c-.251 0-.485.043-.702.13-.208.087-.39.212-.546.377a1.76 1.76 0 0 0-.351.559c-.087.217-.13.455-.13.715v.091h3.367v-.13c0-.529-.152-.949-.455-1.261-.295-.321-.689-.481-1.183-.481zm7.509 5.941c-.728 0-1.356-.117-1.885-.351a3.413 3.413 0 0 1-1.261-.936l.871-.78c.295.321.624.568.988.741.373.165.81.247 1.313.247.459 0 .828-.078 1.105-.234a.775.775 0 0 0 .429-.728.723.723 0 0 0-.078-.351.643.643 0 0 0-.221-.234 1.2 1.2 0 0 0-.338-.143 2.492 2.492 0 0 0-.39-.078l-1.066-.169a5.46 5.46 0 0 1-.793-.169 2.768 2.768 0 0 1-.728-.325 1.894 1.894 0 0 1-.52-.559c-.13-.225-.195-.511-.195-.858 0-.685.26-1.205.78-1.56.529-.355 1.222-.533 2.08-.533.624 0 1.161.095 1.612.286.459.182.841.438 1.144.767l-.793.832c-.173-.199-.42-.381-.741-.546-.321-.173-.745-.26-1.274-.26-.945 0-1.417.299-1.417.897 0 .286.1.485.299.598.208.104.451.173.728.208l1.066.169c.269.043.533.1.793.169.269.069.507.178.715.325.217.139.39.321.52.546.139.225.208.511.208.858 0 .676-.264 1.209-.793 1.599-.52.381-1.239.572-2.158.572zm7.925-.156c-.59 0-1.023-.156-1.3-.468-.278-.321-.416-.732-.416-1.235v-3.861h-2.067v-1.144h1.469c.251 0 .429-.048.533-.143.104-.104.156-.286.156-.546v-1.677h1.326v2.366h2.86v1.144h-2.86v4.42h2.86V286h-2.561zm14.68.156c-.728 0-1.357-.117-1.885-.351a3.405 3.405 0 0 1-1.261-.936l.871-.78c.294.321.624.568.988.741.372.165.81.247 1.313.247.459 0 .827-.078 1.105-.234a.775.775 0 0 0 .429-.728.723.723 0 0 0-.078-.351.643.643 0 0 0-.221-.234 1.212 1.212 0 0 0-.338-.143 2.539 2.539 0 0 0-.39-.078l-1.066-.169a5.432 5.432 0 0 1-.793-.169 2.754 2.754 0 0 1-.728-.325 1.88 1.88 0 0 1-.52-.559c-.13-.225-.195-.511-.195-.858 0-.685.26-1.205.78-1.56.528-.355 1.222-.533 2.08-.533.624 0 1.161.095 1.612.286.459.182.84.438 1.144.767l-.793.832c-.174-.199-.421-.381-.741-.546-.321-.173-.746-.26-1.274-.26-.945 0-1.417.299-1.417.897 0 .286.099.485.299.598.208.104.45.173.728.208l1.066.169c.268.043.533.1.793.169.268.069.507.178.715.325.216.139.39.321.52.546.138.225.208.511.208.858 0 .676-.265 1.209-.793 1.599-.52.381-1.24.572-2.158.572zm7.665 0c-.512 0-.971-.082-1.378-.247a2.78 2.78 0 0 1-1.027-.702 3.082 3.082 0 0 1-.637-1.092 4.487 4.487 0 0 1-.221-1.456c0-.537.073-1.023.221-1.456.156-.433.368-.802.637-1.105.277-.312.611-.55 1.001-.715.39-.165.823-.247 1.3-.247.468 0 .892.082 1.274.247.381.156.706.381.975.676.268.295.472.646.611 1.053.147.407.221.858.221 1.352v.533h-4.81v.221c0 .529.164.962.494 1.3.329.329.784.494 1.365.494.433 0 .801-.091 1.105-.273.312-.191.563-.442.754-.754l.884.78c-.226.39-.572.719-1.04.988-.46.269-1.036.403-1.729.403zm-.104-5.941c-.252 0-.486.043-.702.13-.208.087-.39.212-.546.377a1.725 1.725 0 0 0-.351.559c-.087.217-.13.455-.13.715v.091h3.367v-.13c0-.529-.152-.949-.455-1.261-.295-.321-.689-.481-1.183-.481zm4.583 4.641h1.781v-4.42h-1.781v-1.144h3.198v1.781h.078c.061-.234.148-.459.26-.676.113-.217.256-.403.429-.559.174-.165.386-.295.637-.39.252-.104.546-.156.884-.156h.806v1.352h-1.326c-.52 0-.944.156-1.274.468-.329.303-.494.715-.494 1.235v2.509h2.431V286h-5.629v-1.144zm9.576 1.144-2.405-6.708h1.469l.923 2.834.871 2.691h.078l.871-2.691.923-2.834h1.417L318.05 286h-1.742zm8.549.156c-.511 0-.97-.082-1.378-.247a2.797 2.797 0 0 1-1.027-.702 3.112 3.112 0 0 1-.637-1.092 4.515 4.515 0 0 1-.221-1.456c0-.537.074-1.023.221-1.456.156-.433.369-.802.637-1.105.278-.312.611-.55 1.001-.715.39-.165.824-.247 1.3-.247.468 0 .893.082 1.274.247.382.156.707.381.975.676.269.295.473.646.611 1.053.148.407.221.858.221 1.352v.533h-4.81v.221c0 .529.165.962.494 1.3.33.329.785.494 1.365.494.434 0 .802-.091 1.105-.273.312-.191.564-.442.754-.754l.884.78c-.225.39-.572.719-1.04.988-.459.269-1.035.403-1.729.403zm-.104-5.941c-.251 0-.485.043-.702.13-.208.087-.39.212-.546.377a1.76 1.76 0 0 0-.351.559c-.086.217-.13.455-.13.715v.091h3.367v-.13c0-.529-.151-.949-.455-1.261-.294-.321-.689-.481-1.183-.481zm4.584 4.641h1.781v-4.42h-1.781v-1.144h3.198v1.781h.078c.061-.234.148-.459.26-.676.113-.217.256-.403.429-.559.174-.165.386-.295.637-.39.252-.104.546-.156.884-.156h.806v1.352h-1.326c-.52 0-.944.156-1.274.468-.329.303-.494.715-.494 1.235v2.509h2.431V286h-5.629v-1.144zm126.291-6.708V286h-1.456v-7.852h-2.847v-1.222h7.15v1.222h-2.847zm6.95 8.008c-.511 0-.971-.082-1.378-.247a2.789 2.789 0 0 1-1.027-.702 3.097 3.097 0 0 1-.637-1.092 4.515 4.515 0 0 1-.221-1.456c0-.537.074-1.023.221-1.456.156-.433.368-.802.637-1.105.277-.312.611-.55 1.001-.715.39-.165.823-.247 1.3-.247.468 0 .893.082 1.274.247.381.156.706.381.975.676.269.295.472.646.611 1.053.147.407.221.858.221 1.352v.533h-4.81v.221c0 .529.165.962.494 1.3.329.329.784.494 1.365.494.433 0 .802-.091 1.105-.273.312-.191.563-.442.754-.754l.884.78c-.225.39-.572.719-1.04.988-.459.269-1.036.403-1.729.403zm-.104-5.941c-.251 0-.485.043-.702.13-.208.087-.39.212-.546.377a1.76 1.76 0 0 0-.351.559c-.087.217-.13.455-.13.715v.091h3.367v-.13c0-.529-.152-.949-.455-1.261-.295-.321-.689-.481-1.183-.481zm7.509 5.941c-.728 0-1.356-.117-1.885-.351a3.413 3.413 0 0 1-1.261-.936l.871-.78c.295.321.624.568.988.741.373.165.81.247 1.313.247.459 0 .828-.078 1.105-.234a.775.775 0 0 0 .429-.728.723.723 0 0 0-.078-.351.643.643 0 0 0-.221-.234 1.2 1.2 0 0 0-.338-.143 2.492 2.492 0 0 0-.39-.078l-1.066-.169a5.46 5.46 0 0 1-.793-.169 2.768 2.768 0 0 1-.728-.325 1.894 1.894 0 0 1-.52-.559c-.13-.225-.195-.511-.195-.858 0-.685.26-1.205.78-1.56.529-.355 1.222-.533 2.08-.533.624 0 1.161.095 1.612.286.459.182.841.438 1.144.767l-.793.832c-.173-.199-.42-.381-.741-.546-.321-.173-.745-.26-1.274-.26-.945 0-1.417.299-1.417.897 0 .286.1.485.299.598.208.104.451.173.728.208l1.066.169c.269.043.533.1.793.169.269.069.507.178.715.325.217.139.39.321.52.546.139.225.208.511.208.858 0 .676-.264 1.209-.793 1.599-.52.381-1.239.572-2.158.572zm7.925-.156c-.59 0-1.023-.156-1.3-.468-.278-.321-.416-.732-.416-1.235v-3.861h-2.067v-1.144h1.469c.251 0 .429-.048.533-.143.104-.104.156-.286.156-.546v-1.677h1.326v2.366h2.86v1.144h-2.86v4.42h2.86V286h-2.561zm11.339 0v-6.708h1.209v.871h.065c.104-.286.251-.529.442-.728.199-.199.481-.299.845-.299.355 0 .628.1.819.299.199.191.325.455.377.793h.052c.121-.303.29-.559.507-.767.216-.217.528-.325.936-.325.52 0 .879.182 1.079.546.208.364.312.897.312 1.599V286h-1.209v-4.537c0-.468-.057-.789-.169-.962-.113-.182-.295-.273-.546-.273a.777.777 0 0 0-.572.234c-.148.147-.221.373-.221.676V286h-1.209v-4.537c0-.468-.057-.789-.169-.962-.104-.182-.282-.273-.533-.273a.794.794 0 0 0-.585.234c-.148.147-.221.373-.221.676V286h-1.209zm13.359 0c-.408 0-.715-.104-.923-.312-.2-.208-.321-.481-.364-.819h-.065c-.13.407-.369.724-.715.949-.338.225-.772.338-1.3.338-.685 0-1.231-.178-1.638-.533-.408-.364-.611-.862-.611-1.495 0-.65.238-1.144.715-1.482.485-.347 1.226-.52 2.223-.52h1.287v-.52c0-.91-.481-1.365-1.443-1.365-.434 0-.785.087-1.053.26a2.147 2.147 0 0 0-.676.663l-.845-.689c.19-.364.511-.676.962-.936.45-.269 1.031-.403 1.742-.403.849 0 1.516.204 2.002.611.485.407.728.997.728 1.768v3.367h.845V286h-.871zm-2.964-.884c.459 0 .836-.104 1.131-.312.294-.208.442-.477.442-.806v-.975h-1.261c-1.023 0-1.534.308-1.534.923v.26c0 .303.108.533.325.689.216.147.515.221.897.221zm5.194.884v-6.708h1.417v1.144h.065a2.74 2.74 0 0 1 .26-.494 1.68 1.68 0 0 1 .403-.416c.156-.121.338-.217.546-.286.208-.069.451-.104.728-.104.676 0 1.222.221 1.638.663.416.442.624 1.07.624 1.885V286H509.1v-4.108c0-1.066-.463-1.599-1.391-1.599-.182 0-.359.026-.533.078a1.437 1.437 0 0 0-.468.208 1.144 1.144 0 0 0-.338.364 1.065 1.065 0 0 0-.117.507V286h-1.417zm12.839 0c-.407 0-.715-.104-.923-.312-.199-.208-.32-.481-.364-.819h-.065c-.13.407-.368.724-.715.949-.338.225-.771.338-1.3.338-.684 0-1.23-.178-1.638-.533-.407-.364-.611-.862-.611-1.495 0-.65.239-1.144.715-1.482.486-.347 1.227-.52 2.223-.52h1.287v-.52c0-.91-.481-1.365-1.443-1.365-.433 0-.784.087-1.053.26a2.158 2.158 0 0 0-.676.663l-.845-.689c.191-.364.512-.676.962-.936.451-.269 1.032-.403 1.742-.403.85 0 1.517.204 2.002.611.486.407.728.997.728 1.768v3.367h.845V286h-.871zm-2.964-.884c.46 0 .837-.104 1.131-.312.295-.208.442-.477.442-.806v-.975h-1.261c-1.022 0-1.534.308-1.534.923v.26c0 .303.109.533.325.689.217.147.516.221.897.221zm11.513 1.612c0 .693-.29 1.205-.871 1.534-.58.329-1.464.494-2.652.494-.58 0-1.07-.039-1.469-.117-.39-.069-.71-.173-.962-.312a1.384 1.384 0 0 1-.533-.507 1.44 1.44 0 0 1-.156-.676c0-.364.1-.65.299-.858.208-.199.499-.347.871-.442v-.13a1.383 1.383 0 0 1-.546-.364c-.13-.156-.195-.36-.195-.611 0-.329.113-.576.338-.741.226-.173.516-.303.871-.39v-.065a2.232 2.232 0 0 1-.949-.806c-.225-.347-.338-.763-.338-1.248a2.3 2.3 0 0 1 .195-.962c.13-.295.312-.542.546-.741.243-.208.529-.368.858-.481a3.553 3.553 0 0 1 1.131-.169c.468 0 .889.074 1.261.221v-.221a.97.97 0 0 1 .221-.65c.148-.173.373-.26.676-.26h1.222v1.118h-1.56v.312c.295.199.52.455.676.767.156.303.234.659.234 1.066 0 .355-.065.68-.195.975a2.12 2.12 0 0 1-.559.741 2.56 2.56 0 0 1-.858.468 3.706 3.706 0 0 1-1.118.156c-.294 0-.572-.026-.832-.078a1.627 1.627 0 0 0-.468.221.49.49 0 0 0-.234.429c0 .208.1.338.299.39.2.052.447.078.741.078h1.508c.902 0 1.552.173 1.95.52.399.338.598.784.598 1.339zm-1.326.091a.655.655 0 0 0-.273-.546c-.182-.13-.511-.195-.988-.195h-2.327c-.329.156-.494.407-.494.754 0 .251.104.468.312.65.217.182.572.273 1.066.273h1.053c.538 0 .945-.082 1.222-.247.286-.156.429-.386.429-.689zm-2.236-3.965c.46 0 .798-.108 1.014-.325.217-.217.325-.507.325-.871v-.351c0-.364-.108-.654-.325-.871-.216-.217-.554-.325-1.014-.325-.459 0-.797.108-1.014.325-.216.217-.325.507-.325.871v.351c0 .364.109.654.325.871.217.217.555.325 1.014.325zm7.73 3.302c-.511 0-.97-.082-1.378-.247a2.797 2.797 0 0 1-1.027-.702 3.112 3.112 0 0 1-.637-1.092 4.515 4.515 0 0 1-.221-1.456c0-.537.074-1.023.221-1.456.156-.433.369-.802.637-1.105.278-.312.611-.55 1.001-.715.39-.165.824-.247 1.3-.247.468 0 .893.082 1.274.247.382.156.707.381.975.676.269.295.473.646.611 1.053.148.407.221.858.221 1.352v.533h-4.81v.221c0 .529.165.962.494 1.3.33.329.785.494 1.365.494.434 0 .802-.091 1.105-.273.312-.191.564-.442.754-.754l.884.78c-.225.39-.572.719-1.04.988-.459.269-1.035.403-1.729.403zm-.104-5.941c-.251 0-.485.043-.702.13-.208.087-.39.212-.546.377a1.76 1.76 0 0 0-.351.559c-.086.217-.13.455-.13.715v.091h3.367v-.13c0-.529-.151-.949-.455-1.261-.294-.321-.689-.481-1.183-.481zm4.584 4.641h1.781v-4.42h-1.781v-1.144h3.198v1.781h.078a3.21 3.21 0 0 1 .26-.676c.113-.217.256-.403.429-.559.173-.165.386-.295.637-.39a2.3 2.3 0 0 1 .884-.156h.806v1.352h-1.326c-.52 0-.945.156-1.274.468-.329.303-.494.715-.494 1.235v2.509h2.431V286h-5.629v-1.144z"/><path fill="#3E3E41" d="m112 211 2.887-5h-5.774l2.887 5zm193.47-49.132H120v1h185.47v-1zm-193.97 8.5V206.5h1v-36.132h-1zm193.97-7.5H310v-1h-4.53v1zm13.03-8.5V134h-1v20.368h1zm-8.5 8.5a8.5 8.5 0 0 0 8.5-8.5h-1a7.5 7.5 0 0 1-7.5 7.5v1zm-190-1a8.5 8.5 0 0 0-8.5 8.5h1a7.5 7.5 0 0 1 7.5-7.5v-1z"/><path fill="#ED597E" d="m267.167 64.708-3.75-2.188v-4.354l3.75-2.187 3.75 2.187V62.5l-3.75 2.208zm-12.5-1.042v-2.333c0-.458.118-.889.354-1.292.236-.402.562-.708.979-.916a13.037 13.037 0 0 1 2.396-.917c.889-.25 1.868-.375 2.937-.375h.292a.78.78 0 0 1 .25.042c-.403 1-.57 1.993-.5 2.979.069.986.403 1.924 1 2.812h-7.708zM261.333 57a3.21 3.21 0 0 1-2.354-.98 3.209 3.209 0 0 1-.979-2.354c0-.916.326-1.701.979-2.354a3.21 3.21 0 0 1 2.354-.979c.917 0 1.702.326 2.354.98a3.21 3.21 0 0 1 .98 2.353 3.21 3.21 0 0 1-.98 2.355 3.208 3.208 0 0 1-2.354.979zm3.875 1.541 1.959 1.146 1.958-1.146-1.958-1.125-1.959 1.125zm2.584 4.334 1.875-1.084V59.5l-1.875 1.104v2.27zm-3.125-1.084 1.875 1.105v-2.271l-1.875-1.105v2.271z"/><defs><clipPath id="a"><path fill="#fff" d="M54 47h20v20H54z"/></clipPath><clipPath id="b"><path fill="#fff" d="M451 224h20v20h-20z"/></clipPath><clipPath id="c"><path fill="#fff" d="M451 47h20v20h-20z"/></clipPath></defs></svg>