<svg xmlns="http://www.w3.org/2000/svg" width="350" height="530" fill="none"><rect width="115.606" height="115.606" x=".364" y="90.864" stroke="#3E3E41" stroke-dasharray="3.36 3.36" stroke-width=".727" rx="13.06"/><path fill="#A1A1A8" d="M30.552 145.711v8.456h-1.568v-8.456h-3.066v-1.316h7.7v1.316h-3.066zm4.195 7.224h1.918v-4.76h-1.918v-1.232h3.444v1.918h.084c.065-.252.159-.495.28-.728.121-.233.275-.434.462-.602.187-.177.415-.317.686-.42.27-.112.588-.168.952-.168h.868v1.456h-1.428c-.56 0-1.017.168-1.372.504-.355.327-.532.77-.532 1.33v2.702h2.618v1.232h-6.062v-1.232zm13.938 1.232c-.438 0-.77-.112-.994-.336-.214-.224-.345-.518-.392-.882h-.07a1.85 1.85 0 0 1-.77 1.022c-.364.243-.83.364-1.4.364-.737 0-1.325-.191-1.764-.574-.438-.392-.658-.929-.658-1.61 0-.7.257-1.232.77-1.596.523-.373 1.321-.56 2.394-.56h1.386v-.56c0-.98-.518-1.47-1.554-1.47-.466 0-.844.093-1.134.28a2.305 2.305 0 0 0-.728.714l-.91-.742c.206-.392.551-.728 1.036-1.008.486-.289 1.111-.434 1.876-.434.915 0 1.634.219 2.156.658.523.439.784 1.073.784 1.904v3.626h.91v1.204h-.938zm-3.192-.952c.495 0 .901-.112 1.218-.336.318-.224.476-.513.476-.868v-1.05H45.83c-1.1 0-1.652.331-1.652.994v.28c0 .327.117.574.35.742.234.159.556.238.966.238zm9.067-7.588c-.392 0-.667-.079-.826-.238a.826.826 0 0 1-.224-.588v-.294c0-.233.075-.429.224-.588.159-.159.43-.238.812-.238.392 0 .663.079.812.238a.8.8 0 0 1 .238.588v.294a.8.8 0 0 1-.238.588c-.15.159-.415.238-.798.238zm-3.234 7.308h2.464v-4.76h-2.464v-1.232h3.99v5.992h2.31v1.232h-6.3v-1.232zm7.877 1.232v-7.224h1.525v1.232h.07c.075-.187.169-.364.28-.532.122-.177.266-.327.434-.448.169-.131.364-.233.588-.308.224-.075.486-.112.785-.112.727 0 1.316.238 1.764.714.448.476.671 1.153.671 2.03v4.648h-1.525v-4.424c0-1.148-.5-1.722-1.498-1.722a1.99 1.99 0 0 0-.575.084 1.54 1.54 0 0 0-.504.224 1.22 1.22 0 0 0-.364.392 1.151 1.151 0 0 0-.126.546v4.9h-1.526zm11.586-8.54c-.392 0-.667-.079-.826-.238a.827.827 0 0 1-.224-.588v-.294c0-.233.075-.429.224-.588.159-.159.43-.238.812-.238.392 0 .663.079.812.238a.8.8 0 0 1 .238.588v.294a.8.8 0 0 1-.238.588c-.15.159-.415.238-.798.238zm-3.234 7.308h2.464v-4.76h-2.464v-1.232h3.99v5.992h2.31v1.232h-6.3v-1.232zm7.877 1.232v-7.224h1.526v1.232h.07a2.88 2.88 0 0 1 .28-.532 1.78 1.78 0 0 1 .434-.448c.168-.131.364-.233.588-.308.224-.075.485-.112.784-.112.728 0 1.316.238 1.764.714.448.476.672 1.153.672 2.03v4.648h-1.526v-4.424c0-1.148-.5-1.722-1.498-1.722-.196 0-.388.028-.574.084a1.54 1.54 0 0 0-.504.224 1.21 1.21 0 0 0-.364.392 1.151 1.151 0 0 0-.126.546v4.9h-1.526zm14.918.784c0 .747-.313 1.297-.938 1.652s-1.577.532-2.856.532c-.625 0-1.153-.042-1.582-.126-.42-.075-.765-.187-1.036-.336a1.473 1.473 0 0 1-.574-.546 1.55 1.55 0 0 1-.168-.728c0-.392.107-.7.322-.924.224-.215.537-.373.938-.476v-.14a1.477 1.477 0 0 1-.588-.392c-.14-.168-.21-.387-.21-.658 0-.355.121-.621.364-.798.243-.187.555-.327.938-.42v-.07a2.397 2.397 0 0 1-1.022-.868c-.243-.373-.364-.821-.364-1.344 0-.383.07-.728.21-1.036.14-.317.336-.583.588-.798.261-.224.57-.397.924-.518.364-.121.77-.182 1.218-.182.504 0 .957.079 1.358.238v-.238c0-.28.08-.513.238-.7.159-.187.401-.28.728-.28h1.316v1.204h-1.68v.336c.317.215.56.49.728.826.168.327.252.709.252 1.148 0 .383-.07.733-.21 1.05-.14.308-.34.574-.602.798-.252.215-.56.383-.924.504a3.993 3.993 0 0 1-1.204.168c-.317 0-.616-.028-.896-.084a1.77 1.77 0 0 0-.504.238.527.527 0 0 0-.252.462c0 .224.107.364.322.42.215.056.48.084.798.084h1.624c.97 0 1.67.187 2.1.56.43.364.644.845.644 1.442zm-1.428.098a.704.704 0 0 0-.294-.588c-.196-.14-.55-.21-1.064-.21h-2.506c-.355.168-.532.439-.532.812 0 .271.112.504.336.7.233.196.616.294 1.148.294h1.134c.579 0 1.017-.089 1.316-.266.308-.168.462-.415.462-.742zm-2.408-4.27c.495 0 .859-.117 1.092-.35.233-.233.35-.546.35-.938v-.378c0-.392-.117-.705-.35-.938-.233-.233-.597-.35-1.092-.35-.495 0-.859.117-1.092.35-.233.233-.35.546-.35.938v.378c0 .392.117.705.35.938.233.233.597.35 1.092.35z"/><rect width="116.333" height="116.333" x="116.333" y="206.834" fill="#1C1C1C" rx="13.423"/><path fill="#fff" d="m192.933 278.597-.232-2.609c.78-.116 1.453-.41 2.017-.881.572-.464 1.036-1.164 1.392-2.099l.197-.51-4.696-11.977h3.142l3.096 8.44 2.62-8.44h3.142l-4.301 12.313c-.673 1.925-1.531 3.32-2.574 4.186-1.036.873-2.304 1.399-3.803 1.577z"/><path fill="#fff" d="M186.572 268.88v-13.473h3.154v13.427c0 .68.158 1.175.475 1.484.325.301.908.452 1.751.452h.394l-.244 2.342h-1.321c-1.384 0-2.431-.313-3.143-.939-.711-.634-1.066-1.731-1.066-3.293zm-12.924-8.36h3.154v1.102a6.37 6.37 0 0 1 1.588-.997c.58-.255 1.322-.383 2.226-.383.936 0 1.693.174 2.273.522a3.1 3.1 0 0 1 1.275 1.368c.271.572.406 1.21.406 1.913v8.928h-3.154v-8.754c0-.44-.116-.777-.347-1.009a1.746 1.746 0 0 0-.847-.475 4.01 4.01 0 0 0-.997-.128c-.379 0-.754.07-1.125.209-.371.139-.68.344-.927.615-.248.27-.371.61-.371 1.02v8.522h-3.154V260.52zm-12.089 8.557v-4.858c0-1.267.479-2.245 1.437-2.933.967-.688 2.257-1.032 3.873-1.032 1.917 0 3.277.367 4.081 1.101.812.735 1.218 1.728 1.218 2.98v3.015h-7.456v2.029c0 .734.19 1.198.568 1.391.379.186.943.279 1.693.279.897 0 1.496-.124 1.797-.372.31-.255.464-.765.464-1.53h2.922c0 1.538-.433 2.605-1.299 3.2-.865.595-2.179.893-3.942.893-1.012 0-1.924-.124-2.736-.371-.812-.255-1.453-.684-1.925-1.287-.464-.603-.695-1.438-.695-2.505zm7.629-3.652v-1.461c0-.464-.101-.8-.302-1.009-.193-.216-.46-.351-.8-.405a6.234 6.234 0 0 0-1.136-.093c-.634 0-1.167.097-1.6.29-.425.185-.638.61-.638 1.275v1.403h4.476zm-16.623 7.849c-1.522 0-2.778-.147-3.768-.44-.981-.302-1.751-.719-2.307-1.252a4.429 4.429 0 0 1-1.16-1.879 7.835 7.835 0 0 1-.336-2.342v-5.716c0-.866.108-1.666.325-2.4a4.555 4.555 0 0 1 1.159-1.936c.557-.549 1.326-.974 2.308-1.276.989-.309 2.249-.464 3.779-.464 1.485 0 2.687.143 3.606.429.928.286 1.635.688 2.122 1.206a4.042 4.042 0 0 1 1.009 1.821c.185.695.278 1.453.278 2.272v.267l-3.385.255v-.684c0-1.152-.283-1.917-.847-2.296-.564-.379-1.492-.568-2.783-.568-1.275 0-2.28.201-3.014.603-.734.402-1.102 1.19-1.102 2.365v6.47c0 .781.163 1.38.487 1.797.333.41.804.692 1.415.846.618.147 1.356.221 2.214.221.874 0 1.6-.074 2.18-.221.58-.154 1.013-.436 1.299-.846.294-.417.44-1.016.44-1.797v-1.252h-3.455v-2.261h6.563v8.777h-1.821l-.545-1.971a3.338 3.338 0 0 1-.289.58c-.147.247-.387.502-.719.765-.333.255-.793.471-1.38.649-.587.186-1.345.278-2.273.278z"/><rect width="115.606" height="115.606" x="116.864" y="-26.637" stroke="#3E3E41" stroke-dasharray="3.36 3.36" stroke-width=".727" rx="13.06"/><path fill="#A1A1A8" d="m160.47 21.491.042-2.94h-.112l-1.96 5.026-1.96-5.026h-.112l.042 2.94v4.676h-1.386v-9.772h1.918l1.498 3.878h.098l1.512-3.878h1.806v9.772h-1.386v-4.676zm6.085 4.844a3.744 3.744 0 0 1-1.442-.266 3.04 3.04 0 0 1-1.078-.756 3.419 3.419 0 0 1-.672-1.19 4.843 4.843 0 0 1-.238-1.568c0-.579.079-1.101.238-1.568.158-.467.382-.863.672-1.19a3.04 3.04 0 0 1 1.078-.756 3.75 3.75 0 0 1 1.442-.266c.532 0 1.008.089 1.428.266a2.9 2.9 0 0 1 1.078.756c.298.327.527.723.686 1.19.158.467.238.99.238 1.568a4.87 4.87 0 0 1-.238 1.568 3.337 3.337 0 0 1-.686 1.19 2.89 2.89 0 0 1-1.078.756c-.42.177-.896.266-1.428.266zm0-1.204c.56 0 1.003-.168 1.33-.504.336-.345.504-.854.504-1.526v-1.092c0-.672-.168-1.176-.504-1.512-.327-.345-.77-.518-1.33-.518s-1.008.173-1.344.518c-.327.336-.49.84-.49 1.512v1.092c0 .672.163 1.18.49 1.526.336.336.784.504 1.344.504zm9.682-.196h-.084a2.68 2.68 0 0 1-.854 1.036c-.354.243-.798.364-1.33.364-.849 0-1.526-.317-2.03-.952-.504-.635-.756-1.577-.756-2.828 0-1.25.252-2.193.756-2.828.504-.635 1.181-.952 2.03-.952.532 0 .976.126 1.33.378.355.243.64.583.854 1.022h.084v-4.368h1.526v10.36h-1.526v-1.232zm-1.638.154c.224 0 .434-.028.63-.084.196-.056.369-.14.518-.252a1.205 1.205 0 0 0 .49-.994v-2.408c0-.224-.046-.415-.14-.574a1.167 1.167 0 0 0-.35-.42 1.572 1.572 0 0 0-.518-.252 2.284 2.284 0 0 0-.63-.084c-.578 0-1.026.177-1.344.532-.308.355-.462.826-.462 1.414v1.176c0 .588.154 1.06.462 1.414.318.355.766.532 1.344.532zm8.339 1.246a3.927 3.927 0 0 1-1.484-.266 2.986 2.986 0 0 1-1.106-.756 3.327 3.327 0 0 1-.686-1.176 4.843 4.843 0 0 1-.238-1.568c0-.579.079-1.101.238-1.568a3.61 3.61 0 0 1 .686-1.19 2.962 2.962 0 0 1 1.078-.77c.42-.177.886-.266 1.4-.266.504 0 .961.089 1.372.266.41.168.76.41 1.05.728.289.317.508.695.658 1.134.158.439.238.924.238 1.456v.574h-5.18v.238c0 .57.177 1.036.532 1.4.354.355.844.532 1.47.532.466 0 .863-.098 1.19-.294.336-.205.606-.476.812-.812l.952.84c-.243.42-.616.775-1.12 1.064-.495.29-1.116.434-1.862.434zm-.112-6.398a2.02 2.02 0 0 0-.756.14c-.224.093-.42.229-.588.406a1.875 1.875 0 0 0-.378.602c-.094.233-.14.49-.14.77v.098h3.626v-.14c0-.57-.164-1.022-.49-1.358-.318-.345-.742-.518-1.274-.518zm4.922 4.998h2.394v-7.896h-2.394v-1.232h3.92v9.128h2.394v1.232h-6.314v-1.232zm-51.621 17.556.042-2.94h-.112l-1.96 5.026-1.96-5.026h-.112l.042 2.94v4.676h-1.386v-9.772h1.918l1.498 3.878h.098l1.512-3.878h1.806v9.772h-1.386v-4.676zm8.772 4.676c-.439 0-.77-.112-.994-.336-.215-.224-.345-.518-.392-.882h-.07c-.14.439-.397.78-.77 1.022-.364.243-.831.364-1.4.364-.737 0-1.325-.191-1.764-.574-.439-.392-.658-.929-.658-1.61 0-.7.257-1.232.77-1.596.523-.373 1.321-.56 2.394-.56h1.386v-.56c0-.98-.518-1.47-1.554-1.47-.467 0-.845.093-1.134.28a2.311 2.311 0 0 0-.728.714l-.91-.742c.205-.392.551-.728 1.036-1.008.485-.29 1.111-.434 1.876-.434.915 0 1.633.22 2.156.658.523.439.784 1.073.784 1.904v3.626h.91v1.204h-.938zm-3.192-.952c.495 0 .901-.112 1.218-.336.317-.224.476-.513.476-.868v-1.05h-1.358c-1.101 0-1.652.331-1.652.994v.28c0 .327.117.574.35.742.233.159.555.238.966.238zm5.483-.28h1.918v-4.76h-1.918v-1.232h3.444v1.918h.084a3.39 3.39 0 0 1 .28-.728 2.1 2.1 0 0 1 .462-.602c.186-.177.415-.317.686-.42.27-.112.588-.168.952-.168h.868v1.456h-1.428c-.56 0-1.018.168-1.372.504-.355.327-.532.77-.532 1.33v2.702h2.618v1.232h-6.062v-1.232zm8.282-9.128h1.526v6.258h.07l1.134-1.162 2.03-1.96h1.806l-2.926 2.842 3.248 4.382h-1.834l-2.52-3.514-1.008.938v2.576h-1.526v-10.36zm11.237 10.528a3.927 3.927 0 0 1-1.484-.266 2.986 2.986 0 0 1-1.106-.756 3.327 3.327 0 0 1-.686-1.176 4.843 4.843 0 0 1-.238-1.568c0-.579.079-1.101.238-1.568a3.61 3.61 0 0 1 .686-1.19 2.962 2.962 0 0 1 1.078-.77c.42-.177.886-.266 1.4-.266.504 0 .961.089 1.372.266.41.168.76.41 1.05.728.289.317.508.695.658 1.134.158.439.238.924.238 1.456v.574h-5.18v.238c0 .57.177 1.036.532 1.4.354.355.844.532 1.47.532.466 0 .863-.098 1.19-.294.336-.205.606-.476.812-.812l.952.84c-.243.42-.616.775-1.12 1.064-.495.29-1.116.434-1.862.434zm-.112-6.398a2.02 2.02 0 0 0-.756.14c-.224.093-.42.229-.588.406a1.875 1.875 0 0 0-.378.602c-.094.233-.14.49-.14.77v.098h3.626v-.14c0-.57-.164-1.022-.49-1.358-.318-.345-.742-.518-1.274-.518zm8.506 6.23c-.634 0-1.101-.168-1.4-.504-.298-.345-.448-.789-.448-1.33v-4.158h-2.226v-1.232h1.582c.271 0 .462-.051.574-.154.112-.112.168-.308.168-.588v-1.806h1.428v2.548h3.08v1.232h-3.08v4.76h3.08v1.232h-2.758zm4.587-7.224h1.526v1.232h.084a2.57 2.57 0 0 1 .854-1.022c.354-.252.798-.378 1.33-.378.849 0 1.526.317 2.03.952.504.635.756 1.577.756 2.828 0 1.25-.252 2.193-.756 2.828-.504.635-1.181.952-2.03.952-.532 0-.976-.121-1.33-.364a2.68 2.68 0 0 1-.854-1.036h-.084v4.032h-1.526V39.943zm3.164 6.146c.578 0 1.022-.177 1.33-.532.317-.355.476-.826.476-1.414v-1.176c0-.588-.159-1.06-.476-1.414-.308-.355-.752-.532-1.33-.532-.224 0-.434.028-.63.084-.196.056-.369.14-.518.252-.15.112-.271.252-.364.42-.084.159-.126.35-.126.574v2.408c0 .224.042.42.126.588.093.159.214.294.364.406.149.112.322.196.518.252.196.056.406.084.63.084zm4.894-.154h2.394v-7.896h-2.394v-1.232h3.92v9.128h2.394v1.232h-6.314v-1.232zm13.953 1.232c-.439 0-.77-.112-.994-.336-.215-.224-.345-.518-.392-.882h-.07c-.14.439-.397.78-.77 1.022-.364.243-.831.364-1.4.364-.737 0-1.325-.191-1.764-.574-.439-.392-.658-.929-.658-1.61 0-.7.257-1.232.77-1.596.523-.373 1.321-.56 2.394-.56h1.386v-.56c0-.98-.518-1.47-1.554-1.47-.467 0-.845.093-1.134.28a2.311 2.311 0 0 0-.728.714l-.91-.742c.205-.392.551-.728 1.036-1.008.485-.29 1.111-.434 1.876-.434.915 0 1.633.22 2.156.658.523.439.784 1.073.784 1.904v3.626h.91v1.204h-.938zm-3.192-.952c.495 0 .901-.112 1.218-.336.317-.224.476-.513.476-.868v-1.05h-1.358c-1.101 0-1.652.331-1.652.994v.28c0 .327.117.574.35.742.233.159.555.238.966.238zm8.884 1.12a3.788 3.788 0 0 1-1.456-.266 3.049 3.049 0 0 1-1.078-.756 3.45 3.45 0 0 1-.672-1.19 5.141 5.141 0 0 1-.224-1.568c0-.579.075-1.101.224-1.568a3.45 3.45 0 0 1 .672-1.19 3.049 3.049 0 0 1 1.078-.756c.43-.177.91-.266 1.442-.266.747 0 1.344.159 1.792.476a2.91 2.91 0 0 1 1.022 1.232l-1.19.644a1.728 1.728 0 0 0-.602-.798c-.261-.196-.602-.294-1.022-.294-.578 0-1.026.177-1.344.532-.317.345-.476.807-.476 1.386v1.204c0 .57.159 1.031.476 1.386.318.355.775.532 1.372.532.448 0 .812-.103 1.092-.308.29-.205.518-.485.686-.84l1.12.686a3.04 3.04 0 0 1-1.064 1.246c-.476.317-1.092.476-1.848.476zm8.003 0a3.93 3.93 0 0 1-1.484-.266 2.994 2.994 0 0 1-1.106-.756 3.342 3.342 0 0 1-.686-1.176 4.843 4.843 0 0 1-.238-1.568c0-.579.079-1.101.238-1.568.168-.467.397-.863.686-1.19a2.97 2.97 0 0 1 1.078-.77c.42-.177.887-.266 1.4-.266.504 0 .961.089 1.372.266.411.168.761.41 1.05.728.289.317.509.695.658 1.134.159.439.238.924.238 1.456v.574h-5.18v.238c0 .57.177 1.036.532 1.4.355.355.845.532 1.47.532.467 0 .863-.098 1.19-.294a2.41 2.41 0 0 0 .812-.812l.952.84c-.243.42-.616.775-1.12 1.064-.495.29-1.115.434-1.862.434zm-.112-6.398a2.02 2.02 0 0 0-.756.14c-.224.093-.42.229-.588.406a1.875 1.875 0 0 0-.378.602 2.06 2.06 0 0 0-.14.77v.098h3.626v-.14c0-.57-.163-1.022-.49-1.358-.317-.345-.742-.518-1.274-.518z"/><rect width="115.606" height="115.606" x="233.031" y="90.864" stroke="#3E3E41" stroke-dasharray="3.36 3.36" stroke-width=".727" rx="13.06"/><path fill="#A1A1A8" d="M260.966 143.667h-1.554v-9.772h3.654c.933 0 1.643.261 2.128.784.495.523.742 1.241.742 2.156 0 .747-.182 1.363-.546 1.848-.364.485-.887.784-1.568.896l2.254 4.088h-1.736l-2.072-3.948h-1.302v3.948zm1.876-5.208c.971 0 1.456-.443 1.456-1.33v-.602c0-.887-.485-1.33-1.456-1.33h-1.876v3.262h1.876zm7.862 5.376a3.94 3.94 0 0 1-1.484-.266 2.995 2.995 0 0 1-1.106-.756 3.363 3.363 0 0 1-.686-1.176 4.87 4.87 0 0 1-.238-1.568c0-.579.08-1.101.238-1.568.168-.467.397-.863.686-1.19a2.967 2.967 0 0 1 1.078-.77c.42-.177.887-.266 1.4-.266.504 0 .962.089 1.372.266a2.87 2.87 0 0 1 1.05.728c.29.317.509.695.658 1.134.159.439.238.924.238 1.456v.574h-5.18v.238c0 .569.178 1.036.532 1.4.355.355.845.532 1.47.532.467 0 .864-.098 1.19-.294.336-.205.607-.476.812-.812l.952.84c-.242.42-.616.775-1.12 1.064-.494.289-1.115.434-1.862.434zm-.112-6.398c-.27 0-.522.047-.756.14-.224.093-.42.229-.588.406a1.913 1.913 0 0 0-.378.602 2.06 2.06 0 0 0-.14.77v.098h3.626v-.14c0-.569-.163-1.022-.49-1.358-.317-.345-.742-.518-1.274-.518zm8.087 6.398c-.784 0-1.461-.126-2.03-.378-.56-.252-1.013-.588-1.358-1.008l.938-.84a3.47 3.47 0 0 0 1.064.798c.401.177.873.266 1.414.266.495 0 .891-.084 1.19-.252a.834.834 0 0 0 .462-.784.782.782 0 0 0-.084-.378.676.676 0 0 0-.238-.252 1.3 1.3 0 0 0-.364-.154 2.89 2.89 0 0 0-.42-.084l-1.148-.182a5.77 5.77 0 0 1-.854-.182 3.004 3.004 0 0 1-.784-.35 2.03 2.03 0 0 1-.56-.602c-.14-.243-.21-.551-.21-.924 0-.737.28-1.297.84-1.68.569-.383 1.316-.574 2.24-.574.672 0 1.251.103 1.736.308a3.29 3.29 0 0 1 1.232.826l-.854.896c-.187-.215-.453-.411-.798-.588-.345-.187-.803-.28-1.372-.28-1.017 0-1.526.322-1.526.966 0 .308.107.523.322.644.224.112.485.187.784.224l1.148.182c.289.047.574.107.854.182.289.075.546.191.77.35.233.149.42.345.56.588.149.243.224.551.224.924 0 .728-.285 1.302-.854 1.722-.56.411-1.335.616-2.324.616zm8.254 0a3.94 3.94 0 0 1-1.484-.266 2.995 2.995 0 0 1-1.106-.756 3.363 3.363 0 0 1-.686-1.176 4.87 4.87 0 0 1-.238-1.568c0-.579.08-1.101.238-1.568.168-.467.397-.863.686-1.19a2.967 2.967 0 0 1 1.078-.77c.42-.177.887-.266 1.4-.266.504 0 .962.089 1.372.266a2.87 2.87 0 0 1 1.05.728c.29.317.509.695.658 1.134.159.439.238.924.238 1.456v.574h-5.18v.238c0 .569.178 1.036.532 1.4.355.355.845.532 1.47.532.467 0 .864-.098 1.19-.294.336-.205.607-.476.812-.812l.952.84c-.242.42-.616.775-1.12 1.064-.494.289-1.115.434-1.862.434zm-.112-6.398c-.27 0-.522.047-.756.14-.224.093-.42.229-.588.406a1.913 1.913 0 0 0-.378.602 2.06 2.06 0 0 0-.14.77v.098h3.626v-.14c0-.569-.163-1.022-.49-1.358-.317-.345-.742-.518-1.274-.518zm10.761 6.23c-.439 0-.77-.112-.994-.336-.215-.224-.345-.518-.392-.882h-.07c-.14.439-.397.779-.77 1.022-.364.243-.831.364-1.4.364-.737 0-1.325-.191-1.764-.574-.439-.392-.658-.929-.658-1.61 0-.7.257-1.232.77-1.596.523-.373 1.321-.56 2.394-.56h1.386v-.56c0-.98-.518-1.47-1.554-1.47-.467 0-.845.093-1.134.28a2.305 2.305 0 0 0-.728.714l-.91-.742c.205-.392.551-.728 1.036-1.008.485-.289 1.111-.434 1.876-.434.915 0 1.633.219 2.156.658.523.439.784 1.073.784 1.904v3.626h.91v1.204h-.938zm-3.192-.952c.495 0 .901-.112 1.218-.336.317-.224.476-.513.476-.868v-1.05h-1.358c-1.101 0-1.652.331-1.652.994v.28c0 .327.117.574.35.742.233.159.555.238.966.238zm5.483-.28h1.918v-4.76h-1.918v-1.232h3.444v1.918h.084a3.39 3.39 0 0 1 .28-.728c.121-.233.275-.434.462-.602.186-.177.415-.317.686-.42.27-.112.588-.168.952-.168h.868v1.456h-1.428c-.56 0-1.018.168-1.372.504-.355.327-.532.77-.532 1.33v2.702h2.618v1.232h-6.062v-1.232zm11.516 1.4a3.79 3.79 0 0 1-1.456-.266 3.041 3.041 0 0 1-1.078-.756 3.45 3.45 0 0 1-.672-1.19 5.141 5.141 0 0 1-.224-1.568c0-.579.075-1.101.224-1.568a3.45 3.45 0 0 1 .672-1.19 3.041 3.041 0 0 1 1.078-.756 3.75 3.75 0 0 1 1.442-.266c.747 0 1.344.159 1.792.476.457.317.798.728 1.022 1.232l-1.19.644a1.735 1.735 0 0 0-.602-.798c-.261-.196-.602-.294-1.022-.294-.579 0-1.027.177-1.344.532-.317.345-.476.807-.476 1.386v1.204c0 .569.159 1.031.476 1.386.317.355.775.532 1.372.532.448 0 .812-.103 1.092-.308.289-.205.518-.485.686-.84l1.12.686a3.041 3.041 0 0 1-1.064 1.246c-.476.317-1.092.476-1.848.476zm4.825-10.528h1.526v4.368h.07c.074-.187.168-.364.28-.532.121-.177.266-.327.434-.448.168-.131.364-.233.588-.308.224-.075.485-.112.784-.112.728 0 1.316.238 1.764.714.448.476.672 1.153.672 2.03v4.648h-1.526v-4.424c0-1.148-.5-1.722-1.498-1.722-.196 0-.388.028-.574.084a1.534 1.534 0 0 0-.504.224 1.21 1.21 0 0 0-.364.392 1.151 1.151 0 0 0-.126.546v4.9h-1.526v-10.36zm-63.363 31.36h-1.554v-9.772h3.654c.934 0 1.643.261 2.128.784.495.523.742 1.241.742 2.156 0 .747-.182 1.363-.546 1.848-.364.485-.886.784-1.568.896l2.254 4.088h-1.736l-2.072-3.948h-1.302v3.948zm1.876-5.208c.971 0 1.456-.443 1.456-1.33v-.602c0-.887-.485-1.33-1.456-1.33h-1.876v3.262h1.876zm7.863 5.376a3.936 3.936 0 0 1-1.484-.266 2.987 2.987 0 0 1-1.106-.756 3.347 3.347 0 0 1-.686-1.176 4.843 4.843 0 0 1-.238-1.568c0-.579.079-1.101.238-1.568.168-.467.397-.863.686-1.19a2.967 2.967 0 0 1 1.078-.77c.42-.177.887-.266 1.4-.266.504 0 .961.089 1.372.266a2.87 2.87 0 0 1 1.05.728c.289.317.509.695.658 1.134.159.439.238.924.238 1.456v.574h-5.18v.238c0 .569.177 1.036.532 1.4.355.355.845.532 1.47.532.467 0 .863-.098 1.19-.294.336-.205.607-.476.812-.812l.952.84c-.243.42-.616.775-1.12 1.064-.495.289-1.115.434-1.862.434zm-.112-6.398a2.02 2.02 0 0 0-.756.14c-.224.093-.42.229-.588.406a1.878 1.878 0 0 0-.378.602 2.06 2.06 0 0 0-.14.77v.098h3.626v-.14c0-.569-.163-1.022-.49-1.358-.317-.345-.742-.518-1.274-.518zm4.978-.994h1.526v1.232h.084c.215-.439.5-.779.854-1.022.355-.252.798-.378 1.33-.378.85 0 1.526.317 2.03.952.504.635.756 1.577.756 2.828s-.252 2.193-.756 2.828c-.504.635-1.18.952-2.03.952-.532 0-.975-.121-1.33-.364a2.696 2.696 0 0 1-.854-1.036h-.084v4.032h-1.526v-10.024zm3.164 6.146c.579 0 1.022-.177 1.33-.532.318-.355.476-.826.476-1.414v-1.176c0-.588-.158-1.059-.476-1.414-.308-.355-.751-.532-1.33-.532-.224 0-.434.028-.63.084-.196.056-.368.14-.518.252a1.33 1.33 0 0 0-.364.42c-.084.159-.126.35-.126.574v2.408c0 .224.042.42.126.588.094.159.215.294.364.406.15.112.322.196.518.252.196.056.406.084.63.084zm8.045 1.246a3.75 3.75 0 0 1-1.442-.266 3.041 3.041 0 0 1-1.078-.756 3.45 3.45 0 0 1-.672-1.19 4.843 4.843 0 0 1-.238-1.568c0-.579.079-1.101.238-1.568a3.45 3.45 0 0 1 .672-1.19 3.041 3.041 0 0 1 1.078-.756 3.75 3.75 0 0 1 1.442-.266c.532 0 1.008.089 1.428.266.429.177.789.429 1.078.756.299.327.527.723.686 1.19.159.467.238.989.238 1.568 0 .579-.079 1.101-.238 1.568a3.322 3.322 0 0 1-.686 1.19 2.881 2.881 0 0 1-1.078.756c-.42.177-.896.266-1.428.266zm0-1.204c.56 0 1.003-.168 1.33-.504.336-.345.504-.854.504-1.526v-1.092c0-.672-.168-1.176-.504-1.512-.327-.345-.77-.518-1.33-.518s-1.008.173-1.344.518c-.327.336-.49.84-.49 1.512v1.092c0 .672.163 1.181.49 1.526.336.336.784.504 1.344.504zm8.128 1.204c-.784 0-1.46-.126-2.03-.378-.56-.252-1.012-.588-1.358-1.008l.938-.84c.318.345.672.611 1.064.798.402.177.873.266 1.414.266.495 0 .892-.084 1.19-.252a.834.834 0 0 0 .462-.784.782.782 0 0 0-.084-.378.676.676 0 0 0-.238-.252 1.288 1.288 0 0 0-.364-.154 2.836 2.836 0 0 0-.42-.084l-1.148-.182a5.798 5.798 0 0 1-.854-.182 3.019 3.019 0 0 1-.784-.35 2.044 2.044 0 0 1-.56-.602c-.14-.243-.21-.551-.21-.924 0-.737.28-1.297.84-1.68.57-.383 1.316-.574 2.24-.574.672 0 1.251.103 1.736.308.495.196.906.471 1.232.826l-.854.896c-.186-.215-.452-.411-.798-.588-.345-.187-.802-.28-1.372-.28-1.017 0-1.526.322-1.526.966 0 .308.108.523.322.644.224.112.486.187.784.224l1.148.182c.29.047.574.107.854.182.29.075.546.191.77.35.234.149.42.345.56.588.15.243.224.551.224.924 0 .728-.284 1.302-.854 1.722-.56.411-1.334.616-2.324.616zm8.549-8.708c-.392 0-.667-.079-.826-.238a.828.828 0 0 1-.224-.588v-.294c0-.233.075-.429.224-.588.159-.159.429-.238.812-.238.392 0 .663.079.812.238a.799.799 0 0 1 .238.588v.294a.799.799 0 0 1-.238.588c-.149.159-.415.238-.798.238zm-3.234 7.308h2.464v-4.76h-2.464v-1.232h3.99v5.992h2.31v1.232h-6.3v-1.232zm11.335 1.232c-.635 0-1.102-.168-1.4-.504-.299-.345-.448-.789-.448-1.33v-4.158h-2.226v-1.232h1.582c.27 0 .462-.051.574-.154.112-.112.168-.308.168-.588v-1.806h1.428v2.548h3.08v1.232h-3.08v4.76h3.08v1.232h-2.758zm7.68.168a3.75 3.75 0 0 1-1.442-.266 3.041 3.041 0 0 1-1.078-.756 3.45 3.45 0 0 1-.672-1.19 4.843 4.843 0 0 1-.238-1.568c0-.579.079-1.101.238-1.568a3.45 3.45 0 0 1 .672-1.19 3.041 3.041 0 0 1 1.078-.756 3.75 3.75 0 0 1 1.442-.266c.532 0 1.008.089 1.428.266.429.177.789.429 1.078.756.299.327.527.723.686 1.19.159.467.238.989.238 1.568 0 .579-.079 1.101-.238 1.568a3.322 3.322 0 0 1-.686 1.19 2.881 2.881 0 0 1-1.078.756c-.42.177-.896.266-1.428.266zm0-1.204c.56 0 1.003-.168 1.33-.504.336-.345.504-.854.504-1.526v-1.092c0-.672-.168-1.176-.504-1.512-.327-.345-.77-.518-1.33-.518s-1.008.173-1.344.518c-.327.336-.49.84-.49 1.512v1.092c0 .672.163 1.181.49 1.526.336.336.784.504 1.344.504zm4.979-.196h1.918v-4.76h-1.918v-1.232h3.444v1.918h.084a3.39 3.39 0 0 1 .28-.728c.121-.233.275-.434.462-.602.186-.177.415-.317.686-.42.27-.112.588-.168.952-.168h.868v1.456h-1.428c-.56 0-1.018.168-1.372.504-.355.327-.532.77-.532 1.33v2.702h2.618v1.232h-6.062v-1.232zm13.364-5.992h1.54l-3.5 8.624c-.187.467-.434.817-.742 1.05-.299.233-.733.35-1.302.35h-1.218v-1.232h1.708l.658-1.666-2.912-7.126h1.596l1.148 3.024.896 2.478h.084l.896-2.478 1.148-3.024z"/><rect width="115.606" height="115.606" x="116.864" y="440.364" stroke="#3E3E41" stroke-dasharray="3.36 3.36" stroke-width=".727" rx="13.06"/><path fill="#A1A1A8" d="m144.479 503.667-.742-2.604h-3.108l-.742 2.604h-1.596l2.856-9.772h2.142l2.856 9.772h-1.666zm-2.24-8.19h-.112l-1.204 4.284h2.52l-1.204-4.284zm5.007 8.19v-1.19h2.296v-7.392h-2.296v-1.19h6.16v1.19h-2.296v7.392h2.296v1.19h-6.16zm16.313 0v-9.772h6.118v1.316h-4.55v2.842h4.382v1.316h-4.382v2.982h4.55v1.316h-6.118zm11.544 0c-.634 0-1.101-.168-1.4-.504-.298-.345-.448-.789-.448-1.33v-4.158h-2.226v-1.232h1.582c.271 0 .462-.051.574-.154.112-.112.168-.308.168-.588v-1.806h1.428v2.548h3.08v1.232h-3.08v4.76h3.08v1.232h-2.758zm4.657-10.36h1.526v4.368h.07c.074-.187.168-.364.28-.532.121-.177.266-.327.434-.448.168-.131.364-.233.588-.308.224-.075.485-.112.784-.112.728 0 1.316.238 1.764.714.448.476.672 1.153.672 2.03v4.648h-1.526v-4.424c0-1.148-.5-1.722-1.498-1.722-.196 0-.388.028-.574.084a1.534 1.534 0 0 0-.504.224 1.21 1.21 0 0 0-.364.392 1.151 1.151 0 0 0-.126.546v4.9h-1.526v-10.36zm11.586 1.82c-.392 0-.667-.079-.826-.238a.828.828 0 0 1-.224-.588v-.294c0-.233.075-.429.224-.588.159-.159.43-.238.812-.238.392 0 .663.079.812.238a.799.799 0 0 1 .238.588v.294a.799.799 0 0 1-.238.588c-.149.159-.415.238-.798.238zm-3.234 7.308h2.464v-4.76h-2.464v-1.232h3.99v5.992h2.31v1.232h-6.3v-1.232zm11.167 1.4a3.786 3.786 0 0 1-1.456-.266 3.032 3.032 0 0 1-1.078-.756 3.419 3.419 0 0 1-.672-1.19 5.11 5.11 0 0 1-.224-1.568c0-.579.074-1.101.224-1.568.158-.467.382-.863.672-1.19a3.032 3.032 0 0 1 1.078-.756 3.75 3.75 0 0 1 1.442-.266c.746 0 1.344.159 1.792.476.457.317.798.728 1.022 1.232l-1.19.644a1.741 1.741 0 0 0-.602-.798c-.262-.196-.602-.294-1.022-.294-.579 0-1.027.177-1.344.532-.318.345-.476.807-.476 1.386v1.204c0 .569.158 1.031.476 1.386.317.355.774.532 1.372.532.448 0 .812-.103 1.092-.308.289-.205.518-.485.686-.84l1.12.686a3.049 3.049 0 0 1-1.064 1.246c-.476.317-1.092.476-1.848.476zm7.862 0c-.784 0-1.46-.126-2.03-.378-.56-.252-1.012-.588-1.358-1.008l.938-.84c.318.345.672.611 1.064.798.402.177.873.266 1.414.266.495 0 .892-.084 1.19-.252a.834.834 0 0 0 .462-.784.782.782 0 0 0-.084-.378.676.676 0 0 0-.238-.252 1.288 1.288 0 0 0-.364-.154 2.836 2.836 0 0 0-.42-.084l-1.148-.182a5.798 5.798 0 0 1-.854-.182 3.019 3.019 0 0 1-.784-.35 2.044 2.044 0 0 1-.56-.602c-.14-.243-.21-.551-.21-.924 0-.737.28-1.297.84-1.68.57-.383 1.316-.574 2.24-.574.672 0 1.251.103 1.736.308.495.196.906.471 1.232.826l-.854.896c-.186-.215-.452-.411-.798-.588-.345-.187-.802-.28-1.372-.28-1.017 0-1.526.322-1.526.966 0 .308.108.523.322.644.224.112.486.187.784.224l1.148.182c.29.047.574.107.854.182.29.075.546.191.77.35.234.149.42.345.56.588.15.243.224.551.224.924 0 .728-.284 1.302-.854 1.722-.56.411-1.334.616-2.324.616z"/><rect width="115.606" height="115.606" x="233.031" y="323.531" stroke="#3E3E41" stroke-dasharray="3.36 3.36" stroke-width=".727" rx="13.06"/><path fill="#A1A1A8" d="M258.659 387.002c-1.242 0-2.166-.439-2.772-1.316-.598-.877-.896-2.123-.896-3.738 0-1.615.298-2.861.896-3.738.606-.877 1.53-1.316 2.772-1.316.476 0 .886.065 1.232.196.354.121.658.294.91.518.252.215.462.471.63.77.177.289.322.602.434.938l-1.414.476a5.663 5.663 0 0 0-.252-.63 1.812 1.812 0 0 0-.35-.504 1.589 1.589 0 0 0-.504-.336 1.708 1.708 0 0 0-.7-.126c-.691 0-1.195.266-1.512.798-.318.523-.476 1.232-.476 2.128v1.652c0 .896.158 1.61.476 2.142.317.523.821.784 1.512.784.28 0 .513-.042.7-.126.196-.084.364-.196.504-.336s.256-.308.35-.504c.093-.196.177-.406.252-.63l1.414.476a4.912 4.912 0 0 1-.434.952 3.127 3.127 0 0 1-.63.77 2.98 2.98 0 0 1-.91.518c-.346.121-.756.182-1.232.182zm7.834 0a3.75 3.75 0 0 1-1.442-.266 3.041 3.041 0 0 1-1.078-.756 3.45 3.45 0 0 1-.672-1.19 4.843 4.843 0 0 1-.238-1.568c0-.579.079-1.101.238-1.568a3.45 3.45 0 0 1 .672-1.19 3.041 3.041 0 0 1 1.078-.756 3.75 3.75 0 0 1 1.442-.266c.532 0 1.008.089 1.428.266.429.177.789.429 1.078.756.299.327.527.723.686 1.19.159.467.238.989.238 1.568 0 .579-.079 1.101-.238 1.568a3.322 3.322 0 0 1-.686 1.19 2.881 2.881 0 0 1-1.078.756c-.42.177-.896.266-1.428.266zm0-1.204c.56 0 1.003-.168 1.33-.504.336-.345.504-.854.504-1.526v-1.092c0-.672-.168-1.176-.504-1.512-.327-.345-.77-.518-1.33-.518s-1.008.173-1.344.518c-.327.336-.49.84-.49 1.512v1.092c0 .672.163 1.181.49 1.526.336.336.784.504 1.344.504zm4.531 1.036v-7.224h1.302v.938h.07c.112-.308.27-.569.476-.784.214-.215.518-.322.91-.322.382 0 .676.107.882.322.214.205.35.49.406.854h.056c.13-.327.312-.602.546-.826.233-.233.569-.35 1.008-.35.56 0 .947.196 1.162.588.224.392.336.966.336 1.722v5.082h-1.302v-4.886c0-.504-.061-.849-.182-1.036-.122-.196-.318-.294-.588-.294a.837.837 0 0 0-.616.252c-.159.159-.238.401-.238.728v5.236h-1.302v-4.886c0-.504-.061-.849-.182-1.036-.112-.196-.304-.294-.574-.294a.855.855 0 0 0-.63.252c-.159.159-.238.401-.238.728v5.236h-1.302zm8.114 0v-7.224h1.302v.938h.07c.112-.308.271-.569.476-.784.215-.215.518-.322.91-.322.383 0 .677.107.882.322.215.205.35.49.406.854h.056c.131-.327.313-.602.546-.826.234-.233.57-.35 1.008-.35.56 0 .948.196 1.162.588.224.392.336.966.336 1.722v5.082h-1.302v-4.886c0-.504-.06-.849-.182-1.036-.121-.196-.317-.294-.588-.294a.839.839 0 0 0-.616.252c-.158.159-.238.401-.238.728v5.236h-1.302v-4.886c0-.504-.06-.849-.182-1.036-.112-.196-.303-.294-.574-.294a.855.855 0 0 0-.63.252c-.158.159-.238.401-.238.728v5.236h-1.302zm13.197-1.232h-.07a2.841 2.841 0 0 1-.294.546 1.912 1.912 0 0 1-.42.448 2.187 2.187 0 0 1-.588.294 2.475 2.475 0 0 1-.784.112c-.728 0-1.316-.238-1.764-.714-.448-.476-.672-1.153-.672-2.03v-4.648h1.526v4.424c0 1.148.499 1.722 1.498 1.722.196 0 .387-.023.574-.07a1.8 1.8 0 0 0 .504-.238c.149-.103.266-.229.35-.378.093-.159.14-.345.14-.56v-4.9h1.526v7.224h-1.526v-1.232zm3.592 1.232v-7.224h1.526v1.232h.07c.075-.187.168-.364.28-.532.122-.177.266-.327.434-.448.168-.131.364-.233.588-.308.224-.075.486-.112.784-.112.728 0 1.316.238 1.764.714.448.476.672 1.153.672 2.03v4.648h-1.526v-4.424c0-1.148-.499-1.722-1.498-1.722-.196 0-.387.028-.574.084a1.553 1.553 0 0 0-.504.224c-.149.103-.27.233-.364.392a1.151 1.151 0 0 0-.126.546v4.9h-1.526zm11.587-8.54c-.392 0-.668-.079-.826-.238a.824.824 0 0 1-.224-.588v-.294c0-.233.074-.429.224-.588.158-.159.429-.238.812-.238.392 0 .662.079.812.238a.802.802 0 0 1 .238.588v.294c0 .233-.08.429-.238.588-.15.159-.416.238-.798.238zm-3.234 7.308h2.464v-4.76h-2.464v-1.232h3.99v5.992h2.31v1.232h-6.3v-1.232zm11.334 1.232c-.634 0-1.101-.168-1.4-.504-.298-.345-.448-.789-.448-1.33v-4.158h-2.226v-1.232h1.582c.271 0 .462-.051.574-.154.112-.112.168-.308.168-.588v-1.806h1.428v2.548h3.08v1.232h-3.08v4.76h3.08v1.232h-2.758zm9.795-7.224h1.54l-3.5 8.624c-.187.467-.434.817-.742 1.05-.299.233-.733.35-1.302.35h-1.218v-1.232h1.708l.658-1.666-2.912-7.126h1.596l1.148 3.024.896 2.478h.084l.896-2.478 1.148-3.024z"/><rect width="115.606" height="115.606" x=".364" y="323.531" stroke="#3E3E41" stroke-dasharray="3.36 3.36" stroke-width=".727" rx="13.06"/><path fill="#A1A1A8" d="M23.474 374.99h-.098a3.808 3.808 0 0 1-.308.574 1.901 1.901 0 0 1-.434.476c-.168.14-.373.252-.616.336a2.564 2.564 0 0 1-.84.126c-1.018 0-1.783-.434-2.296-1.302-.514-.868-.77-2.095-.77-3.682 0-1.661.294-2.931.882-3.808.588-.877 1.489-1.316 2.702-1.316.476 0 .891.065 1.246.196.364.131.672.308.924.532.252.215.462.471.63.77.168.289.303.597.406.924l-1.414.476a5.046 5.046 0 0 0-.252-.602 2.016 2.016 0 0 0-.35-.518 1.346 1.346 0 0 0-.49-.35 1.668 1.668 0 0 0-.686-.126c-.681 0-1.176.266-1.484.798-.299.523-.448 1.232-.448 2.128v1.554c0 .448.033.859.098 1.232s.172.695.322.966c.159.261.36.467.602.616.252.149.555.224.91.224.57 0 1.003-.168 1.302-.504.308-.345.462-.784.462-1.316v-.882h-1.89v-1.176h3.318v4.998h-1.428v-1.344zm6.294 1.512a3.751 3.751 0 0 1-1.442-.266 3.038 3.038 0 0 1-1.078-.756 3.438 3.438 0 0 1-.672-1.19 4.851 4.851 0 0 1-.238-1.568c0-.579.08-1.101.238-1.568a3.45 3.45 0 0 1 .672-1.19 3.038 3.038 0 0 1 1.078-.756c.43-.177.91-.266 1.442-.266.532 0 1.008.089 1.428.266.43.177.789.429 1.078.756.299.327.528.723.686 1.19.159.467.238.989.238 1.568 0 .579-.079 1.101-.238 1.568a3.324 3.324 0 0 1-.686 1.19 2.873 2.873 0 0 1-1.078.756c-.42.177-.896.266-1.428.266zm0-1.204c.56 0 1.004-.168 1.33-.504.336-.345.504-.854.504-1.526v-1.092c0-.672-.168-1.176-.504-1.512-.326-.345-.77-.518-1.33-.518s-1.008.173-1.344.518c-.326.336-.49.84-.49 1.512v1.092c0 .672.164 1.181.49 1.526.336.336.784.504 1.344.504zm7.177 1.036-2.59-7.224h1.582l.994 3.052.938 2.898h.084l.938-2.898.994-3.052h1.526l-2.59 7.224h-1.876zm9.206.168a3.94 3.94 0 0 1-1.484-.266 2.987 2.987 0 0 1-1.106-.756 3.349 3.349 0 0 1-.686-1.176 4.854 4.854 0 0 1-.238-1.568c0-.579.08-1.101.238-1.568.168-.467.397-.863.686-1.19a2.964 2.964 0 0 1 1.078-.77c.42-.177.887-.266 1.4-.266.504 0 .962.089 1.372.266a2.87 2.87 0 0 1 1.05.728c.29.317.51.695.658 1.134.16.439.238.924.238 1.456v.574h-5.18v.238c0 .569.178 1.036.532 1.4.355.355.845.532 1.47.532.467 0 .864-.098 1.19-.294a2.41 2.41 0 0 0 .812-.812l.952.84c-.242.42-.616.775-1.12 1.064-.494.289-1.115.434-1.862.434zm-.112-6.398c-.27 0-.522.047-.756.14-.224.093-.42.229-.588.406a1.892 1.892 0 0 0-.378.602 2.06 2.06 0 0 0-.14.77v.098h3.626v-.14c0-.569-.163-1.022-.49-1.358-.317-.345-.742-.518-1.274-.518zm4.937 4.998h1.918v-4.76h-1.918v-1.232h3.444v1.918h.084c.065-.252.159-.495.28-.728.121-.233.275-.434.462-.602.187-.177.415-.317.686-.42.27-.112.588-.168.952-.168h.868v1.456h-1.428c-.56 0-1.017.168-1.372.504-.355.327-.532.77-.532 1.33v2.702h2.618v1.232h-6.062v-1.232zm8.227 1.232v-7.224h1.525v1.232h.07c.075-.187.169-.364.28-.532.122-.177.266-.327.434-.448.169-.131.364-.233.588-.308.224-.075.486-.112.785-.112.727 0 1.316.238 1.764.714.448.476.671 1.153.671 2.03v4.648h-1.525v-4.424c0-1.148-.5-1.722-1.498-1.722a1.99 1.99 0 0 0-.575.084 1.54 1.54 0 0 0-.504.224 1.22 1.22 0 0 0-.364.392 1.151 1.151 0 0 0-.126.546v4.9h-1.526zm13.826 0c-.439 0-.77-.112-.994-.336-.215-.224-.345-.518-.392-.882h-.07a1.85 1.85 0 0 1-.77 1.022c-.364.243-.83.364-1.4.364-.737 0-1.325-.191-1.764-.574-.439-.392-.658-.929-.658-1.61 0-.7.257-1.232.77-1.596.523-.373 1.32-.56 2.394-.56h1.386v-.56c0-.98-.518-1.47-1.554-1.47-.467 0-.845.093-1.134.28-.29.177-.532.415-.728.714l-.91-.742c.205-.392.55-.728 1.036-1.008.485-.289 1.11-.434 1.876-.434.915 0 1.633.219 2.156.658.523.439.784 1.073.784 1.904v3.626h.91v1.204h-.938zm-3.192-.952c.495 0 .9-.112 1.218-.336.317-.224.476-.513.476-.868v-1.05h-1.358c-1.101 0-1.652.331-1.652.994v.28c0 .327.117.574.35.742.233.159.555.238.966.238zm5.595.952v-7.224h1.526v1.232h.07a2.88 2.88 0 0 1 .28-.532 1.78 1.78 0 0 1 .434-.448c.168-.131.364-.233.588-.308.224-.075.485-.112.784-.112.728 0 1.316.238 1.764.714.448.476.672 1.153.672 2.03v4.648h-1.526v-4.424c0-1.148-.5-1.722-1.498-1.722-.196 0-.388.028-.574.084a1.54 1.54 0 0 0-.504.224 1.21 1.21 0 0 0-.364.392 1.151 1.151 0 0 0-.126.546v4.9h-1.526zm11.404.168a3.79 3.79 0 0 1-1.456-.266 3.039 3.039 0 0 1-1.078-.756 3.441 3.441 0 0 1-.672-1.19 5.132 5.132 0 0 1-.224-1.568c0-.579.075-1.101.224-1.568a3.45 3.45 0 0 1 .672-1.19 3.039 3.039 0 0 1 1.078-.756c.43-.177.91-.266 1.442-.266.747 0 1.344.159 1.792.476.457.317.798.728 1.022 1.232l-1.19.644a1.735 1.735 0 0 0-.602-.798c-.261-.196-.602-.294-1.022-.294-.579 0-1.027.177-1.344.532-.317.345-.476.807-.476 1.386v1.204c0 .569.159 1.031.476 1.386.317.355.775.532 1.372.532.448 0 .812-.103 1.092-.308a2.11 2.11 0 0 0 .686-.84l1.12.686a3.044 3.044 0 0 1-1.064 1.246c-.476.317-1.092.476-1.848.476zm8.003 0a3.933 3.933 0 0 1-1.484-.266 2.987 2.987 0 0 1-1.106-.756 3.349 3.349 0 0 1-.686-1.176 4.854 4.854 0 0 1-.238-1.568c0-.579.079-1.101.238-1.568a3.61 3.61 0 0 1 .686-1.19 2.964 2.964 0 0 1 1.078-.77c.42-.177.886-.266 1.4-.266.504 0 .961.089 1.372.266.41.168.76.411 1.05.728.289.317.508.695.658 1.134.158.439.238.924.238 1.456v.574h-5.18v.238c0 .569.177 1.036.532 1.4.354.355.844.532 1.47.532.466 0 .863-.098 1.19-.294a2.41 2.41 0 0 0 .812-.812l.952.84c-.243.42-.616.775-1.12 1.064-.495.289-1.116.434-1.862.434zm-.112-6.398a2.02 2.02 0 0 0-.756.14c-.224.093-.42.229-.588.406a1.892 1.892 0 0 0-.378.602c-.094.233-.14.49-.14.77v.098h3.626v-.14c0-.569-.164-1.022-.49-1.358-.318-.345-.742-.518-1.274-.518zm-72.012 27.23v-9.772h6.286v1.316h-4.718v2.842h4.284v1.316h-4.284v4.298h-1.568zm7.975-1.232h1.918v-4.76H30.69v-1.232h3.444v1.918h.084a3.39 3.39 0 0 1 .28-.728 2.12 2.12 0 0 1 .462-.602c.186-.177.415-.317.686-.42.27-.112.588-.168.952-.168h.868v1.456h-1.428c-.56 0-1.018.168-1.372.504-.355.327-.532.77-.532 1.33v2.702h2.618v1.232H30.69v-1.232zm13.938 1.232c-.438 0-.77-.112-.994-.336-.215-.224-.345-.518-.392-.882h-.07a1.85 1.85 0 0 1-.77 1.022c-.364.243-.83.364-1.4.364-.737 0-1.325-.191-1.764-.574-.438-.392-.658-.929-.658-1.61 0-.7.257-1.232.77-1.596.523-.373 1.32-.56 2.394-.56h1.386v-.56c0-.98-.518-1.47-1.554-1.47-.467 0-.845.093-1.134.28a2.3 2.3 0 0 0-.728.714l-.91-.742c.206-.392.55-.728 1.036-1.008.485-.289 1.11-.434 1.876-.434.915 0 1.633.219 2.156.658.523.439.784 1.073.784 1.904v3.626h.91v1.204h-.938zm-3.192-.952c.495 0 .9-.112 1.218-.336.317-.224.476-.513.476-.868v-1.05h-1.358c-1.101 0-1.652.331-1.652.994v.28c0 .327.117.574.35.742.233.159.556.238.966.238zm5.035.952v-7.224h1.302v.938h.07c.112-.308.27-.569.476-.784.214-.215.518-.322.91-.322.382 0 .676.107.882.322.214.205.35.49.406.854h.056a2.32 2.32 0 0 1 .546-.826c.233-.233.569-.35 1.008-.35.56 0 .947.196 1.162.588.224.392.336.966.336 1.722v5.082h-1.302v-4.886c0-.504-.061-.849-.182-1.036-.122-.196-.318-.294-.588-.294a.838.838 0 0 0-.616.252c-.159.159-.238.401-.238.728v5.236h-1.302v-4.886c0-.504-.061-.849-.182-1.036-.112-.196-.304-.294-.574-.294a.855.855 0 0 0-.63.252c-.159.159-.238.401-.238.728v5.236H46.47zm11.852.168a3.94 3.94 0 0 1-1.484-.266 2.987 2.987 0 0 1-1.106-.756 3.349 3.349 0 0 1-.686-1.176 4.854 4.854 0 0 1-.238-1.568c0-.579.08-1.101.238-1.568.168-.467.397-.863.686-1.19a2.964 2.964 0 0 1 1.078-.77c.42-.177.887-.266 1.4-.266.504 0 .962.089 1.372.266.41.168.76.411 1.05.728.29.317.509.695.658 1.134.159.439.238.924.238 1.456v.574h-5.18v.238c0 .569.178 1.036.532 1.4.355.355.845.532 1.47.532.467 0 .864-.098 1.19-.294a2.41 2.41 0 0 0 .812-.812l.952.84c-.242.42-.616.775-1.12 1.064-.494.289-1.115.434-1.862.434zm-.112-6.398c-.27 0-.522.047-.756.14-.224.093-.42.229-.588.406a1.892 1.892 0 0 0-.378.602 2.06 2.06 0 0 0-.14.77v.098h3.626v-.14c0-.569-.163-1.022-.49-1.358-.317-.345-.742-.518-1.274-.518zm4.153-.994h1.302l.7 6.076h.126l1.078-6.076h1.484l1.064 6.076h.126l.714-6.076h1.246l-1.008 7.224H67.32l-.966-5.6h-.126l-.98 5.6h-1.876l-1.008-7.224zm12.034 7.392a3.751 3.751 0 0 1-1.442-.266 3.039 3.039 0 0 1-1.078-.756 3.441 3.441 0 0 1-.672-1.19 4.851 4.851 0 0 1-.238-1.568c0-.579.08-1.101.238-1.568a3.45 3.45 0 0 1 .672-1.19 3.039 3.039 0 0 1 1.078-.756c.43-.177.91-.266 1.442-.266.532 0 1.008.089 1.428.266.43.177.789.429 1.078.756.299.327.528.723.686 1.19.159.467.238.989.238 1.568 0 .579-.079 1.101-.238 1.568a3.322 3.322 0 0 1-.686 1.19 2.873 2.873 0 0 1-1.078.756c-.42.177-.896.266-1.428.266zm0-1.204c.56 0 1.004-.168 1.33-.504.336-.345.504-.854.504-1.526v-1.092c0-.672-.168-1.176-.504-1.512-.326-.345-.77-.518-1.33-.518s-1.008.173-1.344.518c-.326.336-.49.84-.49 1.512v1.092c0 .672.164 1.181.49 1.526.336.336.784.504 1.344.504zm4.979-.196h1.918v-4.76h-1.918v-1.232h3.444v1.918h.084c.065-.252.159-.495.28-.728a2.12 2.12 0 0 1 .462-.602c.186-.177.415-.317.686-.42.27-.112.588-.168.952-.168h.868v1.456h-1.428c-.56 0-1.017.168-1.372.504-.355.327-.532.77-.532 1.33v2.702h2.618v1.232h-6.062v-1.232zm8.282-9.128h1.526v6.258h.07l1.134-1.162 2.03-1.96h1.806l-2.926 2.842 3.248 4.382h-1.834l-2.52-3.514-1.008.938v2.576H87.66v-10.36z"/></svg>