<svg xmlns="http://www.w3.org/2000/svg" width="629" height="326" fill="none"><path fill="#0A0A0A" stroke="url(#a)" d="M31 275V25c0-6.627 5.373-12 12-12h114.005c3.829 0 7.429 1.828 9.689 4.92l17.011 23.28a11.999 11.999 0 0 0 9.689 4.92H516c6.627 0 12 5.373 12 12V275c0 6.627-5.373 12-12 12H43c-6.627 0-12-5.373-12-12z"/><path fill="#0A0A0A" stroke="url(#b)" d="M6 310V16C6 9.373 11.373 4 18 4h113.337c4.125 0 7.961 2.119 10.158 5.611l17.118 27.217a12.001 12.001 0 0 0 10.158 5.612H609c6.627 0 12 5.372 12 12V310c0 6.627-5.373 12-12 12H18c-6.627 0-12-5.373-12-12z"/><rect width="71" height="71" x="232.5" y="211.5" fill="#0A0A0A" rx="35.5"/><rect width="71" height="71" x="232.5" y="211.5" stroke="#3E3E41" rx="35.5"/><path fill="#fff" d="M274.667 252.96v-12.107l-8 6.054m-11.707-3.654a1.145 1.145 0 0 1-.027-1.533l1.6-1.48c.267-.24.92-.347 1.4 0l4.56 3.48 10.574-9.667c.426-.426 1.16-.6 2-.16l5.333 2.547c.48.28.933.72.933 1.533v18c0 .534-.386 1.107-.8 1.334l-5.866 2.8c-.427.173-1.227.013-1.507-.267l-10.693-9.733-4.534 3.466c-.506.347-1.133.254-1.4 0l-1.6-1.466c-.426-.44-.373-1.16.067-1.6l4-3.6"/><rect width="71" height="71" x="172.5" y="211.5" fill="#0A0A0A" rx="35.5"/><rect width="71" height="71" x="172.5" y="211.5" stroke="#3E3E41" rx="35.5"/><path fill="#ED597E" d="M196 237.667a2.666 2.666 0 0 1 2.667-2.667h18.666a2.666 2.666 0 0 1 2.667 2.667v18.666a2.666 2.666 0 0 1-2.667 2.667h-18.666a2.666 2.666 0 0 1-2.667-2.667v-18.666zm12.667 8h-1.334a2 2 0 0 1 0-4h1.334a2 2 0 0 1 2 2h2.666a4.666 4.666 0 0 0-4.666-4.667h-1.334a4.666 4.666 0 0 0 0 9.333h1.334a2 2 0 0 1 0 4h-1.334a2 2 0 0 1-2-2h-2.666a4.666 4.666 0 0 0 4.666 4.667h1.334a4.666 4.666 0 0 0 0-9.333z"/><rect width="71" height="71" x="112.5" y="211.5" fill="#0A0A0A" rx="35.5"/><rect width="71" height="71" x="112.5" y="211.5" stroke="#3E3E41" rx="35.5"/><path fill="#0CC6B0" d="m146.923 258.583-8.512-4.907a2.086 2.086 0 0 1-.792-.787 2.117 2.117 0 0 1-.286-1.076v-9.626c0-.386.095-.745.286-1.076.19-.332.454-.594.792-.787l8.512-4.907a2.132 2.132 0 0 1 1.077-.289c.38 0 .739.096 1.077.289l8.512 4.907a2.126 2.126 0 0 1 1.078 1.863v9.626a2.126 2.126 0 0 1-1.078 1.863l-8.512 4.907a2.148 2.148 0 0 1-2.154 0zm.41-11.2v9.901l.307.177c.12.069.24.103.36.103s.24-.034.36-.103l.307-.177v-9.901l8.666-5.019v-.323a.57.57 0 0 0-.064-.257.472.472 0 0 0-.192-.204l-.51-.296-8.567 4.952-8.567-4.952-.51.296a.483.483 0 0 0-.192.204.57.57 0 0 0-.064.257v.323l8.666 5.019z"/><rect width="71" height="71" x="52.5" y="211.5" fill="#0A0A0A" rx="35.5"/><rect width="71" height="71" x="52.5" y="211.5" stroke="#3E3E41" rx="35.5"/><path fill="#7545FF" d="m84.8 251.8 1.867-1.9-2.9-2.9 2.9-2.9-1.867-1.9L80 247l4.8 4.8zm6.4 0L96 247l-4.8-4.8-1.867 1.9 2.9 2.9-2.9 2.9 1.867 1.9zM78.667 259a2.566 2.566 0 0 1-1.883-.783 2.57 2.57 0 0 1-.784-1.884v-18.666c0-.734.261-1.361.784-1.883a2.574 2.574 0 0 1 1.883-.784h18.666c.734 0 1.362.261 1.884.784.523.523.784 1.15.783 1.883v18.666c0 .734-.26 1.362-.783 1.884a2.56 2.56 0 0 1-1.884.783H78.667z"/><rect width="163" height="36" x="52" y="88" fill="#fff" fill-opacity=".08" rx="4"/><path fill="#fff" d="m71.506 111-.689-2.418h-2.886L67.242 111H65.76l2.652-9.074h1.989L73.053 111h-1.547zm-2.08-7.605h-.104l-1.118 3.978h2.34l-1.118-3.978zM74.075 111v-1.105h2.132v-6.864h-2.132v-1.105h5.72v1.105h-2.132v6.864h2.132V111h-5.72zm15.096-9.074h2.704c1.161 0 2.02.386 2.574 1.157.563.771.845 1.898.845 3.38s-.282 2.609-.845 3.38c-.555.771-1.413 1.157-2.574 1.157H89.17v-9.074zm2.613 7.878c.667 0 1.161-.221 1.482-.663.33-.451.494-1.092.494-1.924v-1.508c0-.832-.165-1.469-.494-1.911-.32-.451-.815-.676-1.482-.676h-1.17v6.682h1.17zm7.899 1.352c-.512 0-.971-.082-1.378-.247a2.789 2.789 0 0 1-1.027-.702 3.097 3.097 0 0 1-.637-1.092 4.506 4.506 0 0 1-.221-1.456c0-.537.073-1.023.22-1.456.157-.433.369-.802.638-1.105a2.76 2.76 0 0 1 1-.715c.39-.165.824-.247 1.3-.247.469 0 .893.082 1.275.247.381.156.706.381.975.676.268.295.472.646.611 1.053.147.407.221.858.221 1.352v.533h-4.81v.221c0 .529.164.962.494 1.3.329.329.784.494 1.365.494.433 0 .801-.091 1.105-.273.312-.191.563-.442.754-.754l.884.78c-.226.39-.572.719-1.04.988-.46.269-1.036.403-1.73.403zm-.104-5.941c-.252 0-.486.043-.702.13-.208.087-.39.212-.546.377a1.749 1.749 0 0 0-.351.559 1.91 1.91 0 0 0-.13.715v.091h3.367v-.13c0-.529-.152-.949-.455-1.261-.295-.321-.689-.481-1.183-.481zm6.625 5.785-2.405-6.708h1.469l.923 2.834.871 2.691h.078l.871-2.691.923-2.834h1.417L107.946 111h-1.742zm8.549.156c-.512 0-.971-.082-1.378-.247a2.78 2.78 0 0 1-1.027-.702 3.082 3.082 0 0 1-.637-1.092 4.487 4.487 0 0 1-.221-1.456c0-.537.073-1.023.221-1.456.156-.433.368-.802.637-1.105.277-.312.611-.55 1.001-.715.39-.165.823-.247 1.3-.247.468 0 .892.082 1.274.247.381.156.706.381.975.676.268.295.472.646.611 1.053.147.407.221.858.221 1.352v.533h-4.81v.221c0 .529.164.962.494 1.3.329.329.784.494 1.365.494.433 0 .801-.091 1.105-.273.312-.191.563-.442.754-.754l.884.78c-.226.39-.572.719-1.04.988-.46.269-1.036.403-1.729.403zm-.104-5.941c-.252 0-.486.043-.702.13-.208.087-.39.212-.546.377a1.725 1.725 0 0 0-.351.559c-.087.217-.13.455-.13.715v.091h3.367v-.13c0-.529-.152-.949-.455-1.261-.295-.321-.689-.481-1.183-.481zm4.57 4.641h2.223v-7.332h-2.223v-1.144h3.64v8.476h2.223V111h-5.863v-1.144zm10.46 1.3c-.494 0-.94-.082-1.339-.247a2.844 2.844 0 0 1-1.001-.702 3.216 3.216 0 0 1-.624-1.105 4.515 4.515 0 0 1-.221-1.456c0-.537.074-1.023.221-1.456.148-.433.356-.802.624-1.105a2.844 2.844 0 0 1 1.001-.702 3.472 3.472 0 0 1 1.339-.247c.494 0 .936.082 1.326.247.399.165.733.399 1.001.702.278.303.49.672.637 1.105.148.433.221.919.221 1.456 0 .537-.073 1.023-.221 1.456a3.07 3.07 0 0 1-.637 1.105 2.682 2.682 0 0 1-1.001.702c-.39.165-.832.247-1.326.247zm0-1.118c.52 0 .932-.156 1.235-.468.312-.321.468-.793.468-1.417v-1.014c0-.624-.156-1.092-.468-1.404-.303-.321-.715-.481-1.235-.481-.52 0-.936.16-1.248.481-.303.312-.455.78-.455 1.404v1.014c0 .624.152 1.096.455 1.417.312.312.728.468 1.248.468zm4.662-5.746h1.417v1.144h.078c.2-.407.464-.724.793-.949.33-.234.741-.351 1.235-.351.789 0 1.417.295 1.885.884.468.589.702 1.465.702 2.626 0 1.161-.234 2.037-.702 2.626-.468.589-1.096.884-1.885.884-.494 0-.905-.113-1.235-.338a2.51 2.51 0 0 1-.793-.962h-.078v3.744h-1.417v-9.308zm2.938 5.707c.538 0 .949-.165 1.235-.494.295-.329.442-.767.442-1.313V107.1c0-.546-.147-.984-.442-1.313-.286-.329-.697-.494-1.235-.494a2.12 2.12 0 0 0-.585.078c-.182.052-.342.13-.481.234a1.236 1.236 0 0 0-.338.39 1.125 1.125 0 0 0-.117.533v2.236c0 .208.039.39.117.546.087.147.2.273.338.377.139.104.299.182.481.234.182.052.377.078.585.078zm7.613 1.157c-.511 0-.97-.082-1.378-.247a2.797 2.797 0 0 1-1.027-.702 3.112 3.112 0 0 1-.637-1.092 4.515 4.515 0 0 1-.221-1.456c0-.537.074-1.023.221-1.456.156-.433.369-.802.637-1.105.278-.312.611-.55 1.001-.715.39-.165.824-.247 1.3-.247.468 0 .893.082 1.274.247.382.156.707.381.975.676.269.295.473.646.611 1.053.148.407.221.858.221 1.352v.533h-4.81v.221c0 .529.165.962.494 1.3.33.329.785.494 1.365.494.434 0 .802-.091 1.105-.273.312-.191.564-.442.754-.754l.884.78c-.225.39-.572.719-1.04.988-.459.269-1.035.403-1.729.403zm-.104-5.941c-.251 0-.485.043-.702.13-.208.087-.39.212-.546.377a1.76 1.76 0 0 0-.351.559c-.086.217-.13.455-.13.715v.091h3.367v-.13c0-.529-.151-.949-.455-1.261-.294-.321-.689-.481-1.183-.481zm4.584 4.641h1.781v-4.42h-1.781v-1.144h3.198v1.781h.078a3.21 3.21 0 0 1 .26-.676c.113-.217.256-.403.429-.559.173-.165.386-.295.637-.39a2.3 2.3 0 0 1 .884-.156h.806v1.352h-1.326c-.52 0-.945.156-1.274.468-.329.303-.494.715-.494 1.235v2.509h2.431V111h-5.629v-1.144zm9.797-4.602v-3.874h1.3v3.874h-1.3zm8.198 5.902c-.728 0-1.356-.117-1.885-.351a3.413 3.413 0 0 1-1.261-.936l.871-.78c.295.321.624.568.988.741.373.165.81.247 1.313.247.459 0 .828-.078 1.105-.234a.775.775 0 0 0 .429-.728.723.723 0 0 0-.078-.351.643.643 0 0 0-.221-.234 1.2 1.2 0 0 0-.338-.143 2.492 2.492 0 0 0-.39-.078l-1.066-.169a5.46 5.46 0 0 1-.793-.169 2.768 2.768 0 0 1-.728-.325 1.894 1.894 0 0 1-.52-.559c-.13-.225-.195-.511-.195-.858 0-.685.26-1.205.78-1.56.529-.355 1.222-.533 2.08-.533.624 0 1.161.095 1.612.286.459.182.841.438 1.144.767l-.793.832c-.173-.199-.42-.381-.741-.546-.321-.173-.745-.26-1.274-.26-.945 0-1.417.299-1.417.897 0 .286.1.485.299.598.208.104.451.173.728.208l1.066.169c.269.043.533.1.793.169.269.069.507.178.715.325.217.139.39.321.52.546.139.225.208.511.208.858 0 .676-.264 1.209-.793 1.599-.52.381-1.239.572-2.158.572zm16.565-4.147h-3.016V111h-1.456v-9.074h1.456v3.861h3.016v-3.861h1.456V111h-1.456v-3.991zm7.418 2.847h-.065c-.07.173-.161.342-.273.507a1.763 1.763 0 0 1-.39.416 1.994 1.994 0 0 1-.546.273 2.316 2.316 0 0 1-.728.104c-.676 0-1.222-.221-1.638-.663-.416-.442-.624-1.07-.624-1.885v-4.316h1.417v4.108c0 1.066.463 1.599 1.391 1.599.182 0 .359-.022.533-.065.173-.052.329-.126.468-.221a1.013 1.013 0 0 0 .455-.871v-4.55h1.417V111h-1.417v-1.144zm3.271-8.476h1.417v4.056h.078c.199-.407.463-.724.793-.949.329-.234.741-.351 1.235-.351.788 0 1.417.295 1.885.884.468.589.702 1.465.702 2.626 0 1.161-.234 2.037-.702 2.626-.468.589-1.097.884-1.885.884-.494 0-.906-.113-1.235-.338a2.491 2.491 0 0 1-.793-.962h-.078V111h-1.417v-9.62zm2.938 8.619c.537 0 .949-.165 1.235-.494.294-.329.442-.767.442-1.313V107.1c0-.546-.148-.984-.442-1.313-.286-.329-.698-.494-1.235-.494a2.12 2.12 0 0 0-.585.078c-.182.052-.343.13-.481.234a1.212 1.212 0 0 0-.338.39 1.125 1.125 0 0 0-.117.533v2.236c0 .208.039.39.117.546.086.147.199.273.338.377.138.104.299.182.481.234.182.052.377.078.585.078z"/><rect width="183" height="208" x="387" y="88" fill="#1C1C1C" rx="13"/><rect width="74" height="74" x="442" y="190" fill="#3E3E41" rx="16" transform="rotate(-90 442 190)"/><path fill="#fff" d="M462.246 154.026c.373-.217.59-.627.586-1.061l-.001-.153c0-6.934 4.437-12.823 10.605-14.943.486-.167.83-.617.83-1.134v-6.139c0-.718-.647-1.263-1.34-1.095-10.452 2.526-18.22 12.004-18.22 23.311 0 1.267.098 2.511.286 3.724.119.769.969 1.146 1.638.757l5.616-3.267zm-3.298 10.299c-.549.32-.738 1.032-.391 1.567 4.245 6.557 11.589 10.891 19.938 10.891 7.666 0 14.485-3.654 18.835-9.327.409-.534.238-1.3-.342-1.637l-5.122-2.98c-.5-.291-1.133-.158-1.51.283-2.873 3.352-7.121 5.473-11.861 5.473-5.347 0-10.069-2.7-12.895-6.821-.357-.521-1.049-.708-1.593-.391l-5.059 2.942zm43.336-11.513c0 1.964-.234 3.872-.677 5.699-.174.719-.987 1.04-1.623.67l-5.38-3.13a1.21 1.21 0 0 1-.574-1.207c.085-.666.129-1.344.129-2.032 0-7.362-5.002-13.546-11.767-15.292a1.212 1.212 0 0 1-.923-1.161v-6.027c0-.694.604-1.233 1.281-1.109 11.108 2.021 19.534 11.813 19.534 23.589z"/><ellipse cx="478.233" cy="152.936" fill="#fff" rx="6.295" ry="6.343"/><circle cx="432.5" cy="261.5" r="9.5" fill="#3E3E41"/><circle cx="432.5" cy="232.5" r="9.5" fill="#3E3E41"/><circle cx="463.5" cy="232.5" r="9.5" fill="#fff"/><circle cx="463.5" cy="261.5" r="9.5" fill="#fff"/><circle cx="494.5" cy="232.5" r="9.5" fill="#fff"/><circle cx="525.5" cy="232.5" r="9.5" fill="#3E3E41"/><circle cx="494.5" cy="261.5" r="9.5" fill="#3E3E41"/><circle cx="525.5" cy="261.5" r="9.5" fill="#fff"/><defs><linearGradient id="a" x1="338.81" x2="338.81" y1="13" y2="300.786" gradientUnits="userSpaceOnUse"><stop stop-color="#3E3E41"/><stop offset="1" stop-color="#0A0A0A"/></linearGradient><linearGradient id="b" x1="313.5" x2="313.5" y1="4" y2="338" gradientUnits="userSpaceOnUse"><stop stop-color="#3E3E41"/><stop offset="1" stop-color="#0A0A0A"/></linearGradient></defs></svg>