<svg xmlns="http://www.w3.org/2000/svg" width="541" height="530" fill="none"><rect width="295" height="77.5" x="123" y="72.5" stroke="#3E3E41" stroke-dasharray="4 4" rx="3.5"/><path fill="#A1A1A8" d="M236.73 106.28h3.12c1.34 0 2.33.445 2.97 1.335.65.89.975 2.19.975 3.9s-.325 3.01-.975 3.9c-.64.89-1.63 1.335-2.97 1.335h-3.12v-10.47zm3.015 9.09c.77 0 1.34-.255 1.71-.765.38-.52.57-1.26.57-2.22v-1.74c0-.96-.19-1.695-.57-2.205-.37-.52-.94-.78-1.71-.78h-1.35v7.71h1.35zm11.829 1.38c-.47 0-.825-.12-1.065-.36-.23-.24-.37-.555-.42-.945h-.075c-.15.47-.425.835-.825 1.095-.39.26-.89.39-1.5.39-.79 0-1.42-.205-1.89-.615-.47-.42-.705-.995-.705-1.725 0-.75.275-1.32.825-1.71.56-.4 1.415-.6 2.565-.6h1.485v-.6c0-1.05-.555-1.575-1.665-1.575-.5 0-.905.1-1.215.3-.31.19-.57.445-.78.765l-.975-.795c.22-.42.59-.78 1.11-1.08.52-.31 1.19-.465 2.01-.465.98 0 1.75.235 2.31.705s.84 1.15.84 2.04v3.885h.975v1.29h-1.005zm-3.42-1.02c.53 0 .965-.12 1.305-.36.34-.24.51-.55.51-.93v-1.125h-1.455c-1.18 0-1.77.355-1.77 1.065v.3c0 .35.125.615.375.795.25.17.595.255 1.035.255zm9.699 1.02c-.68 0-1.18-.18-1.5-.54-.32-.37-.48-.845-.48-1.425v-4.455h-2.385v-1.32h1.695c.29 0 .495-.055.615-.165.12-.12.18-.33.18-.63v-1.935h1.53v2.73h3.3v1.32h-3.3v5.1h3.3v1.32h-2.955zm11.109 0c-.47 0-.825-.12-1.065-.36-.23-.24-.37-.555-.42-.945h-.075c-.15.47-.425.835-.825 1.095-.39.26-.89.39-1.5.39-.79 0-1.42-.205-1.89-.615-.47-.42-.705-.995-.705-1.725 0-.75.275-1.32.825-1.71.56-.4 1.415-.6 2.565-.6h1.485v-.6c0-1.05-.555-1.575-1.665-1.575-.5 0-.905.1-1.215.3-.31.19-.57.445-.78.765l-.975-.795c.22-.42.59-.78 1.11-1.08.52-.31 1.19-.465 2.01-.465.98 0 1.75.235 2.31.705s.84 1.15.84 2.04v3.885h.975v1.29h-1.005zm-3.42-1.02c.53 0 .965-.12 1.305-.36.34-.24.51-.55.51-.93v-1.125h-1.455c-1.18 0-1.77.355-1.77 1.065v.3c0 .35.125.615.375.795.25.17.595.255 1.035.255zm5.92-10.08h1.635v4.68h.09c.23-.47.535-.835.915-1.095.38-.27.855-.405 1.425-.405.91 0 1.635.34 2.175 1.02.54.68.81 1.69.81 3.03 0 1.34-.27 2.35-.81 3.03-.54.68-1.265 1.02-2.175 1.02-.57 0-1.045-.13-1.425-.39-.38-.27-.685-.64-.915-1.11h-.09v1.32h-1.635v-11.1zm3.39 9.945c.62 0 1.095-.19 1.425-.57.34-.38.51-.885.51-1.515v-1.26c0-.63-.17-1.135-.51-1.515-.33-.38-.805-.57-1.425-.57-.24 0-.465.03-.675.09-.21.06-.395.15-.555.27-.16.12-.29.27-.39.45a1.3 1.3 0 0 0-.135.615v2.58c0 .24.045.45.135.63.1.17.23.315.39.435s.345.21.555.27c.21.06.435.09.675.09zm11.499 1.155c-.47 0-.825-.12-1.065-.36-.23-.24-.37-.555-.42-.945h-.075c-.15.47-.425.835-.825 1.095-.39.26-.89.39-1.5.39-.79 0-1.42-.205-1.89-.615-.47-.42-.705-.995-.705-1.725 0-.75.275-1.32.825-1.71.56-.4 1.415-.6 2.565-.6h1.485v-.6c0-1.05-.555-1.575-1.665-1.575-.5 0-.905.1-1.215.3-.31.19-.57.445-.78.765l-.975-.795c.22-.42.59-.78 1.11-1.08.52-.31 1.19-.465 2.01-.465.98 0 1.75.235 2.31.705s.84 1.15.84 2.04v3.885h.975v1.29h-1.005zm-3.42-1.02c.53 0 .965-.12 1.305-.36.34-.24.51-.55.51-.93v-1.125h-1.455c-1.18 0-1.77.355-1.77 1.065v.3c0 .35.125.615.375.795.25.17.595.255 1.035.255zm9.249 1.2c-.84 0-1.565-.135-2.175-.405-.6-.27-1.085-.63-1.455-1.08l1.005-.9c.34.37.72.655 1.14.855.43.19.935.285 1.515.285.53 0 .955-.09 1.275-.27.33-.18.495-.46.495-.84 0-.16-.03-.295-.09-.405a.732.732 0 0 0-.255-.27c-.11-.07-.24-.125-.39-.165-.14-.04-.29-.07-.45-.09l-1.23-.195c-.3-.04-.605-.105-.915-.195-.31-.09-.59-.215-.84-.375a2.18 2.18 0 0 1-.6-.645c-.15-.26-.225-.59-.225-.99 0-.79.3-1.39.9-1.8.61-.41 1.41-.615 2.4-.615.72 0 1.34.11 1.86.33.53.21.97.505 1.32.885l-.915.96c-.2-.23-.485-.44-.855-.63-.37-.2-.86-.3-1.47-.3-1.09 0-1.635.345-1.635 1.035 0 .33.115.56.345.69.24.12.52.2.84.24l1.23.195c.31.05.615.115.915.195.31.08.585.205.825.375.25.16.45.37.6.63.16.26.24.59.24.99 0 .78-.305 1.395-.915 1.845-.6.44-1.43.66-2.49.66zm8.844 0a4.21 4.21 0 0 1-1.59-.285c-.47-.19-.865-.46-1.185-.81a3.58 3.58 0 0 1-.735-1.26c-.17-.5-.255-1.06-.255-1.68 0-.62.085-1.18.255-1.68.18-.5.425-.925.735-1.275a3.18 3.18 0 0 1 1.155-.825c.45-.19.95-.285 1.5-.285.54 0 1.03.095 1.47.285.44.18.815.44 1.125.78.31.34.545.745.705 1.215.17.47.255.99.255 1.56v.615h-5.55v.255c0 .61.19 1.11.57 1.5.38.38.905.57 1.575.57.5 0 .925-.105 1.275-.315.36-.22.65-.51.87-.87l1.02.9c-.26.45-.66.83-1.2 1.14-.53.31-1.195.465-1.995.465zm-.12-6.855c-.29 0-.56.05-.81.15-.24.1-.45.245-.63.435a2.02 2.02 0 0 0-.405.645c-.1.25-.15.525-.15.825v.105h3.885v-.15c0-.61-.175-1.095-.525-1.455-.34-.37-.795-.555-1.365-.555z"/><rect width="295" height="77.5" x="123" y="175" stroke="#3E3E41" stroke-dasharray="4 4" rx="3.5"/><path fill="#A1A1A8" d="m198.93 219.25-.795-2.79h-3.33l-.795 2.79h-1.71l3.06-10.47h2.295l3.06 10.47h-1.785zm-2.4-8.775h-.12l-1.29 4.59h2.7l-1.29-4.59zm10.269 7.455h-.075c-.08.2-.185.395-.315.585-.12.18-.27.34-.45.48-.18.13-.39.235-.63.315-.24.08-.52.12-.84.12-.78 0-1.41-.255-1.89-.765s-.72-1.235-.72-2.175v-4.98h1.635v4.74c0 1.23.535 1.845 1.605 1.845.21 0 .415-.025.615-.075.2-.06.38-.145.54-.255.16-.11.285-.245.375-.405.1-.17.15-.37.15-.6v-5.25h1.635v7.74h-1.635v-1.32zm7.554 1.32c-.68 0-1.18-.18-1.5-.54-.32-.37-.48-.845-.48-1.425v-4.455h-2.385v-1.32h1.695c.29 0 .495-.055.615-.165.12-.12.18-.33.18-.63v-1.935h1.53v2.73h3.3v1.32h-3.3v5.1h3.3v1.32h-2.955zm8.229.18c-.57 0-1.085-.095-1.545-.285-.45-.19-.835-.46-1.155-.81-.31-.35-.55-.775-.72-1.275-.17-.5-.255-1.06-.255-1.68 0-.62.085-1.18.255-1.68.17-.5.41-.925.72-1.275.32-.35.705-.62 1.155-.81.46-.19.975-.285 1.545-.285s1.08.095 1.53.285c.46.19.845.46 1.155.81.32.35.565.775.735 1.275.17.5.255 1.06.255 1.68 0 .62-.085 1.18-.255 1.68-.17.5-.415.925-.735 1.275-.31.35-.695.62-1.155.81-.45.19-.96.285-1.53.285zm0-1.29c.6 0 1.075-.18 1.425-.54.36-.37.54-.915.54-1.635v-1.17c0-.72-.18-1.26-.54-1.62-.35-.37-.825-.555-1.425-.555-.6 0-1.08.185-1.44.555-.35.36-.525.9-.525 1.62v1.17c0 .72.175 1.265.525 1.635.36.36.84.54 1.44.54zm4.855 1.11v-7.74h1.395v1.005h.075c.12-.33.29-.61.51-.84.23-.23.555-.345.975-.345.41 0 .725.115.945.345.23.22.375.525.435.915h.06c.14-.35.335-.645.585-.885.25-.25.61-.375 1.08-.375.6 0 1.015.21 1.245.63.24.42.36 1.035.36 1.845v5.445h-1.395v-5.235c0-.54-.065-.91-.195-1.11-.13-.21-.34-.315-.63-.315-.26 0-.48.09-.66.27-.17.17-.255.43-.255.78v5.61h-1.395v-5.235c0-.54-.065-.91-.195-1.11-.12-.21-.325-.315-.615-.315-.27 0-.495.09-.675.27-.17.17-.255.43-.255.78v5.61h-1.395zm15.414 0c-.47 0-.825-.12-1.065-.36-.23-.24-.37-.555-.42-.945h-.075c-.15.47-.425.835-.825 1.095-.39.26-.89.39-1.5.39-.79 0-1.42-.205-1.89-.615-.47-.42-.705-.995-.705-1.725 0-.75.275-1.32.825-1.71.56-.4 1.415-.6 2.565-.6h1.485v-.6c0-1.05-.555-1.575-1.665-1.575-.5 0-.905.1-1.215.3-.31.19-.57.445-.78.765l-.975-.795c.22-.42.59-.78 1.11-1.08.52-.31 1.19-.465 2.01-.465.98 0 1.75.235 2.31.705s.84 1.15.84 2.04v3.885h.975v1.29h-1.005zm-3.42-1.02c.53 0 .965-.12 1.305-.36.34-.24.51-.55.51-.93v-1.125h-1.455c-1.18 0-1.77.355-1.77 1.065v.3c0 .35.125.615.375.795.25.17.595.255 1.035.255zm9.699 1.02c-.68 0-1.18-.18-1.5-.54-.32-.37-.48-.845-.48-1.425v-4.455h-2.385v-1.32h1.695c.29 0 .495-.055.615-.165.12-.12.18-.33.18-.63v-1.935h1.53v2.73h3.3v1.32h-3.3v5.1h3.3v1.32h-2.955zm8.709-9.15c-.42 0-.715-.085-.885-.255a.884.884 0 0 1-.24-.63v-.315c0-.25.08-.46.24-.63.17-.17.46-.255.87-.255.42 0 .71.085.87.255.17.17.255.38.255.63v.315c0 .25-.085.46-.255.63-.16.17-.445.255-.855.255zm-3.465 7.83h2.64v-5.1h-2.64v-1.32h4.275v6.42h2.475v1.32h-6.75v-1.32zm11.679 1.5c-.57 0-1.085-.095-1.545-.285-.45-.19-.835-.46-1.155-.81-.31-.35-.55-.775-.72-1.275-.17-.5-.255-1.06-.255-1.68 0-.62.085-1.18.255-1.68.17-.5.41-.925.72-1.275.32-.35.705-.62 1.155-.81.46-.19.975-.285 1.545-.285s1.08.095 1.53.285c.46.19.845.46 1.155.81.32.35.565.775.735 1.275.17.5.255 1.06.255 1.68 0 .62-.085 1.18-.255 1.68-.17.5-.415.925-.735 1.275-.31.35-.695.62-1.155.81-.45.19-.96.285-1.53.285zm0-1.29c.6 0 1.075-.18 1.425-.54.36-.37.54-.915.54-1.635v-1.17c0-.72-.18-1.26-.54-1.62-.35-.37-.825-.555-1.425-.555-.6 0-1.08.185-1.44.555-.35.36-.525.9-.525 1.62v1.17c0 .72.175 1.265.525 1.635.36.36.84.54 1.44.54zm5.454 1.11v-7.74h1.635v1.32h.075c.08-.2.18-.39.3-.57.13-.19.285-.35.465-.48.18-.14.39-.25.63-.33.24-.08.52-.12.84-.12.78 0 1.41.255 1.89.765s.72 1.235.72 2.175v4.98h-1.635v-4.74c0-1.23-.535-1.845-1.605-1.845-.21 0-.415.03-.615.09-.2.05-.38.13-.54.24-.16.11-.29.25-.39.42-.09.17-.135.365-.135.585v5.25h-1.635zm21.094 0c-.68 0-1.18-.18-1.5-.54-.32-.37-.48-.845-.48-1.425v-4.455h-2.385v-1.32h1.695c.29 0 .495-.055.615-.165.12-.12.18-.33.18-.63v-1.935h1.53v2.73h3.3v1.32h-3.3v5.1h3.3v1.32h-2.955zm8.394.18a4.21 4.21 0 0 1-1.59-.285c-.47-.19-.865-.46-1.185-.81a3.58 3.58 0 0 1-.735-1.26c-.17-.5-.255-1.06-.255-1.68 0-.62.085-1.18.255-1.68.18-.5.425-.925.735-1.275a3.18 3.18 0 0 1 1.155-.825c.45-.19.95-.285 1.5-.285.54 0 1.03.095 1.47.285.44.18.815.44 1.125.78.31.34.545.745.705 1.215.17.47.255.99.255 1.56v.615h-5.55v.255c0 .61.19 1.11.57 1.5.38.38.905.57 1.575.57.5 0 .925-.105 1.275-.315.36-.22.65-.51.87-.87l1.02.9c-.26.45-.66.83-1.2 1.14-.53.31-1.195.465-1.995.465zm-.12-6.855c-.29 0-.56.05-.81.15-.24.1-.45.245-.63.435a2.02 2.02 0 0 0-.405.645c-.1.25-.15.525-.15.825v.105h3.885v-.15c0-.61-.175-1.095-.525-1.455-.34-.37-.795-.555-1.365-.555zm8.664 6.855c-.84 0-1.565-.135-2.175-.405-.6-.27-1.085-.63-1.455-1.08l1.005-.9c.34.37.72.655 1.14.855.43.19.935.285 1.515.285.53 0 .955-.09 1.275-.27.33-.18.495-.46.495-.84 0-.16-.03-.295-.09-.405a.732.732 0 0 0-.255-.27c-.11-.07-.24-.125-.39-.165-.14-.04-.29-.07-.45-.09l-1.23-.195c-.3-.04-.605-.105-.915-.195-.31-.09-.59-.215-.84-.375a2.18 2.18 0 0 1-.6-.645c-.15-.26-.225-.59-.225-.99 0-.79.3-1.39.9-1.8.61-.41 1.41-.615 2.4-.615.72 0 1.34.11 1.86.33.53.21.97.505 1.32.885l-.915.96c-.2-.23-.485-.44-.855-.63-.37-.2-.86-.3-1.47-.3-1.09 0-1.635.345-1.635 1.035 0 .33.115.56.345.69.24.12.52.2.84.24l1.23.195c.31.05.615.115.915.195.31.08.585.205.825.375.25.16.45.37.6.63.16.26.24.59.24.99 0 .78-.305 1.395-.915 1.845-.6.44-1.43.66-2.49.66zm9.144-.18c-.68 0-1.18-.18-1.5-.54-.32-.37-.48-.845-.48-1.425v-4.455h-2.385v-1.32h1.695c.29 0 .495-.055.615-.165.12-.12.18-.33.18-.63v-1.935h1.53v2.73h3.3v1.32h-3.3v5.1h3.3v1.32h-2.955zm8.394.18a4.21 4.21 0 0 1-1.59-.285c-.47-.19-.865-.46-1.185-.81a3.58 3.58 0 0 1-.735-1.26c-.17-.5-.255-1.06-.255-1.68 0-.62.085-1.18.255-1.68.18-.5.425-.925.735-1.275a3.18 3.18 0 0 1 1.155-.825c.45-.19.95-.285 1.5-.285.54 0 1.03.095 1.47.285.44.18.815.44 1.125.78.31.34.545.745.705 1.215.17.47.255.99.255 1.56v.615h-5.55v.255c0 .61.19 1.11.57 1.5.38.38.905.57 1.575.57.5 0 .925-.105 1.275-.315.36-.22.65-.51.87-.87l1.02.9c-.26.45-.66.83-1.2 1.14-.53.31-1.195.465-1.995.465zm-.12-6.855c-.29 0-.56.05-.81.15-.24.1-.45.245-.63.435a2.02 2.02 0 0 0-.405.645c-.1.25-.15.525-.15.825v.105h3.885v-.15c0-.61-.175-1.095-.525-1.455-.34-.37-.795-.555-1.365-.555zm5.289 5.355h2.055v-5.1h-2.055v-1.32h3.69v2.055h.09c.07-.27.17-.53.3-.78.13-.25.295-.465.495-.645.2-.19.445-.34.735-.45.29-.12.63-.18 1.02-.18h.93v1.56h-1.53c-.6 0-1.09.18-1.47.54-.38.35-.57.825-.57 1.425v2.895h2.805v1.32h-6.495v-1.32zm12.069 1.5c-.84 0-1.565-.135-2.175-.405-.6-.27-1.085-.63-1.455-1.08l1.005-.9c.34.37.72.655 1.14.855.43.19.935.285 1.515.285.53 0 .955-.09 1.275-.27.33-.18.495-.46.495-.84 0-.16-.03-.295-.09-.405a.732.732 0 0 0-.255-.27c-.11-.07-.24-.125-.39-.165-.14-.04-.29-.07-.45-.09l-1.23-.195c-.3-.04-.605-.105-.915-.195-.31-.09-.59-.215-.84-.375a2.18 2.18 0 0 1-.6-.645c-.15-.26-.225-.59-.225-.99 0-.79.3-1.39.9-1.8.61-.41 1.41-.615 2.4-.615.72 0 1.34.11 1.86.33.53.21.97.505 1.32.885l-.915.96c-.2-.23-.485-.44-.855-.63-.37-.2-.86-.3-1.47-.3-1.09 0-1.635.345-1.635 1.035 0 .33.115.56.345.69.24.12.52.2.84.24l1.23.195c.31.05.615.115.915.195.31.08.585.205.825.375.25.16.45.37.6.63.16.26.24.59.24.99 0 .78-.305 1.395-.915 1.845-.6.44-1.43.66-2.49.66z"/><rect width="295" height="77.5" x="123" y="277.5" stroke="#3E3E41" stroke-dasharray="4 4" rx="3.5"/><path fill="#A1A1A8" d="M203.185 313.695h-.135v8.055h-1.47v-10.47h2.16l3.075 8.055h.135v-8.055h1.47v10.47h-2.16l-3.075-8.055zm10.674 8.235a4.21 4.21 0 0 1-1.59-.285c-.47-.19-.865-.46-1.185-.81a3.58 3.58 0 0 1-.735-1.26c-.17-.5-.255-1.06-.255-1.68 0-.62.085-1.18.255-1.68.18-.5.425-.925.735-1.275a3.18 3.18 0 0 1 1.155-.825c.45-.19.95-.285 1.5-.285.54 0 1.03.095 1.47.285.44.18.815.44 1.125.78.31.34.545.745.705 1.215.17.47.255.99.255 1.56v.615h-5.55v.255c0 .61.19 1.11.57 1.5.38.38.905.57 1.575.57.5 0 .925-.105 1.275-.315.36-.22.65-.51.87-.87l1.02.9c-.26.45-.66.83-1.2 1.14-.53.31-1.195.465-1.995.465zm-.12-6.855c-.29 0-.56.05-.81.15-.24.1-.45.245-.63.435a2.02 2.02 0 0 0-.405.645c-.1.25-.15.525-.15.825v.105h3.885v-.15c0-.61-.175-1.095-.525-1.455-.34-.37-.795-.555-1.365-.555zm9.114 6.675c-.68 0-1.18-.18-1.5-.54-.32-.37-.48-.845-.48-1.425v-4.455h-2.385v-1.32h1.695c.29 0 .495-.055.615-.165.12-.12.18-.33.18-.63v-1.935h1.53v2.73h3.3v1.32h-3.3v5.1h3.3v1.32h-2.955zm4.029-7.74h1.395l.75 6.51h.135l1.155-6.51h1.59l1.14 6.51h.135l.765-6.51h1.335l-1.08 7.74h-2.01l-1.035-6h-.135l-1.05 6h-2.01l-1.08-7.74zm12.895 7.92c-.57 0-1.085-.095-1.545-.285-.45-.19-.835-.46-1.155-.81-.31-.35-.55-.775-.72-1.275-.17-.5-.255-1.06-.255-1.68 0-.62.085-1.18.255-1.68.17-.5.41-.925.72-1.275.32-.35.705-.62 1.155-.81.46-.19.975-.285 1.545-.285s1.08.095 1.53.285c.46.19.845.46 1.155.81.32.35.565.775.735 1.275.17.5.255 1.06.255 1.68 0 .62-.085 1.18-.255 1.68-.17.5-.415.925-.735 1.275-.31.35-.695.62-1.155.81-.45.19-.96.285-1.53.285zm0-1.29c.6 0 1.075-.18 1.425-.54.36-.37.54-.915.54-1.635v-1.17c0-.72-.18-1.26-.54-1.62-.35-.37-.825-.555-1.425-.555-.6 0-1.08.185-1.44.555-.35.36-.525.9-.525 1.62v1.17c0 .72.175 1.265.525 1.635.36.36.84.54 1.44.54zm5.334-.21h2.055v-5.1h-2.055v-1.32h3.69v2.055h.09c.07-.27.17-.53.3-.78.13-.25.295-.465.495-.645.2-.19.445-.34.735-.45.29-.12.63-.18 1.02-.18h.93v1.56h-1.53c-.6 0-1.09.18-1.47.54-.38.35-.57.825-.57 1.425v2.895h2.805v1.32h-6.495v-1.32zm8.874-9.78h1.635v6.705h.075l1.215-1.245 2.175-2.1h1.935l-3.135 3.045 3.48 4.695H259.4l-2.7-3.765-1.08 1.005v2.76h-1.635v-11.1zm17.328 11.1v-10.47h3.915c1 0 1.76.28 2.28.84.53.56.795 1.33.795 2.31s-.265 1.75-.795 2.31c-.52.56-1.28.84-2.28.84h-2.235v4.17h-1.68zm1.68-5.565h1.98c1.04 0 1.56-.48 1.56-1.44v-.645c0-.95-.52-1.425-1.56-1.425h-1.98v3.51zm6.894 4.245h2.055v-5.1h-2.055v-1.32h3.69v2.055h.09c.07-.27.17-.53.3-.78.13-.25.295-.465.495-.645.2-.19.445-.34.735-.45.29-.12.63-.18 1.02-.18h.93v1.56h-1.53c-.6 0-1.09.18-1.47.54-.38.35-.57.825-.57 1.425v2.895h2.805v1.32h-6.495v-1.32zm12.054 1.5c-.57 0-1.085-.095-1.545-.285-.45-.19-.835-.46-1.155-.81-.31-.35-.55-.775-.72-1.275-.17-.5-.255-1.06-.255-1.68 0-.62.085-1.18.255-1.68.17-.5.41-.925.72-1.275.32-.35.705-.62 1.155-.81.46-.19.975-.285 1.545-.285s1.08.095 1.53.285c.46.19.845.46 1.155.81.32.35.565.775.735 1.275.17.5.255 1.06.255 1.68 0 .62-.085 1.18-.255 1.68-.17.5-.415.925-.735 1.275-.31.35-.695.62-1.155.81-.45.19-.96.285-1.53.285zm0-1.29c.6 0 1.075-.18 1.425-.54.36-.37.54-.915.54-1.635v-1.17c0-.72-.18-1.26-.54-1.62-.35-.37-.825-.555-1.425-.555-.6 0-1.08.185-1.44.555-.35.36-.525.9-.525 1.62v1.17c0 .72.175 1.265.525 1.635.36.36.84.54 1.44.54zm9.16 1.11c-.68 0-1.18-.18-1.5-.54-.32-.37-.48-.845-.48-1.425v-4.455h-2.385v-1.32h1.695c.29 0 .495-.055.615-.165.12-.12.18-.33.18-.63v-1.935h1.53v2.73h3.3v1.32h-3.3v5.1h3.3v1.32h-2.955zm8.229.18c-.57 0-1.085-.095-1.545-.285-.45-.19-.835-.46-1.155-.81-.31-.35-.55-.775-.72-1.275-.17-.5-.255-1.06-.255-1.68 0-.62.085-1.18.255-1.68.17-.5.41-.925.72-1.275.32-.35.705-.62 1.155-.81.46-.19.975-.285 1.545-.285s1.08.095 1.53.285c.46.19.845.46 1.155.81.32.35.565.775.735 1.275.17.5.255 1.06.255 1.68 0 .62-.085 1.18-.255 1.68-.17.5-.415.925-.735 1.275-.31.35-.695.62-1.155.81-.45.19-.96.285-1.53.285zm0-1.29c.6 0 1.075-.18 1.425-.54.36-.37.54-.915.54-1.635v-1.17c0-.72-.18-1.26-.54-1.62-.35-.37-.825-.555-1.425-.555-.6 0-1.08.185-1.44.555-.35.36-.525.9-.525 1.62v1.17c0 .72.175 1.265.525 1.635.36.36.84.54 1.44.54zm8.979 1.29c-.58 0-1.1-.095-1.56-.285-.45-.19-.835-.46-1.155-.81-.31-.35-.55-.775-.72-1.275-.16-.5-.24-1.06-.24-1.68 0-.62.08-1.18.24-1.68.17-.5.41-.925.72-1.275.32-.35.705-.62 1.155-.81.46-.19.975-.285 1.545-.285.8 0 1.44.17 1.92.51.49.34.855.78 1.095 1.32l-1.275.69a1.859 1.859 0 0 0-.645-.855c-.28-.21-.645-.315-1.095-.315-.62 0-1.1.19-1.44.57-.34.37-.51.865-.51 1.485v1.29c0 .61.17 1.105.51 1.485.34.38.83.57 1.47.57.48 0 .87-.11 1.17-.33.31-.22.555-.52.735-.9l1.2.735c-.25.54-.63.985-1.14 1.335-.51.34-1.17.51-1.98.51zm8.409 0c-.57 0-1.085-.095-1.545-.285-.45-.19-.835-.46-1.155-.81-.31-.35-.55-.775-.72-1.275-.17-.5-.255-1.06-.255-1.68 0-.62.085-1.18.255-1.68.17-.5.41-.925.72-1.275.32-.35.705-.62 1.155-.81.46-.19.975-.285 1.545-.285s1.08.095 1.53.285c.46.19.845.46 1.155.81.32.35.565.775.735 1.275.17.5.255 1.06.255 1.68 0 .62-.085 1.18-.255 1.68-.17.5-.415.925-.735 1.275-.31.35-.695.62-1.155.81-.45.19-.96.285-1.53.285zm0-1.29c.6 0 1.075-.18 1.425-.54.36-.37.54-.915.54-1.635v-1.17c0-.72-.18-1.26-.54-1.62-.35-.37-.825-.555-1.425-.555-.6 0-1.08.185-1.44.555-.35.36-.525.9-.525 1.62v1.17c0 .72.175 1.265.525 1.635.36.36.84.54 1.44.54zm5.319-.21h2.565v-8.46h-2.565v-1.32h4.2v9.78h2.565v1.32h-6.765v-1.32z"/><rect width="295" height="77.5" x="123" y="380" stroke="#3E3E41" stroke-dasharray="4 4" rx="3.5"/><path fill="#A1A1A8" d="M200.5 424.43c-.66 0-1.235-.12-1.725-.36-.48-.25-.88-.605-1.2-1.065-.31-.46-.54-1.025-.69-1.695-.15-.67-.225-1.435-.225-2.295 0-.85.075-1.61.225-2.28.15-.68.38-1.25.69-1.71.32-.46.72-.81 1.2-1.05.49-.25 1.065-.375 1.725-.375.66 0 1.23.125 1.71.375.49.24.89.59 1.2 1.05.32.46.555 1.03.705 1.71.15.67.225 1.43.225 2.28 0 .86-.075 1.625-.225 2.295-.15.67-.385 1.235-.705 1.695-.31.46-.71.815-1.2 1.065-.48.24-1.05.36-1.71.36zm0-1.395c.75 0 1.28-.28 1.59-.84.31-.57.465-1.34.465-2.31v-1.755c0-.96-.155-1.72-.465-2.28-.31-.57-.84-.855-1.59-.855-.75 0-1.28.285-1.59.855-.31.56-.465 1.32-.465 2.28v1.77c0 .96.155 1.725.465 2.295.31.56.84.84 1.59.84zm5.379-6.525h1.635v1.32h.09c.23-.47.535-.835.915-1.095.38-.27.855-.405 1.425-.405.91 0 1.635.34 2.175 1.02.54.68.81 1.69.81 3.03 0 1.34-.27 2.35-.81 3.03-.54.68-1.265 1.02-2.175 1.02-.57 0-1.045-.13-1.425-.39-.38-.27-.685-.64-.915-1.11h-.09v4.32h-1.635v-10.74zm3.39 6.585c.62 0 1.095-.19 1.425-.57.34-.38.51-.885.51-1.515v-1.26c0-.63-.17-1.135-.51-1.515-.33-.38-.805-.57-1.425-.57-.24 0-.465.03-.675.09-.21.06-.395.15-.555.27-.16.12-.29.27-.39.45a1.3 1.3 0 0 0-.135.615v2.58c0 .24.045.45.135.63.1.17.23.315.39.435s.345.21.555.27c.21.06.435.09.675.09zm8.784 1.335a4.21 4.21 0 0 1-1.59-.285c-.47-.19-.865-.46-1.185-.81a3.58 3.58 0 0 1-.735-1.26c-.17-.5-.255-1.06-.255-1.68 0-.62.085-1.18.255-1.68.18-.5.425-.925.735-1.275a3.18 3.18 0 0 1 1.155-.825c.45-.19.95-.285 1.5-.285.54 0 1.03.095 1.47.285.44.18.815.44 1.125.78.31.34.545.745.705 1.215.17.47.255.99.255 1.56v.615h-5.55v.255c0 .61.19 1.11.57 1.5.38.38.905.57 1.575.57.5 0 .925-.105 1.275-.315.36-.22.65-.51.87-.87l1.02.9c-.26.45-.66.83-1.2 1.14-.53.31-1.195.465-1.995.465zm-.12-6.855c-.29 0-.56.05-.81.15-.24.1-.45.245-.63.435a2.02 2.02 0 0 0-.405.645c-.1.25-.15.525-.15.825v.105h3.885v-.15c0-.61-.175-1.095-.525-1.455-.34-.37-.795-.555-1.365-.555zm5.289 5.355h2.055v-5.1h-2.055v-1.32h3.69v2.055h.09c.07-.27.17-.53.3-.78.13-.25.295-.465.495-.645.2-.19.445-.34.735-.45.29-.12.63-.18 1.02-.18h.93v1.56h-1.53c-.6 0-1.09.18-1.47.54-.38.35-.57.825-.57 1.425v2.895h2.805v1.32h-6.495v-1.32zm14.935 1.32c-.47 0-.825-.12-1.065-.36-.23-.24-.37-.555-.42-.945h-.075c-.15.47-.425.835-.825 1.095-.39.26-.89.39-1.5.39-.79 0-1.42-.205-1.89-.615-.47-.42-.705-.995-.705-1.725 0-.75.275-1.32.825-1.71.56-.4 1.415-.6 2.565-.6h1.485v-.6c0-1.05-.555-1.575-1.665-1.575-.5 0-.905.1-1.215.3-.31.19-.57.445-.78.765l-.975-.795c.22-.42.59-.78 1.11-1.08.52-.31 1.19-.465 2.01-.465.98 0 1.75.235 2.31.705s.84 1.15.84 2.04v3.885h.975v1.29h-1.005zm-3.42-1.02c.53 0 .965-.12 1.305-.36.34-.24.51-.55.51-.93v-1.125h-1.455c-1.18 0-1.77.355-1.77 1.065v.3c0 .35.125.615.375.795.25.17.595.255 1.035.255zm9.699 1.02c-.68 0-1.18-.18-1.5-.54-.32-.37-.48-.845-.48-1.425v-4.455h-2.385v-1.32h1.695c.29 0 .495-.055.615-.165.12-.12.18-.33.18-.63v-1.935h1.53v2.73h3.3v1.32h-3.3v5.1h3.3v1.32h-2.955zm8.709-9.15c-.42 0-.715-.085-.885-.255a.884.884 0 0 1-.24-.63v-.315c0-.25.08-.46.24-.63.17-.17.46-.255.87-.255.42 0 .71.085.87.255.17.17.255.38.255.63v.315c0 .25-.085.46-.255.63-.16.17-.445.255-.855.255zm-3.465 7.83h2.64v-5.1h-2.64v-1.32h4.275v6.42h2.475v1.32h-6.75v-1.32zm8.439 1.32v-7.74h1.635v1.32h.075c.08-.2.18-.39.3-.57.13-.19.285-.35.465-.48.18-.14.39-.25.63-.33.24-.08.52-.12.84-.12.78 0 1.41.255 1.89.765s.72 1.235.72 2.175v4.98h-1.635v-4.74c0-1.23-.535-1.845-1.605-1.845-.21 0-.415.03-.615.09-.2.05-.38.13-.54.24-.16.11-.29.25-.39.42-.09.17-.135.365-.135.585v5.25h-1.635zm15.984.84c0 .8-.335 1.39-1.005 1.77-.67.38-1.69.57-3.06.57-.67 0-1.235-.045-1.695-.135-.45-.08-.82-.2-1.11-.36-.28-.16-.485-.355-.615-.585a1.66 1.66 0 0 1-.18-.78c0-.42.115-.75.345-.99.24-.23.575-.4 1.005-.51v-.15c-.26-.1-.47-.24-.63-.42-.15-.18-.225-.415-.225-.705 0-.38.13-.665.39-.855.26-.2.595-.35 1.005-.45v-.075c-.47-.22-.835-.53-1.095-.93s-.39-.88-.39-1.44c0-.41.075-.78.225-1.11.15-.34.36-.625.63-.855.28-.24.61-.425.99-.555a4.11 4.11 0 0 1 1.305-.195c.54 0 1.025.085 1.455.255v-.255c0-.3.085-.55.255-.75.17-.2.43-.3.78-.3h1.41v1.29h-1.8v.36c.34.23.6.525.78.885.18.35.27.76.27 1.23 0 .41-.075.785-.225 1.125a2.45 2.45 0 0 1-.645.855c-.27.23-.6.41-.99.54-.38.12-.81.18-1.29.18-.34 0-.66-.03-.96-.09-.18.05-.36.135-.54.255a.565.565 0 0 0-.27.495c0 .24.115.39.345.45.23.06.515.09.855.09h1.74c1.04 0 1.79.2 2.25.6.46.39.69.905.69 1.545zm-1.53.105c0-.26-.105-.47-.315-.63-.21-.15-.59-.225-1.14-.225h-2.685c-.38.18-.57.47-.57.87 0 .29.12.54.36.75.25.21.66.315 1.23.315h1.215c.62 0 1.09-.095 1.41-.285.33-.18.495-.445.495-.795zm-2.58-4.575c.53 0 .92-.125 1.17-.375.25-.25.375-.585.375-1.005v-.405c0-.42-.125-.755-.375-1.005-.25-.25-.64-.375-1.17-.375-.53 0-.92.125-1.17.375-.25.25-.375.585-.375 1.005v.405c0 .42.125.755.375 1.005.25.25.64.375 1.17.375zm17.463 3.81c-.84 0-1.565-.135-2.175-.405-.6-.27-1.085-.63-1.455-1.08l1.005-.9c.34.37.72.655 1.14.855.43.19.935.285 1.515.285.53 0 .955-.09 1.275-.27.33-.18.495-.46.495-.84 0-.16-.03-.295-.09-.405a.732.732 0 0 0-.255-.27c-.11-.07-.24-.125-.39-.165-.14-.04-.29-.07-.45-.09l-1.23-.195c-.3-.04-.605-.105-.915-.195-.31-.09-.59-.215-.84-.375a2.18 2.18 0 0 1-.6-.645c-.15-.26-.225-.59-.225-.99 0-.79.3-1.39.9-1.8.61-.41 1.41-.615 2.4-.615.72 0 1.34.11 1.86.33.53.21.97.505 1.32.885l-.915.96c-.2-.23-.485-.44-.855-.63-.37-.2-.86-.3-1.47-.3-1.09 0-1.635.345-1.635 1.035 0 .33.115.56.345.69.24.12.52.2.84.24l1.23.195c.31.05.615.115.915.195.31.08.585.205.825.375.25.16.45.37.6.63.16.26.24.59.24.99 0 .78-.305 1.395-.915 1.845-.6.44-1.43.66-2.49.66zm10.945-7.92h1.65l-3.75 9.24c-.2.5-.465.875-.795 1.125-.32.25-.785.375-1.395.375h-1.305v-1.32h1.83l.705-1.785-3.12-7.635h1.71l1.23 3.24.96 2.655h.09l.96-2.655 1.23-3.24zm6.444 7.92c-.84 0-1.565-.135-2.175-.405-.6-.27-1.085-.63-1.455-1.08l1.005-.9c.34.37.72.655 1.14.855.43.19.935.285 1.515.285.53 0 .955-.09 1.275-.27.33-.18.495-.46.495-.84 0-.16-.03-.295-.09-.405a.732.732 0 0 0-.255-.27c-.11-.07-.24-.125-.39-.165-.14-.04-.29-.07-.45-.09l-1.23-.195c-.3-.04-.605-.105-.915-.195-.31-.09-.59-.215-.84-.375a2.18 2.18 0 0 1-.6-.645c-.15-.26-.225-.59-.225-.99 0-.79.3-1.39.9-1.8.61-.41 1.41-.615 2.4-.615.72 0 1.34.11 1.86.33.53.21.97.505 1.32.885l-.915.96c-.2-.23-.485-.44-.855-.63-.37-.2-.86-.3-1.47-.3-1.09 0-1.635.345-1.635 1.035 0 .33.115.56.345.69.24.12.52.2.84.24l1.23.195c.31.05.615.115.915.195.31.08.585.205.825.375.25.16.45.37.6.63.16.26.24.59.24.99 0 .78-.305 1.395-.915 1.845-.6.44-1.43.66-2.49.66zm9.144-.18c-.68 0-1.18-.18-1.5-.54-.32-.37-.48-.845-.48-1.425v-4.455h-2.385v-1.32h1.695c.29 0 .495-.055.615-.165.12-.12.18-.33.18-.63v-1.935h1.53v2.73h3.3v1.32h-3.3v5.1h3.3v1.32h-2.955zm8.394.18a4.21 4.21 0 0 1-1.59-.285c-.47-.19-.865-.46-1.185-.81a3.58 3.58 0 0 1-.735-1.26c-.17-.5-.255-1.06-.255-1.68 0-.62.085-1.18.255-1.68.18-.5.425-.925.735-1.275a3.18 3.18 0 0 1 1.155-.825c.45-.19.95-.285 1.5-.285.54 0 1.03.095 1.47.285.44.18.815.44 1.125.78.31.34.545.745.705 1.215.17.47.255.99.255 1.56v.615h-5.55v.255c0 .61.19 1.11.57 1.5.38.38.905.57 1.575.57.5 0 .925-.105 1.275-.315.36-.22.65-.51.87-.87l1.02.9c-.26.45-.66.83-1.2 1.14-.53.31-1.195.465-1.995.465zm-.12-6.855c-.29 0-.56.05-.81.15-.24.1-.45.245-.63.435a2.02 2.02 0 0 0-.405.645c-.1.25-.15.525-.15.825v.105h3.885v-.15c0-.61-.175-1.095-.525-1.455-.34-.37-.795-.555-1.365-.555zm4.809 6.675v-7.74h1.395v1.005h.075c.12-.33.29-.61.51-.84.23-.23.555-.345.975-.345.41 0 .725.115.945.345.23.22.375.525.435.915h.06c.14-.35.335-.645.585-.885.25-.25.61-.375 1.08-.375.6 0 1.015.21 1.245.63.24.42.36 1.035.36 1.845v5.445h-1.395v-5.235c0-.54-.065-.91-.195-1.11-.13-.21-.34-.315-.63-.315-.26 0-.48.09-.66.27-.17.17-.255.43-.255.78v5.61h-1.395v-5.235c0-.54-.065-.91-.195-1.11-.12-.21-.325-.315-.615-.315-.27 0-.495.09-.675.27-.17.17-.255.43-.255.78v5.61h-1.395zm12.549.18c-.84 0-1.565-.135-2.175-.405-.6-.27-1.085-.63-1.455-1.08l1.005-.9c.34.37.72.655 1.14.855.43.19.935.285 1.515.285.53 0 .955-.09 1.275-.27.33-.18.495-.46.495-.84 0-.16-.03-.295-.09-.405a.732.732 0 0 0-.255-.27c-.11-.07-.24-.125-.39-.165-.14-.04-.29-.07-.45-.09l-1.23-.195c-.3-.04-.605-.105-.915-.195-.31-.09-.59-.215-.84-.375a2.18 2.18 0 0 1-.6-.645c-.15-.26-.225-.59-.225-.99 0-.79.3-1.39.9-1.8.61-.41 1.41-.615 2.4-.615.72 0 1.34.11 1.86.33.53.21.97.505 1.32.885l-.915.96c-.2-.23-.485-.44-.855-.63-.37-.2-.86-.3-1.47-.3-1.09 0-1.635.345-1.635 1.035 0 .33.115.56.345.69.24.12.52.2.84.24l1.23.195c.31.05.615.115.915.195.31.08.585.205.825.375.25.16.45.37.6.63.16.26.24.59.24.99 0 .78-.305 1.395-.915 1.845-.6.44-1.43.66-2.49.66z"/></svg>