<svg xmlns="http://www.w3.org/2000/svg" width="412" height="471" fill="none"><mask id="a" fill="#fff"><path d="M0 16C0 7.163 7.163 0 16 0h380c8.837 0 16 7.163 16 16v455H0V16z"/></mask><path fill="#3E3E41" d="M-1 16C-1 6.611 6.611-1 16-1h380c9.389 0 17 7.611 17 17h-2c0-8.284-6.716-15-15-15H16C7.716 1 1 7.716 1 16h-2zm413 455H0h412zm-413 0V16C-1 6.611 6.611-1 16-1v2C7.716 1 1 7.716 1 16v455h-2zM396-1c9.389 0 17 7.611 17 17v455h-2V16c0-8.284-6.716-15-15-15v-2z" mask="url(#a)"/><g opacity=".4"><rect width="33.407" height="33.407" x="68" y="169.883" fill="#fff" opacity=".1" rx="2.784"/><rect width="33.407" height="33.407" x="68" y="214.425" fill="#fff" opacity=".08" rx="2.784"/><rect width="33.407" height="33.407" x="68" y="258.967" fill="#fff" opacity=".05" rx="2.784"/><rect width="33.407" height="33.407" x="68" y="303.509" fill="#fff" opacity=".04" rx="2.784"/><rect width="33.407" height="33.407" x="68" y="348.051" fill="#fff" opacity=".02" rx="2.784"/><rect width="32.711" height="32.711" x="68.348" y="392.942" stroke="#38EECD" stroke-opacity=".03" stroke-width=".696" rx="2.436"/></g><g opacity=".5"><rect width="33.407" height="33.407" x="128.55" y="108.637" fill="#fff" opacity=".1" rx="2.784"/><rect width="33.407" height="33.407" x="128.55" y="153.179" fill="#fff" opacity=".08" rx="2.784"/><rect width="33.407" height="33.407" x="128.55" y="197.721" fill="#fff" opacity=".05" rx="2.784"/><rect width="33.407" height="33.407" x="128.55" y="242.263" fill="#fff" opacity=".04" rx="2.784"/><rect width="33.407" height="33.407" x="128.55" y="286.806" fill="#fff" opacity=".02" rx="2.784"/><rect width="32.711" height="32.711" x="128.898" y="331.696" stroke="#38EECD" stroke-opacity=".03" stroke-width=".696" rx="2.436"/></g><rect width="33.407" height="33.407" x="189.099" y="46" fill="#fff" opacity=".1" rx="2.784"/><rect width="33.407" height="33.407" x="189.099" y="90.542" fill="#fff" opacity=".08" rx="2.784"/><rect width="33.407" height="33.407" x="189.099" y="135.084" fill="#fff" opacity=".05" rx="2.784"/><rect width="33.407" height="33.407" x="189.099" y="179.626" fill="#fff" opacity=".04" rx="2.784"/><rect width="33.407" height="33.407" x="189.099" y="224.168" fill="#fff" opacity=".02" rx="2.784"/><rect width="32.711" height="32.711" x="189.447" y="269.059" stroke="#38EECD" stroke-opacity=".03" stroke-width=".696" rx="2.436"/><rect width="33.407" height="33.407" x="249.648" y="91.934" fill="#fff" opacity=".1" rx="2.784"/><rect width="33.407" height="33.407" x="249.648" y="136.476" fill="#fff" opacity=".08" rx="2.784"/><rect width="33.407" height="33.407" x="249.648" y="181.018" fill="#fff" opacity=".05" rx="2.784"/><rect width="33.407" height="33.407" x="249.648" y="225.56" fill="#fff" opacity=".04" rx="2.784"/><rect width="33.407" height="33.407" x="249.648" y="270.103" fill="#fff" opacity=".02" rx="2.784"/><rect width="32.711" height="32.711" x="249.996" y="314.993" stroke="#38EECD" stroke-opacity=".03" stroke-width=".696" rx="2.436"/><rect width="33.407" height="33.407" x="310.198" y="136.476" fill="#fff" opacity=".1" rx="2.784"/><rect width="33.407" height="33.407" x="310.198" y="181.018" fill="#fff" opacity=".08" rx="2.784"/><rect width="33.407" height="33.407" x="310.198" y="225.56" fill="#fff" opacity=".05" rx="2.784"/><rect width="33.407" height="33.407" x="310.198" y="270.102" fill="#fff" opacity=".04" rx="2.784"/><rect width="33.407" height="33.407" x="310.198" y="314.645" fill="#fff" opacity=".02" rx="2.784"/><rect width="32.711" height="32.711" x="310.546" y="359.535" stroke="#38EECD" stroke-opacity=".03" stroke-width=".696" rx="2.436"/><circle cx="206.5" cy="293.5" r="90.5" fill="#1C1C1C"/><path fill="#fff" d="M207 345c-11.294-2.829-20.618-9.276-27.973-19.342-7.354-10.065-11.03-21.24-11.027-33.523V262.55L207 248l39 14.55v29.585c0 12.287-3.676 23.463-11.027 33.528C227.621 335.728 218.297 342.174 207 345zm0-10.185c7.881-2.425 14.462-7.215 19.744-14.371 5.281-7.155 8.369-15.136 9.262-23.944H207v-38.194l-29.25 10.913v25.099c0 .565.081 1.293.244 2.182H207v38.315z"/></svg>