<svg width="343" height="531" viewBox="0 0 343 531" fill="none" xmlns="http://www.w3.org/2000/svg">
<path d="M101.06 107.254H13.1843C6.10131 107.254 0.359375 112.573 0.359375 119.135V200.541C0.359375 207.102 6.10131 212.421 13.1843 212.421H101.06C108.143 212.421 113.885 207.102 113.885 200.541V119.135C113.885 112.573 108.143 107.254 101.06 107.254Z" stroke="#3E3E41" stroke-width="0.70936" stroke-dasharray="3.28 3.28"/>
<path d="M30.0037 157.149V164.842H28.4639V157.149H25.4531V155.952H33.0146V157.149H30.0037ZM34.1232 163.721H36.0067V159.391H34.1232V158.27H37.5053V160.015H37.5877C37.6516 159.786 37.7439 159.565 37.8627 159.353C37.9815 159.141 38.1327 158.958 38.3164 158.805C38.5 158.644 38.7239 158.517 38.99 158.423C39.2552 158.321 39.5675 158.27 39.9249 158.27H40.7773V159.595H39.375C38.8251 159.595 38.3763 159.748 38.0277 160.053C37.6791 160.351 37.5053 160.754 37.5053 161.263V163.721H40.0761V164.842H34.1232V163.721ZM47.8104 164.842C47.3803 164.842 47.0543 164.74 46.8343 164.536C46.6241 164.332 46.4955 164.065 46.4493 163.734H46.3806C46.256 164.117 45.9879 164.447 45.6245 164.664C45.267 164.885 44.8094 164.995 44.2496 164.995C43.5259 164.995 42.9485 164.821 42.5174 164.473C42.0873 164.116 41.8712 163.627 41.8712 163.008C41.8712 162.371 42.1236 161.887 42.6274 161.556C43.141 161.217 43.9246 161.047 44.9783 161.047H46.3394V160.537C46.3394 159.646 45.8307 159.2 44.8133 159.2C44.3557 159.2 43.9845 159.285 43.6997 159.455C43.4121 159.619 43.1678 159.841 42.9848 160.104L42.0912 159.429C42.2935 159.073 42.6323 158.767 43.1086 158.512C43.5858 158.249 44.1996 158.117 44.9508 158.117C45.8493 158.117 46.5554 158.317 47.068 158.716C47.5816 159.115 47.8379 159.692 47.8379 160.448V163.747H48.7315V164.842H47.8104ZM44.6758 163.976C45.1619 163.976 45.5606 163.874 45.8719 163.67C46.1842 163.466 46.3394 163.204 46.3394 162.881V161.925H45.0068C43.9266 161.925 43.3845 162.227 43.3845 162.83V163.084C43.3845 163.382 43.4994 163.607 43.7282 163.759C43.958 163.904 44.2732 163.976 44.6758 163.976ZM53.5797 157.073C53.1947 157.073 52.9247 157.001 52.7685 156.857C52.6219 156.712 52.5428 156.52 52.5486 156.322V156.054C52.5486 155.842 52.6222 155.664 52.7685 155.519C52.9247 155.375 53.1908 155.303 53.5659 155.303C53.9509 155.303 54.217 155.375 54.3633 155.519C54.4396 155.589 54.4996 155.672 54.5398 155.764C54.58 155.856 54.5995 155.955 54.597 156.054V156.322C54.5995 156.421 54.58 156.519 54.5398 156.611C54.4996 156.703 54.4396 156.787 54.3633 156.857C54.216 157.001 53.9558 157.073 53.5797 157.073ZM50.4039 163.721H52.8235V159.391H50.4039V158.27H54.3221V163.721H56.5905V164.842H50.4039V163.721ZM58.1391 164.842V158.27H59.6367V159.391H59.7054C59.779 159.221 59.8714 159.06 59.9804 158.907C60.1002 158.746 60.2416 158.61 60.4065 158.499C60.5725 158.38 60.764 158.287 60.984 158.219C61.2039 158.151 61.4612 158.117 61.7548 158.117C62.4688 158.117 63.0472 158.334 63.4871 158.767C63.927 159.2 64.146 159.816 64.146 160.614V164.842H62.6485V160.817C62.6485 159.773 62.1575 159.251 61.1774 159.251C60.9862 159.251 60.7959 159.276 60.6128 159.327C60.4359 159.367 60.2682 159.436 60.1178 159.531C59.9717 159.624 59.8496 159.746 59.7604 159.888C59.6756 160.041 59.6331 160.212 59.6367 160.384V164.842H58.1391ZM69.5166 157.073C69.1316 157.073 68.8616 157.001 68.7055 156.857C68.5589 156.712 68.4799 156.52 68.4855 156.322V156.054C68.4855 155.842 68.5591 155.664 68.7055 155.519C68.8616 155.375 69.1277 155.303 69.5028 155.303C69.8878 155.303 70.1539 155.375 70.3002 155.519C70.3765 155.589 70.4366 155.672 70.4768 155.764C70.517 155.856 70.5364 155.955 70.5339 156.054V156.322C70.5364 156.421 70.517 156.519 70.4768 156.611C70.4366 156.703 70.3765 156.787 70.3002 156.857C70.1529 157.001 69.8927 157.073 69.5166 157.073ZM66.3408 163.721H68.7604V159.391H66.3408V158.27H70.259V163.721H72.5274V164.842H66.3408V163.721ZM74.076 164.842V158.27H75.5746V159.391H75.6433C75.7165 159.221 75.8086 159.059 75.9183 158.907C76.0333 158.749 76.1776 158.611 76.3445 158.499C76.5094 158.38 76.7019 158.287 76.9219 158.219C77.1418 158.151 77.3981 158.117 77.6918 158.117C78.4067 158.117 78.9841 158.334 79.424 158.767C79.864 159.2 80.0839 159.816 80.0839 160.614V164.842H78.5854V160.817C78.5854 159.773 78.0944 159.251 77.1143 159.251C76.9219 159.251 76.7333 159.276 76.5507 159.327C76.3738 159.367 76.2061 159.436 76.0557 159.531C75.9094 159.624 75.7872 159.746 75.6983 159.888C75.6135 160.041 75.571 160.212 75.5746 160.384V164.842H74.076ZM88.7256 165.555C88.7256 166.235 88.4182 166.735 87.8044 167.058C87.1907 167.381 86.2558 167.542 84.9998 167.542C84.3861 167.542 83.8676 167.504 83.4463 167.427C83.0339 167.359 82.6951 167.257 82.429 167.122C82.1956 167.007 82.0007 166.835 81.8653 166.625C81.7528 166.42 81.6962 166.193 81.7003 165.963C81.7003 165.606 81.8054 165.326 82.0165 165.122C82.2365 164.927 82.5438 164.783 82.9376 164.689V164.562C82.7168 164.488 82.5187 164.366 82.3602 164.205C82.2227 164.052 82.154 163.853 82.154 163.607C82.154 163.284 82.2728 163.042 82.5114 162.881C82.7501 162.71 83.0564 162.583 83.4326 162.499V162.435C83.0237 162.265 82.6756 161.991 82.429 161.645C82.1903 161.306 82.0715 160.898 82.0715 160.423C82.0715 160.074 82.1402 159.76 82.2777 159.48C82.4152 159.192 82.6077 158.95 82.8551 158.754C83.1114 158.55 83.4149 158.393 83.7625 158.283C84.12 158.173 84.5187 158.117 84.9586 158.117C85.4535 158.117 85.8984 158.189 86.2922 158.334V158.117C86.2922 157.863 86.3707 157.651 86.5259 157.481C86.682 157.31 86.9196 157.226 87.2408 157.226H88.5331V158.321H86.8833V158.627C87.1946 158.822 87.4332 159.073 87.5982 159.378C87.7632 159.676 87.8457 160.023 87.8457 160.423C87.8457 160.771 87.7769 161.089 87.6395 161.378C87.502 161.658 87.3056 161.9 87.0483 162.104C86.8008 162.299 86.4984 162.452 86.1409 162.562C85.7575 162.669 85.3588 162.72 84.9586 162.715C84.6473 162.715 84.3537 162.69 84.0787 162.639C83.9024 162.686 83.7354 162.759 83.5838 162.855C83.5064 162.899 83.4428 162.961 83.3994 163.035C83.3559 163.108 83.3342 163.191 83.3363 163.275C83.3363 163.479 83.4414 163.607 83.6525 163.657C83.8637 163.708 84.1239 163.734 84.4362 163.734H86.0309C86.9835 163.734 87.6709 163.904 88.0931 164.243C88.5154 164.574 88.7256 165.012 88.7256 165.555ZM87.3232 165.644C87.3257 165.54 87.3007 165.437 87.2504 165.344C87.2001 165.25 87.126 165.17 87.0345 165.109C86.8421 164.982 86.4944 164.918 85.9897 164.918H83.5288C83.1802 165.071 83.0064 165.318 83.0064 165.657C83.0064 165.904 83.1164 166.115 83.3363 166.294C83.5651 166.472 83.9412 166.561 84.4637 166.561H85.5772C86.1458 166.561 86.5759 166.48 86.8696 166.319C87.172 166.166 87.3232 165.942 87.3232 165.644ZM84.9586 161.76C85.4447 161.76 85.8021 161.653 86.0309 161.441C86.2597 161.229 86.3746 160.945 86.3746 160.588V160.244C86.3746 159.888 86.2597 159.603 86.0309 159.391C85.8021 159.179 85.4447 159.073 84.9586 159.073C84.4725 159.073 84.115 159.179 83.8862 159.391C83.6574 159.603 83.5425 159.888 83.5425 160.244V160.588C83.5425 160.945 83.6574 161.229 83.8862 161.441C84.115 161.653 84.4725 161.76 84.9586 161.76Z" fill="#A1A1A8"/>
<path d="M215.542 212.748H127.666C120.386 212.748 114.484 218.215 114.484 224.959V306.366C114.484 313.11 120.386 318.577 127.666 318.577H215.542C222.822 318.577 228.724 313.11 228.724 306.366V224.959C228.724 218.215 222.822 212.748 215.542 212.748Z" fill="#1C1C1C"/>
<path d="M215.458 0.363281H127.583C120.5 0.363281 114.758 5.68248 114.758 12.244V93.65C114.758 100.212 120.5 105.531 127.583 105.531H215.458C222.541 105.531 228.283 100.212 228.283 93.65V12.244C228.283 5.68248 222.541 0.363281 215.458 0.363281Z" stroke="#3E3E41" stroke-width="0.70936" stroke-dasharray="3.28 3.28"/>
<path d="M157.581 44.1454L157.622 41.4708H157.512L155.588 46.043L153.663 41.4708H153.553L153.594 44.1454V48.3992H152.233V39.5095H154.117L155.588 43.0374H155.684L157.169 39.5095H158.942V48.3992H157.581V44.1454ZM163.557 48.552C163.072 48.5586 162.591 48.4763 162.14 48.31C161.738 48.1552 161.376 47.9204 161.082 47.6223C160.785 47.3062 160.561 46.938 160.422 46.5397C160.26 46.0794 160.181 45.5974 160.188 45.1133C160.188 44.5866 160.266 44.1117 160.422 43.6869C160.577 43.2621 160.797 42.9018 161.082 42.6043C161.376 42.3062 161.738 42.0715 162.14 41.9166C162.591 41.7504 163.072 41.6682 163.557 41.6746C164.079 41.6746 164.546 41.7556 164.959 41.9166C165.364 42.0676 165.726 42.3029 166.017 42.6043C166.31 42.9018 166.535 43.2621 166.691 43.6869C166.846 44.1117 166.925 44.5875 166.925 45.1133C166.932 45.5974 166.853 46.0793 166.691 46.5397C166.55 46.9399 166.321 47.3086 166.017 47.6223C165.726 47.9239 165.364 48.1593 164.959 48.31C164.546 48.471 164.079 48.552 163.557 48.552ZM163.557 47.4567C164.106 47.4567 164.541 47.3039 164.863 46.9982C165.193 46.6844 165.358 46.2213 165.358 45.61V44.6166C165.358 44.0053 165.193 43.5468 164.863 43.2411C164.541 42.9273 164.106 42.7699 163.557 42.7699C163.007 42.7699 162.567 42.9273 162.237 43.2411C161.916 43.5468 161.756 44.0053 161.756 44.6166V45.61C161.756 46.2213 161.916 46.6835 162.237 46.9982C162.567 47.3039 163.007 47.4567 163.557 47.4567ZM173.064 47.2784H172.982C172.793 47.6534 172.504 47.9777 172.143 48.2209C171.796 48.4419 171.36 48.552 170.837 48.552C170.003 48.552 169.339 48.2636 168.844 47.686C168.349 47.1083 168.101 46.2513 168.101 45.1133C168.101 43.9762 168.349 43.1183 168.844 42.5407C169.339 41.963 170.003 41.6746 170.837 41.6746C171.36 41.6746 171.796 41.7892 172.143 42.0185C172.492 42.2395 172.772 42.5488 172.982 42.9482H173.064V38.9746H174.563V48.3992H173.064V47.2784ZM171.456 47.4185C171.676 47.4185 171.882 47.393 172.074 47.3421C172.267 47.2911 172.437 47.2147 172.583 47.1128C172.736 47.0088 172.859 46.8723 172.943 46.715C173.026 46.5576 173.068 46.384 173.064 46.2086V44.018C173.064 43.8142 173.019 43.6405 172.927 43.4958C172.846 43.3451 172.729 43.2141 172.583 43.1138C172.43 43.009 172.258 42.9313 172.074 42.8845C171.873 42.8325 171.665 42.8067 171.456 42.8081C170.888 42.8081 170.448 42.9691 170.136 43.2921C169.833 43.615 169.682 44.0435 169.682 44.5784V45.6482C169.682 46.1831 169.833 46.6125 170.136 46.9345C170.448 47.2575 170.888 47.4185 171.456 47.4185ZM179.645 48.552C179.147 48.5593 178.652 48.4771 178.187 48.31C177.774 48.1599 177.402 47.9248 177.101 47.6223C176.8 47.3125 176.57 46.9483 176.428 46.5525C176.266 46.0921 176.187 45.6102 176.194 45.126C176.194 44.5993 176.271 44.1245 176.428 43.6996C176.575 43.3022 176.804 42.9347 177.101 42.6171C177.393 42.3125 177.754 42.0731 178.16 41.9166C178.572 41.7556 179.03 41.6746 179.535 41.6746C180.03 41.6746 180.478 41.7556 180.882 41.9166C181.285 42.0694 181.628 42.2896 181.913 42.5789C182.197 42.8672 182.412 43.2111 182.559 43.6105C182.714 44.0098 182.793 44.451 182.793 44.935V45.4572H177.706V45.6737C177.706 46.1922 177.88 46.6161 178.229 46.9473C178.576 47.2702 179.057 47.4312 179.672 47.4312C180.13 47.4312 180.52 47.3421 180.841 47.1638C181.171 46.9773 181.436 46.7308 181.638 46.4251L182.573 47.1893C182.334 47.5713 181.968 47.8943 181.473 48.1572C180.987 48.421 180.377 48.552 179.645 48.552ZM179.535 42.7317C179.281 42.7297 179.029 42.773 178.792 42.8591C178.572 42.9437 178.38 43.0674 178.215 43.2284C178.055 43.3873 177.929 43.5732 177.844 43.776C177.751 43.988 177.706 44.2218 177.706 44.4765V44.5657H181.267V44.4383C181.267 43.9198 181.106 43.5086 180.786 43.2029C180.473 42.8891 180.057 42.7317 179.535 42.7317ZM184.368 47.2784H186.719V40.0954H184.368V38.9746H188.218V47.2784H190.568V48.3992H184.368V47.2784ZM133.676 63.2492L133.717 60.5747H133.607L131.683 65.1468L129.758 60.5747H129.648L129.689 63.2492V67.503H128.328V58.6133H130.212L131.683 62.1412H131.779L133.264 58.6133H135.037V67.503H133.676V63.2492ZM142.29 67.503C141.859 67.503 141.534 67.4011 141.314 67.1973C141.103 66.9935 140.975 66.7261 140.929 66.395H140.86C140.723 66.7943 140.471 67.1045 140.104 67.3247C139.747 67.5457 139.288 67.6558 138.729 67.6558C138.006 67.6558 137.428 67.4821 136.997 67.1336C136.566 66.777 136.351 66.2885 136.351 65.669C136.351 65.0322 136.603 64.5483 137.107 64.2171C137.621 63.8778 138.404 63.7077 139.458 63.7077H140.819V63.1983C140.819 62.3067 140.311 61.861 139.293 61.861C138.835 61.861 138.463 61.9456 138.18 62.1157C137.892 62.2802 137.648 62.5021 137.465 62.7652L136.571 62.0902C136.772 61.7336 137.112 61.428 137.588 61.1732C138.065 60.9094 138.679 60.7784 139.431 60.7784C140.329 60.7784 141.034 60.9786 141.548 61.377C142.061 61.7764 142.318 62.3531 142.318 63.1091V66.4077H143.211V67.503H142.29ZM139.156 66.6369C139.642 66.6369 140.04 66.5351 140.352 66.3313C140.663 66.1275 140.819 65.8646 140.819 65.5417V64.5865H139.486C138.404 64.5865 137.863 64.8876 137.863 65.4907V65.7454C137.863 66.0429 137.978 66.2676 138.207 66.4204C138.436 66.5651 138.752 66.6369 139.156 66.6369ZM144.54 66.3822H146.424V62.052H144.54V60.9313H147.922V62.6761H148.005C148.068 62.4463 148.161 62.224 148.279 62.0138C148.394 61.8073 148.547 61.6217 148.733 61.4662C148.916 61.3052 149.141 61.1778 149.407 61.0841C149.672 60.9822 149.984 60.9313 150.342 60.9313H151.194V62.2558H149.792C149.242 62.2558 148.792 62.4086 148.444 62.7143C148.096 63.0118 147.922 63.4148 147.922 63.9242V66.3822H150.493V67.503H144.54V66.3822ZM152.673 58.0784H154.172V63.7714H154.24L155.354 62.7143L157.347 60.9313H159.121L156.247 63.5166L159.437 67.503H157.636L155.161 64.3063L154.172 65.1596V67.503H152.673V58.0784ZM163.708 67.6558C163.21 67.6631 162.715 67.5809 162.25 67.4138C161.837 67.2637 161.465 67.0286 161.164 66.7261C160.863 66.4163 160.633 66.0521 160.491 65.6563C160.329 65.1959 160.25 64.714 160.257 64.2299C160.257 63.7031 160.335 63.2283 160.491 62.8034C160.638 62.406 160.867 62.0385 161.164 61.7209C161.456 61.4164 161.818 61.1769 162.223 61.0204C162.635 60.8594 163.093 60.7784 163.598 60.7784C164.093 60.7784 164.541 60.8594 164.945 61.0204C165.348 61.1732 165.691 61.3934 165.976 61.6827C166.26 61.9711 166.475 62.3149 166.622 62.7143C166.777 63.1136 166.856 63.5549 166.856 64.0388V64.561H161.769V64.7775C161.769 65.296 161.943 65.72 162.292 66.0511C162.639 66.374 163.12 66.5351 163.735 66.5351C164.193 66.5351 164.583 66.4459 164.904 66.2676C165.234 66.0811 165.499 65.8346 165.701 65.5289L166.636 66.2931C166.397 66.6751 166.031 66.9981 165.536 67.261C165.05 67.5248 164.44 67.6558 163.708 67.6558ZM163.598 61.8355C163.344 61.8335 163.092 61.8768 162.855 61.9629C162.635 62.0475 162.443 62.1712 162.278 62.3322C162.118 62.4912 161.992 62.6771 161.907 62.8799C161.814 63.0918 161.769 63.3256 161.769 63.5803V63.6695H165.33V63.5421C165.33 63.0236 165.169 62.6124 164.849 62.3067C164.537 61.9929 164.12 61.8355 163.598 61.8355ZM171.951 67.503C171.328 67.503 170.869 67.3501 170.576 67.0445C170.283 66.7306 170.136 66.3267 170.136 65.8346V62.052H167.95V60.9313H169.504C169.77 60.9313 169.957 60.8849 170.067 60.7912C170.177 60.6893 170.232 60.511 170.232 60.2563V58.6133H171.634V60.9313H174.659V62.052H171.634V66.3822H174.659V67.503H171.951ZM176.455 60.9313H177.954V62.052H178.036C178.223 61.6792 178.512 61.3586 178.875 61.1223C179.222 60.8931 179.658 60.7784 180.181 60.7784C181.015 60.7784 181.679 61.0668 182.174 61.6445C182.669 62.2221 182.917 63.0791 182.917 64.2171C182.917 65.3543 182.669 66.2121 182.174 66.7898C181.679 67.3674 181.015 67.6558 180.181 67.6558C179.658 67.6558 179.222 67.5457 178.875 67.3247C178.513 67.0815 178.225 66.7572 178.036 66.3822H177.954V70.0502H176.455V60.9313ZM179.562 66.5223C180.13 66.5223 180.566 66.3613 180.868 66.0384C181.18 65.7154 181.336 65.2869 181.336 64.752V63.6822C181.336 63.1473 181.18 62.7179 180.868 62.3959C180.566 62.0729 180.13 61.9119 179.562 61.9119C179.342 61.9119 179.136 61.9374 178.944 61.9883C178.751 62.0393 178.581 62.1157 178.435 62.2176C178.288 62.3195 178.169 62.4468 178.077 62.5997C177.995 62.7443 177.954 62.9181 177.954 63.1218V65.3124C177.954 65.5162 177.995 65.6945 178.077 65.8473C178.169 65.992 178.288 66.1148 178.435 66.2167C178.581 66.3185 178.751 66.395 178.944 66.4459C179.136 66.4968 179.342 66.5223 179.562 66.5223ZM184.368 66.3822H186.719V59.1992H184.368V58.0784H188.218V66.3822H190.568V67.503H184.368V66.3822ZM198.07 67.503C197.639 67.503 197.314 67.4011 197.094 67.1973C196.883 66.9935 196.755 66.7261 196.709 66.395H196.64C196.503 66.7943 196.25 67.1045 195.884 67.3247C195.527 67.5457 195.068 67.6558 194.509 67.6558C193.786 67.6558 193.208 67.4821 192.777 67.1336C192.346 66.777 192.131 66.2885 192.131 65.669C192.131 65.0322 192.383 64.5483 192.887 64.2171C193.401 63.8778 194.184 63.7077 195.238 63.7077H196.599V63.1983C196.599 62.3067 196.09 61.861 195.073 61.861C194.614 61.861 194.243 61.9456 193.959 62.1157C193.672 62.2802 193.428 62.5021 193.244 62.7652L192.351 62.0902C192.552 61.7336 192.892 61.428 193.368 61.1732C193.844 60.9094 194.459 60.7784 195.21 60.7784C196.109 60.7784 196.814 60.9786 197.328 61.377C197.841 61.7764 198.097 62.3531 198.097 63.1091V66.4077H198.991V67.503H198.07ZM194.935 66.6369C195.422 66.6369 195.82 66.5351 196.132 66.3313C196.443 66.1275 196.599 65.8646 196.599 65.5417V64.5865H195.265C194.184 64.5865 193.643 64.8876 193.643 65.4907V65.7454C193.643 66.0429 193.758 66.2676 193.987 66.4204C194.216 66.5651 194.532 66.6369 194.935 66.6369ZM203.66 67.6558C203.17 67.663 202.685 67.5808 202.23 67.4138C201.827 67.2587 201.466 67.024 201.171 66.7261C200.875 66.4096 200.651 66.0415 200.511 65.6435C200.359 65.1815 200.285 64.7003 200.291 64.2171C200.291 63.6904 200.365 63.2155 200.511 62.7907C200.651 62.3927 200.875 62.0246 201.171 61.7082C201.466 61.4102 201.827 61.1755 202.23 61.0204C202.652 60.8594 203.123 60.7784 203.646 60.7784C204.379 60.7784 204.966 60.9231 205.406 61.2115C205.847 61.4908 206.194 61.8791 206.409 62.3322L205.241 62.9181C205.125 62.6274 204.919 62.3749 204.649 62.1921C204.393 62.0138 204.058 61.9247 203.646 61.9247C203.078 61.9247 202.638 62.0857 202.326 62.4086C202.015 62.7225 201.859 63.1428 201.859 63.6695V64.7648C201.859 65.2833 202.015 65.7027 202.326 66.0256C202.638 66.3486 203.087 66.5096 203.673 66.5096C204.113 66.5096 204.471 66.4159 204.746 66.2294C205.03 66.0429 205.254 65.7882 205.419 65.4652L206.519 66.0893C206.289 66.5486 205.928 66.9407 205.474 67.2228C205.007 67.5112 204.402 67.6558 203.66 67.6558ZM211.519 67.6558C211.02 67.663 210.526 67.5809 210.061 67.4138C209.648 67.2635 209.276 67.0284 208.975 66.7261C208.674 66.4161 208.444 66.0519 208.301 65.6563C208.139 65.1959 208.061 64.714 208.068 64.2299C208.068 63.7031 208.145 63.2283 208.301 62.8034C208.466 62.3786 208.691 62.0184 208.975 61.7209C209.267 61.4165 209.628 61.1771 210.034 61.0204C210.446 60.8594 210.905 60.7784 211.409 60.7784C211.903 60.7784 212.352 60.8594 212.756 61.0204C213.159 61.1732 213.503 61.3934 213.787 61.6827C214.071 61.9711 214.287 62.3149 214.433 62.7143C214.589 63.1136 214.667 63.5549 214.667 64.0388V64.561H209.58V64.7775C209.58 65.296 209.754 65.72 210.102 66.0511C210.451 66.374 210.932 66.5351 211.546 66.5351C212.005 66.5351 212.393 66.4459 212.715 66.2676C213.041 66.0845 213.314 65.8311 213.512 65.5289L214.447 66.2931C214.208 66.6751 213.842 66.9981 213.347 67.261C212.861 67.5248 212.252 67.6558 211.519 67.6558ZM211.409 61.8355C211.155 61.8335 210.903 61.8768 210.666 61.9629C210.446 62.0475 210.254 62.1712 210.089 62.3322C209.928 62.4912 209.802 62.6771 209.718 62.8799C209.624 63.1031 209.577 63.3408 209.58 63.5803V63.6695H213.141V63.5421C213.141 63.0236 212.981 62.6124 212.66 62.3067C212.348 61.9929 211.931 61.8355 211.409 61.8355Z" fill="#A1A1A8"/>
<path d="M329.536 107.254H241.661C234.578 107.254 228.836 112.573 228.836 119.135V200.541C228.836 207.102 234.578 212.421 241.661 212.421H329.536C336.619 212.421 342.361 207.102 342.361 200.541V119.135C342.361 112.573 336.619 107.254 329.536 107.254Z" stroke="#3E3E41" stroke-width="0.70936" stroke-dasharray="3.28 3.28"/>
<path d="M256.268 155.29H254.742V146.4H258.331C259.247 146.4 259.944 146.638 260.42 147.113C260.906 147.589 261.149 148.242 261.149 149.075C261.149 149.754 260.97 150.315 260.613 150.756C260.255 151.197 259.742 151.469 259.073 151.571L261.286 155.29H259.582L257.547 151.698H256.268V155.29ZM258.111 150.552C259.064 150.552 259.54 150.149 259.54 149.342V148.794C259.54 147.988 259.064 147.585 258.111 147.585H256.268V150.552H258.111ZM265.831 155.443C265.333 155.45 264.838 155.367 264.374 155.201C263.96 155.05 263.589 154.815 263.288 154.513C262.987 154.203 262.758 153.838 262.614 153.443C262.453 152.983 262.374 152.501 262.38 152.017C262.38 151.49 262.459 151.015 262.614 150.59C262.779 150.165 263.004 149.805 263.288 149.508C263.579 149.203 263.941 148.964 264.346 148.807C264.759 148.646 265.217 148.565 265.721 148.565C266.216 148.565 266.666 148.646 267.068 148.807C267.462 148.953 267.814 149.18 268.1 149.469C268.384 149.758 268.599 150.102 268.746 150.501C268.902 150.9 268.979 151.342 268.979 151.826V152.348H263.893V152.564C263.893 153.082 264.067 153.507 264.415 153.838C264.764 154.161 265.245 154.322 265.859 154.322C266.317 154.322 266.707 154.233 267.027 154.054C267.357 153.868 267.623 153.621 267.825 153.316L268.76 154.08C268.522 154.462 268.155 154.785 267.66 155.048C267.175 155.311 266.565 155.443 265.831 155.443ZM265.721 149.622C265.456 149.622 265.209 149.665 264.979 149.75C264.759 149.834 264.566 149.958 264.401 150.119C264.242 150.278 264.116 150.464 264.03 150.667C263.936 150.89 263.89 151.128 263.893 151.367V151.456H267.453V151.329C267.453 150.811 267.293 150.399 266.972 150.094C266.661 149.78 266.244 149.622 265.721 149.622ZM273.663 155.443C272.893 155.443 272.228 155.328 271.669 155.099C271.119 154.869 270.674 154.564 270.336 154.182L271.257 153.418C271.551 153.72 271.906 153.966 272.302 154.144C272.695 154.305 273.159 154.386 273.69 154.386C274.176 154.386 274.565 154.309 274.859 154.156C275.001 154.091 275.119 153.989 275.2 153.862C275.28 153.735 275.319 153.59 275.312 153.443C275.316 153.324 275.288 153.206 275.23 153.099C275.175 153.005 275.094 152.926 274.996 152.87C274.885 152.807 274.765 152.759 274.639 152.73C274.504 152.695 274.366 152.669 274.226 152.653L273.099 152.488C272.815 152.452 272.535 152.397 272.26 152.322C271.989 152.251 271.729 152.144 271.49 152.004C271.269 151.858 271.082 151.672 270.941 151.456C270.803 151.235 270.734 150.955 270.734 150.616C270.734 149.945 271.009 149.436 271.559 149.087C272.118 148.739 272.852 148.565 273.759 148.565C274.419 148.565 274.987 148.659 275.464 148.845C275.923 149.007 276.337 149.264 276.673 149.597L275.835 150.412C275.651 150.216 275.39 150.038 275.051 149.877C274.712 149.707 274.263 149.622 273.704 149.622C272.705 149.622 272.205 149.915 272.205 150.501C272.205 150.781 272.31 150.977 272.522 151.087C272.742 151.189 272.998 151.257 273.291 151.291L274.419 151.456C274.703 151.499 274.982 151.554 275.257 151.622C275.541 151.69 275.794 151.796 276.014 151.94C276.242 152.076 276.426 152.254 276.563 152.475C276.71 152.696 276.783 152.976 276.783 153.316C276.783 153.978 276.504 154.5 275.945 154.882C275.395 155.256 274.634 155.443 273.663 155.443ZM281.768 155.443C281.27 155.45 280.775 155.367 280.311 155.201C279.897 155.05 279.526 154.815 279.225 154.513C278.924 154.203 278.695 153.838 278.551 153.443C278.39 152.983 278.311 152.501 278.317 152.017C278.317 151.49 278.396 151.015 278.551 150.59C278.716 150.165 278.941 149.805 279.225 149.508C279.516 149.203 279.878 148.964 280.283 148.807C280.696 148.646 281.154 148.565 281.658 148.565C282.153 148.565 282.603 148.646 283.005 148.807C283.398 148.953 283.751 149.18 284.037 149.469C284.321 149.758 284.536 150.102 284.683 150.501C284.839 150.9 284.916 151.342 284.916 151.826V152.348H279.83V152.564C279.83 153.082 280.004 153.507 280.352 153.838C280.701 154.161 281.182 154.322 281.796 154.322C282.254 154.322 282.644 154.233 282.964 154.054C283.294 153.868 283.56 153.621 283.762 153.316L284.696 154.08C284.459 154.462 284.092 154.785 283.597 155.048C283.111 155.311 282.502 155.443 281.768 155.443ZM281.658 149.622C281.393 149.622 281.146 149.665 280.916 149.75C280.696 149.834 280.503 149.958 280.338 150.119C280.179 150.278 280.053 150.464 279.967 150.667C279.873 150.89 279.827 151.128 279.83 151.367V151.456H283.39V151.329C283.39 150.811 283.23 150.399 282.909 150.094C282.598 149.78 282.181 149.622 281.658 149.622ZM292.225 155.29C291.794 155.29 291.469 155.188 291.249 154.984C291.038 154.78 290.911 154.513 290.864 154.182H290.796C290.658 154.581 290.406 154.89 290.04 155.111C289.682 155.333 289.223 155.443 288.665 155.443C287.941 155.443 287.364 155.269 286.932 154.92C286.501 154.564 286.286 154.075 286.286 153.456C286.286 152.819 286.539 152.335 287.042 152.004C287.556 151.665 288.34 151.494 289.393 151.494H290.754V150.985C290.754 150.094 290.246 149.648 289.228 149.648C288.77 149.648 288.399 149.732 288.115 149.902C287.827 150.067 287.583 150.289 287.4 150.552L286.506 149.877C286.708 149.52 287.047 149.215 287.524 148.96C288 148.697 288.615 148.565 289.366 148.565C290.264 148.565 290.969 148.764 291.483 149.164C291.997 149.563 292.253 150.14 292.253 150.896V154.194H293.147V155.29H292.225ZM289.091 154.424C289.577 154.424 289.976 154.322 290.287 154.118C290.598 153.914 290.754 153.651 290.754 153.328V152.373H289.421C288.34 152.373 287.799 152.674 287.799 153.278V153.532C287.799 153.83 287.913 154.054 288.142 154.207C288.371 154.352 288.687 154.424 289.091 154.424ZM294.475 154.169H296.359V149.839H294.475V148.718H297.857V150.463H297.94C298.004 150.233 298.096 150.011 298.215 149.801C298.334 149.589 298.485 149.406 298.668 149.253C298.851 149.092 299.076 148.965 299.342 148.871C299.607 148.769 299.919 148.718 300.277 148.718H301.129V150.043H299.727C299.177 150.043 298.727 150.195 298.38 150.501C298.031 150.799 297.857 151.202 297.857 151.711V154.169H300.428V155.29H294.475V154.169ZM305.784 155.443C305.295 155.45 304.809 155.368 304.354 155.201C303.951 155.046 303.59 154.811 303.296 154.513C303 154.196 302.776 153.828 302.636 153.43C302.483 152.968 302.409 152.487 302.416 152.004C302.416 151.477 302.489 151.002 302.636 150.578C302.776 150.179 303 149.811 303.296 149.495C303.59 149.197 303.951 148.962 304.354 148.807C304.804 148.641 305.286 148.559 305.77 148.565C306.504 148.565 307.09 148.71 307.53 148.998C307.979 149.287 308.314 149.661 308.534 150.119L307.365 150.705C307.249 150.414 307.044 150.162 306.774 149.979C306.518 149.801 306.183 149.711 305.77 149.711C305.202 149.711 304.762 149.872 304.45 150.195C304.139 150.509 303.983 150.93 303.983 151.456V152.552C303.983 153.069 304.139 153.489 304.45 153.812C304.762 154.135 305.211 154.296 305.798 154.296C306.238 154.296 306.595 154.203 306.87 154.016C307.154 153.83 307.379 153.575 307.544 153.252L308.644 153.876C308.414 154.335 308.052 154.727 307.599 155.01C307.131 155.298 306.526 155.443 305.784 155.443ZM310.522 145.865H312.021V149.839H312.089C312.162 149.669 312.254 149.508 312.364 149.355C312.483 149.194 312.626 149.057 312.791 148.947C312.956 148.828 313.148 148.735 313.368 148.667C313.588 148.599 313.844 148.565 314.138 148.565C314.853 148.565 315.43 148.782 315.87 149.215C316.31 149.648 316.53 150.264 316.53 151.061V155.29H315.031V151.265C315.031 150.221 314.541 149.699 313.56 149.699C313.368 149.699 313.179 149.724 312.997 149.775C312.82 149.815 312.652 149.884 312.502 149.979C312.355 150.072 312.233 150.193 312.144 150.336C312.06 150.489 312.017 150.66 312.021 150.832V155.29H310.522V145.865ZM248.299 174.394H246.773V165.504H250.362C251.279 165.504 251.975 165.741 252.451 166.217C252.937 166.693 253.18 167.346 253.18 168.178C253.18 168.858 253.001 169.418 252.644 169.86C252.286 170.301 251.774 170.573 251.104 170.675L253.318 174.394H251.613L249.578 170.802H248.299V174.394ZM250.142 169.656C251.095 169.656 251.572 169.253 251.572 168.446V167.898C251.572 167.091 251.095 166.688 250.142 166.688H248.299V169.656H250.142ZM257.863 174.546C257.365 174.554 256.87 174.471 256.406 174.304C255.992 174.154 255.621 173.919 255.32 173.617C255.019 173.307 254.789 172.942 254.646 172.547C254.484 172.087 254.405 171.605 254.412 171.12C254.412 170.594 254.49 170.119 254.646 169.694C254.811 169.269 255.036 168.909 255.32 168.612C255.611 168.307 255.973 168.068 256.378 167.911C256.791 167.75 257.249 167.669 257.753 167.669C258.248 167.669 258.697 167.75 259.101 167.911C259.494 168.057 259.846 168.284 260.132 168.573C260.415 168.862 260.631 169.206 260.778 169.605C260.934 170.004 261.011 170.445 261.011 170.929V171.452H255.925V171.668C255.925 172.186 256.099 172.611 256.447 172.942C256.796 173.265 257.277 173.426 257.891 173.426C258.349 173.426 258.738 173.337 259.059 173.158C259.389 172.972 259.655 172.725 259.857 172.42L260.792 173.184C260.553 173.566 260.187 173.889 259.692 174.152C259.206 174.415 258.597 174.546 257.863 174.546ZM257.753 168.726C257.499 168.724 257.247 168.767 257.011 168.853C256.791 168.938 256.598 169.062 256.433 169.223C256.273 169.382 256.147 169.568 256.062 169.77C255.968 169.994 255.922 170.231 255.925 170.471V170.56H259.485V170.433C259.485 169.915 259.325 169.503 259.004 169.197C258.693 168.884 258.276 168.726 257.753 168.726ZM262.642 167.822H264.14V168.943H264.223C264.434 168.543 264.714 168.234 265.061 168.013C265.41 167.784 265.845 167.669 266.367 167.669C267.202 167.669 267.866 167.957 268.361 168.535C268.856 169.113 269.103 169.97 269.103 171.108C269.103 172.246 268.856 173.103 268.361 173.68C267.866 174.258 267.202 174.546 266.367 174.546C265.845 174.546 265.41 174.436 265.061 174.215C264.7 173.972 264.412 173.647 264.223 173.273H264.14V176.941H262.642V167.822ZM265.749 173.413C266.317 173.413 266.752 173.252 267.055 172.929C267.367 172.606 267.522 172.178 267.522 171.643V170.573C267.522 170.038 267.367 169.609 267.055 169.287C266.752 168.964 266.317 168.803 265.749 168.803C265.529 168.803 265.322 168.828 265.13 168.879C264.938 168.93 264.769 169.006 264.621 169.108C264.474 169.211 264.353 169.341 264.264 169.49C264.181 169.635 264.14 169.809 264.14 170.012V172.203C264.14 172.407 264.181 172.585 264.264 172.738C264.356 172.883 264.475 173.005 264.621 173.107C264.769 173.209 264.938 173.286 265.13 173.337C265.322 173.387 265.529 173.413 265.749 173.413ZM273.649 174.546C273.164 174.553 272.683 174.471 272.233 174.304C271.83 174.15 271.469 173.915 271.174 173.617C270.879 173.3 270.654 172.932 270.514 172.534C270.352 172.074 270.273 171.592 270.281 171.108C270.281 170.581 270.358 170.106 270.514 169.681C270.654 169.283 270.879 168.915 271.174 168.599C271.469 168.301 271.83 168.066 272.233 167.911C272.683 167.745 273.164 167.663 273.649 167.669C274.171 167.669 274.639 167.75 275.051 167.911C275.472 168.072 275.826 168.301 276.11 168.599C276.403 168.896 276.627 169.256 276.783 169.681C276.94 170.106 277.017 170.581 277.017 171.108C277.017 171.634 276.94 172.109 276.783 172.534C276.643 172.935 276.413 173.303 276.11 173.617C275.819 173.919 275.457 174.154 275.051 174.304C274.639 174.465 274.171 174.546 273.649 174.546ZM273.649 173.451C274.199 173.451 274.634 173.298 274.955 172.993C275.285 172.679 275.45 172.216 275.45 171.604V170.611C275.45 170 275.285 169.541 274.955 169.236C274.634 168.922 274.199 168.764 273.649 168.764C273.099 168.764 272.659 168.922 272.329 169.236C272.008 169.541 271.848 170 271.848 170.611V171.604C271.848 172.216 272.008 172.679 272.329 172.993C272.659 173.298 273.099 173.451 273.649 173.451ZM281.631 174.546C280.861 174.546 280.197 174.432 279.637 174.203C279.087 173.973 278.643 173.668 278.304 173.286L279.225 172.521C279.537 172.835 279.885 173.077 280.27 173.247C280.664 173.408 281.127 173.489 281.658 173.489C282.144 173.489 282.534 173.413 282.827 173.26C282.969 173.195 283.087 173.092 283.168 172.966C283.248 172.839 283.287 172.694 283.28 172.547C283.284 172.428 283.256 172.309 283.198 172.203C283.143 172.109 283.062 172.03 282.964 171.974C282.854 171.91 282.733 171.863 282.607 171.834C282.472 171.799 282.334 171.773 282.194 171.757L281.067 171.592C280.783 171.556 280.503 171.501 280.228 171.426C279.957 171.355 279.697 171.247 279.458 171.108C279.237 170.962 279.05 170.775 278.909 170.56C278.771 170.339 278.702 170.059 278.702 169.72C278.702 169.049 278.977 168.54 279.527 168.191C280.087 167.843 280.819 167.669 281.727 167.669C282.387 167.669 282.955 167.763 283.432 167.949C283.918 168.128 284.321 168.378 284.641 168.701L283.803 169.516C283.62 169.32 283.359 169.142 283.019 168.981C282.68 168.811 282.232 168.726 281.672 168.726C280.673 168.726 280.173 169.019 280.173 169.605C280.173 169.885 280.279 170.081 280.49 170.191C280.71 170.293 280.967 170.361 281.259 170.395L282.387 170.56C282.672 170.603 282.95 170.657 283.225 170.726C283.51 170.794 283.762 170.899 283.982 171.044C284.211 171.18 284.394 171.358 284.531 171.579C284.679 171.8 284.751 172.08 284.751 172.42C284.751 173.082 284.473 173.604 283.913 173.986C283.363 174.36 282.603 174.546 281.631 174.546ZM290.026 166.625C289.641 166.625 289.371 166.553 289.215 166.408C289.068 166.264 288.989 166.071 288.995 165.873V165.606C288.995 165.394 289.068 165.216 289.215 165.071C289.371 164.926 289.636 164.854 290.012 164.854C290.397 164.854 290.663 164.926 290.809 165.071C290.886 165.141 290.946 165.224 290.986 165.316C291.026 165.408 291.046 165.507 291.043 165.606V165.873C291.046 165.973 291.026 166.071 290.986 166.163C290.946 166.255 290.886 166.339 290.809 166.408C290.663 166.553 290.402 166.625 290.026 166.625ZM286.85 173.273H289.27V168.943H286.85V167.822H290.768V173.273H293.037V174.394H286.85V173.273ZM297.981 174.394C297.357 174.394 296.899 174.241 296.606 173.935C296.313 173.621 296.166 173.217 296.166 172.725V168.943H293.98V167.822H295.534C295.799 167.822 295.988 167.775 296.097 167.682C296.207 167.58 296.262 167.402 296.262 167.147V165.504H297.665V167.822H300.689V168.943H297.665V173.273H300.689V174.394H297.981ZM305.523 174.546C305.038 174.553 304.557 174.471 304.107 174.304C303.704 174.15 303.343 173.915 303.048 173.617C302.752 173.3 302.528 172.932 302.388 172.534C302.226 172.074 302.147 171.592 302.154 171.108C302.154 170.581 302.232 170.106 302.388 169.681C302.528 169.283 302.752 168.915 303.048 168.599C303.343 168.301 303.704 168.066 304.107 167.911C304.557 167.745 305.038 167.663 305.523 167.669C306.045 167.669 306.513 167.75 306.925 167.911C307.346 168.072 307.7 168.301 307.984 168.599C308.277 168.896 308.501 169.256 308.657 169.681C308.813 170.106 308.891 170.581 308.891 171.108C308.891 171.634 308.813 172.109 308.657 172.534C308.517 172.935 308.287 173.303 307.984 173.617C307.693 173.919 307.33 174.154 306.925 174.304C306.513 174.465 306.045 174.546 305.523 174.546ZM305.523 173.451C306.073 173.451 306.508 173.298 306.829 172.993C307.159 172.679 307.324 172.216 307.324 171.604V170.611C307.324 170 307.159 169.541 306.829 169.236C306.508 168.922 306.073 168.764 305.523 168.764C304.973 168.764 304.533 168.922 304.203 169.236C303.882 169.541 303.722 170 303.722 170.611V171.604C303.722 172.216 303.882 172.679 304.203 172.993C304.533 173.298 304.973 173.451 305.523 173.451ZM310.412 173.273H312.296V168.943H310.412V167.822H313.794V169.567H313.877C313.941 169.337 314.033 169.115 314.152 168.904C314.27 168.692 314.422 168.51 314.605 168.357C314.788 168.196 315.013 168.068 315.279 167.975C315.544 167.873 315.856 167.822 316.214 167.822H317.066V169.146H315.664C315.114 169.146 314.664 169.299 314.317 169.605C313.968 169.902 313.794 170.305 313.794 170.815V173.273H316.365V174.394H310.412V173.273ZM323.536 167.822H325.048L321.611 175.667C321.427 176.092 321.185 176.41 320.882 176.622C320.589 176.834 320.162 176.941 319.604 176.941H318.408V175.82H320.085L320.731 174.304L317.871 167.822H319.439L320.566 170.573L321.446 172.827H321.528L322.408 170.573L323.536 167.822Z" fill="#A1A1A8"/>
<path d="M215.458 425.195H127.583C120.5 425.195 114.758 430.515 114.758 437.076V518.482C114.758 525.044 120.5 530.363 127.583 530.363H215.458C222.541 530.363 228.283 525.044 228.283 518.482V437.076C228.283 430.515 222.541 425.195 215.458 425.195Z" stroke="#3E3E41" stroke-width="0.70936" stroke-dasharray="3.28 3.28"/>
<path d="M141.881 482.783L141.153 480.414H138.101L137.372 482.783H135.805L138.609 473.894H140.713L143.517 482.783H141.881ZM139.682 475.333H139.572L138.389 479.23H140.864L139.682 475.333ZM144.599 482.783V481.701H146.853V474.976H144.599V473.894H150.648V474.976H148.393V481.701H150.648V482.783H144.599ZM160.618 482.783V473.894H166.626V475.091H162.158V477.676H166.461V478.873H162.158V481.586H166.626V482.783H160.618ZM171.954 482.783C171.332 482.783 170.873 482.63 170.579 482.325C170.287 482.011 170.139 481.607 170.139 481.115V477.332H167.954V476.212H169.507C169.773 476.212 169.961 476.165 170.071 476.072C170.181 475.97 170.236 475.791 170.236 475.537V473.894H171.638V476.212H174.663V477.332H171.638V481.663H174.663V482.783H171.954ZM176.527 473.359H178.026V477.332H178.095C178.167 477.162 178.26 477.001 178.37 476.848C178.488 476.687 178.631 476.551 178.796 476.441C178.961 476.322 179.153 476.229 179.373 476.161C179.593 476.092 179.849 476.059 180.143 476.059C180.858 476.059 181.435 476.275 181.875 476.708C182.315 477.141 182.535 477.757 182.535 478.555V482.783H181.037V478.759C181.037 477.714 180.546 477.192 179.566 477.192C179.373 477.192 179.185 477.218 179.002 477.269C178.825 477.308 178.657 477.377 178.507 477.472C178.361 477.565 178.239 477.687 178.15 477.829C178.065 477.983 178.022 478.153 178.026 478.326V482.783H176.527V473.359ZM187.905 475.014C187.52 475.014 187.25 474.943 187.094 474.798C186.947 474.653 186.868 474.461 186.874 474.263V473.996C186.874 473.784 186.947 473.605 187.094 473.461C187.25 473.316 187.516 473.244 187.891 473.244C188.276 473.244 188.542 473.316 188.689 473.461C188.765 473.53 188.825 473.614 188.865 473.706C188.905 473.798 188.925 473.896 188.922 473.996V474.263C188.925 474.362 188.905 474.461 188.865 474.553C188.825 474.645 188.765 474.728 188.689 474.798C188.542 474.943 188.281 475.014 187.905 475.014ZM184.729 481.663H187.149V477.332H184.729V476.212H188.647V481.663H190.916V482.783H184.729V481.663ZM195.695 482.936C195.206 482.943 194.72 482.861 194.265 482.694C193.862 482.54 193.501 482.305 193.207 482.006C192.91 481.69 192.686 481.322 192.547 480.924C192.394 480.462 192.32 479.981 192.327 479.497C192.327 478.971 192.399 478.496 192.547 478.071C192.702 477.646 192.922 477.286 193.207 476.988C193.501 476.69 193.862 476.455 194.265 476.301C194.716 476.135 195.197 476.052 195.681 476.059C196.414 476.059 197.001 476.203 197.441 476.492C197.89 476.78 198.225 477.154 198.445 477.613L197.276 478.198C197.16 477.908 196.954 477.656 196.685 477.472C196.428 477.294 196.094 477.205 195.681 477.205C195.113 477.205 194.673 477.366 194.362 477.689C194.049 478.003 193.894 478.423 193.894 478.95V480.045C193.894 480.563 194.049 480.983 194.362 481.306C194.673 481.629 195.122 481.79 195.709 481.79C196.149 481.79 196.506 481.696 196.781 481.51C197.065 481.323 197.29 481.069 197.455 480.746L198.555 481.37C198.325 481.829 197.963 482.221 197.51 482.503C197.042 482.792 196.438 482.936 195.695 482.936ZM203.416 482.936C202.646 482.936 201.982 482.822 201.422 482.592C200.872 482.363 200.428 482.057 200.089 481.675L201.01 480.911C201.322 481.225 201.67 481.467 202.055 481.637C202.449 481.798 202.912 481.879 203.443 481.879C203.929 481.879 204.319 481.803 204.612 481.65C204.754 481.584 204.872 481.482 204.953 481.356C205.033 481.229 205.072 481.083 205.065 480.937C205.069 480.817 205.041 480.699 204.983 480.593C204.928 480.499 204.847 480.42 204.749 480.363C204.639 480.3 204.518 480.253 204.392 480.223C204.257 480.188 204.119 480.163 203.979 480.147L202.852 479.981C202.568 479.946 202.288 479.89 202.013 479.816C201.742 479.744 201.482 479.637 201.243 479.497C201.022 479.351 200.835 479.165 200.693 478.95C200.556 478.729 200.487 478.449 200.487 478.109C200.487 477.439 200.762 476.929 201.312 476.581C201.872 476.233 202.604 476.059 203.512 476.059C204.172 476.059 204.74 476.152 205.217 476.339C205.703 476.517 206.106 476.767 206.426 477.09L205.588 477.905C205.405 477.71 205.144 477.532 204.804 477.371C204.465 477.2 204.017 477.116 203.457 477.116C202.458 477.116 201.958 477.409 201.958 477.995C201.958 478.275 202.064 478.47 202.275 478.58C202.494 478.682 202.752 478.751 203.044 478.784L204.172 478.95C204.457 478.993 204.735 479.047 205.01 479.115C205.295 479.184 205.547 479.289 205.767 479.434C205.996 479.569 206.179 479.748 206.316 479.969C206.464 480.19 206.536 480.47 206.536 480.809C206.536 481.472 206.258 481.994 205.698 482.376C205.148 482.75 204.388 482.936 203.416 482.936Z" fill="#A1A1A8"/>
<path d="M329.536 318.914H241.661C234.578 318.914 228.836 324.233 228.836 330.795V412.201C228.836 418.762 234.578 424.081 241.661 424.081H329.536C336.619 424.081 342.361 418.762 342.361 412.201V330.795C342.361 324.233 336.619 318.914 329.536 318.914Z" stroke="#3E3E41" stroke-width="0.70936" stroke-dasharray="3.28 3.28"/>
<path d="M254 376.653C252.781 376.653 251.873 376.254 251.278 375.456C250.691 374.658 250.398 373.524 250.398 372.055C250.398 370.586 250.691 369.453 251.278 368.655C251.873 367.857 252.781 367.458 254 367.458C254.468 367.458 254.87 367.517 255.21 367.636C255.558 367.746 255.856 367.903 256.104 368.107C256.351 368.303 256.558 368.536 256.723 368.808C256.896 369.071 257.039 369.355 257.149 369.661L255.76 370.094C255.69 369.899 255.607 369.707 255.513 369.521C255.427 369.351 255.311 369.196 255.169 369.062C255.027 368.932 254.859 368.828 254.674 368.757C254.456 368.674 254.222 368.635 253.987 368.642C253.308 368.642 252.813 368.884 252.502 369.368C252.19 369.844 252.034 370.489 252.034 371.304V372.807C252.034 373.622 252.19 374.271 252.502 374.755C252.813 375.231 253.308 375.469 253.987 375.469C254.262 375.469 254.49 375.43 254.674 375.354C254.867 375.277 255.032 375.176 255.169 375.048C255.306 374.921 255.42 374.768 255.513 374.59C255.604 374.411 255.687 374.22 255.76 374.017L257.149 374.45C257.04 374.752 256.897 375.042 256.723 375.316C256.558 375.578 256.349 375.815 256.104 376.016C255.838 376.221 255.536 376.38 255.21 376.487C254.87 376.597 254.468 376.653 254 376.653ZM261.693 376.653C261.209 376.659 260.728 376.577 260.277 376.411C259.875 376.256 259.513 376.021 259.219 375.723C258.923 375.407 258.699 375.039 258.559 374.641C258.397 374.18 258.318 373.698 258.325 373.214C258.325 372.688 258.403 372.213 258.559 371.788C258.699 371.39 258.923 371.022 259.219 370.705C259.513 370.407 259.875 370.172 260.277 370.018C260.728 369.851 261.209 369.769 261.693 369.776C262.216 369.776 262.683 369.857 263.096 370.018C263.517 370.179 263.871 370.408 264.154 370.705C264.448 371.003 264.672 371.363 264.828 371.788C264.984 372.213 265.062 372.688 265.062 373.214C265.062 373.741 264.984 374.216 264.828 374.641C264.687 375.041 264.458 375.41 264.154 375.723C263.864 376.025 263.501 376.26 263.096 376.411C262.683 376.572 262.216 376.653 261.693 376.653ZM261.693 375.558C262.243 375.558 262.678 375.405 263 375.099C263.329 374.785 263.494 374.322 263.494 373.711V372.718C263.494 372.106 263.329 371.648 263 371.342C262.678 371.028 262.243 370.871 261.693 370.871C261.144 370.871 260.704 371.028 260.374 371.342C260.053 371.648 259.892 372.106 259.892 372.718V373.711C259.892 374.322 260.053 374.785 260.374 375.099C260.704 375.405 261.144 375.558 261.693 375.558ZM266.143 376.5V369.928H267.421V370.782H267.49C267.6 370.502 267.755 370.264 267.958 370.069C268.168 369.873 268.466 369.776 268.851 369.776C269.226 369.776 269.515 369.873 269.717 370.069C269.928 370.255 270.061 370.514 270.116 370.845H270.171C270.299 370.548 270.477 370.298 270.707 370.094C270.936 369.882 271.266 369.776 271.697 369.776C272.247 369.776 272.627 369.954 272.838 370.31C273.058 370.667 273.168 371.189 273.168 371.877V376.5H271.89V372.055C271.89 371.597 271.83 371.283 271.711 371.113C271.591 370.935 271.399 370.845 271.133 370.845C271.021 370.843 270.909 370.862 270.805 370.902C270.701 370.941 270.607 371 270.529 371.075C270.372 371.219 270.295 371.439 270.295 371.737V376.5H269.016V372.055C269.016 371.597 268.956 371.283 268.838 371.113C268.728 370.935 268.539 370.845 268.274 370.845C268.159 370.842 268.045 370.861 267.939 370.901C267.833 370.94 267.736 370.999 267.655 371.075C267.499 371.219 267.421 371.439 267.421 371.737V376.5H266.143ZM274.111 376.5V369.928H275.389V370.782H275.458C275.568 370.502 275.724 370.264 275.926 370.069C276.137 369.873 276.434 369.776 276.819 369.776C277.195 369.776 277.484 369.873 277.685 370.069C277.897 370.255 278.029 370.514 278.084 370.845H278.139C278.268 370.548 278.446 370.298 278.675 370.094C278.905 369.882 279.235 369.776 279.665 369.776C280.215 369.776 280.596 369.954 280.806 370.31C281.026 370.667 281.136 371.189 281.136 371.877V376.5H279.858V372.055C279.858 371.597 279.799 371.283 279.679 371.113C279.56 370.935 279.368 370.845 279.101 370.845C278.989 370.843 278.877 370.863 278.773 370.902C278.669 370.941 278.575 371 278.497 371.075C278.341 371.219 278.263 371.439 278.263 371.737V376.5H276.984V372.055C276.984 371.597 276.925 371.283 276.805 371.113C276.695 370.935 276.508 370.845 276.242 370.845C276.127 370.842 276.013 370.861 275.907 370.901C275.8 370.94 275.704 370.999 275.623 371.075C275.468 371.219 275.389 371.439 275.389 371.737V376.5H274.111ZM287.07 375.379H287.002C286.925 375.554 286.828 375.721 286.713 375.876C286.6 376.032 286.461 376.169 286.3 376.284C286.124 376.399 285.929 376.489 285.723 376.551C285.474 376.623 285.214 376.658 284.953 376.653C284.238 376.653 283.661 376.436 283.221 376.003C282.781 375.57 282.561 374.955 282.561 374.157V369.928H284.06V373.953C284.06 374.997 284.55 375.519 285.531 375.519C285.723 375.519 285.911 375.499 286.094 375.456C286.27 375.408 286.437 375.335 286.589 375.239C286.736 375.146 286.85 375.031 286.933 374.895C287.024 374.751 287.07 374.582 287.07 374.386V369.928H288.569V376.5H287.07V375.379ZM290.598 376.5V369.928H292.096V371.049H292.165C292.239 370.879 292.33 370.718 292.44 370.565C292.56 370.404 292.701 370.268 292.866 370.158C293.031 370.038 293.224 369.946 293.444 369.877C293.664 369.809 293.921 369.776 294.213 369.776C294.928 369.776 295.506 369.992 295.946 370.425C296.386 370.858 296.606 371.474 296.606 372.272V376.5H295.107V372.476C295.107 371.431 294.617 370.909 293.636 370.909C293.444 370.909 293.256 370.935 293.072 370.985C292.896 371.026 292.728 371.095 292.577 371.189C292.431 371.283 292.312 371.401 292.22 371.546C292.135 371.699 292.093 371.87 292.096 372.043V376.5H290.598ZM301.976 368.731C301.591 368.731 301.32 368.659 301.165 368.515C301.018 368.37 300.939 368.178 300.945 367.98V367.712C300.945 367.5 301.018 367.322 301.165 367.177C301.32 367.033 301.586 366.961 301.962 366.961C302.347 366.961 302.613 367.033 302.76 367.177C302.836 367.247 302.896 367.331 302.936 367.423C302.976 367.515 302.996 367.613 302.994 367.712V367.98C302.994 368.192 302.915 368.37 302.76 368.515C302.613 368.659 302.351 368.731 301.976 368.731ZM298.8 375.379H301.22V371.049H298.8V369.928H302.719V375.379H304.987V376.5H298.8V375.379ZM309.93 376.5C309.308 376.5 308.849 376.347 308.556 376.042C308.263 375.728 308.116 375.324 308.116 374.832V371.049H305.93V369.928H307.483C307.749 369.928 307.937 369.882 308.047 369.788C308.157 369.686 308.212 369.508 308.212 369.253V367.61H309.614V369.928H312.639V371.049H309.614V375.379H312.639V376.5H309.93ZM319.549 369.928H321.061L317.624 377.774C317.441 378.199 317.198 378.517 316.896 378.729C316.602 378.941 316.176 379.047 315.617 379.047H314.421V377.927H316.098L316.745 376.411L313.885 369.928H315.452L316.58 372.679L317.459 374.934H317.542L318.422 372.679L319.549 369.928Z" fill="#A1A1A8"/>
<path d="M101.06 318.914H13.1843C6.10131 318.914 0.359375 324.233 0.359375 330.795V412.201C0.359375 418.762 6.10131 424.081 13.1843 424.081H101.06C108.143 424.081 113.885 418.762 113.885 412.201V330.795C113.885 324.233 108.143 318.914 101.06 318.914Z" stroke="#3E3E41" stroke-width="0.70936" stroke-dasharray="3.28 3.28"/>
<path d="M23.0468 365.726H22.9505C22.866 365.908 22.7648 366.083 22.6481 366.248C22.5336 366.414 22.3895 366.56 22.2219 366.681C22.0569 366.809 21.8556 366.911 21.617 366.987C21.3508 367.067 21.072 367.106 20.7921 367.102C19.7924 367.102 19.0412 366.707 18.5374 365.917C18.0326 365.127 17.7812 364.011 17.7812 362.568C17.7812 361.057 18.07 359.901 18.6474 359.103C19.2248 358.306 20.1096 357.906 21.3007 357.906C21.7682 357.906 22.1757 357.965 22.5243 358.085C22.8818 358.204 23.1842 358.365 23.4317 358.569C23.6792 358.764 23.8854 358.997 24.0504 359.269C24.2153 359.532 24.3479 359.812 24.4491 360.11L23.0605 360.543C22.9909 360.355 22.9082 360.172 22.813 359.995C22.7256 359.822 22.6097 359.663 22.4693 359.524C22.337 359.385 22.1724 359.276 21.9882 359.205C21.7748 359.124 21.5453 359.084 21.3145 359.091C20.6458 359.091 20.1597 359.333 19.8572 359.817C19.5636 360.292 19.4173 360.937 19.4173 361.752V363.166C19.4173 363.574 19.4497 363.948 19.5135 364.287C19.5773 364.626 19.6824 364.919 19.8297 365.166C19.9858 365.403 20.1832 365.591 20.4209 365.726C20.6683 365.862 20.9659 365.93 21.3145 365.93C21.8742 365.93 22.2994 365.777 22.5931 365.471C22.8955 365.157 23.0468 364.758 23.0468 364.274V363.472H21.1908V362.402H24.4491V366.949H23.0468V365.726ZM29.2275 367.102C28.7429 367.108 28.2617 367.026 27.8114 366.86C27.4085 366.705 27.0472 366.47 26.7528 366.172C26.4569 365.856 26.2325 365.487 26.0929 365.089C25.9311 364.629 25.8521 364.147 25.8592 363.663C25.8592 363.136 25.9378 362.661 26.0929 362.236C26.2328 361.838 26.4571 361.47 26.7528 361.154C27.0472 360.856 27.4085 360.621 27.8114 360.466C28.2337 360.305 28.7051 360.224 29.2275 360.224C29.7499 360.224 30.2173 360.305 30.6298 360.466C31.052 360.627 31.4046 360.856 31.6884 361.154C31.982 361.451 32.2069 361.812 32.362 362.236C32.5182 362.661 32.5958 363.136 32.5958 363.663C32.5958 364.19 32.5182 364.664 32.362 365.089C32.2213 365.49 31.9918 365.858 31.6884 366.172C31.3977 366.474 31.0354 366.709 30.6298 366.86C30.2173 367.021 29.7499 367.102 29.2275 367.102ZM29.2275 366.006C29.7774 366.006 30.2134 365.853 30.5335 365.548C30.8635 365.234 31.0285 364.771 31.0285 364.16V363.166C31.0285 362.555 30.8635 362.096 30.5335 361.791C30.2134 361.477 29.7774 361.319 29.2275 361.319C28.6776 361.319 28.2376 361.477 27.9077 361.791C27.5875 362.096 27.4265 362.555 27.4265 363.166V364.16C27.4265 364.771 27.5875 365.234 27.9077 365.548C28.2376 365.853 28.6776 366.006 29.2275 366.006ZM36.2753 366.949L33.7319 360.377H35.2855L36.2616 363.153L37.1827 365.79H37.2652L38.1863 363.153L39.1624 360.377H40.6609L38.1176 366.949H36.2753ZM45.3156 367.102C44.8176 367.109 44.3228 367.026 43.8583 366.86C43.4448 366.709 43.0734 366.474 42.7722 366.172C42.471 365.862 42.2417 365.498 42.0986 365.102C41.9368 364.642 41.8578 364.16 41.8649 363.676C41.8649 363.149 41.9434 362.674 42.0986 362.249C42.2636 361.824 42.4884 361.464 42.7722 361.167C43.0635 360.862 43.4255 360.623 43.8308 360.466C44.2433 360.305 44.7019 360.224 45.2057 360.224C45.7006 360.224 46.1503 360.305 46.553 360.466C46.946 360.612 47.2984 360.839 47.5841 361.128C47.8688 361.417 48.0849 361.761 48.2302 362.16C48.3873 362.559 48.4639 363.001 48.4639 363.485V364.007H43.3772V364.223C43.3772 364.741 43.552 365.166 43.8996 365.497C44.2482 365.82 44.7294 365.981 45.3431 365.981C45.8017 365.981 46.1916 365.892 46.5117 365.713C46.8379 365.53 47.1114 365.277 47.3091 364.975L48.244 365.739C48.0063 366.121 47.6391 366.444 47.1441 366.707C46.659 366.97 46.0492 367.102 45.3156 367.102ZM45.2057 361.281C44.9405 361.281 44.693 361.324 44.4633 361.409C44.2433 361.493 44.0508 361.617 43.8858 361.778C43.7259 361.937 43.5999 362.123 43.5146 362.326C43.4209 362.549 43.3742 362.787 43.3772 363.026V363.115H46.9379V362.988C46.9379 362.47 46.7778 362.058 46.4567 361.752C46.1454 361.439 45.7281 361.281 45.2057 361.281ZM50.0538 365.828H51.9373V361.498H50.0538V360.377H53.4358V362.122H53.5183C53.5821 361.893 53.6744 361.671 53.7933 361.46C53.9121 361.248 54.0633 361.065 54.247 360.912C54.4306 360.751 54.6545 360.624 54.9206 360.53C55.1857 360.428 55.498 360.377 55.8555 360.377H56.7079V361.702H55.3056C54.7556 361.702 54.3069 361.854 53.9582 362.16C53.6096 362.458 53.4358 362.86 53.4358 363.37V365.828H56.0067V366.949H50.0538V365.828ZM58.1327 366.949V360.377H59.6303V361.498H59.699C59.7727 361.328 59.865 361.167 59.974 361.014C60.0938 360.853 60.2352 360.716 60.4002 360.606C60.5661 360.487 60.7576 360.394 60.9776 360.326C61.1976 360.258 61.4549 360.224 61.7485 360.224C62.4624 360.224 63.0408 360.441 63.4807 360.874C63.9207 361.307 64.1397 361.923 64.1397 362.72V366.949H62.6421V362.924C62.6421 361.88 62.1511 361.358 61.1711 361.358C60.9798 361.357 60.7896 361.383 60.6064 361.434C60.4295 361.474 60.2619 361.543 60.1115 361.638C59.9653 361.731 59.8432 361.853 59.754 361.994C59.6692 362.148 59.6267 362.319 59.6303 362.491V366.949H58.1327ZM71.7099 366.949C71.2788 366.949 70.9538 366.847 70.7338 366.643C70.5227 366.439 70.395 366.172 70.3489 365.841H70.2801C70.1555 366.224 69.8874 366.554 69.524 366.77C69.1665 366.991 68.7089 367.102 68.1492 367.102C67.4254 367.102 66.848 366.928 66.4169 366.579C65.9858 366.223 65.7708 365.734 65.7708 365.115C65.7708 364.478 66.0231 363.994 66.5269 363.663C67.0405 363.324 67.8231 363.153 68.8778 363.153H70.2389V362.644C70.2389 361.752 69.7302 361.307 68.7128 361.307C68.2542 361.307 67.8831 361.391 67.5993 361.561C67.3145 361.722 67.0768 361.939 66.8843 362.211L65.9907 361.536C66.192 361.179 66.5308 360.874 67.0081 360.619C67.4844 360.356 68.0981 360.224 68.8503 360.224C69.7489 360.224 70.4539 360.423 70.9675 360.823C71.4811 361.222 71.7374 361.799 71.7374 362.555V365.853H72.631V366.949H71.7099ZM68.5754 366.083C69.0615 366.083 69.4592 365.981 69.7714 365.777C70.0827 365.573 70.2389 365.31 70.2389 364.987V364.032H68.9053C67.8241 364.032 67.283 364.333 67.283 364.936V365.191C67.283 365.489 67.3979 365.713 67.6267 365.866C67.8556 366.011 68.1718 366.083 68.5754 366.083ZM74.0697 366.949V360.377H75.5682V361.498H75.6369C75.7101 361.328 75.8023 361.166 75.9119 361.014C76.027 360.856 76.1712 360.718 76.3381 360.606C76.5031 360.487 76.6955 360.394 76.9155 360.326C77.1355 360.258 77.3918 360.224 77.6854 360.224C78.4003 360.224 78.9777 360.441 79.4177 360.874C79.8576 361.307 80.0776 361.923 80.0776 362.72V366.949H78.579V362.924C78.579 361.88 78.088 361.358 77.108 361.358C76.9155 361.358 76.727 361.383 76.5443 361.434C76.3674 361.474 76.1998 361.543 76.0494 361.638C75.903 361.731 75.7809 361.852 75.6919 361.994C75.6072 362.148 75.5646 362.319 75.5682 362.491V366.949H74.0697ZM85.2684 367.102C84.7793 367.109 84.2934 367.026 83.8386 366.86C83.4358 366.705 83.0744 366.47 82.78 366.172C82.4842 365.855 82.2598 365.487 82.1201 365.089C81.9676 364.627 81.8934 364.146 81.9002 363.663C81.9002 363.136 81.9738 362.661 82.1201 362.236C82.26 361.838 82.4843 361.47 82.78 361.154C83.0744 360.856 83.4358 360.621 83.8386 360.466C84.2609 360.305 84.7323 360.224 85.2547 360.224C85.9882 360.224 86.5745 360.369 87.0144 360.657C87.4632 360.946 87.7981 361.319 88.018 361.778L86.8495 362.364C86.7335 362.073 86.528 361.821 86.2583 361.638C86.002 361.46 85.6671 361.37 85.2547 361.37C84.6861 361.37 84.2462 361.531 83.9349 361.854C83.6236 362.168 83.4674 362.588 83.4674 363.115V364.211C83.4674 364.728 83.6236 365.148 83.9349 365.471C84.2462 365.794 84.6959 365.955 85.2822 365.955C85.7221 365.955 86.0796 365.862 86.3545 365.675C86.6471 365.479 86.8793 365.216 87.0282 364.911L88.128 365.535C87.8981 365.994 87.5367 366.386 87.0832 366.669C86.6157 366.957 86.0108 367.102 85.2684 367.102ZM93.1274 367.102C92.6293 367.109 92.1345 367.027 91.6701 366.86C91.2565 366.709 90.8852 366.474 90.584 366.172C90.2828 365.862 90.0535 365.498 89.9104 365.102C89.7486 364.642 89.6696 364.16 89.6766 363.676C89.6766 363.149 89.7542 362.674 89.9104 362.249C90.0581 361.852 90.2867 361.484 90.584 361.167C90.8753 360.862 91.2372 360.623 91.6426 360.466C92.0551 360.305 92.5127 360.224 93.0174 360.224C93.5123 360.224 93.9611 360.305 94.3647 360.466C94.7673 360.619 95.1111 360.84 95.3958 361.128C95.6796 361.417 95.8947 361.761 96.042 362.16C96.1971 362.559 96.2757 363.001 96.2757 363.485V364.007H91.1889V364.223C91.1889 364.741 91.3627 365.166 91.7114 365.497C92.059 365.82 92.5402 365.981 93.1549 365.981C93.6125 365.981 94.0024 365.892 94.3235 365.713C94.6496 365.53 94.9232 365.277 95.1209 364.975L96.0557 365.739C95.8171 366.121 95.4508 366.444 94.9559 366.707C94.4698 366.97 93.86 367.102 93.1274 367.102ZM93.0174 361.281C92.7634 361.279 92.5114 361.323 92.275 361.409C92.0551 361.493 91.8626 361.617 91.6976 361.778C91.5376 361.937 91.4117 362.123 91.3264 362.326C91.2341 362.538 91.1889 362.771 91.1889 363.026V363.115H94.7497V362.988C94.7497 362.47 94.5886 362.058 94.2685 361.752C93.9562 361.439 93.5398 361.281 93.0174 361.281ZM22.3014 386.053V377.163H28.4743V378.36H23.8412V380.945H28.0481V382.143H23.8412V386.053H22.3014ZM30.1329 384.932H32.0164V380.602H30.1329V379.481H33.5149V381.226H33.5974C33.6612 380.996 33.7535 380.774 33.8724 380.563C33.9868 380.357 34.1405 380.172 34.326 380.016C34.5087 379.855 34.7336 379.727 34.9997 379.634C35.2648 379.532 35.5771 379.481 35.9346 379.481H36.7869V380.805H35.3846C34.8347 380.805 34.385 380.958 34.0373 381.264C33.6887 381.561 33.5149 381.964 33.5149 382.474V384.932H36.0858V386.053H30.1329V384.932ZM43.82 386.053C43.3899 386.053 43.0639 385.951 42.8439 385.747C42.6328 385.543 42.5051 385.276 42.459 384.945H42.3902C42.2656 385.328 41.9975 385.658 41.6341 385.874C41.2767 386.095 40.819 386.205 40.2593 386.205C39.5356 386.205 38.9581 386.032 38.527 385.683C38.0969 385.327 37.8809 384.838 37.8809 384.219C37.8809 383.582 38.1333 383.098 38.637 382.767C39.1506 382.427 39.9333 382.257 40.9879 382.257H42.349V381.748C42.349 380.856 41.8403 380.411 40.823 380.411C40.3644 380.411 39.9932 380.495 39.7094 380.665C39.4216 380.829 39.1773 381.051 38.9945 381.315L38.1009 380.64C38.3032 380.283 38.641 379.978 39.1182 379.723C39.5945 379.46 40.2082 379.328 40.9605 379.328C41.859 379.328 42.5641 379.527 43.0777 379.927C43.5912 380.326 43.8475 380.903 43.8475 381.659V384.957H44.7412V386.053H43.82ZM40.6855 385.186C41.1716 385.186 41.5693 385.085 41.8816 384.881C42.1929 384.677 42.349 384.414 42.349 384.091V383.136H41.0154C39.9343 383.136 39.3932 383.437 39.3932 384.04V384.295C39.3932 384.592 39.5081 384.817 39.7369 384.97C39.9657 385.115 40.2829 385.186 40.6855 385.186ZM45.6299 386.053V379.481H46.9084V380.334H46.9772C47.0872 380.054 47.2423 379.817 47.4446 379.621C47.6548 379.425 47.9533 379.328 48.3382 379.328C48.7134 379.328 49.0021 379.425 49.2044 379.621C49.4145 379.807 49.5481 380.067 49.6031 380.398H49.6581C49.7763 380.115 49.9592 379.858 50.1942 379.646C50.423 379.434 50.753 379.328 51.1841 379.328C51.734 379.328 52.114 379.506 52.3252 379.863C52.5451 380.22 52.6551 380.742 52.6551 381.429V386.053H51.3766V381.608C51.3766 381.149 51.3167 380.835 51.1978 380.665C51.078 380.487 50.8856 380.398 50.6204 380.398C50.508 380.396 50.3964 380.415 50.2923 380.454C50.1883 380.494 50.0941 380.553 50.0155 380.627C49.8594 380.772 49.7818 380.992 49.7818 381.289V386.053H48.5032V381.608C48.5032 381.149 48.4433 380.835 48.3245 380.665C48.2145 380.487 48.026 380.398 47.7608 380.398C47.6463 380.395 47.5323 380.414 47.4259 380.453C47.3195 380.493 47.2229 380.552 47.1422 380.627C46.986 380.772 46.9084 380.992 46.9084 381.289V386.053H45.6299ZM57.2686 386.205C56.7705 386.212 56.2757 386.13 55.8113 385.963C55.3977 385.813 55.0263 385.578 54.7252 385.276C54.4239 384.966 54.1946 384.601 54.0515 384.206C53.8897 383.745 53.8108 383.264 53.8178 382.779C53.8178 382.253 53.8964 381.778 54.0515 381.353C54.2165 380.928 54.4414 380.568 54.7252 380.27C55.0165 379.966 55.3784 379.726 55.7838 379.57C56.1962 379.409 56.6548 379.328 57.1586 379.328C57.6535 379.328 58.1033 379.409 58.5059 379.57C58.9085 379.723 59.2522 379.944 59.537 380.232C59.8218 380.521 60.0368 380.864 60.1832 381.264C60.3393 381.663 60.4169 382.104 60.4169 382.588V383.111H55.3301V383.327C55.3301 383.845 55.5049 384.27 55.8525 384.601C56.2011 384.924 56.6823 385.085 57.2961 385.085C57.7547 385.085 58.1445 384.995 58.4647 384.817C58.7908 384.634 59.0644 384.381 59.262 384.078L60.1969 384.843C59.9593 385.225 59.592 385.548 59.0971 385.811C58.612 386.073 58.0021 386.205 57.2686 386.205ZM57.1586 380.385C56.8935 380.385 56.646 380.428 56.4162 380.512C56.1962 380.597 56.0038 380.721 55.8388 380.882C55.6788 381.041 55.5529 381.227 55.4676 381.429C55.3739 381.653 55.3272 381.89 55.3301 382.13V382.219H58.8908V382.092C58.8908 381.574 58.7308 381.162 58.4097 380.856C58.0984 380.542 57.681 380.385 57.1586 380.385ZM61.2368 379.481H62.5154L63.2028 385.008H63.3266L64.3852 379.481H65.8424L66.8873 385.008H67.011L67.7122 379.481H68.9358L67.9459 386.053H66.1037L65.155 380.958H65.0313L64.0689 386.053H62.2267L61.2368 379.481ZM73.0543 386.205C72.5697 386.212 72.0885 386.13 71.6382 385.963C71.2354 385.809 70.874 385.574 70.5796 385.276C70.2837 384.959 70.0593 384.591 69.9197 384.193C69.7579 383.733 69.6789 383.251 69.686 382.767C69.686 382.24 69.7646 381.765 69.9197 381.34C70.0596 380.942 70.2839 380.574 70.5796 380.258C70.874 379.96 71.2354 379.725 71.6382 379.57C72.0605 379.409 72.5319 379.328 73.0543 379.328C73.5767 379.328 74.0441 379.409 74.4566 379.57C74.8788 379.731 75.2314 379.96 75.5152 380.258C75.8088 380.555 76.0337 380.915 76.1888 381.34C76.345 381.765 76.4226 382.24 76.4226 382.767C76.4226 383.293 76.345 383.768 76.1888 384.193C76.0481 384.593 75.8187 384.962 75.5152 385.276C75.2245 385.578 74.8622 385.813 74.4566 385.963C74.0441 386.124 73.5767 386.205 73.0543 386.205ZM73.0543 385.11C73.6042 385.11 74.0402 384.957 74.3603 384.652C74.6903 384.338 74.8553 383.875 74.8553 383.263V382.27C74.8553 381.659 74.6903 381.2 74.3603 380.895C74.0402 380.581 73.6042 380.423 73.0543 380.423C72.5044 380.423 72.0644 380.581 71.7345 380.895C71.4143 381.2 71.2533 381.659 71.2533 382.27V383.263C71.2533 383.875 71.4143 384.338 71.7345 384.652C72.0644 384.957 72.5044 385.11 73.0543 385.11ZM77.9437 384.932H79.8272V380.602H77.9437V379.481H81.3257V381.226H81.4082C81.472 380.996 81.5643 380.775 81.6831 380.563C81.7976 380.357 81.9513 380.172 82.1368 380.016C82.3195 379.855 82.5444 379.727 82.8105 379.634C83.0756 379.532 83.3879 379.481 83.7453 379.481H84.5977V380.805H83.1954C82.6455 380.805 82.1967 380.958 81.8481 381.264C81.4995 381.561 81.3257 381.964 81.3257 382.474V384.932H83.8966V386.053H77.9437V384.932ZM86.0766 376.628H87.5752V382.321H87.6439L88.7575 381.264L90.751 379.481H92.5245L89.6511 382.066L92.8407 386.053H91.0397L88.565 382.856L87.5752 383.709V386.053H86.0776V376.628H86.0766Z" fill="#A1A1A8"/>
<path d="M188.453 267.436V265.719L193.247 258.305H188.567V256.393H196.564V258.079L191.804 265.483H196.507V267.436H188.453Z" fill="white"/>
<path d="M183.758 254.82V252.342H186.848V254.82H183.758ZM183.758 267.437V256.393H186.848V267.437H183.758Z" fill="white"/>
<path d="M178.767 259.642C178.767 258.621 178.07 258.11 176.676 258.11C175.995 258.11 175.26 258.281 174.473 258.624V265.215C174.942 265.544 175.571 265.709 176.358 265.709C177.964 265.709 178.767 265.178 178.767 264.115V259.642ZM181.856 264.053C181.856 265.136 181.413 266.01 180.527 266.675C179.649 267.34 178.558 267.673 177.256 267.673C175.961 267.673 174.813 267.371 173.814 266.768L173.507 267.436H171.383V251.848H174.473V256.742C175.291 256.352 176.116 256.156 176.949 256.156C179.001 256.156 180.402 256.636 181.152 257.596C181.622 258.199 181.856 258.898 181.856 259.693V264.053Z" fill="white"/>
<path d="M163.328 267.435V256.392H166.418V257.708C166.6 257.392 166.978 257.111 167.554 256.865C168.546 256.433 169.504 256.217 170.428 256.217C170.534 256.217 170.632 256.22 170.723 256.227L170.655 258.602C169.3 258.664 168.175 258.894 167.281 259.291C166.781 259.511 166.494 259.758 166.418 260.032V267.435H163.328Z" fill="white"/>
<path d="M153.86 267.704C150.574 267.704 148.408 266.963 147.363 265.483C146.772 264.66 146.477 263.594 146.477 262.285V257.534C146.477 255.402 147.207 253.911 148.669 253.061C149.873 252.362 151.619 252.009 153.906 252.002C157.094 252.002 159.199 252.79 160.222 254.367C160.797 255.251 161.085 256.358 161.085 257.688V262.12C161.085 264.19 160.366 265.685 158.927 266.604C157.776 267.337 156.087 267.704 153.86 267.704ZM149.862 262.624C149.862 263.618 150.199 264.314 150.873 264.711C151.547 265.109 152.55 265.308 153.883 265.308C155.223 265.308 156.193 265.113 156.791 264.722C157.397 264.324 157.7 263.625 157.7 262.624V257.123C157.7 256.136 157.393 255.436 156.78 255.025C156.166 254.607 155.201 254.398 153.883 254.398C152.573 254.398 151.573 254.603 150.884 255.015C150.203 255.426 149.862 256.129 149.862 257.123V262.624Z" fill="white"/>
</svg>
