<svg width="728" height="728" viewBox="0 0 728 728" fill="none" xmlns="http://www.w3.org/2000/svg">
<g clip-path="url(#clip0_2947_23750)">
<g clip-path="url(#clip1_2947_23750)">
<g clip-path="url(#clip2_2947_23750)">
<mask id="mask0_2947_23750" style="mask-type:luminance" maskUnits="userSpaceOnUse" x="58" y="14" width="592" height="196">
<path d="M66.2871 208.21C59.4416 204.627 56.7721 196.156 60.6267 189.459C89.761 138.838 131.108 96.3182 180.895 65.7799C230.682 35.2416 287.324 17.6571 345.652 14.6308C403.98 11.6045 462.138 23.2329 514.818 48.4548C567.498 73.6768 613.023 111.689 647.24 159.024C651.767 165.286 649.989 173.988 643.551 178.261C637.112 182.533 628.454 180.757 623.905 174.511C592.386 131.226 550.564 96.4907 502.229 73.4525C453.894 50.4143 400.574 39.8015 347.102 42.5758C293.629 45.3502 241.694 61.424 196.003 89.3405C150.312 117.257 112.309 156.134 85.4383 202.448C81.561 209.131 73.1326 211.794 66.2871 208.21Z" fill="white"/>
</mask>
<g mask="url(#mask0_2947_23750)">
<path d="M66.2871 208.21C59.4416 204.627 56.7721 196.156 60.6267 189.459C89.761 138.838 131.108 96.3182 180.895 65.7799C230.682 35.2416 287.324 17.6571 345.652 14.6308C403.98 11.6045 462.138 23.2329 514.818 48.4548C567.498 73.6768 613.023 111.689 647.24 159.024C651.767 165.286 649.989 173.988 643.551 178.261C637.112 182.533 628.454 180.757 623.905 174.511C592.386 131.226 550.564 96.4907 502.229 73.4525C453.894 50.4143 400.574 39.8015 347.102 42.5758C293.629 45.3502 241.694 61.424 196.003 89.3405C150.312 117.257 112.309 156.134 85.4383 202.448C81.561 209.131 73.1326 211.794 66.2871 208.21Z" stroke="url(#paint0_linear_2947_23750)" stroke-width="86.0692"/>
</g>
</g>
</g>
<g clip-path="url(#clip3_2947_23750)">
<g clip-path="url(#clip4_2947_23750)">
<g clip-path="url(#clip5_2947_23750)">
<g opacity="0.5">
<mask id="mask1_2947_23750" style="mask-type:luminance" maskUnits="userSpaceOnUse" x="134" y="64" width="508" height="191">
<g opacity="0.5">
<path d="M134.701 174.091C134.542 173.959 134.41 173.798 134.314 173.616C134.218 173.433 134.158 173.234 134.139 173.029C134.12 172.823 134.142 172.616 134.203 172.419C134.264 172.223 134.364 172.04 134.496 171.881C167.563 132.374 210.252 102.052 258.445 83.839C307.113 65.4456 359.734 60.0508 411.122 68.1861C462.485 76.3188 510.839 97.7081 551.408 130.242C591.559 162.444 622.717 204.467 641.864 252.243C641.94 252.434 641.978 252.639 641.975 252.845C641.973 253.051 641.929 253.255 641.847 253.444C641.766 253.633 641.647 253.805 641.499 253.948C641.351 254.092 641.176 254.204 640.984 254.28C640.596 254.433 640.163 254.426 639.78 254.26C639.397 254.094 639.095 253.784 638.941 253.396C619.994 206.13 589.166 164.554 549.441 132.694C509.297 100.502 461.451 79.3368 410.627 71.2891C359.778 63.2394 307.709 68.578 259.552 86.7787C211.87 104.798 169.633 134.797 136.915 173.885C136.648 174.204 136.265 174.405 135.85 174.444C135.435 174.482 135.022 174.355 134.701 174.091Z" fill="white"/>
</g>
</mask>
<g mask="url(#mask1_2947_23750)">
<path d="M134.701 174.091C134.542 173.959 134.41 173.798 134.314 173.616C134.218 173.433 134.158 173.234 134.139 173.029C134.12 172.823 134.142 172.616 134.203 172.419C134.264 172.223 134.364 172.04 134.496 171.881C167.563 132.374 210.252 102.052 258.445 83.839C307.113 65.4456 359.734 60.0508 411.122 68.1861C462.485 76.3188 510.839 97.7081 551.408 130.242C591.559 162.444 622.717 204.467 641.864 252.243C641.94 252.434 641.978 252.639 641.975 252.845C641.973 253.051 641.929 253.255 641.847 253.444C641.766 253.633 641.647 253.805 641.499 253.948C641.351 254.092 641.176 254.204 640.984 254.28C640.596 254.433 640.163 254.426 639.78 254.26C639.397 254.094 639.095 253.784 638.941 253.396C619.994 206.13 589.166 164.554 549.441 132.694C509.297 100.502 461.451 79.3368 410.627 71.2891C359.778 63.2394 307.709 68.578 259.552 86.7787C211.87 104.798 169.633 134.797 136.915 173.885C136.648 174.204 136.265 174.405 135.85 174.444C135.435 174.482 135.022 174.355 134.701 174.091Z" stroke="url(#paint1_linear_2947_23750)" stroke-width="87.6518"/>
</g>
</g>
</g>
</g>
</g>
<g clip-path="url(#clip6_2947_23750)">
<g clip-path="url(#clip7_2947_23750)">
<g clip-path="url(#clip8_2947_23750)">
<mask id="mask2_2947_23750" style="mask-type:luminance" maskUnits="userSpaceOnUse" x="14" y="213" width="365" height="501">
<path d="M378.078 699.663C378.397 707.379 372.398 713.923 364.676 713.933C275.33 714.055 189.329 679.963 124.333 618.658C59.3378 557.354 20.2813 473.491 15.1845 384.29C11.9896 328.372 22.2775 272.505 45.1819 221.392C48.3407 214.345 56.7607 211.535 63.6766 214.973C70.5916 218.41 73.3818 226.792 70.2476 233.85C36.974 308.801 33.5872 393.631 60.7797 470.996C87.9722 548.361 143.69 612.417 216.541 650.067C261.982 673.551 312.369 685.858 363.52 685.966C371.243 685.982 377.759 691.947 378.079 699.663L378.078 699.663Z" fill="white"/>
</mask>
<g mask="url(#mask2_2947_23750)">
<path d="M378.078 699.663C378.397 707.379 372.398 713.923 364.676 713.933C275.33 714.055 189.329 679.963 124.333 618.658C59.3378 557.354 20.2813 473.491 15.1845 384.29C11.9896 328.372 22.2775 272.504 45.1819 221.392C48.3407 214.345 56.7607 211.535 63.6766 214.973C70.5916 218.41 73.3818 226.792 70.2476 233.85C36.974 308.801 33.5872 393.631 60.7797 470.996C87.9722 548.361 143.69 612.417 216.541 650.067C261.982 673.551 312.369 685.858 363.52 685.966C371.243 685.982 377.758 691.947 378.078 699.663Z" stroke="url(#paint2_linear_2947_23750)" stroke-width="85.9668"/>
</g>
</g>
</g>
</g>
<g clip-path="url(#clip9_2947_23750)">
<g clip-path="url(#clip10_2947_23750)">
<g clip-path="url(#clip11_2947_23750)">
<g opacity="0.3">
<mask id="mask3_2947_23750" style="mask-type:luminance" maskUnits="userSpaceOnUse" x="64" y="162" width="230" height="494">
<g opacity="0.3">
<path d="M293.484 654.189C293.343 654.771 292.754 655.131 292.172 654.987C215.947 636.212 150.128 588.285 108.858 521.505C67.5884 454.726 54.1606 374.422 71.4601 297.848C82.8571 247.398 107.113 200.754 141.87 162.452C142.273 162.007 142.961 161.977 143.403 162.381C143.616 162.576 143.743 162.847 143.756 163.135C143.769 163.423 143.668 163.705 143.474 163.918C108.847 202.078 84.7212 248.575 73.4582 298.858C62.1952 349.14 64.1807 401.486 79.2206 450.771C94.2604 500.056 121.839 544.591 159.257 580.018C196.676 615.445 242.651 640.55 292.684 652.875C292.964 652.944 293.205 653.121 293.355 653.367C293.505 653.613 293.551 653.909 293.484 654.189Z" fill="white"/>
</g>
</mask>
<g mask="url(#mask3_2947_23750)">
<path d="M293.484 654.189C293.343 654.771 292.754 655.131 292.172 654.987C215.947 636.212 150.128 588.285 108.858 521.505C67.5884 454.726 54.1606 374.422 71.4601 297.848C82.8571 247.398 107.113 200.754 141.87 162.452C142.273 162.007 142.961 161.977 143.403 162.381C143.616 162.576 143.743 162.847 143.756 163.135C143.769 163.423 143.668 163.705 143.474 163.918C108.847 202.078 84.7212 248.575 73.4582 298.858C62.1952 349.14 64.1807 401.486 79.2206 450.771C94.2604 500.056 121.839 544.591 159.257 580.018C196.676 615.445 242.651 640.55 292.684 652.875C292.964 652.944 293.205 653.121 293.355 653.367C293.505 653.613 293.551 653.909 293.484 654.189Z" stroke="url(#paint3_linear_2947_23750)" stroke-width="88.402"/>
</g>
</g>
</g>
</g>
</g>
<g clip-path="url(#clip12_2947_23750)">
<g clip-path="url(#clip13_2947_23750)">
<g clip-path="url(#clip14_2947_23750)">
<mask id="mask4_2947_23750" style="mask-type:luminance" maskUnits="userSpaceOnUse" x="384" y="182" width="330" height="530">
<path d="M647.542 184.229C654.069 180.094 662.739 182.019 666.61 188.706C711.4 266.07 724.867 357.647 704.248 444.63C683.628 531.613 630.486 607.4 555.735 656.426C508.876 687.16 455.317 706.185 399.57 711.899C391.883 712.687 385.237 706.795 384.757 699.083C384.278 691.371 390.146 684.762 397.83 683.947C451.076 678.302 502.072 659.46 546.196 629.128C590.321 598.795 626.179 557.932 650.522 510.241C674.864 462.549 686.92 409.537 685.599 356.008C684.277 302.48 669.619 250.127 642.953 203.695C639.105 196.995 641.015 188.365 647.542 184.229Z" fill="white"/>
</mask>
<g mask="url(#mask4_2947_23750)">
<path d="M647.542 184.229C654.069 180.094 662.739 182.019 666.61 188.706C711.4 266.07 724.867 357.647 704.248 444.63C683.628 531.613 630.486 607.4 555.735 656.426C508.876 687.16 455.317 706.185 399.57 711.899C391.883 712.687 385.237 706.795 384.757 699.083C384.278 691.371 390.146 684.762 397.83 683.947C451.076 678.302 502.072 659.46 546.196 629.128C590.321 598.795 626.179 557.932 650.522 510.241C674.864 462.549 686.92 409.537 685.599 356.008C684.277 302.48 669.619 250.127 642.953 203.695C639.105 196.995 641.015 188.365 647.542 184.229Z" stroke="url(#paint4_linear_2947_23750)" stroke-width="83.3333"/>
</g>
</g>
</g>
</g>
<g clip-path="url(#clip15_2947_23750)">
<g clip-path="url(#clip16_2947_23750)">
<g clip-path="url(#clip17_2947_23750)">
<g opacity="0.6">
<mask id="mask5_2947_23750" style="mask-type:luminance" maskUnits="userSpaceOnUse" x="447" y="279" width="217" height="373">
<g opacity="0.6">
<path d="M650.157 280.025C650.9 279.807 651.68 280.232 651.895 280.976C673.782 356.848 664.828 438.293 626.979 507.597C589.131 576.902 525.449 628.459 449.785 651.056C449.609 651.108 449.424 651.125 449.241 651.106C449.057 651.087 448.88 651.031 448.718 650.943C448.557 650.855 448.414 650.736 448.299 650.593C448.183 650.449 448.097 650.284 448.046 650.108C447.941 649.751 447.983 649.367 448.161 649.04C448.338 648.713 448.639 648.47 448.995 648.364C523.945 625.977 587.024 574.904 624.516 506.253C662.008 437.601 670.88 356.924 649.203 281.766C649.099 281.409 649.142 281.025 649.32 280.699C649.499 280.372 649.8 280.13 650.157 280.025Z" fill="white"/>
</g>
</mask>
<g mask="url(#mask5_2947_23750)">
<path d="M650.157 280.025C650.9 279.807 651.68 280.232 651.895 280.976C673.782 356.848 664.828 438.293 626.979 507.597C589.131 576.902 525.449 628.459 449.785 651.056C449.609 651.108 449.424 651.125 449.241 651.106C449.057 651.087 448.88 651.031 448.718 650.943C448.557 650.855 448.414 650.736 448.299 650.593C448.183 650.449 448.097 650.284 448.046 650.108C447.941 649.751 447.983 649.367 448.161 649.04C448.338 648.713 448.639 648.47 448.995 648.364C523.945 625.977 587.024 574.904 624.516 506.253C662.008 437.601 670.88 356.924 649.203 281.766C649.099 281.409 649.142 281.025 649.32 280.699C649.499 280.372 649.8 280.13 650.157 280.025Z" stroke="url(#paint5_linear_2947_23750)" stroke-width="88.402"/>
</g>
</g>
</g>
</g>
</g>
</g>
<defs>
<linearGradient id="paint0_linear_2947_23750" x1="53.8918" y1="201.722" x2="461.807" y2="58.6593" gradientUnits="userSpaceOnUse">
<stop offset="0.06" stop-color="#07BDA7"/>
<stop offset="1" stop-opacity="0"/>
</linearGradient>
<linearGradient id="paint1_linear_2947_23750" x1="133.491" y1="173.089" x2="482.451" y2="135.577" gradientUnits="userSpaceOnUse">
<stop offset="0.06" stop-color="#50B18E"/>
<stop offset="1" stop-color="#737373" stop-opacity="0"/>
</linearGradient>
<linearGradient id="paint2_linear_2947_23750" x1="378.655" y1="713.635" x2="73.3317" y2="440.348" gradientUnits="userSpaceOnUse">
<stop stop-color="#583DFF"/>
<stop offset="1" stop-opacity="0"/>
</linearGradient>
<linearGradient id="paint3_linear_2947_23750" x1="293.228" y1="655.245" x2="121.396" y2="414.316" gradientUnits="userSpaceOnUse">
<stop offset="0.06" stop-color="#7545FF"/>
<stop offset="1" stop-opacity="0"/>
</linearGradient>
<linearGradient id="paint4_linear_2947_23750" x1="659.36" y1="176.741" x2="575.234" y2="578.002" gradientUnits="userSpaceOnUse">
<stop offset="0.06" stop-color="#ED597D"/>
<stop offset="1" stop-opacity="0"/>
</linearGradient>
<linearGradient id="paint5_linear_2947_23750" x1="651.503" y1="279.63" x2="487.513" y2="590.129" gradientUnits="userSpaceOnUse">
<stop offset="0.06" stop-color="#ED597E"/>
<stop offset="0.735" stop-opacity="0"/>
</linearGradient>
<clipPath id="clip0_2947_23750">
<rect width="728" height="728" fill="white"/>
</clipPath>
<clipPath id="clip1_2947_23750">
<rect width="700" height="700" fill="white" transform="translate(511.773 836.4) rotate(-152.37)"/>
</clipPath>
<clipPath id="clip2_2947_23750">
<rect width="700" height="700" fill="white" transform="translate(511.773 836.4) rotate(-152.37)"/>
</clipPath>
<clipPath id="clip3_2947_23750">
<rect width="600" height="600" fill="white" transform="translate(786.398 324.289) rotate(129.63)"/>
</clipPath>
<clipPath id="clip4_2947_23750">
<rect width="600" height="600" fill="white" transform="translate(786.398 324.289) rotate(129.63)"/>
</clipPath>
<clipPath id="clip5_2947_23750">
<rect width="600" height="600" fill="white" transform="translate(786.398 324.289) rotate(129.63)"/>
</clipPath>
<clipPath id="clip6_2947_23750">
<rect width="700" height="700" fill="white" transform="translate(28.7734 728.17) rotate(-92.37)"/>
</clipPath>
<clipPath id="clip7_2947_23750">
<rect width="700" height="700" fill="white" transform="translate(28.7734 728.17) rotate(-92.37)"/>
</clipPath>
<clipPath id="clip8_2947_23750">
<rect width="700" height="700" fill="white" transform="translate(28.7734 728.17) rotate(-92.37)"/>
</clipPath>
<clipPath id="clip9_2947_23750">
<rect width="600" height="600" fill="white" transform="translate(1.75 584.85) rotate(-76.37)"/>
</clipPath>
<clipPath id="clip10_2947_23750">
<rect width="600" height="600" fill="white" transform="translate(1.75 584.85) rotate(-76.37)"/>
</clipPath>
<clipPath id="clip11_2947_23750">
<rect width="600.856" height="600" fill="white" transform="translate(1.64844 585.266) rotate(-76.37)"/>
</clipPath>
<clipPath id="clip12_2947_23750">
<rect width="700" height="700" fill="white" transform="translate(472.312 -118.98) rotate(57.64)"/>
</clipPath>
<clipPath id="clip13_2947_23750">
<rect width="700" height="700" fill="white" transform="translate(472.312 -118.98) rotate(57.64)"/>
</clipPath>
<clipPath id="clip14_2947_23750">
<rect width="700" height="700" fill="white" transform="translate(472.312 -118.98) rotate(57.64)"/>
</clipPath>
<clipPath id="clip15_2947_23750">
<rect width="600" height="600" fill="white" transform="translate(567.352 -8.35938) rotate(73.64)"/>
</clipPath>
<clipPath id="clip16_2947_23750">
<rect width="600" height="600" fill="white" transform="translate(567.352 -8.35938) rotate(73.64)"/>
</clipPath>
<clipPath id="clip17_2947_23750">
<rect width="600" height="600" fill="white" transform="translate(567.352 -8.35938) rotate(73.64)"/>
</clipPath>
</defs>
</svg>
