<svg xmlns="http://www.w3.org/2000/svg" width="528" height="278" fill="none"><path fill="#A1A1A8" d="M39.231 61.164c-.76 0-1.421-.118-1.982-.355-.556-.242-.991-.586-1.306-1.033-.314-.446-.49-.977-.526-1.592h1.545c.032.369.15.676.355.922.21.242.481.422.814.54.333.119.697.178 1.094.178.433 0 .82-.068 1.162-.205a1.86 1.86 0 0 0 .8-.574 1.38 1.38 0 0 0 .294-.875c0-.3-.087-.547-.26-.738a1.87 1.87 0 0 0-.69-.472 6.712 6.712 0 0 0-.985-.335l-1.196-.328c-.82-.219-1.468-.545-1.942-.978-.474-.437-.71-1.01-.71-1.716 0-.587.157-1.1.47-1.538.32-.437.75-.777 1.293-1.018.547-.246 1.16-.37 1.839-.37.693 0 1.3.124 1.825.37.529.241.946.574 1.251.998.31.42.472.9.485 1.442h-1.49a1.466 1.466 0 0 0-.656-1.093c-.378-.26-.862-.39-1.45-.39-.41 0-.77.066-1.08.198a1.65 1.65 0 0 0-.71.533 1.31 1.31 0 0 0-.247.787c0 .319.099.578.294.779.201.2.443.36.725.478.287.114.563.208.827.28l.991.267c.324.082.657.192.998.328a4 4 0 0 1 .95.54c.297.22.534.492.712.82.182.324.273.716.273 1.176 0 .57-.148 1.08-.444 1.532-.297.446-.725.8-1.285 1.06-.561.255-1.24.382-2.038.382zm8.19-.007c-.748 0-1.395-.162-1.941-.485a3.25 3.25 0 0 1-1.265-1.367c-.292-.593-.438-1.283-.438-2.072 0-.783.144-1.474.431-2.07.292-.598.7-1.063 1.224-1.395.528-.338 1.148-.506 1.859-.506.433 0 .852.07 1.258.212.405.14.77.364 1.094.67.323.305.578.701.765 1.189.192.488.287 1.075.287 1.764v.533h-6.077v-1.114h5.312l-.69.369c0-.47-.074-.884-.22-1.244a1.818 1.818 0 0 0-.656-.841c-.287-.205-.645-.308-1.073-.308-.428 0-.795.103-1.1.308a2 2 0 0 0-.691.813c-.16.337-.24.707-.24 1.108v.759c0 .524.092.968.274 1.333.183.364.435.642.759.834.328.19.709.287 1.142.287.282 0 .537-.041.765-.123.233-.083.433-.206.602-.37a1.59 1.59 0 0 0 .383-.608l1.408.267c-.114.41-.315.77-.602 1.08a2.92 2.92 0 0 1-1.087.724c-.433.169-.927.253-1.483.253zm7.52 0c-.734 0-1.368-.168-1.901-.506a3.328 3.328 0 0 1-1.23-1.394c-.288-.593-.431-1.272-.431-2.037 0-.78.146-1.465.437-2.058a3.382 3.382 0 0 1 1.238-1.394c.533-.338 1.157-.506 1.873-.506.583 0 1.1.107 1.551.321a2.706 2.706 0 0 1 1.601 2.249h-1.45a1.705 1.705 0 0 0-.294-.663c-.141-.2-.328-.36-.56-.479a1.8 1.8 0 0 0-.828-.177c-.414 0-.777.11-1.087.328-.305.214-.544.522-.717.923-.174.4-.26.875-.26 1.421 0 .552.084 1.033.253 1.443.168.41.408.727.717.95.315.219.68.328 1.094.328.429 0 .793-.118 1.094-.355.305-.237.501-.56.588-.97h1.45c-.051.496-.21.938-.48 1.325a2.796 2.796 0 0 1-1.08.916c-.45.224-.977.335-1.579.335zm9.03-3.315v-4.485h1.476V61h-1.449v-1.326h-.082a2.497 2.497 0 0 1-.848 1.018c-.383.274-.861.408-1.435.404-.492 0-.928-.107-1.306-.322-.373-.214-.667-.535-.882-.964-.21-.428-.314-.959-.314-1.592v-4.86h1.476v4.689c0 .515.146.927.438 1.237.292.31.668.463 1.128.458.278 0 .554-.068.827-.205.278-.137.508-.346.69-.629.187-.282.28-.638.28-1.066zM66.869 61v-7.643h1.429v1.224h.082c.141-.41.387-.734.738-.97a2.09 2.09 0 0 1 1.203-.363c.091 0 .198.005.322.014.127.004.23.011.307.02v1.422a3.81 3.81 0 0 0-.78-.082c-.35 0-.665.075-.942.226-.274.145-.49.348-.65.608a1.679 1.679 0 0 0-.232.889V61h-1.477zm4.799 0v-7.643h1.476V61h-1.476zm.745-8.818a.927.927 0 0 1-.663-.26.828.828 0 0 1-.273-.622c0-.246.09-.456.273-.63a.927.927 0 0 1 .663-.259.92.92 0 0 1 .656.26c.187.173.28.383.28.629a.819.819 0 0 1-.28.622.919.919 0 0 1-.656.26zm5.708 1.175v1.197h-4.17v-1.197h4.17zm-3.056-1.818h1.484v7.219c0 .35.073.608.219.772.145.16.38.24.704.24a2.833 2.833 0 0 0 .52-.055l.28 1.23c-.15.05-.315.09-.493.117a3.494 3.494 0 0 1-.533.04c-.66 0-1.19-.184-1.586-.553-.396-.374-.595-.87-.595-1.49v-7.52zm5.052 12.318a2.818 2.818 0 0 1-.608-.047 1.687 1.687 0 0 1-.41-.117l.362-1.21.103.028c.378.095.697.089.957-.02.264-.106.485-.4.663-.883l.184-.505-2.789-7.746h1.593l1.928 5.934h.082l1.934-5.934h1.593l-3.145 8.655c-.145.4-.33.738-.553 1.011a2.095 2.095 0 0 1-.807.622c-.31.142-.672.212-1.087.212z"/><path fill="#7545FF" d="M470.033 50.67a3.9 3.9 0 0 1 1.34.254c.442.16.841.424 1.196.793.36.369.647.868.862 1.497.214.624.321 1.404.321 2.338 0 .888-.089 1.68-.267 2.372-.177.693-.435 1.278-.772 1.757a3.412 3.412 0 0 1-1.21 1.093 3.405 3.405 0 0 1-1.593.37c-.606 0-1.146-.121-1.62-.363a3.064 3.064 0 0 1-1.148-.991 3.35 3.35 0 0 1-.554-1.456h1.517c.101.433.304.786.609 1.06.31.268.709.403 1.196.403.743 0 1.322-.326 1.736-.978.42-.651.632-1.56.636-2.727h-.075a3.007 3.007 0 0 1-.649.745 2.84 2.84 0 0 1-.862.472 3.105 3.105 0 0 1-1.011.164 3.099 3.099 0 0 1-1.614-.431 3.14 3.14 0 0 1-1.148-1.183c-.283-.506-.426-1.082-.431-1.73a3.606 3.606 0 0 1 .445-1.756 3.272 3.272 0 0 1 1.237-1.244c.528-.31 1.148-.463 1.859-.458zm.007 1.3c-.387 0-.736.095-1.046.287-.31.191-.554.449-.731.772a2.203 2.203 0 0 0-.267 1.08c0 .397.084.755.253 1.074.173.319.412.574.718.765.305.187.651.28 1.039.28a1.93 1.93 0 0 0 1.053-.293c.314-.201.565-.463.752-.787.186-.328.28-.68.28-1.06 0-.373-.089-.721-.267-1.045a2.107 2.107 0 0 0-.731-.78 1.907 1.907 0 0 0-1.053-.293zm8.429 9.167c-.784 0-1.456-.205-2.017-.615-.556-.41-.982-1.003-1.278-1.778-.292-.78-.438-1.722-.438-2.83 0-1.103.148-2.044.445-2.823.296-.784.722-1.381 1.278-1.791.561-.415 1.23-.622 2.01-.622.784 0 1.454.207 2.01.622.56.41.986 1.007 1.278 1.79.296.78.444 1.721.444 2.824 0 1.108-.146 2.05-.437 2.83-.292.775-.716 1.367-1.272 1.778-.556.41-1.23.615-2.023.615zm0-1.313c.478 0 .882-.152 1.21-.458.328-.305.578-.75.752-1.333.173-.588.259-1.294.259-2.119 0-.83-.086-1.536-.259-2.12-.174-.587-.424-1.034-.752-1.339a1.696 1.696 0 0 0-1.21-.465c-.707 0-1.254.344-1.641 1.032-.383.684-.574 1.648-.574 2.892 0 .825.086 1.531.26 2.12.173.583.424 1.027.752 1.332.332.306.733.458 1.203.458zm10.24-.738v-.533c0-.388.08-.74.239-1.06a1.87 1.87 0 0 1 .704-.766c.31-.195.686-.293 1.128-.293.451 0 .83.095 1.135.287.305.191.536.449.69.772.155.32.233.672.233 1.06v.533c0 .387-.08.743-.239 1.066-.155.32-.385.575-.691.766-.305.191-.681.287-1.128.287-.446 0-.825-.096-1.134-.287a1.871 1.871 0 0 1-.705-.766 2.436 2.436 0 0 1-.232-1.066zm1.155-.533v.533c0 .287.069.547.205.78.137.232.374.348.711.348.333 0 .565-.116.698-.349a1.55 1.55 0 0 0 .198-.78v-.532a1.55 1.55 0 0 0-.192-.773c-.127-.232-.362-.348-.704-.348-.332 0-.569.116-.711.348a1.478 1.478 0 0 0-.205.773zm-6.275-5.291v-.534c0-.387.08-.74.239-1.06a1.92 1.92 0 0 1 .704-.771c.31-.192.684-.288 1.121-.288.451 0 .83.096 1.135.288.31.19.542.448.697.772.155.319.23.672.226 1.06v.533c.004.383-.073.736-.232 1.06a1.93 1.93 0 0 1-.698.772c-.305.191-.681.287-1.128.287-.446 0-.825-.096-1.134-.287a1.93 1.93 0 0 1-.698-.773 2.42 2.42 0 0 1-.232-1.06zm1.155-.534v.534c0 .287.068.547.205.779.137.232.372.346.704.342.338.004.572-.11.704-.342a1.54 1.54 0 0 0 .199-.78v-.533c0-.287-.064-.546-.192-.779-.127-.232-.364-.346-.711-.342-.328-.004-.563.11-.704.342a1.505 1.505 0 0 0-.205.78zM484.061 61l7-10.185h1.189l-7 10.185h-1.189z"/><rect width="459" height="10" x="35" y="74" fill="#1C1C1C" rx="5"/><rect width="406" height="10" x="35" y="74" fill="#7545FF" rx="5"/><path fill="#A1A1A8" d="M39.231 135.164c-.76 0-1.421-.118-1.982-.355-.556-.242-.991-.586-1.306-1.033-.314-.446-.49-.977-.526-1.592h1.545c.032.369.15.676.355.922.21.242.481.422.814.54.333.119.697.178 1.094.178.433 0 .82-.068 1.162-.205.341-.137.608-.328.8-.574a1.38 1.38 0 0 0 .294-.875c0-.301-.087-.547-.26-.738a1.863 1.863 0 0 0-.69-.472 6.7 6.7 0 0 0-.985-.335l-1.196-.328c-.82-.219-1.468-.545-1.942-.978-.474-.437-.71-1.009-.71-1.715 0-.588.157-1.101.47-1.539a3.14 3.14 0 0 1 1.293-1.018c.547-.246 1.16-.369 1.839-.369.693 0 1.3.123 1.825.369.529.241.946.574 1.251.998.31.419.472.9.485 1.442h-1.49a1.464 1.464 0 0 0-.656-1.093c-.378-.26-.862-.39-1.45-.39-.41 0-.77.066-1.08.198a1.652 1.652 0 0 0-.71.533c-.165.228-.247.49-.247.786 0 .319.099.579.294.78.201.2.443.36.725.478.287.114.563.208.827.281l.991.266c.324.082.657.192.998.328a4 4 0 0 1 .95.54c.297.219.534.493.712.821.182.323.273.715.273 1.175a2.73 2.73 0 0 1-.444 1.532c-.297.446-.725.799-1.285 1.059-.561.255-1.24.383-2.038.383zm4.902 2.693v-10.5h1.435v1.245h.123c.092-.16.217-.345.376-.554.164-.21.392-.392.684-.547.292-.16.672-.239 1.142-.239a2.95 2.95 0 0 1 1.64.465c.483.309.864.758 1.142 1.346.278.588.417 1.297.417 2.126 0 .821-.137 1.527-.41 2.119-.274.588-.652 1.042-1.135 1.361-.479.314-1.028.471-1.648.471-.46 0-.838-.077-1.134-.232a2.267 2.267 0 0 1-.69-.554 4.767 4.767 0 0 1-.384-.553h-.082v4.046h-1.476zm3.445-3.971c.442 0 .811-.119 1.107-.356.297-.237.52-.558.67-.964.155-.41.233-.87.233-1.38 0-.506-.075-.96-.226-1.361a2.118 2.118 0 0 0-.67-.95c-.296-.232-.667-.349-1.114-.349-.433 0-.797.112-1.094.335-.296.219-.521.529-.676.93-.15.397-.226.861-.226 1.395 0 .533.078 1.002.233 1.408.154.405.38.722.676.95.301.228.663.342 1.087.342zm7.882 1.271c-.747 0-1.395-.162-1.941-.485a3.25 3.25 0 0 1-1.265-1.367c-.292-.593-.438-1.283-.438-2.072 0-.783.144-1.474.431-2.071a3.35 3.35 0 0 1 1.224-1.394c.528-.338 1.148-.506 1.86-.506.432 0 .851.07 1.257.212.405.141.77.364 1.094.67.323.305.578.701.765 1.189.192.488.287 1.076.287 1.764v.533h-6.077v-1.114h5.312l-.69.369c0-.47-.074-.884-.22-1.244a1.817 1.817 0 0 0-.656-.841c-.287-.205-.645-.308-1.073-.308-.428 0-.795.103-1.1.308a2 2 0 0 0-.69.813c-.16.338-.24.707-.24 1.108v.758c0 .525.091.969.273 1.333.182.365.435.643.759.834a2.22 2.22 0 0 0 1.142.288c.282 0 .537-.041.765-.123a1.57 1.57 0 0 0 .984-.978l1.409.267c-.114.41-.315.77-.602 1.08-.287.31-.65.551-1.087.724-.433.169-.927.253-1.483.253zm7.602 0c-.748 0-1.395-.162-1.942-.485a3.25 3.25 0 0 1-1.264-1.367c-.292-.593-.438-1.283-.438-2.072 0-.783.144-1.474.43-2.071a3.35 3.35 0 0 1 1.224-1.394c.529-.338 1.149-.506 1.86-.506.433 0 .852.07 1.257.212.406.141.77.364 1.094.67.324.305.579.701.766 1.189.191.488.287 1.076.287 1.764v.533h-6.077v-1.114h5.311l-.69.369c0-.47-.073-.884-.219-1.244a1.816 1.816 0 0 0-.656-.841c-.287-.205-.645-.308-1.073-.308-.429 0-.796.103-1.1.308a2 2 0 0 0-.691.813c-.16.338-.24.707-.24 1.108v.758c0 .525.091.969.274 1.333.182.365.435.643.759.834.328.192.708.288 1.141.288.283 0 .538-.041.766-.123a1.57 1.57 0 0 0 .984-.978l1.408.267c-.114.41-.314.77-.601 1.08-.287.31-.65.551-1.087.724-.433.169-.928.253-1.483.253zm7.157-.007c-.62 0-1.171-.157-1.654-.471-.484-.319-.862-.773-1.135-1.361-.274-.592-.41-1.298-.41-2.119 0-.829.139-1.538.416-2.126.278-.588.66-1.037 1.142-1.346a2.972 2.972 0 0 1 1.64-.465c.48 0 .862.079 1.15.239.29.155.516.337.676.547.164.209.29.394.376.554h.089v-3.788h1.476V135h-1.442v-1.189h-.123a3.84 3.84 0 0 1-.383.553c-.169.21-.399.394-.69.554-.287.155-.663.232-1.128.232zm.321-1.264c.428 0 .79-.114 1.087-.342.296-.228.52-.545.67-.95.155-.406.232-.875.232-1.408 0-.534-.075-.998-.225-1.395-.15-.401-.374-.711-.67-.93-.296-.223-.661-.335-1.094-.335-.447 0-.818.117-1.114.349-.296.232-.52.549-.67.95-.15.401-.226.855-.226 1.361 0 .51.076.97.226 1.38.15.406.374.727.67.964.3.237.672.356 1.114.356z"/><path fill="#ED597E" d="M470.115 135.137c-.711 0-1.34-.123-1.886-.369-.543-.247-.969-.584-1.279-1.012a2.502 2.502 0 0 1-.458-1.477 2.607 2.607 0 0 1 1.005-2.091c.31-.242.659-.397 1.046-.465v-.062a2.094 2.094 0 0 1-1.224-.813 2.42 2.42 0 0 1-.458-1.45c0-.524.139-.991.417-1.401.283-.41.668-.731 1.156-.964.492-.237 1.052-.355 1.681-.355.62 0 1.174.118 1.661.355a2.81 2.81 0 0 1 1.156.964c.282.41.423.877.423 1.401 0 .543-.154 1.026-.464 1.45-.306.419-.707.69-1.203.813v.062a2.33 2.33 0 0 1 1.039.465c.309.241.556.544.738.909.182.364.273.758.273 1.182 0 .552-.155 1.044-.465 1.477-.309.428-.738.765-1.285 1.012-.542.246-1.166.369-1.873.369zm0-1.258c.42 0 .784-.068 1.094-.205.31-.141.549-.34.718-.595.168-.255.253-.551.253-.889 0-.355-.091-.667-.274-.936a1.816 1.816 0 0 0-.731-.643 2.289 2.289 0 0 0-1.06-.239c-.401 0-.759.078-1.073.232-.31.155-.554.37-.731.643a1.692 1.692 0 0 0-.267.943c0 .338.084.634.253.889.168.255.408.454.718.595.31.137.676.205 1.1.205zm0-4.731c.337 0 .636-.068.896-.205.264-.136.471-.325.622-.567.155-.242.232-.524.232-.848 0-.319-.075-.597-.225-.834a1.478 1.478 0 0 0-.616-.553 1.964 1.964 0 0 0-.909-.199 2.03 2.03 0 0 0-.923.199 1.482 1.482 0 0 0-.615.553 1.558 1.558 0 0 0-.219.834c0 .324.076.606.226.848.15.242.355.431.615.567.265.137.57.205.916.205zm8.34 5.989c-.784 0-1.456-.205-2.017-.616-.556-.41-.982-1.002-1.278-1.777-.292-.779-.437-1.723-.437-2.83 0-1.103.148-2.044.444-2.823.296-.784.722-1.381 1.278-1.791.561-.415 1.231-.622 2.01-.622.784 0 1.454.207 2.01.622.56.41.986 1.007 1.278 1.791.296.779.445 1.72.445 2.823 0 1.107-.146 2.051-.438 2.83-.292.775-.715 1.367-1.271 1.777-.556.411-1.231.616-2.024.616zm0-1.313c.479 0 .882-.152 1.21-.458.328-.305.579-.749.752-1.333.173-.588.26-1.294.26-2.119 0-.829-.087-1.536-.26-2.119-.173-.588-.424-1.035-.752-1.34-.328-.31-.731-.465-1.21-.465-.706 0-1.253.344-1.641 1.032-.382.684-.574 1.648-.574 2.892 0 .825.087 1.531.26 2.119.173.584.424 1.028.752 1.333.333.306.734.458 1.203.458zm10.24-.738v-.533c0-.388.08-.741.24-1.06.159-.319.394-.574.704-.765.31-.196.686-.294 1.128-.294.451 0 .829.095 1.134.287.306.191.536.449.691.772.155.319.232.672.232 1.06v.533c0 .387-.08.743-.239 1.066a1.834 1.834 0 0 1-.69.766c-.306.191-.682.287-1.128.287-.447 0-.825-.096-1.135-.287a1.861 1.861 0 0 1-.704-.766 2.434 2.434 0 0 1-.233-1.066zm1.156-.533v.533c0 .287.068.547.205.779.136.233.373.349.711.349.332 0 .565-.116.697-.349.132-.232.198-.492.198-.779v-.533c0-.287-.064-.545-.191-.773-.128-.232-.363-.348-.704-.348-.333 0-.57.116-.711.348a1.472 1.472 0 0 0-.205.773zm-6.276-5.291v-.533c0-.388.08-.741.239-1.06.165-.324.399-.581.705-.773.309-.191.683-.287 1.121-.287.451 0 .829.096 1.134.287.31.192.543.449.698.773.155.319.23.672.225 1.06v.533c.005.383-.073.736-.232 1.059-.16.319-.392.577-.697.773-.306.191-.682.287-1.128.287-.447 0-.825-.096-1.135-.287a1.928 1.928 0 0 1-.697-.773 2.416 2.416 0 0 1-.233-1.059zm1.155-.533v.533c0 .287.069.547.206.779.136.232.371.346.704.342.337.004.572-.11.704-.342.132-.232.198-.492.198-.779v-.533a1.6 1.6 0 0 0-.191-.78c-.128-.232-.365-.346-.711-.342-.328-.004-.563.11-.704.342a1.508 1.508 0 0 0-.206.78zm-.683 8.271 7-10.186h1.189l-7 10.186h-1.189z"/><rect width="459" height="10" x="35" y="148" fill="#1C1C1C" rx="5"/><rect width="345" height="10" x="35" y="148" fill="#ED597E" rx="5"/><path fill="#A1A1A8" d="M44.058 198.814V209h-1.436l-5.161-7.465h-.103V209H35.82v-10.186h1.422l5.182 7.479h.096v-7.479h1.538zm4.826 10.343c-.748 0-1.395-.162-1.942-.485a3.25 3.25 0 0 1-1.264-1.367c-.292-.593-.438-1.283-.438-2.072 0-.783.144-1.474.43-2.071.293-.597.7-1.062 1.224-1.394.53-.338 1.149-.506 1.86-.506.433 0 .852.07 1.258.212.405.141.77.364 1.093.67.324.305.58.701.766 1.189.191.488.287 1.076.287 1.764v.533h-6.077v-1.114h5.312l-.69.369c0-.47-.074-.884-.22-1.244a1.816 1.816 0 0 0-.656-.841c-.287-.205-.645-.308-1.073-.308-.428 0-.795.103-1.1.308a2 2 0 0 0-.691.813c-.16.338-.24.707-.24 1.108v.758c0 .525.092.969.274 1.333.182.365.435.643.759.834a2.22 2.22 0 0 0 1.142.288c.282 0 .537-.041.765-.123a1.57 1.57 0 0 0 .984-.978l1.409.267c-.114.41-.315.77-.602 1.08-.287.31-.65.551-1.087.724-.433.169-.927.253-1.483.253zm7.868-7.8v1.197h-4.17v-1.197h4.17zm-3.056-1.818h1.484v7.219c0 .351.073.608.218.772.146.16.381.24.704.24a2.866 2.866 0 0 0 .52-.055l.28 1.23a3.06 3.06 0 0 1-.492.117 3.547 3.547 0 0 1-.533.041c-.66 0-1.19-.185-1.586-.554-.396-.374-.595-.871-.595-1.49v-7.52zm5.77 9.461-2.242-7.643h1.53l1.498 5.613h.082l1.497-5.613h1.538l1.484 5.592h.075l1.49-5.592h1.531L65.707 209h-1.51l-1.56-5.51h-.102L60.977 209h-1.511zm12.29.157c-.715 0-1.341-.164-1.879-.492a3.324 3.324 0 0 1-1.244-1.381c-.292-.592-.438-1.28-.438-2.064 0-.793.146-1.486.438-2.078a3.319 3.319 0 0 1 1.244-1.388c.538-.328 1.164-.492 1.88-.492.72 0 1.346.164 1.88.492a3.32 3.32 0 0 1 1.244 1.388c.296.592.444 1.285.444 2.078 0 .784-.148 1.472-.444 2.064a3.325 3.325 0 0 1-1.244 1.381c-.534.328-1.16.492-1.88.492zm0-1.251c.47 0 .858-.123 1.163-.369.305-.246.53-.572.677-.977.15-.411.225-.857.225-1.34 0-.492-.075-.944-.225-1.354a2.159 2.159 0 0 0-.677-.984c-.305-.246-.693-.369-1.162-.369-.465 0-.85.123-1.155.369a2.226 2.226 0 0 0-.677.984c-.15.41-.226.862-.226 1.354 0 .483.075.929.226 1.34.15.405.376.731.677.977.305.246.69.369 1.155.369zM76.399 209v-7.643h1.43v1.224h.081c.141-.41.387-.734.738-.971a2.095 2.095 0 0 1 1.204-.362c.09 0 .198.005.32.014.128.004.231.011.308.02v1.422a2.229 2.229 0 0 0-.32-.055 3.851 3.851 0 0 0-.459-.027c-.35 0-.665.075-.943.226a1.66 1.66 0 0 0-.65.608 1.678 1.678 0 0 0-.232.889V209h-1.477zm6.166-2.591-.02-1.811h.267l3.041-3.241h1.778l-3.466 3.692h-.246l-1.354 1.36zM81.197 209v-10.186h1.477V209h-1.477zm4.813 0-2.735-3.623 1.026-1.046L87.84 209h-1.83z"/><path fill="#0CC6B0" d="M470.047 209.137c-.624 0-1.185-.119-1.682-.356a3.071 3.071 0 0 1-1.182-.991 2.611 2.611 0 0 1-.472-1.442h1.49c.037.433.23.79.581 1.073.351.282.773.424 1.265.424.392 0 .738-.091 1.039-.274.301-.182.538-.43.711-.745.173-.319.26-.683.26-1.094 0-.41-.089-.777-.267-1.1a1.982 1.982 0 0 0-.738-.773 2.046 2.046 0 0 0-1.073-.28c-.31 0-.62.055-.93.164a2.19 2.19 0 0 0-.752.41l-1.415-.205.574-5.134h5.599v1.32h-4.314l-.321 2.85h.055a2.17 2.17 0 0 1 .786-.478c.332-.128.69-.192 1.073-.192.62 0 1.171.149 1.654.445.488.291.871.692 1.149 1.203.278.506.417 1.087.417 1.743 0 .661-.151 1.251-.451 1.771-.301.515-.716.92-1.245 1.216-.524.297-1.128.445-1.811.445zm4.484-2.126v-1.238l4.396-6.959h.977v1.832h-.629l-3.144 4.977v.082h6.036v1.306h-7.636zm4.813 1.989v-2.365l.013-.568v-7.253h1.463V209h-1.476zm9.269-1.914v-.533c0-.388.08-.741.24-1.06.159-.319.394-.574.704-.765.31-.196.686-.294 1.128-.294.451 0 .829.095 1.134.287.306.191.536.449.691.772.155.319.232.672.232 1.06v.533c0 .387-.08.743-.239 1.066a1.83 1.83 0 0 1-.691.766c-.305.191-.681.287-1.127.287-.447 0-.825-.096-1.135-.287a1.861 1.861 0 0 1-.704-.766 2.434 2.434 0 0 1-.233-1.066zm1.156-.533v.533c0 .287.068.547.205.779.136.233.373.349.711.349.332 0 .565-.116.697-.349.132-.232.198-.492.198-.779v-.533c0-.287-.064-.545-.191-.773-.128-.232-.363-.348-.704-.348-.333 0-.57.116-.711.348a1.472 1.472 0 0 0-.205.773zm-6.276-5.291v-.533c0-.388.08-.741.239-1.06.164-.324.399-.581.705-.773.309-.191.683-.287 1.121-.287.451 0 .829.096 1.134.287.31.192.543.449.698.773.155.319.23.672.225 1.06v.533c.005.383-.073.736-.232 1.059-.16.319-.392.577-.697.773-.306.191-.682.287-1.128.287-.447 0-.825-.096-1.135-.287a1.928 1.928 0 0 1-.697-.773 2.416 2.416 0 0 1-.233-1.059zm1.155-.533v.533c0 .287.069.547.206.779.136.232.371.346.704.342.337.004.572-.11.704-.342.132-.232.198-.492.198-.779v-.533a1.6 1.6 0 0 0-.191-.78c-.128-.232-.365-.346-.711-.342-.329-.004-.563.11-.704.342a1.508 1.508 0 0 0-.206.78zm-.683 8.271 7-10.186h1.189l-7 10.186h-1.189z"/><rect width="459" height="10" x="35" y="222" fill="#1C1C1C" rx="5"/><rect width="292" height="10" x="35" y="222" fill="#0CC6B0" rx="5"/></svg>