<svg xmlns="http://www.w3.org/2000/svg" width="528" height="278" fill="none"><rect width="63.549" height="63.549" x="115.298" y="31.46" stroke="#3E3E41" stroke-dasharray="3.68 3.68" stroke-width=".921" rx="10.591"/><rect width="63.549" height="64.47" x="43.461" y="109.035" stroke="#3E3E41" stroke-dasharray="3.68 3.68" stroke-width=".921" rx="10.591"/><rect width="70.917" height="70.917" x="414.623" y="103.507" fill="#1C1C1C" stroke="#3E3E41" stroke-width=".921" rx="35.458"/><path fill="#0CC6B0" d="M439.029 134.055h22.104v-3.07a1.78 1.78 0 0 0-.536-1.305 1.781 1.781 0 0 0-1.306-.537h-18.42c-.511 0-.946.179-1.304.537a1.785 1.785 0 0 0-.538 1.305v3.07zm0 7.368h22.104v-4.912h-22.104v4.912zm1.842 7.368h18.42a1.78 1.78 0 0 0 1.306-.537c.358-.358.537-.793.536-1.305v-3.07h-22.104v3.07c0 .511.18.946.538 1.305.359.358.793.537 1.304.537zm.614-15.964c-.348 0-.639-.118-.874-.354a1.195 1.195 0 0 1-.354-.874 1.18 1.18 0 0 1 .354-.875 1.19 1.19 0 0 1 .874-.353c.347 0 .638.117.876.353.237.236.355.527.352.875a1.208 1.208 0 0 1-1.228 1.228zm0 7.368c-.348 0-.639-.118-.874-.354a1.195 1.195 0 0 1-.354-.874 1.18 1.18 0 0 1 .354-.875 1.19 1.19 0 0 1 .874-.353c.347 0 .638.117.876.353.237.236.355.527.352.875a1.208 1.208 0 0 1-1.228 1.228zm0 7.368c-.348 0-.639-.118-.874-.354a1.195 1.195 0 0 1-.354-.874 1.18 1.18 0 0 1 .354-.875 1.19 1.19 0 0 1 .874-.353c.347 0 .638.117.876.353.237.236.355.527.352.875a1.208 1.208 0 0 1-1.228 1.228z"/><rect width="87.495" height="86.574" x="259.435" y="94.76" fill="#7545FF" rx="15.657"/><path fill="url(#a)" d="M287.609 138.747c.348-.203.551-.586.547-.991l-.001-.143c0-6.475 4.143-11.975 9.904-13.955a1.13 1.13 0 0 0 .775-1.059v-5.733c0-.671-.604-1.18-1.251-1.024-9.761 2.36-17.016 11.211-17.016 21.771 0 1.183.091 2.345.267 3.478.111.718.905 1.07 1.53.707l5.245-3.051z"/><path fill="url(#b)" d="M284.529 148.366c-.514.298-.69.963-.366 1.463 3.965 6.123 10.824 10.171 18.62 10.171 7.16 0 13.528-3.413 17.591-8.711.382-.498.221-1.214-.32-1.528l-4.784-2.784c-.466-.271-1.058-.147-1.41.264-2.682 3.131-6.65 5.112-11.077 5.112-4.993 0-9.403-2.522-12.042-6.37-.334-.486-.98-.661-1.488-.366l-4.724 2.749z"/><path fill="url(#c)" d="M325 137.613c0 1.834-.219 3.616-.632 5.322-.162.672-.922.972-1.516.626l-5.024-2.923a1.13 1.13 0 0 1-.536-1.128c.079-.621.12-1.254.12-1.897 0-6.875-4.671-12.651-10.989-14.281a1.132 1.132 0 0 1-.862-1.084v-5.629c0-.648.564-1.151 1.197-1.036 10.373 1.888 18.242 11.033 18.242 22.03z"/><ellipse cx="302.538" cy="137.73" fill="url(#d)" rx="5.878" ry="5.923"/><rect width="63.549" height="63.549" x="115.298" y="182.46" stroke="#3E3E41" stroke-dasharray="3.68 3.68" stroke-width=".921" rx="10.591"/><path fill="#3E3E41" d="M105.014 138.967a2.457 2.457 0 1 0 4.913-.001 2.457 2.457 0 0 0-4.913.001zm154.421 0-4.605-2.659v5.317l4.605-2.658zm-151.965.46h147.82v-.921H107.47v.921zm237.003-.46a2.457 2.457 0 1 0 4.913-.001 2.457 2.457 0 0 0-4.913.001zm69.689 0-4.605-2.659v5.317l4.605-2.658zm-67.233.46h63.089v-.921h-63.089v.921z"/><path fill="#3E3E41" d="M176.544 63a2.456 2.456 0 1 0 4.913 0 2.456 2.456 0 0 0-4.913 0zm2.456.46h25.632v-.92H179v.92zm32.54 6.908v61.264h.92V70.368h-.92zm7.828 69.093H232v-.921h-12.632v.921zm-7.828-7.829a7.828 7.828 0 0 0 7.828 7.829v-.921a6.908 6.908 0 0 1-6.908-6.908h-.92zm-6.908-68.172a6.908 6.908 0 0 1 6.908 6.908h.92a7.828 7.828 0 0 0-7.828-7.828v.92z"/><path fill="#3E3E41" d="M176.544 215a2.457 2.457 0 1 1 4.913.001 2.457 2.457 0 0 1-4.913-.001zm2.456-.46h25.632v.92H179v-.92zm32.54-6.908v-61.264h.92v61.264h-.92zm7.828-69.093H232v.921h-12.632v-.921zm-7.828 7.829a7.828 7.828 0 0 1 7.828-7.829v.921a6.908 6.908 0 0 0-6.908 6.908h-.92zm-6.908 68.172a6.908 6.908 0 0 0 6.908-6.908h.92a7.827 7.827 0 0 1-7.828 7.828v-.92z"/><g clip-path="url(#e)"><path fill="#A1A1A8" d="M157.204 60.472v.92a6.455 6.455 0 0 1-5.577 6.387c.63.806.972 1.8.972 2.824v4.605a.92.92 0 0 1-.921.92h-7.368a.92.92 0 0 1-.921-.92v-1.842h-2.763a4.604 4.604 0 0 1-4.605-4.605 2.763 2.763 0 0 0-2.763-2.763.92.92 0 0 1-.651-1.573.92.92 0 0 1 .651-.27 4.604 4.604 0 0 1 4.605 4.606 2.763 2.763 0 0 0 2.763 2.763h2.763v-.921a4.575 4.575 0 0 1 .972-2.824 6.453 6.453 0 0 1-5.577-6.386v-.921a6.688 6.688 0 0 1 .885-3.26 6.884 6.884 0 0 1 .62-5.49.914.914 0 0 1 .797-.46 6.88 6.88 0 0 1 5.526 2.763h2.763a6.879 6.879 0 0 1 5.526-2.763.921.921 0 0 1 .798.46 6.884 6.884 0 0 1 .618 5.49c.571.992.876 2.115.887 3.26z"/></g><path fill="#A1A1A8" d="m158.833 212.979-2.291-8.761a1.377 1.377 0 0 0-2.093-.803 1.37 1.37 0 0 0-.531.676l-2.035 5.538h-9.62l-2.036-5.541a1.372 1.372 0 0 0-2.161-.594 1.37 1.37 0 0 0-.462.724l-2.291 8.761a6.582 6.582 0 0 0 2.533 7.023l8.435 5.959a1.371 1.371 0 0 0 1.582 0l8.435-5.959a6.583 6.583 0 0 0 2.535-7.023zm-21.813.806 8.456 5.975-2.385 1.687-4.182-2.953a4.725 4.725 0 0 1-1.889-4.708v-.001zm10.053 10.477-2.387-1.687 2.387-1.687 2.386 1.686-2.386 1.688zm8.163-5.768-4.181 2.954-2.385-1.688 8.455-5.975a4.723 4.723 0 0 1-1.889 4.709zm-84.422-73.08c.389 0 .722-.138.998-.414.277-.276.415-.609.414-.998v-4.544c0-.389-.138-.721-.414-.997a1.365 1.365 0 0 0-.998-.415h-2.026a.893.893 0 0 0-.921.921v5.526a.893.893 0 0 0 .92.921h2.027zm-1.535-1.412v-4.544h1.535v4.544h-1.535zm4.574 1.412h2.334a.63.63 0 0 0 .476-.215.732.732 0 0 0 .199-.522.655.655 0 0 0-.199-.477.644.644 0 0 0-.477-.198h-1.842v-1.597h.89a.68.68 0 0 0 .706-.706.69.69 0 0 0-.198-.506.696.696 0 0 0-.507-.2h-.89v-1.535h1.81a.681.681 0 0 0 .706-.706.689.689 0 0 0-.198-.506.692.692 0 0 0-.507-.2h-2.303a.893.893 0 0 0-.92.921v5.526a.893.893 0 0 0 .92.921zm6.325-.031a1 1 0 0 0 .69-.262c.196-.174.323-.394.384-.659l1.474-5.526a.665.665 0 0 0-.123-.614.67.67 0 0 0-.553-.276.767.767 0 0 0-.445.138.637.637 0 0 0-.26.384l-1.168 4.513-1.197-4.513a.662.662 0 0 0-.245-.384.71.71 0 0 0-.43-.138.67.67 0 0 0-.553.276.665.665 0 0 0-.123.614l1.474 5.526c.061.266.19.486.384.661a.997.997 0 0 0 .69.26zm-13.54 7.399a2.366 2.366 0 0 1-1.733-.721 2.37 2.37 0 0 1-.722-1.735v-17.192c0-.676.24-1.254.722-1.734a2.37 2.37 0 0 1 1.734-.722H83.83c.675 0 1.254.24 1.735.722a2.36 2.36 0 0 1 .72 1.734v17.192a2.37 2.37 0 0 1-.72 1.735 2.36 2.36 0 0 1-1.735.721H66.639z"/><rect width="127.098" height="127.098" x="239.633" y="74.957" stroke="#3E3E41" stroke-dasharray="3.68 3.68" stroke-width=".921" rx="10.591"/><defs><linearGradient id="a" x1="302.783" x2="302.783" y1="115.566" y2="160" gradientUnits="userSpaceOnUse"><stop stop-color="#fff"/><stop offset="1" stop-color="#F5F5F5"/></linearGradient><linearGradient id="b" x1="302.783" x2="302.783" y1="115.566" y2="160" gradientUnits="userSpaceOnUse"><stop stop-color="#fff"/><stop offset="1" stop-color="#F5F5F5"/></linearGradient><linearGradient id="c" x1="302.783" x2="302.783" y1="115.566" y2="160" gradientUnits="userSpaceOnUse"><stop stop-color="#fff"/><stop offset="1" stop-color="#F5F5F5"/></linearGradient><linearGradient id="d" x1="302.538" x2="302.538" y1="131.807" y2="143.653" gradientUnits="userSpaceOnUse"><stop stop-color="#fff"/><stop offset="1" stop-color="#F5F5F5"/></linearGradient><clipPath id="e"><path fill="#fff" d="M132.337 48.498h29.472V77.97h-29.472z"/></clipPath></defs></svg>