<svg xmlns="http://www.w3.org/2000/svg" width="108" height="40" fill="none"><rect width="38" height="39" x="1" y="39" fill="#fff" fill-opacity=".13" rx="9.993" transform="rotate(-90 1 39)"/><path fill="url(#a)" d="M13.38 20.463a.543.543 0 0 0 .263-.478v-.068c0-3.12 1.996-5.77 4.772-6.725a.545.545 0 0 0 .373-.51V9.919a.494.494 0 0 0-.602-.493c-4.704 1.137-8.2 5.402-8.2 10.49 0 .57.044 1.13.128 1.677a.49.49 0 0 0 .738.34l2.527-1.47z"/><path fill="url(#b)" d="M11.895 25.098a.502.502 0 0 0-.176.705c1.91 2.951 5.215 4.901 8.973 4.901 3.45 0 6.518-1.644 8.476-4.197a.501.501 0 0 0-.154-.737l-2.305-1.34a.54.54 0 0 0-.68.126 7.01 7.01 0 0 1-5.337 2.464 7.026 7.026 0 0 1-5.804-3.07.543.543 0 0 0-.717-.176l-2.276 1.324z"/><path fill="url(#c)" d="M31.397 19.917c0 .883-.105 1.742-.304 2.565a.491.491 0 0 1-.73.301l-2.422-1.408a.546.546 0 0 1-.258-.544c.038-.3.058-.604.058-.914 0-3.313-2.251-6.097-5.296-6.882a.546.546 0 0 1-.415-.522V9.8c0-.312.272-.555.577-.5 4.998.91 8.79 5.317 8.79 10.617z"/><ellipse cx="20.574" cy="19.972" fill="url(#d)" rx="2.833" ry="2.854"/><path fill="#fff" d="m95.939 31.596-.232-2.61c.78-.115 1.453-.409 2.017-.88.572-.464 1.036-1.164 1.391-2.1l.198-.51-4.696-11.976h3.142l3.096 8.44 2.62-8.44h3.142l-4.301 12.313c-.673 1.925-1.531 3.32-2.575 4.186-1.035.873-2.303 1.399-3.802 1.577z"/><path fill="#fff" d="M89.578 21.88V8.405h3.153v13.427c0 .68.159 1.175.476 1.484.324.301.908.452 1.75.452h.395l-.244 2.342h-1.322c-1.383 0-2.43-.313-3.142-.939-.71-.634-1.066-1.731-1.066-3.293zm-12.924-8.36h3.153v1.102a6.395 6.395 0 0 1 1.589-.997c.58-.255 1.322-.383 2.226-.383.935 0 1.693.174 2.272.522.58.34 1.005.796 1.276 1.368.27.572.406 1.21.406 1.913v8.928h-3.154V17.22c0-.44-.116-.777-.348-1.009a1.734 1.734 0 0 0-.846-.475 4.01 4.01 0 0 0-.997-.127c-.38 0-.754.07-1.125.208-.371.14-.68.344-.928.615-.247.27-.37.61-.37 1.02v8.522h-3.154V13.521zm-12.09 8.556v-4.859c0-1.267.48-2.245 1.438-2.933.966-.688 2.257-1.032 3.873-1.032 1.917 0 3.277.367 4.081 1.101.812.735 1.218 1.728 1.218 2.98v3.015h-7.456v2.029c0 .734.19 1.198.568 1.391.38.186.943.279 1.693.279.897 0 1.496-.124 1.797-.372.31-.255.464-.765.464-1.53h2.922c0 1.538-.433 2.605-1.299 3.2-.865.595-2.18.893-3.942.893-1.012 0-1.925-.124-2.736-.371-.812-.255-1.453-.684-1.925-1.287-.464-.603-.696-1.438-.696-2.504zm7.63-3.653v-1.46c0-.465-.1-.8-.302-1.01-.193-.216-.46-.351-.8-.405a6.257 6.257 0 0 0-1.136-.093c-.634 0-1.167.097-1.6.29-.425.185-.638.61-.638 1.275v1.403h4.476zm-16.623 7.85c-1.523 0-2.779-.146-3.768-.44-.982-.302-1.75-.72-2.307-1.252a4.416 4.416 0 0 1-1.16-1.879A7.834 7.834 0 0 1 48 20.36v-5.716c0-.866.108-1.666.325-2.4a4.565 4.565 0 0 1 1.16-1.936c.556-.55 1.325-.974 2.306-1.276.99-.309 2.25-.464 3.78-.464 1.484 0 2.686.143 3.606.43.928.285 1.635.687 2.122 1.205a4.042 4.042 0 0 1 1.009 1.82 8.83 8.83 0 0 1 .278 2.273v.267l-3.386.255v-.684c0-1.152-.282-1.917-.846-2.296-.564-.379-1.492-.568-2.783-.568-1.275 0-2.28.2-3.014.603-.735.402-1.102 1.19-1.102 2.365v6.47c0 .78.163 1.38.487 1.797.333.41.804.692 1.415.847.618.146 1.356.22 2.214.22.874 0 1.6-.074 2.18-.22.58-.155 1.013-.437 1.299-.847.293-.417.44-1.016.44-1.797v-1.252h-3.455v-2.261h6.563v8.777h-1.82L60.231 24a3.29 3.29 0 0 1-.29.58c-.146.247-.386.502-.718.765-.333.255-.793.471-1.38.65-.588.185-1.345.277-2.273.277z"/><defs><linearGradient id="a" x1="20.692" x2="20.692" y1="9.293" y2="30.704" gradientUnits="userSpaceOnUse"><stop stop-color="#fff"/><stop offset="1" stop-color="#CACACA"/></linearGradient><linearGradient id="b" x1="20.692" x2="20.692" y1="9.293" y2="30.704" gradientUnits="userSpaceOnUse"><stop stop-color="#fff"/><stop offset="1" stop-color="#CACACA"/></linearGradient><linearGradient id="c" x1="20.692" x2="20.692" y1="9.293" y2="30.704" gradientUnits="userSpaceOnUse"><stop stop-color="#fff"/><stop offset="1" stop-color="#CACACA"/></linearGradient><linearGradient id="d" x1="20.574" x2="20.574" y1="17.117" y2="22.826" gradientUnits="userSpaceOnUse"><stop stop-color="#fff"/><stop offset="1" stop-color="#CACACA"/></linearGradient></defs></svg>