<svg width="342" height="530" viewBox="0 0 342 459" fill="none" xmlns="http://www.w3.org/2000/svg">
<g clip-path="url(#clip0_2902_53945)">
<path d="M100.652 88.8496H13.3369C6.29903 88.8496 0.59375 94.5549 0.59375 101.593V188.907C0.59375 195.945 6.29903 201.651 13.3369 201.651H100.652C107.689 201.651 113.395 195.945 113.395 188.907V101.593C113.395 94.5549 107.689 88.8496 100.652 88.8496Z" stroke="#3E3E41" stroke-width="0.70936" stroke-dasharray="3.28 3.28"/>
<path d="M30.0528 142.366V150.616H28.5229V142.366H25.5312V141.081H33.0444V142.366H30.0528ZM34.146 149.414H36.0175V144.77H34.146V143.568H37.5065V145.439H37.5884C37.6518 145.193 37.7436 144.956 37.8616 144.729C37.9797 144.501 38.13 144.305 38.3124 144.141C38.4949 143.969 38.7173 143.832 38.9818 143.732C39.2452 143.622 39.5555 143.568 39.9107 143.568H40.7576V144.988H39.3643C38.8178 144.988 38.3719 145.152 38.0255 145.48C37.6792 145.799 37.5065 146.231 37.5065 146.778V149.414H40.0609V150.616H34.146V149.414ZM47.7458 150.616C47.3185 150.616 46.9945 150.507 46.7759 150.288C46.5671 150.07 46.4393 149.783 46.3935 149.428H46.3252C46.2013 149.839 45.9349 150.193 45.5738 150.425C45.2187 150.662 44.764 150.78 44.2078 150.78C43.4887 150.78 42.915 150.594 42.4866 150.22C42.0592 149.838 41.8446 149.314 41.8446 148.649C41.8446 147.966 42.0953 147.447 42.5959 147.092C43.1062 146.728 43.8848 146.546 44.9318 146.546H46.2842V145.999C46.2842 145.043 45.7787 144.565 44.7679 144.565C44.3132 144.565 43.9444 144.656 43.6614 144.838C43.3756 145.014 43.1329 145.252 42.9511 145.535L42.0631 144.811C42.2641 144.428 42.6008 144.1 43.074 143.827C43.5482 143.545 44.158 143.404 44.9045 143.404C45.7973 143.404 46.4988 143.617 47.0082 144.046C47.5185 144.474 47.7732 145.093 47.7732 145.904V149.442H48.6611V150.616H47.7458ZM44.6313 149.687C45.1143 149.687 45.5104 149.578 45.8197 149.36C46.13 149.141 46.2842 148.859 46.2842 148.513V147.488H44.9601C43.8868 147.488 43.3482 147.811 43.3482 148.458V148.731C43.3482 149.05 43.4623 149.291 43.6897 149.455C43.918 149.61 44.2312 149.687 44.6313 149.687ZM53.4783 142.284C53.0958 142.284 52.8275 142.206 52.6723 142.051C52.5266 141.896 52.4481 141.69 52.4538 141.478V141.191C52.4538 140.963 52.5269 140.772 52.6723 140.617C52.8275 140.462 53.0919 140.385 53.4646 140.385C53.8471 140.385 54.1115 140.462 54.2569 140.617C54.3327 140.692 54.3924 140.781 54.4323 140.88C54.4723 140.979 54.4916 141.084 54.4891 141.191V141.478C54.4916 141.584 54.4723 141.69 54.4323 141.788C54.3924 141.887 54.3327 141.977 54.2569 142.051C54.1106 142.206 53.852 142.284 53.4783 142.284ZM50.3227 149.414H52.727V144.77H50.3227V143.568H54.2159V149.414H56.4699V150.616H50.3227V149.414ZM58.0086 150.616V143.568H59.4966V144.77H59.5649C59.6381 144.587 59.7298 144.415 59.8381 144.251C59.9572 144.078 60.0977 143.932 60.2616 143.814C60.4265 143.686 60.6168 143.586 60.8353 143.513C61.0539 143.44 61.3095 143.404 61.6013 143.404C62.3106 143.404 62.8853 143.636 63.3225 144.1C63.7596 144.565 63.9772 145.225 63.9772 146.081V150.616H62.4892V146.3C62.4892 145.18 62.0013 144.619 61.0275 144.619C60.8375 144.619 60.6485 144.647 60.4665 144.701C60.2908 144.744 60.1242 144.818 59.9747 144.92C59.8295 145.02 59.7082 145.15 59.6196 145.302C59.5353 145.467 59.4931 145.65 59.4966 145.835V150.616H58.0086ZM69.3135 142.284C68.931 142.284 68.6627 142.206 68.5075 142.051C68.3619 141.896 68.2834 141.69 68.289 141.478V141.191C68.289 140.963 68.3621 140.772 68.5075 140.617C68.6627 140.462 68.9271 140.385 69.2998 140.385C69.6823 140.385 69.9467 140.462 70.0921 140.617C70.1679 140.692 70.2276 140.781 70.2675 140.88C70.3075 140.979 70.3268 141.084 70.3244 141.191V141.478C70.3268 141.584 70.3075 141.69 70.2675 141.788C70.2276 141.887 70.1679 141.977 70.0921 142.051C69.9458 142.206 69.6872 142.284 69.3135 142.284ZM66.158 149.414H68.5622V144.77H66.158V143.568H70.0511V149.414H72.3051V150.616H66.158V149.414ZM73.8438 150.616V143.568H75.3328V144.77H75.4011C75.4738 144.588 75.5654 144.414 75.6743 144.251C75.7886 144.081 75.932 143.933 76.0978 143.814C76.2617 143.686 76.453 143.586 76.6715 143.513C76.8901 143.44 77.1447 143.404 77.4365 143.404C78.1468 143.404 78.7206 143.636 79.1577 144.1C79.5948 144.565 79.8134 145.225 79.8134 146.081V150.616H78.3244V146.3C78.3244 145.18 77.8365 144.619 76.8628 144.619C76.6715 144.619 76.4842 144.647 76.3027 144.701C76.127 144.744 75.9604 144.818 75.8109 144.92C75.6655 145.019 75.5441 145.15 75.4557 145.302C75.3715 145.467 75.3293 145.65 75.3328 145.835V150.616H73.8438ZM88.3999 151.381C88.3999 152.11 88.0945 152.647 87.4846 152.993C86.8748 153.34 85.9459 153.512 84.6979 153.512C84.0881 153.512 83.5729 153.471 83.1543 153.389C82.7445 153.316 82.4079 153.207 82.1434 153.062C81.9116 152.938 81.7179 152.754 81.5834 152.529C81.4716 152.309 81.4154 152.065 81.4194 151.818C81.4194 151.436 81.5238 151.135 81.7336 150.917C81.9522 150.707 82.2576 150.553 82.6489 150.452V150.316C82.4295 150.237 82.2326 150.105 82.0751 149.933C81.9385 149.769 81.8702 149.556 81.8702 149.291C81.8702 148.945 81.9883 148.685 82.2254 148.513C82.4625 148.33 82.7669 148.194 83.1406 148.103V148.035C82.7344 147.853 82.3885 147.559 82.1434 147.188C81.9063 146.824 81.7883 146.387 81.7883 145.876C81.7883 145.503 81.8566 145.166 81.9932 144.865C82.1298 144.556 82.321 144.296 82.5669 144.087C82.8216 143.868 83.1231 143.699 83.4685 143.581C83.8237 143.463 84.2198 143.404 84.6569 143.404C85.1487 143.404 85.5907 143.481 85.982 143.636V143.404C85.982 143.13 86.06 142.903 86.2142 142.721C86.3694 142.538 86.6055 142.447 86.9245 142.447H88.2086V143.622H86.5694V143.95C86.8787 144.16 87.1158 144.428 87.2797 144.756C87.4436 145.075 87.5256 145.448 87.5256 145.876C87.5256 146.25 87.4573 146.591 87.3207 146.901C87.1841 147.201 86.9889 147.461 86.7333 147.679C86.4874 147.889 86.1869 148.053 85.8317 148.171C85.4508 148.285 85.0546 148.341 84.6569 148.335C84.3476 148.335 84.0559 148.308 83.7827 148.253C83.6075 148.304 83.4415 148.382 83.2909 148.485C83.214 148.532 83.1508 148.599 83.1077 148.678C83.0645 148.757 83.0429 148.846 83.045 148.936C83.045 149.155 83.1494 149.291 83.3592 149.346C83.569 149.401 83.8276 149.428 84.1379 149.428H85.7224C86.6689 149.428 87.3519 149.61 87.7715 149.974C88.1911 150.329 88.3999 150.799 88.3999 151.381ZM87.0065 151.477C87.009 151.365 86.9841 151.255 86.9342 151.155C86.8842 151.055 86.8105 150.968 86.7196 150.903C86.5284 150.767 86.183 150.698 85.6815 150.698H83.2363C82.8899 150.862 82.7172 151.127 82.7172 151.491C82.7172 151.755 82.8265 151.982 83.045 152.174C83.2724 152.365 83.6461 152.46 84.1652 152.46H85.2717C85.8366 152.46 86.264 152.374 86.5557 152.201C86.8562 152.037 87.0065 151.796 87.0065 151.477ZM84.6569 147.311C85.1399 147.311 85.4951 147.196 85.7224 146.969C85.9498 146.742 86.064 146.436 86.064 146.054V145.685C86.064 145.302 85.9498 144.997 85.7224 144.77C85.4951 144.542 85.1399 144.428 84.6569 144.428C84.174 144.428 83.8188 144.542 83.5914 144.77C83.3641 144.997 83.2499 145.302 83.2499 145.685V146.054C83.2499 146.436 83.3641 146.742 83.5914 146.969C83.8188 147.196 84.174 147.311 84.6569 147.311Z" fill="#A1A1A8"/>
<path d="M214.413 202H127.097C119.864 202 114 207.864 114 215.097V302.413C114 309.646 119.864 315.51 127.097 315.51H214.413C221.646 315.51 227.51 309.646 227.51 302.413V215.097C227.51 207.864 221.646 202 214.413 202Z" fill="#1C1C1C"/>
<path d="M155.975 258.545C155.975 260.564 155.605 262.3 154.867 263.753C154.128 265.199 153.115 266.313 151.829 267.095C150.549 267.871 149.093 268.259 147.462 268.259C145.824 268.259 144.363 267.871 143.076 267.095C141.796 266.313 140.786 265.196 140.048 263.744C139.309 262.291 138.94 260.558 138.94 258.545C138.94 256.527 139.309 254.794 140.048 253.347C140.786 251.895 141.796 250.781 143.076 250.005C144.363 249.223 145.824 248.832 147.462 248.832C149.093 248.832 150.549 249.223 151.829 250.005C153.115 250.781 154.128 251.895 154.867 253.347C155.605 254.794 155.975 256.527 155.975 258.545ZM153.149 258.545C153.149 257.007 152.9 255.711 152.401 254.658C151.909 253.6 151.232 252.799 150.37 252.258C149.515 251.71 148.545 251.436 147.462 251.436C146.372 251.436 145.4 251.71 144.544 252.258C143.689 252.799 143.011 253.6 142.513 254.658C142.02 255.711 141.774 257.007 141.774 258.545C141.774 260.084 142.02 261.383 142.513 262.442C143.011 263.494 143.689 264.295 144.544 264.842C145.4 265.384 146.372 265.655 147.462 265.655C148.545 265.655 149.515 265.384 150.37 264.842C151.232 264.295 151.909 263.494 152.401 262.442C152.9 261.383 153.149 260.084 153.149 258.545ZM159.31 268V253.818H161.978V256.071H162.126C162.384 255.308 162.84 254.708 163.492 254.271C164.151 253.827 164.896 253.606 165.727 253.606C165.899 253.606 166.102 253.612 166.336 253.624C166.576 253.637 166.764 253.652 166.899 253.67V256.311C166.789 256.28 166.592 256.246 166.309 256.21C166.025 256.166 165.742 256.145 165.459 256.145C164.807 256.145 164.225 256.283 163.714 256.56C163.209 256.831 162.809 257.21 162.514 257.696C162.218 258.176 162.071 258.724 162.071 259.339V268H159.31ZM169.51 268V249.091H172.271V256.117H172.437C172.597 255.822 172.828 255.48 173.129 255.092C173.431 254.705 173.85 254.366 174.385 254.077C174.921 253.781 175.628 253.634 176.509 253.634C177.653 253.634 178.675 253.923 179.574 254.501C180.473 255.08 181.177 255.914 181.688 257.004C182.205 258.093 182.464 259.404 182.464 260.937C182.464 262.469 182.208 263.784 181.698 264.879C181.187 265.969 180.485 266.809 179.592 267.4C178.7 267.985 177.681 268.277 176.536 268.277C175.675 268.277 174.97 268.132 174.422 267.843C173.88 267.554 173.456 267.215 173.148 266.827C172.84 266.44 172.603 266.095 172.437 265.793H172.206V268H169.51ZM172.215 260.909C172.215 261.906 172.36 262.78 172.649 263.531C172.939 264.282 173.357 264.87 173.905 265.295C174.453 265.713 175.124 265.923 175.918 265.923C176.743 265.923 177.432 265.704 177.986 265.267C178.54 264.824 178.958 264.224 179.242 263.467C179.531 262.71 179.676 261.857 179.676 260.909C179.676 259.973 179.534 259.133 179.251 258.388C178.974 257.644 178.555 257.056 177.995 256.625C177.441 256.194 176.749 255.979 175.918 255.979C175.118 255.979 174.44 256.185 173.886 256.597C173.339 257.01 172.923 257.585 172.64 258.324C172.357 259.062 172.215 259.924 172.215 260.909ZM185.564 268V253.818H188.324V268H185.564ZM186.958 251.63C186.478 251.63 186.065 251.47 185.721 251.15C185.382 250.824 185.213 250.436 185.213 249.987C185.213 249.531 185.382 249.143 185.721 248.823C186.065 248.497 186.478 248.334 186.958 248.334C187.438 248.334 187.847 248.497 188.186 248.823C188.531 249.143 188.703 249.531 188.703 249.987C188.703 250.436 188.531 250.824 188.186 251.15C187.847 251.47 187.438 251.63 186.958 251.63ZM191.743 268V266.107L199.425 256.348V256.219H191.992V253.818H202.869V255.831L195.482 265.47V265.599H203.127V268H191.743Z" fill="white"/>
<path d="M214.331 -25.8008H127.017C119.979 -25.8008 114.273 -20.0955 114.273 -13.0577V74.257C114.273 81.2949 119.979 87.0001 127.017 87.0001H214.331C221.369 87.0001 227.074 81.2949 227.074 74.257V-13.0577C227.074 -20.0955 221.369 -25.8008 214.331 -25.8008Z" stroke="#3E3E41" stroke-width="0.70936" stroke-dasharray="3.28 3.28"/>
<path d="M156.816 21.1594L156.857 18.2907H156.748L154.835 23.1947L152.923 18.2907H152.814L152.855 21.1594V25.7219H151.502V16.187H153.374L154.835 19.9709H154.931L156.406 16.187H158.169V25.7219H156.816V21.1594ZM162.754 25.8858C162.272 25.8929 161.794 25.8047 161.347 25.6263C160.946 25.4602 160.587 25.2084 160.295 24.8886C160 24.5497 159.777 24.1547 159.639 23.7275C159.478 23.2337 159.4 22.7168 159.407 22.1975C159.407 21.6326 159.484 21.1233 159.639 20.6676C159.793 20.2119 160.012 19.8255 160.295 19.5065C160.587 19.1867 160.946 18.9349 161.347 18.7688C161.794 18.5906 162.272 18.5023 162.754 18.5093C163.273 18.5093 163.737 18.5961 164.147 18.7688C164.549 18.9308 164.909 19.1832 165.199 19.5065C165.49 19.8255 165.713 20.2119 165.868 20.6676C166.022 21.1233 166.1 21.6336 166.1 22.1975C166.107 22.7168 166.029 23.2336 165.868 23.7275C165.728 24.1568 165.5 24.5522 165.199 24.8886C164.91 25.2122 164.55 25.4646 164.147 25.6263C163.737 25.799 163.273 25.8858 162.754 25.8858ZM162.754 24.711C163.3 24.711 163.732 24.5471 164.051 24.2193C164.379 23.8826 164.543 23.386 164.543 22.7303V21.6648C164.543 21.0091 164.379 20.5173 164.051 20.1895C163.732 19.8529 163.3 19.6841 162.754 19.6841C162.207 19.6841 161.77 19.8529 161.442 20.1895C161.123 20.5173 160.964 21.0091 160.964 21.6648V22.7303C160.964 23.386 161.123 23.8817 161.442 24.2193C161.77 24.5471 162.207 24.711 162.754 24.711ZM172.201 24.5198H172.119C171.931 24.922 171.644 25.2699 171.285 25.5307C170.94 25.7678 170.507 25.8858 169.988 25.8858C169.159 25.8858 168.499 25.5765 168.007 24.9569C167.515 24.3373 167.269 23.4182 167.269 22.1975C167.269 20.9779 167.515 20.0578 168.007 19.4382C168.499 18.8186 169.159 18.5093 169.988 18.5093C170.507 18.5093 170.94 18.6322 171.285 18.8781C171.632 19.1152 171.91 19.4469 172.119 19.8753H172.201V15.6133H173.69V25.7219H172.201V24.5198ZM170.602 24.6701C170.821 24.6701 171.026 24.6427 171.217 24.5881C171.408 24.5335 171.577 24.4515 171.723 24.3422C171.874 24.2306 171.996 24.0843 172.08 23.9155C172.163 23.7467 172.204 23.5605 172.201 23.3723V21.0228C172.201 20.8042 172.156 20.6178 172.064 20.4627C171.984 20.301 171.867 20.1605 171.723 20.0529C171.571 19.9405 171.399 19.8571 171.217 19.807C171.017 19.7512 170.81 19.7236 170.602 19.725C170.038 19.725 169.601 19.8977 169.291 20.2441C168.99 20.5905 168.84 21.0501 168.84 21.6238V22.7713C168.84 23.345 168.99 23.8056 169.291 24.151C169.601 24.4974 170.038 24.6701 170.602 24.6701ZM178.739 25.8858C178.244 25.8936 177.752 25.8055 177.291 25.6263C176.88 25.4653 176.511 25.2131 176.212 24.8886C175.912 24.5564 175.684 24.1657 175.543 23.7412C175.382 23.2474 175.303 22.7305 175.31 22.2112C175.31 21.6463 175.387 21.1369 175.543 20.6813C175.689 20.2549 175.917 19.8608 176.212 19.5201C176.501 19.1935 176.861 18.9366 177.264 18.7688C177.674 18.5961 178.128 18.5093 178.63 18.5093C179.122 18.5093 179.567 18.5961 179.968 18.7688C180.369 18.9327 180.71 19.1689 180.993 19.4791C181.275 19.7885 181.489 20.1573 181.635 20.5856C181.789 21.014 181.867 21.4872 181.867 22.0063V22.5664H176.813V22.7986C176.813 23.3548 176.986 23.8095 177.332 24.1646C177.677 24.511 178.156 24.6837 178.766 24.6837C179.221 24.6837 179.608 24.5881 179.927 24.3969C180.255 24.1968 180.519 23.9324 180.72 23.6046L181.649 24.4242C181.412 24.834 181.048 25.1804 180.556 25.4624C180.073 25.7453 179.467 25.8858 178.739 25.8858ZM178.63 19.6431C178.377 19.641 178.127 19.6873 177.892 19.7797C177.674 19.8704 177.482 20.0031 177.318 20.1758C177.159 20.3463 177.034 20.5457 176.95 20.7632C176.858 20.9906 176.813 21.2413 176.813 21.5145V21.6102H180.351V21.4735C180.351 20.9174 180.191 20.4763 179.873 20.1485C179.563 19.8119 179.149 19.6431 178.63 19.6431ZM183.432 24.5198H185.768V16.8154H183.432V15.6133H187.257V24.5198H189.593V25.7219H183.432V24.5198ZM133.064 41.6498L133.105 38.7812H132.996L131.083 43.6852L129.171 38.7812H129.061L129.102 41.6498V46.2124H127.75V36.6775H129.621L131.083 40.4614H131.179L132.654 36.6775H134.416V46.2124H133.064V41.6498ZM141.623 46.2124C141.195 46.2124 140.872 46.1031 140.653 45.8845C140.443 45.6659 140.317 45.3791 140.271 45.0239H140.202C140.066 45.4523 139.815 45.785 139.451 46.0211C139.096 46.2582 138.64 46.3763 138.085 46.3763C137.366 46.3763 136.792 46.1899 136.364 45.8162C135.935 45.4337 135.722 44.9097 135.722 44.2453C135.722 43.5623 135.973 43.0432 136.473 42.688C136.983 42.3241 137.762 42.1416 138.809 42.1416H140.161V41.5952C140.161 40.639 139.656 40.1608 138.645 40.1608C138.189 40.1608 137.821 40.2516 137.539 40.434C137.253 40.6105 137.01 40.8485 136.828 41.1307L135.94 40.4067C136.14 40.0242 136.478 39.6964 136.951 39.4232C137.424 39.1402 138.035 38.9997 138.782 38.9997C139.674 38.9997 140.375 39.2144 140.885 39.6418C141.396 40.0701 141.65 40.6887 141.65 41.4996V45.0376H142.538V46.2124H141.623ZM138.508 45.2835C138.991 45.2835 139.388 45.1742 139.697 44.9556C140.006 44.737 140.161 44.4551 140.161 44.1087V43.0841H138.836C137.762 43.0841 137.224 43.4071 137.224 44.054V44.3272C137.224 44.6463 137.339 44.8873 137.566 45.0512C137.793 45.2064 138.107 45.2835 138.508 45.2835ZM143.858 45.0103H145.73V40.3657H143.858V39.1636H147.219V41.0351H147.301C147.364 40.7886 147.456 40.5502 147.574 40.3248C147.687 40.1032 147.84 39.9042 148.025 39.7374C148.206 39.5647 148.43 39.4281 148.694 39.3276C148.958 39.2183 149.268 39.1636 149.623 39.1636H150.47V40.5843H149.077C148.53 40.5843 148.083 40.7482 147.738 41.0761C147.392 41.3951 147.219 41.8274 147.219 42.3738V45.0103H149.773V46.2124H143.858V45.0103ZM151.939 36.1037H153.428V42.2099H153.497L154.603 41.0761L156.584 39.1636H158.346L155.491 41.9367L158.66 46.2124H156.871L154.412 42.7836L153.428 43.6989V46.2124H151.939V36.1037ZM162.904 46.3763C162.409 46.3841 161.917 46.296 161.456 46.1167C161.045 45.9558 160.676 45.7035 160.377 45.3791C160.077 45.0468 159.849 44.6562 159.707 44.2316C159.546 43.7379 159.468 43.2209 159.475 42.7017C159.475 42.1367 159.552 41.6274 159.707 41.1717C159.854 40.7454 160.081 40.3512 160.377 40.0106C160.666 39.6839 161.026 39.4271 161.429 39.2593C161.838 39.0866 162.293 38.9997 162.795 38.9997C163.286 38.9997 163.732 39.0866 164.133 39.2593C164.533 39.4232 164.875 39.6593 165.158 39.9696C165.44 40.2789 165.653 40.6477 165.8 41.0761C165.954 41.5044 166.032 41.9777 166.032 42.4968V43.0568H160.978V43.2891C160.978 43.8452 161.15 44.2999 161.497 44.6551C161.842 45.0015 162.32 45.1742 162.931 45.1742C163.386 45.1742 163.773 45.0785 164.092 44.8873C164.42 44.6873 164.684 44.4229 164.885 44.095L165.813 44.9146C165.576 45.3244 165.212 45.6708 164.721 45.9528C164.238 46.2358 163.632 46.3763 162.904 46.3763ZM162.795 40.1335C162.542 40.1314 162.292 40.1778 162.057 40.2701C161.838 40.3609 161.647 40.4936 161.483 40.6663C161.324 40.8368 161.199 41.0361 161.114 41.2537C161.023 41.481 160.978 41.7318 160.978 42.005V42.1006H164.516V41.964C164.516 41.4078 164.356 40.9668 164.038 40.639C163.727 40.3023 163.314 40.1335 162.795 40.1335ZM171.094 46.2124C170.476 46.2124 170.02 46.0484 169.728 45.7206C169.437 45.384 169.291 44.9507 169.291 44.4229V40.3657H167.119V39.1636H168.663C168.927 39.1636 169.113 39.1139 169.223 39.0134C169.332 38.9041 169.387 38.7129 169.387 38.4396V36.6775H170.78V39.1636H173.785V40.3657H170.78V45.0103H173.785V46.2124H171.094ZM175.57 39.1636H177.059V40.3657H177.141C177.326 39.9659 177.613 39.622 177.974 39.3685C178.319 39.1227 178.753 38.9997 179.272 38.9997C180.1 38.9997 180.761 39.309 181.253 39.9286C181.744 40.5482 181.99 41.4674 181.99 42.688C181.99 43.9077 181.744 44.8278 181.253 45.4474C180.761 46.067 180.1 46.3763 179.272 46.3763C178.753 46.3763 178.319 46.2582 177.974 46.0211C177.615 45.7603 177.328 45.4125 177.141 45.0103H177.059V48.9444H175.57V39.1636ZM178.657 45.1605C179.221 45.1605 179.654 44.9878 179.955 44.6414C180.264 44.295 180.419 43.8355 180.419 43.2617V42.1143C180.419 41.5405 180.264 41.08 179.955 40.7346C179.654 40.3882 179.221 40.2155 178.657 40.2155C178.439 40.2155 178.234 40.2428 178.042 40.2974C177.851 40.3521 177.682 40.434 177.537 40.5433C177.391 40.6526 177.272 40.7892 177.182 40.9531C177.1 41.1083 177.059 41.2946 177.059 41.5132V43.8628C177.059 44.0813 177.1 44.2726 177.182 44.4365C177.272 44.5917 177.391 44.7234 177.537 44.8327C177.682 44.9419 177.851 45.0239 178.042 45.0786C178.234 45.1332 178.439 45.1605 178.657 45.1605ZM183.432 45.0103H185.768V37.3058H183.432V36.1037H187.257V45.0103H189.593V46.2124H183.432V45.0103ZM197.047 46.2124C196.618 46.2124 196.295 46.1031 196.077 45.8845C195.867 45.6659 195.74 45.3791 195.694 45.0239H195.626C195.489 45.4523 195.239 45.785 194.875 46.0211C194.52 46.2582 194.064 46.3763 193.509 46.3763C192.79 46.3763 192.216 46.1899 191.788 45.8162C191.359 45.4337 191.146 44.9097 191.146 44.2453C191.146 43.5623 191.396 43.0432 191.897 42.688C192.407 42.3241 193.186 42.1416 194.233 42.1416H195.585V41.5952C195.585 40.639 195.08 40.1608 194.069 40.1608C193.613 40.1608 193.244 40.2516 192.962 40.434C192.677 40.6105 192.434 40.8485 192.252 41.1307L191.364 40.4067C191.564 40.0242 191.902 39.6964 192.375 39.4232C192.848 39.1402 193.459 38.9997 194.205 38.9997C195.098 38.9997 195.799 39.2144 196.309 39.6418C196.819 40.0701 197.074 40.6887 197.074 41.4996V45.0376H197.962V46.2124H197.047ZM193.932 45.2835C194.415 45.2835 194.811 45.1742 195.121 44.9556C195.43 44.737 195.585 44.4551 195.585 44.1087V43.0841H194.26C193.186 43.0841 192.648 43.4071 192.648 44.054V44.3272C192.648 44.6463 192.762 44.8873 192.99 45.0512C193.217 45.2064 193.531 45.2835 193.932 45.2835ZM202.601 46.3763C202.115 46.384 201.632 46.2958 201.18 46.1167C200.78 45.9504 200.421 45.6986 200.128 45.3791C199.834 45.0396 199.611 44.6448 199.472 44.218C199.321 43.7223 199.247 43.2062 199.254 42.688C199.254 42.123 199.327 41.6137 199.472 41.158C199.611 40.7312 199.834 40.3364 200.128 39.9969C200.421 39.6774 200.78 39.4256 201.18 39.2593C201.6 39.0866 202.068 38.9997 202.587 38.9997C203.316 38.9997 203.898 39.1549 204.336 39.4642C204.774 39.7638 205.119 40.1802 205.333 40.6663L204.172 41.2946C204.057 40.9829 203.852 40.712 203.584 40.516C203.33 40.3248 202.997 40.2291 202.587 40.2291C202.023 40.2291 201.586 40.4019 201.276 40.7482C200.966 41.0849 200.811 41.5357 200.811 42.1006V43.2754C200.811 43.8316 200.966 44.2814 201.276 44.6278C201.586 44.9741 202.032 45.1469 202.614 45.1469C203.051 45.1469 203.407 45.0464 203.68 44.8463C203.963 44.6463 204.185 44.3731 204.349 44.0267L205.442 44.6961C205.214 45.1887 204.855 45.6092 204.404 45.9118C203.939 46.2211 203.338 46.3763 202.601 46.3763ZM210.409 46.3763C209.915 46.384 209.423 46.2959 208.961 46.1167C208.551 45.9555 208.182 45.7033 207.882 45.3791C207.583 45.0466 207.355 44.656 207.213 44.2316C207.052 43.7379 206.974 43.2209 206.981 42.7017C206.981 42.1367 207.058 41.6274 207.213 41.1717C207.377 40.716 207.6 40.3296 207.882 40.0106C208.172 39.6841 208.531 39.4273 208.934 39.2593C209.344 39.0866 209.8 38.9997 210.3 38.9997C210.792 38.9997 211.238 39.0866 211.639 39.2593C212.04 39.4232 212.381 39.6593 212.663 39.9696C212.945 40.2789 213.16 40.6477 213.305 41.0761C213.461 41.5044 213.538 41.9777 213.538 42.4968V43.0568H208.483V43.2891C208.483 43.8452 208.656 44.2999 209.002 44.6551C209.349 45.0015 209.827 45.1742 210.437 45.1742C210.892 45.1742 211.279 45.0785 211.598 44.8873C211.922 44.6909 212.194 44.4191 212.39 44.095L213.319 44.9146C213.082 45.3244 212.718 45.6708 212.226 45.9528C211.743 46.2358 211.138 46.3763 210.409 46.3763ZM210.3 40.1335C210.048 40.1314 209.797 40.1778 209.563 40.2701C209.344 40.3609 209.153 40.4936 208.989 40.6663C208.83 40.8368 208.704 41.0361 208.62 41.2537C208.527 41.4931 208.48 41.7481 208.483 42.005V42.1006H212.021V41.964C212.021 41.4078 211.862 40.9668 211.543 40.639C211.234 40.3023 210.819 40.1335 210.3 40.1335Z" fill="#A1A1A8"/>
<path d="M327.675 88.8496H240.36C233.322 88.8496 227.617 94.5549 227.617 101.593V188.907C227.617 195.945 233.322 201.651 240.36 201.651H327.675C334.713 201.651 340.418 195.945 340.418 188.907V101.593C340.418 94.5549 334.713 88.8496 327.675 88.8496Z" stroke="#3E3E41" stroke-width="0.70936" stroke-dasharray="3.28 3.28"/>
<path d="M254.88 140.37H253.363V130.835H256.929C257.839 130.835 258.532 131.09 259.005 131.6C259.488 132.111 259.729 132.811 259.729 133.704C259.729 134.433 259.552 135.034 259.196 135.507C258.841 135.98 258.331 136.272 257.666 136.382L259.866 140.37H258.172L256.15 136.518H254.88V140.37ZM256.71 135.289C257.658 135.289 258.131 134.856 258.131 133.991V133.404C258.131 132.538 257.658 132.106 256.71 132.106H254.88V135.289H256.71ZM264.381 140.534C263.887 140.542 263.395 140.454 262.933 140.275C262.523 140.113 262.154 139.861 261.854 139.537C261.555 139.204 261.327 138.814 261.185 138.39C261.024 137.896 260.946 137.379 260.953 136.86C260.953 136.295 261.031 135.785 261.185 135.33C261.349 134.874 261.572 134.488 261.854 134.169C262.144 133.842 262.503 133.585 262.906 133.417C263.316 133.245 263.772 133.158 264.272 133.158C264.764 133.158 265.211 133.245 265.611 133.417C266.001 133.574 266.352 133.817 266.635 134.128C266.918 134.437 267.132 134.806 267.277 135.234C267.433 135.662 267.51 136.136 267.51 136.655V137.215H262.455V137.447C262.455 138.002 262.629 138.458 262.974 138.813C263.321 139.159 263.799 139.332 264.409 139.332C264.864 139.332 265.252 139.237 265.57 139.045C265.898 138.845 266.162 138.581 266.362 138.253L267.291 139.073C267.055 139.482 266.69 139.829 266.198 140.111C265.716 140.393 265.11 140.534 264.381 140.534ZM264.272 134.291C264.009 134.291 263.763 134.337 263.534 134.428C263.316 134.519 263.125 134.652 262.961 134.824C262.802 134.995 262.677 135.195 262.592 135.412C262.499 135.651 262.452 135.906 262.455 136.163V136.259H265.993V136.122C265.993 135.567 265.834 135.125 265.515 134.797C265.206 134.46 264.791 134.291 264.272 134.291ZM272.163 140.534C271.398 140.534 270.737 140.411 270.182 140.165C269.636 139.92 269.194 139.592 268.857 139.182L269.772 138.362C270.065 138.686 270.418 138.951 270.811 139.141C271.202 139.314 271.662 139.4 272.19 139.4C272.673 139.4 273.06 139.318 273.351 139.155C273.493 139.084 273.61 138.975 273.69 138.839C273.77 138.703 273.809 138.547 273.802 138.39C273.806 138.262 273.778 138.135 273.72 138.021C273.665 137.92 273.585 137.835 273.488 137.775C273.378 137.707 273.258 137.656 273.133 137.625C272.998 137.587 272.861 137.56 272.723 137.543L271.603 137.365C271.321 137.327 271.042 137.268 270.77 137.187C270.5 137.111 270.242 136.996 270.005 136.846C269.784 136.689 269.598 136.49 269.458 136.259C269.322 136.021 269.253 135.721 269.253 135.357C269.253 134.638 269.526 134.091 270.073 133.718C270.628 133.344 271.357 133.158 272.259 133.158C272.914 133.158 273.479 133.258 273.952 133.458C274.409 133.632 274.82 133.908 275.155 134.264L274.321 135.138C274.139 134.929 273.879 134.737 273.543 134.565C273.206 134.382 272.759 134.291 272.204 134.291C271.212 134.291 270.715 134.606 270.715 135.234C270.715 135.535 270.819 135.744 271.029 135.862C271.248 135.972 271.502 136.045 271.794 136.081L272.914 136.259C273.196 136.304 273.474 136.363 273.748 136.436C274.03 136.509 274.28 136.623 274.499 136.778C274.726 136.923 274.909 137.114 275.045 137.351C275.191 137.589 275.264 137.889 275.264 138.253C275.264 138.963 274.986 139.523 274.431 139.933C273.884 140.334 273.128 140.534 272.163 140.534ZM280.217 140.534C279.722 140.542 279.23 140.454 278.769 140.275C278.358 140.113 277.989 139.861 277.689 139.537C277.39 139.204 277.163 138.814 277.02 138.39C276.86 137.896 276.781 137.379 276.788 136.86C276.788 136.295 276.866 135.785 277.02 135.33C277.184 134.874 277.407 134.488 277.689 134.169C277.979 133.842 278.339 133.585 278.741 133.417C279.151 133.245 279.607 133.158 280.107 133.158C280.599 133.158 281.046 133.245 281.446 133.417C281.837 133.574 282.187 133.817 282.471 134.128C282.754 134.437 282.967 134.806 283.113 135.234C283.268 135.662 283.345 136.136 283.345 136.655V137.215H278.291V137.447C278.291 138.002 278.464 138.458 278.81 138.813C279.156 139.159 279.634 139.332 280.244 139.332C280.7 139.332 281.087 139.237 281.405 139.045C281.733 138.845 281.997 138.581 282.197 138.253L283.126 139.073C282.89 139.482 282.525 139.829 282.033 140.111C281.551 140.393 280.946 140.534 280.217 140.534ZM280.107 134.291C279.844 134.291 279.598 134.337 279.37 134.428C279.151 134.519 278.96 134.652 278.796 134.824C278.637 134.995 278.512 135.195 278.427 135.412C278.334 135.651 278.288 135.906 278.291 136.163V136.259H281.829V136.122C281.829 135.567 281.67 135.125 281.35 134.797C281.041 134.46 280.626 134.291 280.107 134.291ZM290.607 140.37C290.179 140.37 289.856 140.261 289.637 140.042C289.428 139.824 289.301 139.537 289.255 139.182H289.187C289.05 139.61 288.799 139.942 288.435 140.179C288.08 140.416 287.624 140.534 287.069 140.534C286.35 140.534 285.776 140.348 285.348 139.974C284.92 139.592 284.706 139.068 284.706 138.403C284.706 137.72 284.957 137.201 285.457 136.846C285.968 136.482 286.746 136.3 287.793 136.3H289.146V135.753C289.146 134.797 288.64 134.319 287.629 134.319C287.174 134.319 286.805 134.41 286.523 134.592C286.237 134.768 285.994 135.006 285.812 135.289L284.925 134.565C285.125 134.182 285.462 133.854 285.935 133.581C286.409 133.299 287.019 133.158 287.766 133.158C288.659 133.158 289.359 133.371 289.87 133.8C290.38 134.228 290.635 134.847 290.635 135.658V139.196H291.522V140.37H290.607ZM287.493 139.441C287.976 139.441 288.372 139.332 288.681 139.114C288.99 138.895 289.146 138.613 289.146 138.267V137.242H287.821C286.746 137.242 286.209 137.565 286.209 138.212V138.485C286.209 138.804 286.323 139.045 286.55 139.209C286.777 139.364 287.092 139.441 287.493 139.441ZM292.843 139.168H294.714V134.524H292.843V133.322H296.203V135.193H296.285C296.348 134.947 296.44 134.708 296.558 134.483C296.676 134.255 296.827 134.059 297.009 133.895C297.191 133.723 297.414 133.586 297.678 133.486C297.942 133.376 298.252 133.322 298.607 133.322H299.454V134.742H298.061C297.514 134.742 297.068 134.906 296.722 135.234C296.376 135.553 296.203 135.985 296.203 136.532V139.168H298.758V140.37H292.843V139.168ZM304.079 140.534C303.593 140.542 303.11 140.454 302.659 140.275C302.258 140.109 301.899 139.857 301.607 139.537C301.313 139.198 301.09 138.803 300.951 138.376C300.8 137.88 300.726 137.364 300.732 136.846C300.732 136.281 300.806 135.772 300.951 135.316C301.09 134.889 301.313 134.494 301.607 134.155C301.899 133.835 302.258 133.583 302.659 133.417C303.106 133.239 303.584 133.151 304.066 133.158C304.794 133.158 305.377 133.313 305.814 133.622C306.26 133.931 306.593 134.332 306.811 134.824L305.65 135.453C305.535 135.141 305.331 134.87 305.063 134.674C304.808 134.483 304.475 134.387 304.066 134.387C303.501 134.387 303.063 134.56 302.754 134.906C302.445 135.243 302.29 135.694 302.29 136.259V137.433C302.29 137.989 302.445 138.439 302.754 138.786C303.063 139.132 303.51 139.305 304.093 139.305C304.53 139.305 304.885 139.204 305.158 139.004C305.44 138.804 305.664 138.531 305.828 138.185L306.921 138.854C306.692 139.347 306.333 139.767 305.882 140.07C305.418 140.379 304.817 140.534 304.079 140.534ZM308.787 130.262H310.276V134.524H310.344C310.417 134.341 310.508 134.169 310.618 134.005C310.736 133.832 310.877 133.686 311.041 133.568C311.205 133.44 311.396 133.34 311.615 133.267C311.833 133.194 312.088 133.158 312.38 133.158C313.09 133.158 313.664 133.39 314.101 133.854C314.538 134.319 314.757 134.979 314.757 135.835V140.37H313.268V136.054C313.268 134.934 312.78 134.373 311.806 134.373C311.615 134.373 311.428 134.401 311.246 134.455C311.07 134.498 310.904 134.572 310.754 134.674C310.609 134.773 310.487 134.904 310.399 135.056C310.315 135.221 310.273 135.404 310.276 135.589V140.37H308.787V130.262ZM246.962 160.861H245.445V151.326H249.011C249.922 151.326 250.614 151.581 251.087 152.091C251.57 152.601 251.811 153.302 251.811 154.195C251.811 154.923 251.633 155.524 251.278 155.998C250.923 156.471 250.414 156.763 249.748 156.872L251.948 160.861H250.254L248.232 157.009H246.962V160.861ZM248.792 155.779C249.74 155.779 250.213 155.347 250.213 154.481V153.894C250.213 153.029 249.74 152.596 248.792 152.596H246.962V155.779H248.792ZM256.464 161.025C255.969 161.032 255.478 160.944 255.016 160.765C254.605 160.604 254.236 160.352 253.937 160.028C253.638 159.695 253.41 159.304 253.268 158.88C253.107 158.386 253.028 157.869 253.036 157.35C253.036 156.785 253.113 156.276 253.268 155.82C253.432 155.364 253.655 154.978 253.937 154.659C254.227 154.333 254.586 154.076 254.989 153.908C255.399 153.735 255.854 153.648 256.355 153.648C256.847 153.648 257.293 153.735 257.694 153.908C258.084 154.064 258.434 154.307 258.718 154.618C259 154.927 259.215 155.296 259.36 155.725C259.515 156.153 259.592 156.626 259.592 157.145V157.705H254.538V157.937C254.538 158.493 254.711 158.948 255.057 159.304C255.404 159.65 255.882 159.823 256.492 159.823C256.947 159.823 257.334 159.727 257.653 159.536C257.981 159.336 258.245 159.071 258.445 158.743L259.374 159.563C259.137 159.973 258.773 160.319 258.281 160.601C257.798 160.883 257.193 161.025 256.464 161.025ZM256.355 154.782C256.103 154.78 255.852 154.826 255.617 154.919C255.399 155.009 255.208 155.142 255.044 155.315C254.884 155.485 254.759 155.685 254.675 155.902C254.582 156.142 254.535 156.397 254.538 156.653V156.749H258.076V156.612C258.076 156.057 257.917 155.615 257.598 155.287C257.289 154.951 256.874 154.782 256.355 154.782ZM261.212 153.812H262.701V155.014H262.783C262.993 154.586 263.271 154.254 263.616 154.017C263.963 153.771 264.395 153.648 264.914 153.648C265.744 153.648 266.403 153.957 266.895 154.577C267.387 155.197 267.633 156.116 267.633 157.336C267.633 158.557 267.387 159.476 266.895 160.096C266.403 160.715 265.744 161.025 264.914 161.025C264.395 161.025 263.963 160.907 263.616 160.67C263.258 160.408 262.971 160.061 262.783 159.659H262.701V163.593H261.212V153.812ZM264.299 159.809C264.864 159.809 265.297 159.636 265.597 159.29C265.907 158.943 266.062 158.484 266.062 157.91V156.763C266.062 156.189 265.907 155.729 265.597 155.383C265.297 155.037 264.864 154.864 264.299 154.864C264.081 154.864 263.876 154.891 263.685 154.946C263.493 155.001 263.326 155.082 263.179 155.192C263.033 155.302 262.912 155.441 262.824 155.602C262.742 155.757 262.701 155.943 262.701 156.162V158.511C262.701 158.73 262.742 158.921 262.824 159.085C262.916 159.24 263.034 159.372 263.179 159.481C263.326 159.59 263.493 159.672 263.685 159.727C263.876 159.782 264.081 159.809 264.299 159.809ZM272.149 161.025C271.668 161.032 271.19 160.943 270.742 160.765C270.342 160.599 269.983 160.347 269.69 160.028C269.397 159.688 269.174 159.293 269.035 158.866C268.874 158.373 268.795 157.856 268.802 157.336C268.802 156.771 268.88 156.262 269.035 155.806C269.174 155.38 269.397 154.985 269.69 154.645C269.983 154.326 270.342 154.074 270.742 153.908C271.19 153.729 271.668 153.641 272.149 153.648C272.668 153.648 273.133 153.735 273.543 153.908C273.961 154.08 274.312 154.326 274.594 154.645C274.886 154.964 275.109 155.351 275.264 155.806C275.419 156.262 275.496 156.771 275.496 157.336C275.496 157.901 275.419 158.411 275.264 158.866C275.124 159.296 274.896 159.691 274.594 160.028C274.305 160.351 273.945 160.604 273.543 160.765C273.133 160.938 272.668 161.025 272.149 161.025ZM272.149 159.85C272.696 159.85 273.128 159.686 273.447 159.358C273.775 159.022 273.939 158.525 273.939 157.869V156.804C273.939 156.148 273.775 155.656 273.447 155.328C273.128 154.992 272.696 154.823 272.149 154.823C271.603 154.823 271.166 154.992 270.838 155.328C270.519 155.656 270.36 156.148 270.36 156.804V157.869C270.36 158.525 270.519 159.022 270.838 159.358C271.166 159.686 271.603 159.85 272.149 159.85ZM280.08 161.025C279.315 161.025 278.655 160.902 278.099 160.656C277.553 160.41 277.112 160.082 276.774 159.672L277.689 158.853C278 159.189 278.345 159.449 278.728 159.631C279.12 159.804 279.579 159.891 280.107 159.891C280.59 159.891 280.978 159.809 281.268 159.645C281.41 159.575 281.527 159.465 281.607 159.329C281.687 159.194 281.726 159.038 281.719 158.88C281.723 158.752 281.695 158.625 281.637 158.511C281.583 158.41 281.503 158.326 281.405 158.265C281.295 158.197 281.175 158.147 281.05 158.115C280.916 158.077 280.779 158.05 280.64 158.033L279.52 157.856C279.238 157.817 278.96 157.758 278.687 157.678C278.417 157.601 278.159 157.486 277.922 157.336C277.702 157.18 277.516 156.98 277.375 156.749C277.239 156.512 277.17 156.211 277.17 155.847C277.17 155.128 277.444 154.582 277.99 154.208C278.546 153.835 279.274 153.648 280.176 153.648C280.831 153.648 281.396 153.749 281.87 153.949C282.353 154.14 282.754 154.408 283.072 154.755L282.238 155.629C282.057 155.419 281.797 155.228 281.46 155.055C281.123 154.873 280.677 154.782 280.121 154.782C279.129 154.782 278.632 155.096 278.632 155.725C278.632 156.025 278.737 156.235 278.946 156.353C279.165 156.462 279.42 156.535 279.711 156.571L280.831 156.749C281.114 156.795 281.391 156.853 281.665 156.927C281.948 157 282.197 157.113 282.416 157.268C282.644 157.414 282.826 157.605 282.962 157.842C283.109 158.079 283.181 158.379 283.181 158.743C283.181 159.454 282.904 160.014 282.348 160.424C281.801 160.825 281.046 161.025 280.08 161.025ZM288.422 152.528C288.039 152.528 287.771 152.451 287.616 152.296C287.47 152.141 287.392 151.935 287.397 151.722V151.435C287.397 151.208 287.47 151.017 287.616 150.861C287.771 150.706 288.034 150.629 288.408 150.629C288.79 150.629 289.055 150.706 289.2 150.861C289.276 150.936 289.336 151.026 289.376 151.124C289.416 151.223 289.435 151.329 289.432 151.435V151.722C289.435 151.828 289.416 151.934 289.376 152.033C289.336 152.132 289.276 152.221 289.2 152.296C289.055 152.451 288.795 152.528 288.422 152.528ZM285.266 159.659H287.67V155.014H285.266V153.812H289.159V159.659H291.413V160.861H285.266V159.659ZM296.326 160.861C295.706 160.861 295.251 160.697 294.96 160.369C294.668 160.032 294.523 159.599 294.523 159.071V155.014H292.351V153.812H293.894C294.158 153.812 294.345 153.762 294.455 153.662C294.564 153.553 294.618 153.361 294.618 153.088V151.326H296.012V153.812H299.017V155.014H296.012V159.659H299.017V160.861H296.326ZM303.82 161.025C303.338 161.032 302.86 160.943 302.413 160.765C302.012 160.599 301.653 160.347 301.361 160.028C301.067 159.688 300.844 159.293 300.705 158.866C300.544 158.373 300.466 157.856 300.473 157.336C300.473 156.771 300.55 156.262 300.705 155.806C300.844 155.38 301.067 154.985 301.361 154.645C301.653 154.326 302.012 154.074 302.413 153.908C302.86 153.729 303.338 153.641 303.82 153.648C304.339 153.648 304.803 153.735 305.213 153.908C305.632 154.08 305.983 154.326 306.265 154.645C306.557 154.964 306.779 155.351 306.934 155.806C307.089 156.262 307.166 156.771 307.166 157.336C307.166 157.901 307.089 158.411 306.934 158.866C306.794 159.296 306.566 159.691 306.265 160.028C305.976 160.351 305.616 160.604 305.213 160.765C304.803 160.938 304.339 161.025 303.82 161.025ZM303.82 159.85C304.366 159.85 304.798 159.686 305.117 159.358C305.445 159.022 305.609 158.525 305.609 157.869V156.804C305.609 156.148 305.445 155.656 305.117 155.328C304.798 154.992 304.366 154.823 303.82 154.823C303.273 154.823 302.836 154.992 302.508 155.328C302.189 155.656 302.03 156.148 302.03 156.804V157.869C302.03 158.525 302.189 159.022 302.508 159.358C302.836 159.686 303.273 159.85 303.82 159.85ZM308.678 159.659H310.549V155.014H308.678V153.812H312.038V155.684H312.12C312.184 155.437 312.275 155.199 312.393 154.973C312.512 154.746 312.662 154.55 312.844 154.386C313.026 154.213 313.249 154.076 313.514 153.976C313.777 153.867 314.087 153.812 314.443 153.812H315.289V155.233H313.896C313.35 155.233 312.903 155.397 312.557 155.725C312.211 156.044 312.038 156.476 312.038 157.022V159.659H314.593V160.861H308.678V159.659ZM321.718 153.812H323.22L319.805 162.227C319.623 162.682 319.382 163.024 319.081 163.251C318.789 163.479 318.366 163.593 317.811 163.593H316.622V162.391H318.289L318.931 160.765L316.09 153.812H317.647L318.767 156.763L319.641 159.181H319.723L320.597 156.763L321.718 153.812Z" fill="#A1A1A8"/>
<path d="M214.331 429.869H127.017C119.979 429.869 114.273 435.574 114.273 442.612V529.927C114.273 536.965 119.979 542.67 127.017 542.67H214.331C221.369 542.67 227.074 536.965 227.074 529.927V442.612C227.074 435.574 221.369 429.869 214.331 429.869Z" stroke="#3E3E41" stroke-width="0.70936" stroke-dasharray="3.28 3.28"/>
<path d="M327.675 315.871H240.36C233.322 315.871 227.617 321.576 227.617 328.614V415.929C227.617 422.967 233.322 428.672 240.36 428.672H327.675C334.713 428.672 340.418 422.967 340.418 415.929V328.614C340.418 321.576 334.713 315.871 327.675 315.871Z" stroke="#3E3E41" stroke-width="0.70936" stroke-dasharray="3.28 3.28"/>
<path d="M252.626 377.802C251.414 377.802 250.512 377.373 249.921 376.518C249.338 375.662 249.047 374.446 249.047 372.87C249.047 371.295 249.338 370.079 249.921 369.223C250.512 368.367 251.414 367.939 252.626 367.939C253.09 367.939 253.49 368.002 253.828 368.13C254.173 368.248 254.47 368.417 254.716 368.636C254.962 368.845 255.167 369.095 255.331 369.387C255.503 369.669 255.645 369.974 255.754 370.302L254.374 370.767C254.305 370.557 254.223 370.352 254.129 370.152C254.043 369.97 253.928 369.804 253.787 369.66C253.646 369.52 253.479 369.409 253.295 369.332C253.079 369.244 252.846 369.202 252.612 369.209C251.938 369.209 251.446 369.469 251.137 369.988C250.827 370.498 250.672 371.19 250.672 372.064V373.676C250.672 374.551 250.827 375.247 251.137 375.766C251.446 376.277 251.938 376.531 252.612 376.531C252.885 376.531 253.113 376.49 253.295 376.408C253.486 376.326 253.65 376.217 253.787 376.081C253.924 375.944 254.037 375.78 254.129 375.589C254.219 375.398 254.301 375.193 254.374 374.974L255.754 375.439C255.646 375.762 255.504 376.074 255.331 376.367C255.167 376.649 254.96 376.903 254.716 377.119C254.452 377.338 254.151 377.509 253.828 377.624C253.49 377.742 253.09 377.802 252.626 377.802ZM260.27 377.802C259.788 377.809 259.31 377.72 258.863 377.542C258.462 377.376 258.103 377.124 257.811 376.805C257.517 376.465 257.294 376.07 257.155 375.643C256.994 375.15 256.916 374.633 256.923 374.113C256.923 373.549 257 373.039 257.155 372.584C257.294 372.157 257.517 371.762 257.811 371.422C258.103 371.103 258.462 370.851 258.863 370.685C259.31 370.506 259.788 370.418 260.27 370.425C260.789 370.425 261.253 370.512 261.663 370.685C262.082 370.857 262.433 371.103 262.715 371.422C263.007 371.741 263.229 372.128 263.384 372.584C263.539 373.039 263.617 373.549 263.617 374.113C263.617 374.678 263.539 375.188 263.384 375.643C263.245 376.073 263.017 376.468 262.715 376.805C262.426 377.128 262.066 377.381 261.663 377.542C261.253 377.715 260.789 377.802 260.27 377.802ZM260.27 376.627C260.816 376.627 261.248 376.463 261.568 376.135C261.895 375.799 262.059 375.302 262.059 374.646V373.581C262.059 372.925 261.895 372.433 261.568 372.105C261.248 371.769 260.816 371.6 260.27 371.6C259.723 371.6 259.286 371.769 258.958 372.105C258.639 372.433 258.48 372.925 258.48 373.581V374.646C258.48 375.302 258.639 375.799 258.958 376.135C259.286 376.463 259.723 376.627 260.27 376.627ZM264.691 377.638V370.589H265.961V371.504H266.03C266.139 371.204 266.293 370.949 266.494 370.739C266.703 370.53 266.999 370.425 267.382 370.425C267.755 370.425 268.042 370.53 268.243 370.739C268.451 370.939 268.584 371.217 268.639 371.573H268.693C268.82 371.254 268.998 370.985 269.226 370.767C269.453 370.539 269.781 370.425 270.21 370.425C270.756 370.425 271.134 370.616 271.343 370.999C271.562 371.381 271.671 371.941 271.671 372.679V377.638H270.401V372.87C270.401 372.379 270.341 372.042 270.223 371.86C270.104 371.668 269.913 371.573 269.65 371.573C269.538 371.57 269.427 371.591 269.324 371.633C269.22 371.676 269.127 371.739 269.048 371.819C268.893 371.974 268.816 372.21 268.816 372.529V377.638H267.546V372.87C267.546 372.379 267.486 372.042 267.368 371.86C267.259 371.668 267.072 371.573 266.808 371.573C266.694 371.57 266.581 371.59 266.475 371.632C266.37 371.674 266.274 371.738 266.193 371.819C266.038 371.974 265.961 372.21 265.961 372.529V377.638H264.691ZM272.608 377.638V370.589H273.878V371.504H273.947C274.056 371.204 274.211 370.949 274.411 370.739C274.621 370.53 274.917 370.425 275.299 370.425C275.673 370.425 275.96 370.53 276.16 370.739C276.369 370.939 276.501 371.217 276.556 371.573H276.61C276.738 371.254 276.916 370.985 277.143 370.767C277.372 370.539 277.699 370.425 278.127 370.425C278.673 370.425 279.052 370.616 279.261 370.999C279.479 371.381 279.588 371.941 279.588 372.679V377.638H278.318V372.87C278.318 372.379 278.259 372.042 278.14 371.86C278.022 371.668 277.831 371.573 277.567 371.573C277.455 371.57 277.344 371.591 277.241 371.633C277.137 371.676 277.044 371.739 276.966 371.819C276.811 371.974 276.733 372.21 276.733 372.529V377.638H275.463V372.87C275.463 372.379 275.404 372.042 275.285 371.86C275.176 371.668 274.99 371.573 274.725 371.573C274.612 371.57 274.498 371.59 274.393 371.632C274.287 371.674 274.191 371.738 274.111 371.819C273.956 371.974 273.878 372.21 273.878 372.529V377.638H272.608ZM285.485 376.436H285.416C285.341 376.623 285.244 376.802 285.13 376.968C285.017 377.135 284.879 377.283 284.72 377.406C284.544 377.53 284.351 377.626 284.146 377.692C283.899 377.77 283.64 377.807 283.381 377.802C282.671 377.802 282.097 377.57 281.66 377.105C281.223 376.641 281.004 375.98 281.004 375.124V370.589H282.493V374.906C282.493 376.026 282.98 376.586 283.955 376.586C284.146 376.586 284.332 376.564 284.515 376.518C284.69 376.466 284.856 376.388 285.007 376.285C285.152 376.185 285.266 376.062 285.348 375.917C285.439 375.761 285.485 375.58 285.485 375.37V370.589H286.974V377.638H285.485V376.436ZM288.99 377.638V370.589H290.479V371.791H290.547C290.62 371.609 290.711 371.436 290.82 371.272C290.939 371.099 291.08 370.953 291.244 370.835C291.407 370.707 291.599 370.608 291.817 370.534C292.036 370.461 292.292 370.425 292.582 370.425C293.293 370.425 293.866 370.657 294.303 371.122C294.741 371.586 294.959 372.247 294.959 373.103V377.638H293.47V373.321C293.47 372.201 292.983 371.641 292.009 371.641C291.817 371.641 291.631 371.668 291.448 371.723C291.273 371.766 291.106 371.84 290.957 371.941C290.811 372.042 290.693 372.169 290.602 372.324C290.517 372.489 290.475 372.672 290.479 372.857V377.638H288.99ZM300.295 369.305C299.913 369.305 299.644 369.228 299.489 369.073C299.344 368.918 299.265 368.712 299.271 368.499V368.212C299.271 367.985 299.343 367.794 299.489 367.638C299.644 367.483 299.908 367.406 300.282 367.406C300.664 367.406 300.928 367.483 301.074 367.638C301.15 367.713 301.209 367.803 301.249 367.901C301.289 368 301.309 368.106 301.306 368.212V368.499C301.306 368.726 301.228 368.918 301.074 369.073C300.928 369.228 300.668 369.305 300.295 369.305ZM297.14 376.436H299.544V371.791H297.14V370.589H301.033V376.436H303.287V377.638H297.14V376.436ZM308.199 377.638C307.58 377.638 307.125 377.474 306.833 377.146C306.542 376.809 306.396 376.376 306.396 375.848V371.791H304.224V370.589H305.767C306.032 370.589 306.218 370.539 306.327 370.439C306.437 370.33 306.491 370.138 306.491 369.865V368.103H307.885V370.589H310.89V371.791H307.885V376.436H310.89V377.638H308.199ZM317.756 370.589H319.259L315.844 379.004C315.661 379.46 315.42 379.801 315.12 380.028C314.828 380.256 314.405 380.37 313.849 380.37H312.661V379.168H314.327L314.97 377.542L312.128 370.589H313.685L314.806 373.54L315.68 375.958H315.762L316.636 373.54L317.756 370.589Z" fill="#A1A1A8"/>
<path d="M100.652 315.871H13.3369C6.29903 315.871 0.59375 321.576 0.59375 328.614V415.929C0.59375 422.967 6.29903 428.672 13.3369 428.672H100.652C107.689 428.672 113.395 422.967 113.395 415.929V328.614C113.395 321.576 107.689 315.871 100.652 315.871Z" stroke="#3E3E41" stroke-width="0.70936" stroke-dasharray="3.28 3.28"/>
<path d="M23.146 366.081H23.0503C22.9663 366.276 22.8658 366.463 22.7498 366.641C22.6361 366.819 22.4929 366.976 22.3263 367.105C22.1624 367.242 21.9624 367.351 21.7253 367.433C21.4608 367.519 21.1838 367.561 20.9057 367.556C19.9124 367.556 19.1659 367.133 18.6654 366.286C18.1639 365.439 17.9141 364.242 17.9141 362.693C17.9141 361.072 18.2009 359.833 18.7747 358.977C19.3484 358.122 20.2275 357.693 21.4111 357.693C21.8755 357.693 22.2805 357.757 22.6269 357.885C22.982 358.012 23.2826 358.185 23.5284 358.404C23.7743 358.613 23.9792 358.863 24.1432 359.155C24.3071 359.437 24.4388 359.738 24.5393 360.057L23.1596 360.521C23.0904 360.32 23.0083 360.124 22.9137 359.934C22.8269 359.748 22.7116 359.578 22.5722 359.428C22.4407 359.28 22.2772 359.163 22.0941 359.087C21.8822 358.999 21.654 358.957 21.4248 358.964C20.7603 358.964 20.2773 359.223 19.9768 359.742C19.685 360.253 19.5396 360.945 19.5396 361.819V363.335C19.5396 363.772 19.5718 364.173 19.6353 364.537C19.6987 364.901 19.8031 365.215 19.9494 365.48C20.1046 365.734 20.3007 365.935 20.5368 366.081C20.7827 366.226 21.0784 366.299 21.4248 366.299C21.9809 366.299 22.4034 366.135 22.6952 365.808C22.9957 365.471 23.146 365.043 23.146 364.524V363.663H21.3018V362.515H24.5393V367.392H23.146V366.081ZM29.2872 367.556C28.8057 367.563 28.3276 367.475 27.8802 367.297C27.4799 367.13 27.1209 366.879 26.8284 366.559C26.5343 366.22 26.3114 365.825 26.1727 365.398C26.0119 364.904 25.9334 364.387 25.9405 363.868C25.9405 363.303 26.0185 362.794 26.1727 362.338C26.3116 361.911 26.5346 361.516 26.8284 361.177C27.1209 360.857 27.4799 360.605 27.8802 360.439C28.2998 360.266 28.7681 360.18 29.2872 360.18C29.8063 360.18 30.2708 360.266 30.6806 360.439C31.1002 360.612 31.4504 360.858 31.7324 361.177C32.0242 361.496 32.2476 361.882 32.4018 362.338C32.5569 362.794 32.634 363.303 32.634 363.868C32.634 364.433 32.5569 364.942 32.4018 365.398C32.2619 365.827 32.034 366.223 31.7324 366.559C31.4436 366.883 31.0836 367.135 30.6806 367.297C30.2708 367.469 29.8063 367.556 29.2872 367.556ZM29.2872 366.381C29.8337 366.381 30.2669 366.217 30.585 365.89C30.9128 365.553 31.0767 365.056 31.0767 364.401V363.335C31.0767 362.679 30.9128 362.188 30.585 361.86C30.2669 361.523 29.8337 361.354 29.2872 361.354C28.7408 361.354 28.3037 361.523 27.9759 361.86C27.6578 362.188 27.4977 362.679 27.4977 363.335V364.401C27.4977 365.056 27.6578 365.553 27.9759 365.89C28.3037 366.217 28.7408 366.381 29.2872 366.381ZM36.2901 367.392L33.7629 360.343H35.3066L36.2764 363.321L37.1917 366.149H37.2736L38.1889 363.321L39.1588 360.343H40.6477L38.1206 367.392H36.2901ZM45.2727 367.556C44.7778 367.564 44.2862 367.475 43.8247 367.297C43.4138 367.136 43.0448 366.883 42.7456 366.559C42.4462 366.226 42.2184 365.836 42.0762 365.411C41.9154 364.918 41.837 364.401 41.844 363.881C41.844 363.317 41.922 362.807 42.0762 362.352C42.2401 361.896 42.4636 361.509 42.7456 361.19C43.035 360.864 43.3946 360.607 43.7974 360.439C44.2072 360.266 44.6629 360.18 45.1634 360.18C45.6552 360.18 46.1021 360.266 46.5021 360.439C46.8927 360.596 47.2429 360.839 47.5267 361.149C47.8096 361.459 48.0243 361.828 48.1687 362.256C48.3248 362.684 48.4009 363.157 48.4009 363.677V364.237H43.3466V364.469C43.3466 365.024 43.5203 365.48 43.8657 365.835C44.2121 366.181 44.6902 366.354 45.3 366.354C45.7557 366.354 46.1431 366.258 46.4612 366.067C46.7852 365.871 47.0571 365.599 47.2535 365.275L48.1824 366.094C47.9462 366.504 47.5813 366.851 47.0895 367.133C46.6075 367.415 46.0016 367.556 45.2727 367.556ZM45.1634 361.313C44.9 361.313 44.6541 361.359 44.4258 361.45C44.2072 361.541 44.016 361.673 43.852 361.846C43.6931 362.017 43.5679 362.216 43.4832 362.433C43.3901 362.673 43.3437 362.928 43.3466 363.185V363.28H46.8846V363.144C46.8846 362.589 46.7256 362.147 46.4065 361.819C46.0972 361.482 45.6825 361.313 45.1634 361.313ZM49.9806 366.19H51.8521V361.546H49.9806V360.343H53.3411V362.215H53.423C53.4865 361.969 53.5782 361.732 53.6962 361.505C53.8143 361.277 53.9646 361.081 54.147 360.917C54.3295 360.744 54.552 360.608 54.8164 360.507C55.0798 360.398 55.3901 360.343 55.7453 360.343H56.5922V361.764H55.1989C54.6525 361.764 54.2066 361.928 53.8602 362.256C53.5138 362.575 53.3411 363.007 53.3411 363.554V366.19H55.8956V367.392H49.9806V366.19ZM58.008 367.392V360.343H59.496V361.546H59.5643C59.6375 361.363 59.7292 361.19 59.8375 361.026C59.9566 360.854 60.0971 360.707 60.261 360.589C60.4259 360.462 60.6162 360.362 60.8347 360.289C61.0533 360.216 61.3089 360.18 61.6007 360.18C62.31 360.18 62.8848 360.412 63.3219 360.876C63.759 361.341 63.9766 362.001 63.9766 362.857V367.392H62.4886V363.076C62.4886 361.955 62.0007 361.395 61.027 361.395C60.8369 361.395 60.6479 361.423 60.4659 361.477C60.2902 361.52 60.1236 361.594 59.9741 361.696C59.8289 361.795 59.7076 361.926 59.619 362.078C59.5347 362.243 59.4925 362.426 59.496 362.611V367.392H58.008ZM71.4985 367.392C71.0702 367.392 70.7472 367.283 70.5287 367.064C70.3189 366.846 70.192 366.559 70.1462 366.204H70.0779C69.954 366.615 69.6876 366.968 69.3266 367.201C68.9714 367.438 68.5167 367.556 67.9605 367.556C67.2414 367.556 66.6677 367.37 66.2393 366.996C65.811 366.614 65.5973 366.09 65.5973 365.425C65.5973 364.742 65.8481 364.223 66.3486 363.868C66.8589 363.504 67.6366 363.321 68.6845 363.321H70.0369V362.775C70.0369 361.819 69.5315 361.341 68.5206 361.341C68.0649 361.341 67.6961 361.431 67.4141 361.614C67.1312 361.787 66.895 362.019 66.7038 362.311L65.8159 361.587C66.0159 361.204 66.3525 360.876 66.8267 360.603C67.3 360.321 67.9098 360.18 68.6572 360.18C69.55 360.18 70.2506 360.393 70.7609 360.822C71.2712 361.25 71.5259 361.869 71.5259 362.679V366.217H72.4138V367.392H71.4985ZM68.384 366.463C68.867 366.463 69.2622 366.354 69.5724 366.135C69.8818 365.917 70.0369 365.635 70.0369 365.288V364.264H68.7118C67.6376 364.264 67.0999 364.587 67.0999 365.234V365.507C67.0999 365.826 67.2141 366.067 67.4414 366.231C67.6688 366.386 67.983 366.463 68.384 366.463ZM73.8432 367.392V360.343H75.3322V361.546H75.4005C75.4732 361.363 75.5648 361.189 75.6737 361.026C75.788 360.857 75.9314 360.709 76.0972 360.589C76.2611 360.462 76.4524 360.362 76.6709 360.289C76.8895 360.216 77.1442 360.18 77.4359 360.18C78.1462 360.18 78.72 360.412 79.1571 360.876C79.5942 361.341 79.8128 362.001 79.8128 362.857V367.392H78.3238V363.076C78.3238 361.955 77.836 361.395 76.8622 361.395C76.6709 361.395 76.4836 361.423 76.3021 361.477C76.1264 361.52 75.9598 361.594 75.8103 361.696C75.6649 361.795 75.5435 361.926 75.4552 362.078C75.3709 362.243 75.3287 362.426 75.3322 362.611V367.392H73.8432ZM84.9705 367.556C84.4845 367.564 84.0018 367.476 83.5499 367.297C83.1496 367.13 82.7905 366.879 82.498 366.559C82.204 366.22 81.9811 365.825 81.8423 365.398C81.6907 364.902 81.617 364.386 81.6238 363.868C81.6238 363.303 81.6969 362.794 81.8423 362.338C81.9813 361.911 82.2042 361.516 82.498 361.177C82.7905 360.857 83.1496 360.605 83.5499 360.439C83.9694 360.266 84.4378 360.18 84.9569 360.18C85.6857 360.18 86.2683 360.335 86.7054 360.644C87.1513 360.953 87.484 361.354 87.7026 361.846L86.5415 362.474C86.4263 362.163 86.222 361.892 85.9541 361.696C85.6994 361.505 85.3667 361.409 84.9569 361.409C84.3919 361.409 83.9548 361.582 83.6455 361.928C83.3362 362.265 83.181 362.715 83.181 363.28V364.455C83.181 365.01 83.3362 365.461 83.6455 365.808C83.9548 366.154 84.4017 366.327 84.9842 366.327C85.4213 366.327 85.7765 366.226 86.0497 366.026C86.3404 365.816 86.5712 365.533 86.719 365.207L87.8119 365.876C87.5834 366.368 87.2244 366.789 86.7737 367.092C86.3092 367.401 85.7082 367.556 84.9705 367.556ZM92.7793 367.556C92.2845 367.564 91.7928 367.476 91.3314 367.297C90.9204 367.136 90.5514 366.883 90.2522 366.559C89.9529 366.226 89.725 365.836 89.5828 365.411C89.4221 364.918 89.3436 364.401 89.3506 363.881C89.3506 363.317 89.4277 362.807 89.5828 362.352C89.7296 361.925 89.9568 361.531 90.2522 361.19C90.5416 360.864 90.9012 360.607 91.304 360.439C91.7138 360.266 92.1685 360.18 92.6701 360.18C93.1618 360.18 93.6077 360.266 94.0088 360.439C94.4088 360.603 94.7503 360.84 95.0333 361.149C95.3153 361.459 95.529 361.828 95.6753 362.256C95.8295 362.684 95.9076 363.157 95.9076 363.677V364.237H90.8532V364.469C90.8532 365.024 91.026 365.48 91.3723 365.835C91.7178 366.181 92.1959 366.354 92.8067 366.354C93.2614 366.354 93.6487 366.258 93.9678 366.067C94.2919 365.871 94.5637 365.599 94.7601 365.275L95.689 366.094C95.4519 366.504 95.0879 366.851 94.5962 367.133C94.1132 367.415 93.5072 367.556 92.7793 367.556ZM92.6701 361.313C92.4177 361.311 92.1673 361.358 91.9324 361.45C91.7138 361.541 91.5226 361.673 91.3587 361.846C91.1997 362.017 91.0746 362.216 90.9898 362.433C90.8981 362.661 90.8532 362.912 90.8532 363.185V363.28H94.3913V363.144C94.3913 362.589 94.2312 362.147 93.9132 361.819C93.6029 361.482 93.1892 361.313 92.6701 361.313ZM22.4054 387.883V378.348H28.5388V379.632H23.9353V382.405H28.1154V383.689H23.9353V387.883H22.4054ZM30.1869 386.68H32.0583V382.036H30.1869V380.834H33.5473V382.705H33.6293C33.6927 382.459 33.7844 382.22 33.9025 381.995C34.0162 381.774 34.1689 381.575 34.3533 381.408C34.5347 381.235 34.7582 381.098 35.0226 380.998C35.2861 380.889 35.5963 380.834 35.9515 380.834H36.7985V382.255H35.4051C34.8587 382.255 34.4118 382.419 34.0664 382.746C33.72 383.065 33.5473 383.498 33.5473 384.044V386.68H36.1018V387.883H30.1869V386.68ZM43.7867 387.883C43.3593 387.883 43.0354 387.773 42.8168 387.555C42.607 387.336 42.4802 387.049 42.4343 386.694H42.366C42.2422 387.105 41.9758 387.459 41.6147 387.691C41.2595 387.928 40.8048 388.047 40.2487 388.047C39.5295 388.047 38.9558 387.86 38.5275 387.486C38.1001 387.104 37.8854 386.58 37.8854 385.916C37.8854 385.233 38.1362 384.713 38.6367 384.358C39.147 383.994 39.9247 383.812 40.9727 383.812H42.325V383.265C42.325 382.309 41.8196 381.831 40.8087 381.831C40.3531 381.831 39.9842 381.922 39.7022 382.104C39.4163 382.28 39.1736 382.519 38.9919 382.801L38.104 382.077C38.305 381.694 38.6406 381.367 39.1149 381.093C39.5881 380.811 40.1979 380.67 40.9453 380.67C41.8381 380.67 42.5387 380.884 43.049 381.312C43.5593 381.74 43.814 382.359 43.814 383.17V386.708H44.7019V387.883H43.7867ZM40.6721 386.954C41.1551 386.954 41.5503 386.844 41.8606 386.626C42.1699 386.407 42.325 386.125 42.325 385.779V384.754H41C39.9257 384.754 39.3881 385.077 39.3881 385.724V385.998C39.3881 386.317 39.5022 386.558 39.7296 386.722C39.9569 386.877 40.2721 386.954 40.6721 386.954ZM45.585 387.883V380.834H46.8554V381.749H46.9237C47.0329 381.449 47.1871 381.194 47.3881 380.984C47.5969 380.774 47.8935 380.67 48.276 380.67C48.6488 380.67 48.9356 380.774 49.1366 380.984C49.3454 381.184 49.4781 381.462 49.5328 381.817H49.5874C49.7049 381.514 49.8867 381.239 50.1202 381.011C50.3475 380.784 50.6754 380.67 51.1037 380.67C51.6501 380.67 52.0277 380.861 52.2375 381.244C52.4561 381.626 52.5654 382.186 52.5654 382.924V387.883H51.295V383.115C51.295 382.623 51.2354 382.287 51.1174 382.104C50.9983 381.913 50.8071 381.817 50.5436 381.817C50.432 381.815 50.321 381.836 50.2177 381.878C50.1143 381.92 50.0207 381.983 49.9426 382.063C49.7875 382.218 49.7104 382.455 49.7104 382.774V387.883H48.44V383.115C48.44 382.623 48.3804 382.287 48.2624 382.104C48.1531 381.913 47.9657 381.817 47.7023 381.817C47.5885 381.814 47.4752 381.835 47.3695 381.877C47.2638 381.919 47.1679 381.983 47.0876 382.063C46.9324 382.218 46.8554 382.455 46.8554 382.774V387.883H45.585ZM57.1494 388.047C56.6545 388.054 56.1628 387.966 55.7014 387.787C55.2905 387.626 54.9215 387.374 54.6222 387.049C54.3229 386.717 54.0951 386.326 53.9529 385.902C53.7921 385.408 53.7136 384.891 53.7206 384.372C53.7206 383.807 53.7987 383.298 53.9529 382.842C54.1168 382.386 54.3402 382 54.6222 381.681C54.9117 381.354 55.2713 381.097 55.6741 380.93C56.0839 380.757 56.5395 380.67 57.0401 380.67C57.5319 380.67 57.9788 380.757 58.3788 380.93C58.7789 381.093 59.1204 381.331 59.4033 381.64C59.6863 381.949 59.9 382.318 60.0454 382.746C60.2005 383.175 60.2776 383.648 60.2776 384.167V384.727H55.2233V384.959C55.2233 385.515 55.397 385.97 55.7424 386.325C56.0888 386.672 56.5669 386.844 57.1767 386.844C57.6324 386.844 58.0197 386.749 58.3378 386.558C58.6619 386.361 58.9337 386.089 59.1301 385.765L60.059 386.585C59.8229 386.995 59.458 387.341 58.9662 387.623C58.4842 387.905 57.8783 388.047 57.1494 388.047ZM57.0401 381.804C56.7766 381.804 56.5308 381.85 56.3024 381.94C56.0839 382.031 55.8926 382.164 55.7287 382.337C55.5698 382.507 55.4446 382.707 55.3599 382.924C55.2668 383.163 55.2204 383.418 55.2233 383.675V383.771H58.7613V383.634C58.7613 383.079 58.6022 382.637 58.2832 382.309C57.9739 381.973 57.5592 381.804 57.0401 381.804ZM61.0923 380.834H62.3627L63.0457 386.762H63.1687L64.2205 380.834H65.6685L66.7067 386.762H66.8297L67.5263 380.834H68.7421L67.7586 387.883H65.9281L64.9855 382.419H64.8626L63.9063 387.883H62.0759L61.0923 380.834ZM72.8343 388.047C72.3528 388.053 71.8747 387.965 71.4273 387.787C71.027 387.621 70.668 387.369 70.3755 387.049C70.0815 386.71 69.8585 386.315 69.7198 385.888C69.559 385.394 69.4805 384.878 69.4876 384.358C69.4876 383.793 69.5656 383.284 69.7198 382.828C69.8587 382.401 70.0817 382.007 70.3755 381.667C70.668 381.347 71.027 381.096 71.4273 380.93C71.8469 380.757 72.3152 380.67 72.8343 380.67C73.3534 380.67 73.8179 380.757 74.2277 380.93C74.6472 381.102 74.9975 381.348 75.2795 381.667C75.5713 381.986 75.7947 382.373 75.9489 382.828C76.104 383.284 76.1811 383.793 76.1811 384.358C76.1811 384.923 76.104 385.433 75.9489 385.888C75.8091 386.318 75.5811 386.713 75.2795 387.049C74.9907 387.373 74.6307 387.626 74.2277 387.787C73.8179 387.96 73.3534 388.047 72.8343 388.047ZM72.8343 386.872C73.3807 386.872 73.814 386.708 74.1321 386.38C74.4599 386.043 74.6238 385.547 74.6238 384.891V383.826C74.6238 383.17 74.4599 382.678 74.1321 382.35C73.814 382.014 73.3807 381.845 72.8343 381.845C72.2879 381.845 71.8508 382.014 71.5229 382.35C71.2049 382.678 71.0448 383.17 71.0448 383.826V384.891C71.0448 385.547 71.2049 386.043 71.5229 386.38C71.8508 386.708 72.2879 386.872 72.8343 386.872ZM77.6925 386.68H79.564V382.036H77.6925V380.834H81.053V382.705H81.1349C81.1983 382.459 81.2901 382.222 81.4081 381.995C81.5218 381.774 81.6745 381.575 81.8589 381.408C82.0404 381.235 82.2638 381.098 82.5283 380.998C82.7917 380.889 83.102 380.834 83.4572 380.834H84.3041V382.255H82.9108C82.3643 382.255 81.9184 382.419 81.572 382.746C81.2257 383.065 81.053 383.498 81.053 384.044V386.68H83.6074V387.883H77.6925V386.68ZM85.7736 377.774H87.2625V383.88H87.3308L88.4373 382.746L90.4181 380.834H92.1802L89.3252 383.607L92.4944 387.883H90.7049L88.2461 384.454L87.2625 385.369V387.883H85.7745V377.774H85.7736Z" fill="#A1A1A8"/>
</g>
<defs>
<clipPath id="clip0_2902_53945">
<rect width="341.508" height="517.14" fill="white" transform="translate(0.242188 0.189453)"/>
</clipPath>
</defs>
</svg>
