<svg width="39" height="38" viewBox="0 0 39 38" fill="none" xmlns="http://www.w3.org/2000/svg">
<path d="M0 9.993L0 28.007C0 33.526 4.47402 38 9.993 38H29.007C34.526 38 39 33.526 39 28.007V9.993C39 4.47402 34.526 0 29.007 0H9.993C4.47402 0 0 4.47402 0 9.993Z" fill="#0A0A0A"/>
<path d="M8.39824 19.5517C8.52885 19.4733 8.63635 19.3617 8.70981 19.2284C8.78328 19.095 8.82011 18.9446 8.81655 18.7924V18.6844C8.81655 13.7282 11.9912 9.51852 16.4065 8.00147C16.5774 7.94472 16.7264 7.83621 16.8327 7.69102C16.939 7.54583 16.9974 7.37117 16.9998 7.19131V2.80218C17.0025 2.68309 16.9779 2.56496 16.9281 2.45675C16.8782 2.34854 16.8044 2.25308 16.7121 2.17761C16.6198 2.10214 16.5116 2.04864 16.3955 2.02116C16.2795 1.99369 16.1587 1.99296 16.0423 2.01903C8.56048 3.8252 3 10.6003 3 18.6828C3 19.5883 3.06998 20.4779 3.20359 21.3468C3.22411 21.4726 3.27525 21.5914 3.35251 21.6929C3.42977 21.7943 3.53079 21.8752 3.64669 21.9286C3.7626 21.9819 3.88984 22.006 4.01725 21.9987C4.14465 21.9915 4.26832 21.9531 4.3774 21.8869L8.39665 19.5517H8.39824Z" fill="url(#paint0_linear_2989_23743)"/>
<path d="M5.40331 27.1884C5.30949 27.2412 5.22748 27.3122 5.16224 27.3973C5.097 27.4823 5.04988 27.5796 5.02374 27.6832C4.99761 27.7868 4.99299 27.8946 5.01018 28C5.02737 28.1054 5.066 28.2063 5.12374 28.2965C8.15767 32.9349 13.4075 36 19.3768 36C24.857 36 29.7303 33.4159 32.8405 29.4031C32.9085 29.3135 32.9564 29.2106 32.981 29.1013C33.0056 28.992 33.0063 28.8787 32.9832 28.7691C32.96 28.6594 32.9135 28.5559 32.8467 28.4655C32.7799 28.3751 32.6944 28.2998 32.5959 28.2446L28.9345 26.1384C28.7595 26.0411 28.5556 26.0077 28.3582 26.0439C28.1608 26.0801 27.9825 26.1836 27.8544 26.3365C26.8089 27.5508 25.5094 28.526 24.0457 29.1947C22.582 29.8634 20.989 30.2096 19.3768 30.2094C17.5592 30.2088 15.7692 29.7689 14.1625 28.9279C12.5558 28.0869 11.1809 26.8703 10.1575 25.3839C10.0379 25.2042 9.85407 25.0759 9.64288 25.0246C9.4317 24.9733 9.20872 25.0028 9.0186 25.1073L5.40331 27.1884Z" fill="url(#paint1_linear_2989_23743)"/>
<path d="M37 19.236C37 20.6685 36.8319 22.062 36.5132 23.3971C36.4833 23.518 36.4258 23.63 36.3454 23.7243C36.265 23.8185 36.1639 23.8924 36.0502 23.9399C35.9365 23.9873 35.8134 24.0072 35.6908 23.9977C35.5682 23.9882 35.4495 23.9498 35.3442 23.8854L31.4657 21.6013C31.319 21.5114 31.2016 21.3798 31.1282 21.2229C31.0547 21.066 31.0284 20.8907 31.0525 20.7188C31.1134 20.2321 31.1454 19.7389 31.1454 19.236C31.1454 13.8615 27.5407 9.34521 22.6646 8.07175C22.477 8.02481 22.3101 7.91626 22.1898 7.76306C22.0696 7.60986 22.0029 7.42063 22 7.22494V2.82378C22 2.31764 22.4356 1.92344 22.924 2.01266C30.9276 3.4889 37 10.6381 37 19.236Z" fill="url(#paint2_linear_2989_23743)"/>
<path d="M19.5 23C21.9853 23 24 20.9853 24 18.5C24 16.0147 21.9853 14 19.5 14C17.0147 14 15 16.0147 15 18.5C15 20.9853 17.0147 23 19.5 23Z" fill="url(#paint3_linear_2989_23743)"/>
<defs>
<linearGradient id="paint0_linear_2989_23743" x1="20.0282" y1="1.80775" x2="20.0282" y2="35.82" gradientUnits="userSpaceOnUse">
<stop stop-color="white"/>
<stop offset="1" stop-color="#CACACA"/>
</linearGradient>
<linearGradient id="paint1_linear_2989_23743" x1="19.3768" y1="2.34577" x2="19.3768" y2="36" gradientUnits="userSpaceOnUse">
<stop stop-color="white"/>
<stop offset="1" stop-color="#CACACA"/>
</linearGradient>
<linearGradient id="paint2_linear_2989_23743" x1="19.8574" y1="2.0013" x2="19.8574" y2="36.7352" gradientUnits="userSpaceOnUse">
<stop stop-color="white"/>
<stop offset="1" stop-color="#CACACA"/>
</linearGradient>
<linearGradient id="paint3_linear_2989_23743" x1="19.5" y1="13.9984" x2="19.5" y2="23" gradientUnits="userSpaceOnUse">
<stop stop-color="white"/>
<stop offset="1" stop-color="#CACACA"/>
</linearGradient>
</defs>
</svg>
