<svg xmlns="http://www.w3.org/2000/svg" width="146" height="40" fill="none"><path fill="#D2D2D4" d="M124.022 14.745c.106 0 .212 0 .272-.107.015-.045.031-.09.031-.136a.244.244 0 0 0-.121-.213c-.076-.03-.151-.03-.318-.03h-.075v.47h.211v.016zm-.136-.744c.227 0 .333 0 .423.045a.46.46 0 0 1 .333.456c0 .015 0 .076-.015.136a.44.44 0 0 1-.212.289c-.03.015-.03.015-.075.03l.377.698h-.362l-.333-.637h-.211v.637h-.333v-1.654h.408zm.136 2.337a1.47 1.47 0 0 0 1.466-1.472 1.458 1.458 0 1 0-2.916 0c0 .804.65 1.472 1.45 1.472zm-1.148-1.472c0-.637.514-1.169 1.148-1.169.65 0 1.164.532 1.164 1.169 0 .622-.529 1.154-1.164 1.154a1.17 1.17 0 0 1-1.148-1.154zm-10.183 9.365a4.208 4.208 0 0 1-4.049-3.082h10.697l1.48-2.306h-12.192c.483-1.776 2.13-3.097 4.049-3.097h7.373l1.465-2.307h-9.004c-3.611 0-6.527 2.93-6.527 6.542 0 3.612 2.916 6.541 6.527 6.541h7.735l1.466-2.307h-9.035l.015.016zm-30.656 2.307c-3.596 0-6.511-2.93-6.511-6.542 0-3.612 2.915-6.542 6.511-6.542h9.005l-1.48 2.307h-7.374c-2.326 0-4.215 1.898-4.215 4.235 0 2.337 1.889 4.235 4.215 4.235h9.035l-1.48 2.307h-7.736.03zM34.443 24.23a4.24 4.24 0 0 0 4.23-4.235 4.23 4.23 0 0 0-4.23-4.235h-7.237c-2.327 0-4.215 1.898-4.215 4.235 0 2.337 1.888 4.235 4.215 4.235h7.237zm-7.403 2.307c-3.611 0-6.527-2.93-6.527-6.542 0-3.612 2.916-6.542 6.527-6.542h7.57c3.595 0 6.511 2.93 6.511 6.542 0 3.612-2.916 6.542-6.512 6.542h-7.57zm26.38-4.235c2.447 0 4.411-1.988 4.411-4.432 0-2.443-1.964-4.432-4.412-4.432H42.451v13.099h2.508V15.746h8.294c1.148 0 2.1.957 2.1 2.125a2.11 2.11 0 0 1-2.1 2.11h-7.07l7.463 6.557h3.641l-5.03-4.235h1.162zm41.458 1.928V13.454h-2.493v11.839c0 .334.12.637.362.88.242.228.575.38.922.38h11.437l1.481-2.307H94.893l-.015-.015zm-30.671-2.307H70.9l-3.535-5.722-6.497 10.35h-2.946l7.887-12.415c.347-.5.921-.804 1.556-.804a1.88 1.88 0 0 1 1.526.774l7.917 12.446h-2.962l-1.39-2.307h-6.768l-1.481-2.307v-.015z"/></svg>