<svg xmlns="http://www.w3.org/2000/svg" width="146" height="40" fill="none"><rect width="33.307" height="33.307" x="23.038" y="36.653" fill="#000" fill-opacity=".2" rx="9.993" transform="rotate(-90 23.038 36.653)"/><path fill="url(#a)" d="M32.379 20.464a.543.543 0 0 0 .263-.477v-.07c0-3.12 1.997-5.77 4.772-6.724a.545.545 0 0 0 .374-.51V9.92a.494.494 0 0 0-.603-.493c-4.704 1.137-8.2 5.402-8.2 10.49 0 .57.044 1.13.129 1.677a.49.49 0 0 0 .737.34l2.528-1.47z"/><path fill="url(#b)" d="M30.895 25.1a.502.502 0 0 0-.177.704c1.91 2.951 5.216 4.902 8.973 4.902 3.45 0 6.519-1.645 8.477-4.198a.501.501 0 0 0-.154-.736l-2.306-1.342a.54.54 0 0 0-.68.127 7.01 7.01 0 0 1-5.337 2.464 7.026 7.026 0 0 1-5.803-3.07.543.543 0 0 0-.717-.176l-2.276 1.324z"/><path fill="url(#c)" d="M50.397 19.918c0 .884-.106 1.742-.305 2.565a.491.491 0 0 1-.73.301l-2.421-1.408a.546.546 0 0 1-.259-.544c.038-.3.058-.605.058-.914 0-3.313-2.25-6.096-5.295-6.882a.546.546 0 0 1-.416-.522V9.8c0-.312.272-.555.577-.5 4.999.91 8.79 5.317 8.79 10.617z"/><ellipse cx="39.573" cy="19.973" fill="url(#d)" rx="2.833" ry="2.854"/><path fill="#fff" d="m112.283 31.595-.232-2.61c.781-.115 1.454-.409 2.018-.88.572-.464 1.036-1.164 1.391-2.099l.197-.51-4.696-11.977h3.143l3.095 8.44 2.621-8.44h3.142l-4.302 12.313c-.672 1.925-1.53 3.32-2.574 4.186-1.036.873-2.303 1.399-3.803 1.577z"/><path fill="#fff" d="M105.922 21.878V8.405h3.154v13.427c0 .68.159 1.175.475 1.484.325.301.909.452 1.751.452h.394l-.243 2.342h-1.322c-1.383 0-2.431-.313-3.142-.939-.711-.634-1.067-1.731-1.067-3.293zm-12.923-8.36h3.153v1.102a6.39 6.39 0 0 1 1.589-.997c.58-.255 1.322-.383 2.226-.383.935 0 1.693.174 2.272.522.58.34 1.005.796 1.276 1.368.27.572.406 1.21.406 1.913v8.928h-3.154v-8.754c0-.44-.116-.777-.348-1.008a1.732 1.732 0 0 0-.846-.476 4.011 4.011 0 0 0-.997-.128c-.38 0-.754.07-1.125.21-.371.138-.68.343-.928.614-.247.27-.37.61-.37 1.02v8.522h-3.154V13.518zM80.91 22.076v-4.859c0-1.267.478-2.245 1.437-2.933.966-.688 2.257-1.032 3.873-1.032 1.916 0 3.277.367 4.08 1.101.813.735 1.218 1.728 1.218 2.98v3.015h-7.455v2.029c0 .734.19 1.198.568 1.391.379.186.943.279 1.693.279.897 0 1.496-.124 1.797-.372.31-.255.464-.765.464-1.53h2.922c0 1.538-.433 2.605-1.299 3.2-.866.595-2.18.893-3.942.893-1.013 0-1.925-.124-2.736-.371-.812-.255-1.454-.684-1.925-1.287-.464-.603-.696-1.438-.696-2.504zm7.628-3.653v-1.46c0-.465-.1-.8-.301-1.01-.193-.216-.46-.351-.8-.405a6.259 6.259 0 0 0-1.136-.093c-.634 0-1.168.097-1.6.29-.425.185-.638.61-.638 1.275v1.403h4.475zm-16.622 7.849c-1.523 0-2.779-.146-3.768-.44-.982-.302-1.751-.72-2.308-1.252a4.416 4.416 0 0 1-1.159-1.879 7.83 7.83 0 0 1-.336-2.342v-5.716c0-.866.108-1.666.324-2.4a4.564 4.564 0 0 1 1.16-1.936c.556-.55 1.326-.974 2.307-1.276.99-.309 2.25-.464 3.78-.464 1.484 0 2.686.143 3.606.43.927.285 1.635.687 2.122 1.205.494.518.83 1.125 1.008 1.82.186.696.279 1.454.279 2.273v.267l-3.386.255v-.684c0-1.152-.282-1.917-.846-2.296-.564-.379-1.492-.568-2.783-.568-1.275 0-2.28.2-3.015.603-.734.402-1.101 1.19-1.101 2.365v6.47c0 .78.162 1.38.487 1.797.332.41.804.692 1.414.846.619.147 1.357.22 2.215.22.874 0 1.6-.073 2.18-.22.58-.154 1.012-.436 1.298-.846.294-.417.441-1.016.441-1.797v-1.252H72.38v-2.261h6.562v8.777h-1.82L76.577 24a3.287 3.287 0 0 1-.29.58c-.147.247-.386.502-.719.765-.332.255-.792.471-1.38.65-.587.185-1.344.277-2.272.277z"/><defs><linearGradient id="a" x1="39.691" x2="39.691" y1="9.294" y2="30.706" gradientUnits="userSpaceOnUse"><stop stop-color="#fff"/><stop offset="1" stop-color="#CACACA"/></linearGradient><linearGradient id="b" x1="39.691" x2="39.691" y1="9.294" y2="30.706" gradientUnits="userSpaceOnUse"><stop stop-color="#fff"/><stop offset="1" stop-color="#CACACA"/></linearGradient><linearGradient id="c" x1="39.691" x2="39.691" y1="9.294" y2="30.706" gradientUnits="userSpaceOnUse"><stop stop-color="#fff"/><stop offset="1" stop-color="#CACACA"/></linearGradient><linearGradient id="d" x1="39.573" x2="39.573" y1="17.118" y2="22.827" gradientUnits="userSpaceOnUse"><stop stop-color="#fff"/><stop offset="1" stop-color="#CACACA"/></linearGradient></defs></svg>