<svg xmlns="http://www.w3.org/2000/svg" width="146" height="41" fill="none"><path fill="#fff" d="M21.116 9.288v13.22l6.272 9.211h7.262l-3.804-9.21h8.572V9.288H21.116zM54.89 23.414h-2.785v5.027H48.57V12.579h6.322c3.18 0 5.56 2.37 5.56 5.428s-2.38 5.407-5.56 5.407zm-.155-7.484h-2.63v4.155h2.63c1.268 0 2.18-.915 2.18-2.078 0-1.162-.912-2.077-2.18-2.077zm6.383 6.925a5.896 5.896 0 0 1 .964-3.277 5.857 5.857 0 0 1 2.615-2.185 5.826 5.826 0 0 1 6.391 1.244 5.901 5.901 0 0 1 1.289 6.41 5.87 5.87 0 0 1-2.154 2.645 5.83 5.83 0 0 1-3.255.994 5.782 5.782 0 0 1-4.133-1.692 5.833 5.833 0 0 1-1.717-4.139zm8.317 0c0-1.586-1.067-2.68-2.468-2.68-1.402 0-2.469 1.094-2.469 2.68 0 1.587 1.067 2.682 2.469 2.682 1.401 0 2.468-1.095 2.468-2.682zm4.783 0c0-3.172 2.245-5.83 5.16-5.83 1.488 0 2.704.76 3.15 1.363v-6.215h3.357v16.268H82.53v-1.443c-.482.85-1.665 1.688-3.15 1.688-2.914 0-5.16-2.658-5.16-5.83zm8.45 0c0-1.608-1.022-2.77-2.534-2.77-1.513 0-2.535 1.162-2.535 2.77 0 1.609 1.022 2.771 2.535 2.771 1.512 0 2.535-1.162 2.535-2.77zm5.977-5.585h3.358v11.17h-3.358V17.27zm5.982 6.367V17.27h3.36v5.787c0 1.631.469 2.568 1.713 2.568 1.269 0 2.091-.871 2.091-2.927V17.27h3.358v11.17h-3.358v-1.464c-.494 1.009-1.512 1.71-2.958 1.71-2.757 0-4.203-2.01-4.203-5.049m13.278-6.367h3.358v1.465c.427-.88 1.53-1.716 2.843-1.716 1.601 0 3.111.82 3.597 2.32.485-1.442 1.707-2.32 3.254-2.32 2.712 0 4.225 1.951 4.225 5.054v6.368h-3.358v-5.786c0-1.631-.468-2.57-1.601-2.57-1.178 0-2.003.894-2.003 2.928v5.428h-3.358v-5.786c0-1.631-.466-2.57-1.601-2.57-1.178 0-2.001.894-2.001 2.928v5.428h-3.358l.003-11.171zM88.62 12.174h3.382v3.066h-3.38l-.002-3.066z"/></svg>