<svg xmlns="http://www.w3.org/2000/svg" width="146" height="40" fill="none"><path fill="#D2D2D4" fill-rule="evenodd" d="M59.364 30.363c-2.667 0-4.11-1.363-4.11-3.908v-7.462h-.93a1.686 1.686 0 0 1-1.18-.505 1.632 1.632 0 0 1-.47-1.18 1.651 1.651 0 0 1 1.65-1.6h.93v-2.223a1.92 1.92 0 0 1 1.919-1.755c1.005 0 1.844.762 1.918 1.755v2.222h1.497a1.665 1.665 0 0 1 1.608 1.643 1.663 1.663 0 0 1-1.608 1.643H59.09v6.453c0 1.127.722 1.567 1.32 1.567h.332c1.08 0 1.683.709 1.683 1.632 0 .924-.572 1.718-3.062 1.718z" clip-rule="evenodd"/><path fill="#D2D2D4" d="M71.36 30.363c-4.766 0-7.647-3.436-7.647-7.521 0-4.053 2.886-7.489 7.648-7.489 4.798 0 7.679 3.436 7.679 7.489a7.329 7.329 0 0 1-2.19 5.46 7.24 7.24 0 0 1-5.489 2.061zm0-11.665c-2.372 0-3.687 1.921-3.687 4.144 0 2.222 1.32 4.182 3.688 4.182 2.367 0 3.719-1.922 3.719-4.182 0-2.223-1.352-4.144-3.72-4.144zm21.141 11.488h-.299c-.3 0-1.651-.236-1.651-1.659-.989 1.154-2.694 1.836-4.585 1.836-2.309 0-5.04-1.54-5.04-4.74 0-3.345 2.731-4.617 5.04-4.617 1.923 0 3.628.623 4.585 1.745v-1.928c0-1.45-1.261-2.4-3.18-2.4a5.753 5.753 0 0 0-3.238.919 1.454 1.454 0 0 1-.69.21A1.457 1.457 0 0 1 82 18.101c.005-.261.076-.517.209-.741.898-1.423 4.136-2.013 5.814-2.013 3.297 0 6.327 1.304 6.327 5.416v7.554a1.86 1.86 0 0 1-1.86 1.862l.011.006zm-1.95-5.39c-.63-.827-1.828-1.245-3.057-1.245-1.502 0-2.73.762-2.73 2.163 0 1.331 1.228 2.104 2.73 2.104 1.23 0 2.426-.413 3.057-1.245v-1.777z"/><path fill="#D2D2D4" fill-rule="evenodd" d="M103.36 30.363c-1.886 0-4.916-.623-5.814-1.9a1.277 1.277 0 0 1-.267-.8c.011-.417.183-.813.479-1.106a1.6 1.6 0 0 1 1.108-.462c.278 0 .545.075.78.22 1.139.65 2.64 1.154 3.896 1.154 1.651 0 2.432-.65 2.432-1.54 0-2.368-8.61-.446-8.61-6.072 0-2.4 2.133-4.498 5.938-4.498 1.886 0 4.467.595 5.279 1.744.156.212.24.467.241.73a1.481 1.481 0 0 1-1.496 1.423 1.55 1.55 0 0 1-.722-.177 6.71 6.71 0 0 0-3.276-.86c-1.378 0-2.276.624-2.276 1.423 0 2.132 8.577.355 8.577 6.126 0 2.609-2.25 4.59-6.269 4.59v.005zm13.943 0c-2.667 0-4.11-1.363-4.11-3.908v-7.462h-.93a1.688 1.688 0 0 1-1.181-.505 1.639 1.639 0 0 1-.47-1.18 1.652 1.652 0 0 1 1.651-1.6h.93v-2.223c.044-.48.266-.927.621-1.252a1.919 1.919 0 0 1 1.298-.504c1.004 0 1.843.763 1.918 1.756v2.222h1.502a1.665 1.665 0 0 1 1.608 1.643 1.663 1.663 0 0 1-1.608 1.643h-1.502v6.453c0 1.127.722 1.567 1.32 1.567h.332c1.079 0 1.678.709 1.678 1.632 0 .924-.567 1.718-3.063 1.718h.006z" clip-rule="evenodd"/><path fill="#D2D2D4" d="M50.231 24.48a41.27 41.27 0 0 0-.208-4.741c-.118-1.063-.476-2.427-1.625-2.706a.799.799 0 0 0 .449-.016c1.33-.698 1.23-2.42.759-3.666-.62-1.632-2.09-2.792-3.549-3.56a18.047 18.047 0 0 0-17.298.618c-1.32.816-2.838 2.41-2.17 4.187.181.442.449.844.786 1.181l.502.526c-.678.924-1.175 1.761-1.496 2.883-.962 3.382-.802 5.556-.54 8.273.166 1.68.716 4.182 2.645 4.46 1.572.22 3.276-.3 4.848-.488 1.73-.204 3.478-.526 5.231-.478 2.47.065 4.917.65 7.39.677 1.305.01 3.474.14 3.865-1.59.368-1.642.384-3.349.384-5.024.022-.177.022-.36.022-.531l.005-.006zm-2.822 2.84c-.614 1.39-2.35 1.234-3.564 1.132l-5.424-.65c-1.614-.048-3.212.258-4.783.607-1.176.258-2.816.94-3.88.032-1.18-1.004-1.39-2.716-1.405-4.16a23.95 23.95 0 0 1 .385-3.887c.144-.795.38-1.568.689-2.308.422-1.074 1.047-1.724 1.08-1.691-.316-.328-.695-.505-.909-.95-.807-1.692 1.208-3.125 2.309-3.614 3.853-1.728 9.24-1.556 12.878.66 1.134.693 3.335 3.071 1.278 4.258 1.266.601 1.592 2.416 1.731 3.704.222 2.07.158 4.16-.192 6.211a2.696 2.696 0 0 1-.198.655h.005z"/></svg>